<svg width="414" height="896" viewBox="0 0 414 896" fill="none" xmlns="http://www.w3.org/2000/svg">
<g clip-path="url(#clip0_8_327)">
<rect width="414" height="896" fill="#5A7FCC"/>
<rect width="415" height="44" transform="translate(-1)" fill="white"/>
<path d="M35.942 28.23C36.582 28.23 37.092 28.065 37.472 27.735C37.862 27.405 38.057 26.95 38.057 26.37C37.947 26.46 37.742 26.565 37.442 26.685C37.152 26.805 36.777 26.865 36.317 26.865C35.857 26.865 35.437 26.8 35.057 26.67C34.687 26.54 34.367 26.35 34.097 26.1C33.827 25.84 33.617 25.525 33.467 25.155C33.317 24.785 33.242 24.355 33.242 23.865C33.242 23.435 33.317 23.03 33.467 22.65C33.617 22.26 33.842 21.92 34.142 21.63C34.442 21.33 34.812 21.095 35.252 20.925C35.702 20.745 36.222 20.655 36.812 20.655C37.992 20.655 38.917 21.05 39.587 21.84C40.267 22.63 40.607 23.755 40.607 25.215C40.607 26.045 40.502 26.775 40.292 27.405C40.082 28.035 39.787 28.56 39.407 28.98C39.037 29.4 38.592 29.715 38.072 29.925C37.552 30.135 36.977 30.24 36.347 30.24C35.547 30.24 34.922 30.13 34.472 29.91C34.022 29.69 33.797 29.355 33.797 28.905C33.797 28.695 33.842 28.495 33.932 28.305C34.032 28.105 34.147 27.955 34.277 27.855C34.547 27.975 34.827 28.07 35.117 28.14C35.417 28.2 35.692 28.23 35.942 28.23ZM36.902 24.945C37.092 24.945 37.282 24.905 37.472 24.825C37.672 24.745 37.837 24.635 37.967 24.495V24.315C37.957 23.745 37.857 23.33 37.667 23.07C37.477 22.81 37.197 22.68 36.827 22.68C36.497 22.68 36.237 22.785 36.047 22.995C35.867 23.195 35.777 23.47 35.777 23.82C35.777 24.16 35.882 24.435 36.092 24.645C36.302 24.845 36.572 24.945 36.902 24.945ZM41.4413 24.075C41.4413 23.655 41.5713 23.305 41.8313 23.025C42.0913 22.745 42.4463 22.605 42.8963 22.605C43.3463 22.605 43.7013 22.745 43.9613 23.025C44.2213 23.305 44.3513 23.655 44.3513 24.075C44.3513 24.495 44.2213 24.845 43.9613 25.125C43.7013 25.405 43.3463 25.545 42.8963 25.545C42.4463 25.545 42.0913 25.405 41.8313 25.125C41.5713 24.845 41.4413 24.495 41.4413 24.075ZM41.4413 28.785C41.4413 28.365 41.5713 28.015 41.8313 27.735C42.0913 27.455 42.4463 27.315 42.8963 27.315C43.3463 27.315 43.7013 27.455 43.9613 27.735C44.2213 28.015 44.3513 28.365 44.3513 28.785C44.3513 29.205 44.2213 29.555 43.9613 29.835C43.7013 30.115 43.3463 30.255 42.8963 30.255C42.4463 30.255 42.0913 30.115 41.8313 29.835C41.5713 29.555 41.4413 29.205 41.4413 28.785ZM48.9535 20.985C49.1435 20.925 49.3585 20.875 49.5985 20.835C49.8485 20.795 50.0735 20.775 50.2735 20.775C50.5035 20.775 50.7235 20.8 50.9335 20.85C51.1535 20.89 51.3485 20.965 51.5185 21.075C51.6885 21.175 51.8235 21.315 51.9235 21.495C52.0235 21.675 52.0735 21.9 52.0735 22.17V26.16H53.4085C53.4685 26.27 53.5285 26.415 53.5885 26.595C53.6485 26.775 53.6785 26.965 53.6785 27.165C53.6785 27.545 53.5935 27.815 53.4235 27.975C53.2535 28.135 53.0385 28.215 52.7785 28.215H52.0735V29.985C51.9635 30.005 51.7985 30.03 51.5785 30.06C51.3585 30.1 51.1485 30.12 50.9485 30.12C50.7285 30.12 50.5335 30.11 50.3635 30.09C50.1935 30.07 50.0485 30.025 49.9285 29.955C49.8185 29.875 49.7335 29.765 49.6735 29.625C49.6135 29.485 49.5835 29.295 49.5835 29.055V28.215H45.8185C45.5885 28.095 45.3885 27.92 45.2185 27.69C45.0585 27.45 44.9785 27.16 44.9785 26.82C44.9785 26.63 45.0035 26.42 45.0535 26.19C45.1035 25.96 45.1885 25.76 45.3085 25.59L48.9535 20.985ZM49.7185 23.34H49.6735L47.6785 26.16H49.7185V23.34ZM55.6272 23.31L54.1272 23.775C53.9772 23.675 53.8272 23.535 53.6772 23.355C53.5272 23.175 53.4522 22.925 53.4522 22.605C53.4522 22.005 53.8172 21.585 54.5472 21.345L56.2272 20.775H56.7822C57.2122 20.775 57.5522 20.9 57.8022 21.15C58.0522 21.4 58.1772 21.74 58.1772 22.17V29.985C58.0672 30.005 57.9022 30.03 57.6822 30.06C57.4722 30.1 57.2572 30.12 57.0372 30.12C56.8172 30.12 56.6172 30.105 56.4372 30.075C56.2672 30.045 56.1222 29.985 56.0022 29.895C55.8822 29.805 55.7872 29.685 55.7172 29.535C55.6572 29.375 55.6272 29.17 55.6272 28.92V23.31Z" fill="#212121"/>
<path fill-rule="evenodd" clip-rule="evenodd" d="M378.589 17.16H393.411C394.659 17.16 395.111 17.29 395.568 17.534C396.024 17.778 396.382 18.1361 396.626 18.5924C396.87 19.0487 397 19.5013 397 20.7494V25.0706C397 26.3187 396.87 26.7713 396.626 27.2276C396.382 27.6839 396.024 28.042 395.568 28.286C395.111 28.53 394.659 28.66 393.411 28.66H378.589C377.341 28.66 376.889 28.53 376.432 28.286C375.976 28.042 375.618 27.6839 375.374 27.2276C375.13 26.7713 375 26.3187 375 25.0706V20.7494C375 19.5013 375.13 19.0487 375.374 18.5924C375.618 18.1361 375.976 17.778 376.432 17.534C376.889 17.29 377.341 17.16 378.589 17.16ZM378.589 18.16C377.602 18.16 377.258 18.2265 376.904 18.4158C376.622 18.5666 376.407 18.782 376.256 19.064C376.067 19.4179 376 19.7625 376 20.7494V25.0706C376 26.0575 376.067 26.4021 376.256 26.756C376.407 27.038 376.622 27.2534 376.904 27.4042C377.258 27.5935 377.602 27.66 378.589 27.66H393.411C394.398 27.66 394.742 27.5935 395.096 27.4042C395.378 27.2534 395.593 27.038 395.744 26.756C395.933 26.4021 396 26.0575 396 25.0706V20.7494C396 19.7625 395.933 19.4179 395.744 19.064C395.593 18.782 395.378 18.5666 395.096 18.4158C394.742 18.2265 394.398 18.16 393.411 18.16H378.589ZM399.5 22.85C399.5 24.0866 398 24.85 398 24.85V20.85C398 20.85 399.5 21.6134 399.5 22.85Z" fill="#212121"/>
<rect x="377" y="19.0767" width="18" height="7.66667" rx="1.6" fill="#212121"/>
<path fill-rule="evenodd" clip-rule="evenodd" d="M346.623 18.5659C346.6 18.6818 346.6 18.8212 346.6 19.1V26.8C346.6 27.0788 346.6 27.2182 346.623 27.3341C346.718 27.8101 347.09 28.1823 347.566 28.2769C347.682 28.3 347.821 28.3 348.1 28.3C348.379 28.3 348.518 28.3 348.634 28.2769C349.11 28.1823 349.482 27.8101 349.577 27.3341C349.6 27.2182 349.6 27.0788 349.6 26.8V19.1C349.6 18.8212 349.6 18.6818 349.577 18.5659C349.482 18.0899 349.11 17.7178 348.634 17.6231C348.518 17.6 348.379 17.6 348.1 17.6C347.821 17.6 347.682 17.6 347.566 17.6231C347.09 17.7178 346.718 18.0899 346.623 18.5659ZM341.9 21.5C341.9 21.2212 341.9 21.0818 341.923 20.9659C342.018 20.4899 342.39 20.1178 342.866 20.0231C342.982 20 343.121 20 343.4 20C343.679 20 343.818 20 343.934 20.0231C344.41 20.1178 344.782 20.4899 344.877 20.9659C344.9 21.0818 344.9 21.2212 344.9 21.5V26.8C344.9 27.0788 344.9 27.2182 344.877 27.3341C344.782 27.8101 344.41 28.1823 343.934 28.277C343.818 28.3 343.679 28.3 343.4 28.3C343.121 28.3 342.982 28.3 342.866 28.277C342.39 28.1823 342.018 27.8101 341.923 27.3341C341.9 27.2182 341.9 27.0788 341.9 26.8V21.5ZM337.323 23.2659C337.3 23.3818 337.3 23.5212 337.3 23.8V26.8C337.3 27.0788 337.3 27.2182 337.323 27.3341C337.418 27.8101 337.79 28.1823 338.266 28.277C338.382 28.3 338.521 28.3 338.8 28.3C339.079 28.3 339.218 28.3 339.334 28.277C339.81 28.1823 340.182 27.8101 340.277 27.3341C340.3 27.2182 340.3 27.0788 340.3 26.8V23.8C340.3 23.5212 340.3 23.3818 340.277 23.2659C340.182 22.7899 339.81 22.4178 339.334 22.3231C339.218 22.3 339.079 22.3 338.8 22.3C338.521 22.3 338.382 22.3 338.266 22.3231C337.79 22.4178 337.418 22.7899 337.323 23.2659ZM332.523 25.2659C332.5 25.3818 332.5 25.5212 332.5 25.8V26.8C332.5 27.0788 332.5 27.2182 332.523 27.3341C332.618 27.8101 332.99 28.1823 333.466 28.277C333.582 28.3 333.721 28.3 334 28.3C334.279 28.3 334.418 28.3 334.534 28.277C335.01 28.1823 335.382 27.8101 335.477 27.3341C335.5 27.2182 335.5 27.0788 335.5 26.8V25.8C335.5 25.5212 335.5 25.3818 335.477 25.2659C335.382 24.7899 335.01 24.4178 334.534 24.3231C334.418 24.3 334.279 24.3 334 24.3C333.721 24.3 333.582 24.3 333.466 24.3231C332.99 24.4178 332.618 24.7899 332.523 25.2659Z" fill="#212121"/>
<path fill-rule="evenodd" clip-rule="evenodd" d="M362.3 19.6964C364.535 19.6965 366.684 20.555 368.303 22.0946C368.425 22.2134 368.62 22.2119 368.74 22.0912L369.906 20.9148C369.967 20.8536 370 20.7706 370 20.6843C369.999 20.598 369.965 20.5155 369.903 20.455C365.653 16.3817 358.947 16.3817 354.697 20.455C354.635 20.5154 354.601 20.598 354.6 20.6843C354.599 20.7705 354.633 20.8535 354.694 20.9148L355.86 22.0912C355.98 22.2121 356.175 22.2136 356.297 22.0946C357.917 20.5549 360.066 19.6963 362.3 19.6964ZM362.3 23.5237C363.528 23.5237 364.712 23.98 365.622 24.804C365.745 24.921 365.939 24.9184 366.059 24.7983L367.223 23.6219C367.285 23.5602 367.319 23.4765 367.318 23.3895C367.317 23.3025 367.281 23.2195 367.218 23.1591C364.447 20.5813 360.156 20.5813 357.385 23.1591C357.322 23.2195 357.286 23.3025 357.286 23.3896C357.285 23.4766 357.319 23.5603 357.38 23.6219L358.544 24.7983C358.664 24.9184 358.858 24.921 358.981 24.804C359.891 23.9805 361.074 23.5242 362.3 23.5237ZM364.538 26.3313C364.6 26.2702 364.635 26.1861 364.633 26.0989C364.631 26.0117 364.593 25.929 364.529 25.8705C363.242 24.7826 361.358 24.7826 360.072 25.8705C360.008 25.929 359.97 26.0116 359.968 26.0988C359.966 26.1861 360 26.2702 360.063 26.3313L362.077 28.3639C362.136 28.4236 362.216 28.4572 362.3 28.4572C362.384 28.4572 362.465 28.4236 362.524 28.3639L364.538 26.3313Z" fill="#212121"/>
<path d="M126.703 258.964C127.879 258.964 128.983 259.168 130.015 259.576C131.071 259.96 131.983 260.536 132.751 261.304C133.519 262.072 134.119 263.032 134.551 264.184C135.007 265.336 135.235 266.668 135.235 268.18C135.235 269.692 134.995 271.036 134.515 272.212C134.059 273.364 133.411 274.336 132.571 275.128C131.731 275.92 130.699 276.532 129.475 276.964C128.275 277.372 126.943 277.576 125.479 277.576C123.895 277.576 122.551 277.384 121.447 277C120.343 276.64 119.407 276.184 118.639 275.632C117.583 274.888 117.055 273.928 117.055 272.752V253.528C117.319 253.456 117.691 253.384 118.171 253.312C118.675 253.24 119.215 253.204 119.791 253.204C120.991 253.204 121.855 253.408 122.383 253.816C122.911 254.2 123.175 254.956 123.175 256.084V259.648C123.655 259.456 124.183 259.3 124.759 259.18C125.359 259.036 126.007 258.964 126.703 258.964ZM125.551 263.752C125.071 263.752 124.627 263.812 124.219 263.932C123.835 264.052 123.475 264.208 123.139 264.4V272.212C123.403 272.356 123.715 272.488 124.075 272.608C124.459 272.704 124.903 272.752 125.407 272.752C126.487 272.752 127.351 272.368 127.999 271.6C128.647 270.832 128.971 269.692 128.971 268.18C128.971 266.644 128.659 265.528 128.035 264.832C127.435 264.112 126.607 263.752 125.551 263.752ZM156.161 268.252C156.161 269.692 155.933 270.988 155.477 272.14C155.045 273.292 154.409 274.276 153.569 275.092C152.753 275.884 151.769 276.496 150.617 276.928C149.465 277.36 148.169 277.576 146.729 277.576C145.289 277.576 143.993 277.372 142.841 276.964C141.689 276.532 140.693 275.92 139.853 275.128C139.037 274.312 138.401 273.328 137.945 272.176C137.513 271.024 137.297 269.716 137.297 268.252C137.297 266.836 137.525 265.552 137.981 264.4C138.437 263.248 139.073 262.276 139.889 261.484C140.729 260.668 141.725 260.044 142.877 259.612C144.029 259.18 145.313 258.964 146.729 258.964C148.145 258.964 149.429 259.192 150.581 259.648C151.733 260.08 152.717 260.704 153.533 261.52C154.373 262.312 155.021 263.284 155.477 264.436C155.933 265.588 156.161 266.86 156.161 268.252ZM146.729 263.752C145.721 263.752 144.941 264.148 144.389 264.94C143.837 265.708 143.561 266.812 143.561 268.252C143.561 269.764 143.837 270.904 144.389 271.672C144.941 272.416 145.721 272.788 146.729 272.788C147.737 272.788 148.517 272.404 149.069 271.636C149.621 270.868 149.897 269.74 149.897 268.252C149.897 266.812 149.621 265.708 149.069 264.94C148.517 264.148 147.737 263.752 146.729 263.752ZM177.089 268.252C177.089 269.692 176.861 270.988 176.405 272.14C175.973 273.292 175.337 274.276 174.497 275.092C173.681 275.884 172.697 276.496 171.545 276.928C170.393 277.36 169.097 277.576 167.657 277.576C166.217 277.576 164.921 277.372 163.769 276.964C162.617 276.532 161.621 275.92 160.781 275.128C159.965 274.312 159.329 273.328 158.873 272.176C158.441 271.024 158.225 269.716 158.225 268.252C158.225 266.836 158.453 265.552 158.909 264.4C159.365 263.248 160.001 262.276 160.817 261.484C161.657 260.668 162.653 260.044 163.805 259.612C164.957 259.18 166.241 258.964 167.657 258.964C169.073 258.964 170.357 259.192 171.509 259.648C172.661 260.08 173.645 260.704 174.461 261.52C175.301 262.312 175.949 263.284 176.405 264.436C176.861 265.588 177.089 266.86 177.089 268.252ZM167.657 263.752C166.649 263.752 165.869 264.148 165.317 264.94C164.765 265.708 164.489 266.812 164.489 268.252C164.489 269.764 164.765 270.904 165.317 271.672C165.869 272.416 166.649 272.788 167.657 272.788C168.665 272.788 169.445 272.404 169.997 271.636C170.549 270.868 170.825 269.74 170.825 268.252C170.825 266.812 170.549 265.708 169.997 264.94C169.445 264.148 168.665 263.752 167.657 263.752ZM186.102 276.964C185.838 277.036 185.454 277.108 184.95 277.18C184.47 277.252 183.942 277.288 183.366 277.288C182.166 277.288 181.302 277.096 180.774 276.712C180.246 276.304 179.982 275.536 179.982 274.408V253.528C180.246 253.456 180.618 253.384 181.098 253.312C181.602 253.24 182.142 253.204 182.718 253.204C183.918 253.204 184.782 253.408 185.31 253.816C185.838 254.2 186.102 254.956 186.102 256.084V265.588L192.294 259.252C193.542 259.252 194.538 259.528 195.282 260.08C196.05 260.632 196.434 261.328 196.434 262.168C196.434 262.528 196.374 262.864 196.254 263.176C196.134 263.464 195.942 263.764 195.678 264.076C195.438 264.388 195.114 264.724 194.706 265.084C194.322 265.42 193.866 265.816 193.338 266.272L191.214 268.108L197.01 273.832C196.89 274.96 196.554 275.824 196.002 276.424C195.474 277.024 194.694 277.324 193.662 277.324C192.894 277.324 192.21 277.144 191.61 276.784C191.01 276.4 190.362 275.764 189.666 274.876L186.102 270.448V276.964ZM226.426 276.964C226.162 277.036 225.778 277.108 225.274 277.18C224.794 277.252 224.266 277.288 223.69 277.288C222.49 277.288 221.626 277.096 221.098 276.712C220.57 276.304 220.306 275.536 220.306 274.408V265.804C220.306 265.084 220.114 264.568 219.73 264.256C219.346 263.92 218.842 263.752 218.218 263.752C217.81 263.752 217.414 263.824 217.03 263.968C216.67 264.112 216.358 264.28 216.094 264.472C216.094 264.568 216.094 264.664 216.094 264.76C216.118 264.832 216.13 264.904 216.13 264.976V276.964C215.866 277.036 215.482 277.108 214.978 277.18C214.498 277.252 213.97 277.288 213.394 277.288C212.194 277.288 211.33 277.096 210.802 276.712C210.274 276.304 210.01 275.536 210.01 274.408V265.804C210.01 265.084 209.794 264.568 209.362 264.256C208.954 263.92 208.45 263.752 207.85 263.752C207.394 263.752 206.998 263.824 206.662 263.968C206.326 264.088 206.05 264.208 205.834 264.328V276.964C205.57 277.036 205.186 277.108 204.682 277.18C204.202 277.252 203.674 277.288 203.098 277.288C201.898 277.288 201.034 277.096 200.506 276.712C199.978 276.304 199.714 275.536 199.714 274.408V263.572C199.714 262.924 199.846 262.396 200.11 261.988C200.398 261.58 200.782 261.208 201.262 260.872C202.078 260.296 203.086 259.84 204.286 259.504C205.486 259.144 206.758 258.964 208.102 258.964C209.086 258.964 210.022 259.096 210.91 259.36C211.822 259.624 212.674 260.032 213.466 260.584C214.186 260.128 214.99 259.744 215.878 259.432C216.79 259.12 217.882 258.964 219.154 258.964C220.066 258.964 220.954 259.084 221.818 259.324C222.706 259.564 223.486 259.948 224.158 260.476C224.854 260.98 225.406 261.664 225.814 262.528C226.222 263.368 226.426 264.4 226.426 265.624V276.964ZM237.517 273.112C237.925 273.112 238.369 273.076 238.849 273.004C239.353 272.908 239.725 272.788 239.965 272.644V269.764L237.373 269.98C236.701 270.028 236.149 270.172 235.717 270.412C235.285 270.652 235.069 271.012 235.069 271.492C235.069 271.972 235.249 272.368 235.609 272.68C235.993 272.968 236.629 273.112 237.517 273.112ZM237.229 258.964C238.525 258.964 239.701 259.096 240.757 259.36C241.837 259.624 242.749 260.032 243.493 260.584C244.261 261.112 244.849 261.796 245.257 262.636C245.665 263.452 245.869 264.424 245.869 265.552V273.616C245.869 274.24 245.689 274.756 245.329 275.164C244.993 275.548 244.585 275.884 244.105 276.172C242.545 277.108 240.349 277.576 237.517 277.576C236.245 277.576 235.093 277.456 234.061 277.216C233.053 276.976 232.177 276.616 231.433 276.136C230.713 275.656 230.149 275.044 229.741 274.3C229.357 273.556 229.165 272.692 229.165 271.708C229.165 270.052 229.657 268.78 230.641 267.892C231.625 267.004 233.149 266.452 235.213 266.236L239.929 265.732V265.48C239.929 264.784 239.617 264.292 238.993 264.004C238.393 263.692 237.517 263.536 236.365 263.536C235.477 263.536 234.589 263.632 233.701 263.824C232.837 264.016 232.057 264.256 231.361 264.544C231.049 264.328 230.785 264.004 230.569 263.572C230.353 263.116 230.245 262.648 230.245 262.168C230.245 261.544 230.389 261.052 230.677 260.692C230.989 260.308 231.457 259.984 232.081 259.72C232.777 259.456 233.593 259.264 234.529 259.144C235.489 259.024 236.389 258.964 237.229 258.964ZM256.106 277.54C253.994 277.54 252.362 277.06 251.21 276.1C250.082 275.14 249.518 273.58 249.518 271.42V255.436C249.782 255.364 250.154 255.292 250.634 255.22C251.138 255.124 251.666 255.076 252.218 255.076C253.394 255.076 254.246 255.28 254.774 255.688C255.302 256.096 255.566 256.852 255.566 257.956V259.9H260.282C260.426 260.164 260.558 260.5 260.678 260.908C260.822 261.292 260.894 261.724 260.894 262.204C260.894 263.044 260.702 263.656 260.318 264.04C259.958 264.4 259.466 264.58 258.842 264.58H255.566V270.988C255.566 271.612 255.758 272.056 256.142 272.32C256.55 272.584 257.114 272.716 257.834 272.716C258.194 272.716 258.566 272.692 258.95 272.644C259.334 272.572 259.67 272.488 259.958 272.392C260.174 272.656 260.354 272.956 260.498 273.292C260.666 273.604 260.75 273.988 260.75 274.444C260.75 275.356 260.402 276.1 259.706 276.676C259.034 277.252 257.834 277.54 256.106 277.54ZM268.705 270.664C269.041 271.528 269.605 272.14 270.397 272.5C271.189 272.836 272.077 273.004 273.061 273.004C274.069 273.004 275.029 272.884 275.941 272.644C276.853 272.38 277.585 272.08 278.137 271.744C278.521 271.984 278.845 272.32 279.109 272.752C279.373 273.184 279.505 273.64 279.505 274.12C279.505 274.72 279.337 275.236 279.001 275.668C278.665 276.1 278.185 276.46 277.561 276.748C276.961 277.036 276.241 277.24 275.401 277.36C274.561 277.504 273.637 277.576 272.629 277.576C271.213 277.576 269.893 277.384 268.669 277C267.469 276.592 266.425 275.992 265.537 275.2C264.649 274.408 263.953 273.412 263.449 272.212C262.945 271.012 262.693 269.608 262.693 268C262.693 266.416 262.945 265.06 263.449 263.932C263.977 262.78 264.661 261.844 265.501 261.124C266.365 260.38 267.337 259.84 268.417 259.504C269.497 259.144 270.601 258.964 271.729 258.964C273.001 258.964 274.153 259.156 275.185 259.54C276.241 259.924 277.141 260.452 277.885 261.124C278.653 261.796 279.241 262.6 279.649 263.536C280.057 264.472 280.261 265.492 280.261 266.596C280.261 267.412 280.033 268.036 279.577 268.468C279.121 268.9 278.485 269.176 277.669 269.296L268.705 270.664ZM271.765 263.428C270.853 263.428 270.085 263.704 269.461 264.256C268.861 264.808 268.501 265.588 268.381 266.596L274.501 265.588C274.477 265.348 274.405 265.108 274.285 264.868C274.165 264.604 273.997 264.364 273.781 264.148C273.565 263.932 273.289 263.764 272.953 263.644C272.617 263.5 272.221 263.428 271.765 263.428ZM297.802 271.78C297.802 273.604 297.118 275.032 295.75 276.064C294.382 277.096 292.366 277.612 289.702 277.612C288.694 277.612 287.758 277.54 286.894 277.396C286.03 277.252 285.286 277.036 284.662 276.748C284.062 276.436 283.582 276.052 283.222 275.596C282.886 275.14 282.718 274.6 282.718 273.976C282.718 273.4 282.838 272.92 283.078 272.536C283.318 272.128 283.606 271.792 283.942 271.528C284.638 271.912 285.43 272.26 286.318 272.572C287.23 272.86 288.274 273.004 289.45 273.004C290.194 273.004 290.758 272.896 291.142 272.68C291.55 272.464 291.754 272.176 291.754 271.816C291.754 271.48 291.61 271.216 291.322 271.024C291.034 270.832 290.554 270.676 289.882 270.556L288.802 270.34C286.714 269.932 285.154 269.296 284.122 268.432C283.114 267.544 282.61 266.284 282.61 264.652C282.61 263.764 282.802 262.96 283.186 262.24C283.57 261.52 284.11 260.92 284.806 260.44C285.502 259.96 286.33 259.588 287.29 259.324C288.274 259.06 289.354 258.928 290.53 258.928C291.418 258.928 292.246 259 293.014 259.144C293.806 259.264 294.49 259.456 295.066 259.72C295.642 259.984 296.098 260.332 296.434 260.764C296.77 261.172 296.938 261.664 296.938 262.24C296.938 262.792 296.83 263.272 296.614 263.68C296.422 264.064 296.17 264.388 295.858 264.652C295.666 264.532 295.378 264.412 294.994 264.292C294.61 264.148 294.19 264.028 293.734 263.932C293.278 263.812 292.81 263.716 292.33 263.644C291.874 263.572 291.454 263.536 291.07 263.536C290.278 263.536 289.666 263.632 289.234 263.824C288.802 263.992 288.586 264.268 288.586 264.652C288.586 264.916 288.706 265.132 288.946 265.3C289.186 265.468 289.642 265.624 290.314 265.768L291.43 266.02C293.734 266.548 295.366 267.28 296.326 268.216C297.31 269.128 297.802 270.316 297.802 271.78Z" fill="white"/>
<path d="M179 195C179 195 183.05 190 192.5 190C201.95 190 206 195 206 195V230C206 230 201.95 227.5 192.5 227.5C183.05 227.5 179 230 179 230V195ZM206 195C206 195 210.05 190 219.5 190C228.95 190 233 195 233 195V230C233 230 228.95 227.5 219.5 227.5C210.05 227.5 206 230 206 230V195Z" stroke="white" stroke-width="2" stroke-linecap="round" stroke-linejoin="round"/>
<path d="M-1 457C-1 441.536 11.536 429 27 429H386C401.464 429 414 441.536 414 457V896H-1V457Z" fill="white"/>
<path d="M41 750C41 735.641 52.6406 724 67 724H343C357.359 724 369 735.641 369 750C369 764.359 357.359 776 343 776H67C52.6406 776 41 764.359 41 750Z" fill="#5A7FCC"/>
<path d="M188.045 750.144C187.576 749.984 187.149 749.824 186.765 749.664C186.381 749.493 186.05 749.291 185.773 749.056C185.496 748.821 185.277 748.544 185.117 748.224C184.968 747.893 184.893 747.493 184.893 747.024C184.893 746.117 185.24 745.392 185.933 744.848C186.637 744.304 187.618 744.032 188.877 744.032C189.336 744.032 189.762 744.064 190.157 744.128C190.552 744.192 190.888 744.293 191.165 744.432C191.453 744.56 191.677 744.731 191.837 744.944C191.997 745.147 192.077 745.387 192.077 745.664C192.077 745.941 192.013 746.181 191.885 746.384C191.757 746.576 191.602 746.741 191.421 746.88C191.186 746.731 190.872 746.603 190.477 746.496C190.082 746.379 189.65 746.32 189.181 746.32C188.701 746.32 188.349 746.389 188.125 746.528C187.901 746.656 187.789 746.821 187.789 747.024C187.789 747.184 187.858 747.317 187.997 747.424C188.136 747.52 188.344 747.611 188.621 747.696L189.469 747.968C190.472 748.288 191.24 748.699 191.773 749.2C192.317 749.691 192.589 750.363 192.589 751.216C192.589 752.123 192.232 752.859 191.517 753.424C190.802 753.979 189.752 754.256 188.365 754.256C187.874 754.256 187.416 754.213 186.989 754.128C186.573 754.053 186.205 753.941 185.885 753.792C185.576 753.632 185.33 753.44 185.149 753.216C184.978 752.981 184.893 752.715 184.893 752.416C184.893 752.107 184.984 751.845 185.165 751.632C185.346 751.408 185.544 751.237 185.757 751.12C186.056 751.355 186.418 751.557 186.845 751.728C187.282 751.899 187.757 751.984 188.269 751.984C188.792 751.984 189.16 751.904 189.373 751.744C189.586 751.584 189.693 751.397 189.693 751.184C189.693 750.971 189.608 750.811 189.437 750.704C189.266 750.587 189.026 750.475 188.717 750.368L188.045 750.144ZM194.706 745.792C194.706 745.333 194.839 744.971 195.106 744.704C195.372 744.437 195.735 744.304 196.194 744.304H201.474C201.548 744.421 201.612 744.576 201.666 744.768C201.73 744.96 201.762 745.163 201.762 745.376C201.762 745.781 201.671 746.069 201.49 746.24C201.319 746.411 201.09 746.496 200.802 746.496H197.426V747.984H201.026C201.1 748.101 201.164 748.256 201.218 748.448C201.282 748.629 201.314 748.827 201.314 749.04C201.314 749.445 201.228 749.733 201.058 749.904C200.887 750.075 200.658 750.16 200.37 750.16H197.426V751.84H201.538C201.612 751.957 201.676 752.112 201.73 752.304C201.794 752.496 201.826 752.699 201.826 752.912C201.826 753.317 201.735 753.611 201.554 753.792C201.383 753.963 201.154 754.048 200.866 754.048H196.194C195.735 754.048 195.372 753.915 195.106 753.648C194.839 753.381 194.706 753.019 194.706 752.56V745.792ZM212.855 753.664C212.706 753.813 212.487 753.925 212.199 754C211.922 754.085 211.586 754.128 211.191 754.128C210.797 754.128 210.423 754.069 210.071 753.952C209.719 753.835 209.431 753.552 209.207 753.104L207.623 749.872C207.463 749.541 207.319 749.232 207.191 748.944C207.063 748.645 206.925 748.304 206.775 747.92L206.679 747.936C206.722 748.512 206.743 749.099 206.743 749.696C206.754 750.293 206.759 750.88 206.759 751.456V753.936C206.642 753.968 206.461 754 206.215 754.032C205.981 754.064 205.746 754.08 205.511 754.08C205.277 754.08 205.069 754.064 204.887 754.032C204.706 754 204.557 753.936 204.439 753.84C204.322 753.744 204.231 753.616 204.167 753.456C204.103 753.285 204.071 753.067 204.071 752.8V744.8C204.221 744.587 204.45 744.427 204.759 744.32C205.069 744.213 205.399 744.16 205.751 744.16C206.146 744.16 206.519 744.224 206.871 744.352C207.234 744.469 207.522 744.747 207.735 745.184L209.335 748.416C209.495 748.747 209.639 749.061 209.767 749.36C209.895 749.648 210.034 749.984 210.183 750.368L210.263 750.352C210.221 749.776 210.194 749.2 210.183 748.624C210.173 748.048 210.167 747.472 210.167 746.896V744.304C210.285 744.272 210.461 744.24 210.695 744.208C210.941 744.176 211.181 744.16 211.415 744.16C211.885 744.16 212.242 744.245 212.487 744.416C212.733 744.576 212.855 744.917 212.855 745.44V753.664ZM218.315 751.92C218.432 751.941 218.576 751.963 218.747 751.984C218.917 751.995 219.077 752 219.227 752C219.589 752 219.92 751.947 220.219 751.84C220.528 751.733 220.789 751.568 221.003 751.344C221.227 751.12 221.397 750.832 221.515 750.48C221.643 750.117 221.707 749.685 221.707 749.184C221.707 748.224 221.483 747.504 221.035 747.024C220.587 746.533 219.989 746.288 219.243 746.288C219.093 746.288 218.939 746.293 218.779 746.304C218.629 746.315 218.475 746.331 218.315 746.352V751.92ZM219.211 754.256C219.029 754.256 218.821 754.251 218.587 754.24C218.352 754.229 218.107 754.208 217.851 754.176C217.605 754.144 217.355 754.101 217.099 754.048C216.853 754.005 216.624 753.941 216.411 753.856C215.824 753.632 215.531 753.243 215.531 752.688V745.216C215.531 744.992 215.589 744.821 215.707 744.704C215.835 744.576 216.005 744.475 216.219 744.4C216.677 744.251 217.163 744.155 217.675 744.112C218.187 744.059 218.645 744.032 219.051 744.032C219.883 744.032 220.635 744.133 221.307 744.336C221.989 744.539 222.571 744.853 223.051 745.28C223.541 745.696 223.92 746.224 224.187 746.864C224.453 747.504 224.587 748.261 224.587 749.136C224.587 749.989 224.459 750.736 224.203 751.376C223.947 752.005 223.579 752.539 223.099 752.976C222.629 753.403 222.064 753.723 221.403 753.936C220.741 754.149 220.011 754.256 219.211 754.256Z" fill="white"/>
<path d="M33 663C33 649.193 44.1929 638 58 638H352C365.807 638 377 649.193 377 663C377 676.807 365.807 688 352 688H58C44.1929 688 33 676.807 33 663Z" fill="#F3F5F7"/>
<path d="M34 528C34 521.373 39.3726 516 46 516H365C371.627 516 377 521.373 377 528V590C377 596.627 371.627 602 365 602H46C39.3726 602 34 596.627 34 590V528Z" fill="#5A7FCC" fill-opacity="0.1"/>
<path d="M75.5873 545.133L78.1273 536.203H79.3578L78.6459 539.675L75.9125 549H74.6908L75.5873 545.133ZM72.9594 536.203L74.9809 544.957L75.5873 549H74.3744L71.2719 536.203H72.9594ZM82.6449 544.948L84.6225 536.203H86.3188L83.225 549H82.0121L82.6449 544.948ZM79.5424 536.203L82.0121 545.133L82.9086 549H81.6869L79.0502 539.675L78.3295 536.203H79.5424ZM92.0186 549.176C91.3565 549.176 90.7559 549.064 90.2168 548.842C89.6836 548.613 89.2236 548.294 88.8369 547.884C88.4561 547.474 88.1631 546.987 87.958 546.425C87.7529 545.862 87.6504 545.247 87.6504 544.579V544.21C87.6504 543.437 87.7647 542.748 87.9932 542.145C88.2217 541.535 88.5322 541.02 88.9248 540.598C89.3174 540.176 89.7627 539.856 90.2607 539.64C90.7588 539.423 91.2744 539.314 91.8076 539.314C92.4873 539.314 93.0732 539.432 93.5654 539.666C94.0635 539.9 94.4707 540.229 94.7871 540.65C95.1035 541.066 95.3379 541.559 95.4902 542.127C95.6426 542.689 95.7188 543.305 95.7188 543.973V544.702H88.6172V543.375H94.0928V543.252C94.0693 542.83 93.9815 542.42 93.8291 542.021C93.6826 541.623 93.4482 541.295 93.126 541.037C92.8037 540.779 92.3643 540.65 91.8076 540.65C91.4385 540.65 91.0986 540.729 90.7881 540.888C90.4775 541.04 90.2109 541.269 89.9883 541.573C89.7656 541.878 89.5928 542.25 89.4697 542.689C89.3467 543.129 89.2852 543.636 89.2852 544.21V544.579C89.2852 545.03 89.3467 545.455 89.4697 545.854C89.5986 546.246 89.7832 546.592 90.0234 546.891C90.2695 547.189 90.5654 547.424 90.9111 547.594C91.2627 547.764 91.6611 547.849 92.1065 547.849C92.6807 547.849 93.167 547.731 93.5654 547.497C93.9639 547.263 94.3125 546.949 94.6113 546.557L95.5957 547.339C95.3906 547.649 95.1299 547.945 94.8135 548.227C94.4971 548.508 94.1074 548.736 93.6445 548.912C93.1875 549.088 92.6455 549.176 92.0186 549.176ZM105.29 547.312L107.734 539.49H108.806L108.595 541.046L106.108 549H105.062L105.29 547.312ZM103.647 539.49L105.73 547.4L105.879 549H104.78L102.021 539.49H103.647ZM111.144 547.339L113.13 539.49H114.747L111.988 549H110.898L111.144 547.339ZM109.043 539.49L111.434 547.181L111.706 549H110.669L108.112 541.028L107.901 539.49H109.043ZM118.584 539.49V549H116.949V539.49H118.584ZM116.826 536.968C116.826 536.704 116.905 536.481 117.063 536.3C117.227 536.118 117.468 536.027 117.784 536.027C118.095 536.027 118.332 536.118 118.496 536.3C118.666 536.481 118.751 536.704 118.751 536.968C118.751 537.22 118.666 537.437 118.496 537.618C118.332 537.794 118.095 537.882 117.784 537.882C117.468 537.882 117.227 537.794 117.063 537.618C116.905 537.437 116.826 537.22 116.826 536.968ZM123.361 535.5V549H121.726V535.5H123.361ZM128.138 535.5V549H126.503V535.5H128.138ZM141.55 546.478C141.55 546.243 141.497 546.026 141.392 545.827C141.292 545.622 141.084 545.438 140.768 545.273C140.457 545.104 139.988 544.957 139.362 544.834C138.834 544.723 138.357 544.591 137.929 544.438C137.507 544.286 137.147 544.102 136.848 543.885C136.555 543.668 136.329 543.413 136.171 543.12C136.013 542.827 135.934 542.484 135.934 542.092C135.934 541.717 136.016 541.362 136.18 541.028C136.35 540.694 136.587 540.398 136.892 540.141C137.202 539.883 137.574 539.681 138.008 539.534C138.442 539.388 138.925 539.314 139.458 539.314C140.22 539.314 140.87 539.449 141.409 539.719C141.948 539.988 142.362 540.349 142.649 540.8C142.936 541.245 143.079 541.74 143.079 542.285H141.453C141.453 542.021 141.374 541.767 141.216 541.521C141.064 541.269 140.838 541.061 140.539 540.896C140.246 540.732 139.886 540.65 139.458 540.65C139.007 540.65 138.641 540.721 138.36 540.861C138.084 540.996 137.882 541.169 137.753 541.38C137.63 541.591 137.569 541.813 137.569 542.048C137.569 542.224 137.598 542.382 137.656 542.522C137.721 542.657 137.832 542.783 137.99 542.9C138.149 543.012 138.371 543.117 138.658 543.217C138.946 543.316 139.312 543.416 139.757 543.516C140.536 543.691 141.178 543.902 141.682 544.148C142.186 544.395 142.561 544.696 142.807 545.054C143.053 545.411 143.176 545.845 143.176 546.354C143.176 546.771 143.088 547.151 142.912 547.497C142.742 547.843 142.493 548.142 142.165 548.394C141.843 548.64 141.456 548.833 141.005 548.974C140.56 549.108 140.059 549.176 139.502 549.176C138.664 549.176 137.955 549.026 137.375 548.728C136.795 548.429 136.356 548.042 136.057 547.567C135.758 547.093 135.609 546.592 135.609 546.064H137.243C137.267 546.51 137.396 546.864 137.63 547.128C137.864 547.386 138.152 547.57 138.491 547.682C138.831 547.787 139.168 547.84 139.502 547.84C139.947 547.84 140.32 547.781 140.618 547.664C140.923 547.547 141.154 547.386 141.313 547.181C141.471 546.976 141.55 546.741 141.55 546.478ZM149.658 549.176C148.996 549.176 148.395 549.064 147.856 548.842C147.323 548.613 146.863 548.294 146.476 547.884C146.096 547.474 145.803 546.987 145.597 546.425C145.392 545.862 145.29 545.247 145.29 544.579V544.21C145.29 543.437 145.404 542.748 145.633 542.145C145.861 541.535 146.172 541.02 146.564 540.598C146.957 540.176 147.402 539.856 147.9 539.64C148.398 539.423 148.914 539.314 149.447 539.314C150.127 539.314 150.713 539.432 151.205 539.666C151.703 539.9 152.11 540.229 152.427 540.65C152.743 541.066 152.977 541.559 153.13 542.127C153.282 542.689 153.358 543.305 153.358 543.973V544.702H146.257V543.375H151.732V543.252C151.709 542.83 151.621 542.42 151.469 542.021C151.322 541.623 151.088 541.295 150.765 541.037C150.443 540.779 150.004 540.65 149.447 540.65C149.078 540.65 148.738 540.729 148.428 540.888C148.117 541.04 147.85 541.269 147.628 541.573C147.405 541.878 147.232 542.25 147.109 542.689C146.986 543.129 146.925 543.636 146.925 544.21V544.579C146.925 545.03 146.986 545.455 147.109 545.854C147.238 546.246 147.423 546.592 147.663 546.891C147.909 547.189 148.205 547.424 148.551 547.594C148.902 547.764 149.301 547.849 149.746 547.849C150.32 547.849 150.806 547.731 151.205 547.497C151.603 547.263 151.952 546.949 152.251 546.557L153.235 547.339C153.03 547.649 152.769 547.945 152.453 548.227C152.137 548.508 151.747 548.736 151.284 548.912C150.827 549.088 150.285 549.176 149.658 549.176ZM157.283 541.521V549H155.657V539.49H157.195L157.283 541.521ZM156.896 543.885L156.219 543.858C156.225 543.208 156.322 542.607 156.509 542.057C156.697 541.5 156.96 541.017 157.3 540.606C157.64 540.196 158.044 539.88 158.513 539.657C158.988 539.429 159.512 539.314 160.086 539.314C160.555 539.314 160.977 539.379 161.352 539.508C161.727 539.631 162.046 539.83 162.31 540.105C162.579 540.381 162.785 540.738 162.925 541.178C163.066 541.611 163.136 542.142 163.136 542.769V549H161.501V542.751C161.501 542.253 161.428 541.854 161.282 541.556C161.135 541.251 160.921 541.031 160.64 540.896C160.359 540.756 160.013 540.686 159.603 540.686C159.199 540.686 158.829 540.771 158.496 540.94C158.167 541.11 157.883 541.345 157.643 541.644C157.409 541.942 157.224 542.285 157.089 542.672C156.96 543.053 156.896 543.457 156.896 543.885ZM172 547.154V535.5H173.635V549H172.141L172 547.154ZM165.602 544.351V544.166C165.602 543.439 165.689 542.78 165.865 542.188C166.047 541.591 166.302 541.078 166.63 540.65C166.964 540.223 167.359 539.895 167.816 539.666C168.279 539.432 168.795 539.314 169.363 539.314C169.961 539.314 170.482 539.42 170.928 539.631C171.379 539.836 171.76 540.138 172.07 540.536C172.387 540.929 172.636 541.403 172.817 541.96C172.999 542.517 173.125 543.146 173.195 543.85V544.658C173.131 545.355 173.005 545.982 172.817 546.539C172.636 547.096 172.387 547.57 172.07 547.963C171.76 548.355 171.379 548.657 170.928 548.868C170.477 549.073 169.949 549.176 169.346 549.176C168.789 549.176 168.279 549.056 167.816 548.815C167.359 548.575 166.964 548.238 166.63 547.805C166.302 547.371 166.047 546.861 165.865 546.275C165.689 545.684 165.602 545.042 165.602 544.351ZM167.236 544.166V544.351C167.236 544.825 167.283 545.271 167.377 545.687C167.477 546.103 167.629 546.469 167.834 546.785C168.039 547.102 168.3 547.351 168.616 547.532C168.933 547.708 169.311 547.796 169.75 547.796C170.289 547.796 170.731 547.682 171.077 547.453C171.429 547.225 171.71 546.923 171.921 546.548C172.132 546.173 172.296 545.766 172.413 545.326V543.208C172.343 542.886 172.24 542.575 172.105 542.276C171.977 541.972 171.807 541.702 171.596 541.468C171.391 541.228 171.136 541.037 170.831 540.896C170.532 540.756 170.178 540.686 169.768 540.686C169.322 540.686 168.938 540.779 168.616 540.967C168.3 541.148 168.039 541.4 167.834 541.723C167.629 542.039 167.477 542.408 167.377 542.83C167.283 543.246 167.236 543.691 167.236 544.166ZM184.103 548.016L186.748 539.49H188.488L184.674 550.468C184.586 550.702 184.469 550.954 184.322 551.224C184.182 551.499 184 551.76 183.778 552.006C183.555 552.252 183.285 552.451 182.969 552.604C182.658 552.762 182.286 552.841 181.853 552.841C181.724 552.841 181.56 552.823 181.361 552.788C181.161 552.753 181.021 552.724 180.939 552.7L180.93 551.382C180.977 551.388 181.05 551.394 181.15 551.399C181.255 551.411 181.328 551.417 181.369 551.417C181.738 551.417 182.052 551.367 182.31 551.268C182.568 551.174 182.784 551.013 182.96 550.784C183.142 550.562 183.297 550.254 183.426 549.861L184.103 548.016ZM182.16 539.49L184.63 546.873L185.052 548.587L183.883 549.185L180.385 539.49H182.16ZM189.785 544.351V544.148C189.785 543.463 189.885 542.827 190.084 542.241C190.283 541.649 190.57 541.137 190.945 540.703C191.32 540.264 191.774 539.924 192.307 539.684C192.841 539.438 193.438 539.314 194.1 539.314C194.768 539.314 195.369 539.438 195.902 539.684C196.441 539.924 196.898 540.264 197.273 540.703C197.654 541.137 197.944 541.649 198.143 542.241C198.343 542.827 198.442 543.463 198.442 544.148V544.351C198.442 545.036 198.343 545.672 198.143 546.258C197.944 546.844 197.654 547.356 197.273 547.796C196.898 548.229 196.444 548.569 195.911 548.815C195.384 549.056 194.786 549.176 194.118 549.176C193.45 549.176 192.849 549.056 192.316 548.815C191.783 548.569 191.326 548.229 190.945 547.796C190.57 547.356 190.283 546.844 190.084 546.258C189.885 545.672 189.785 545.036 189.785 544.351ZM191.411 544.148V544.351C191.411 544.825 191.467 545.273 191.578 545.695C191.689 546.111 191.856 546.48 192.079 546.803C192.307 547.125 192.592 547.38 192.931 547.567C193.271 547.749 193.667 547.84 194.118 547.84C194.563 547.84 194.953 547.749 195.287 547.567C195.627 547.38 195.908 547.125 196.131 546.803C196.353 546.48 196.52 546.111 196.632 545.695C196.749 545.273 196.807 544.825 196.807 544.351V544.148C196.807 543.68 196.749 543.237 196.632 542.821C196.52 542.399 196.35 542.027 196.122 541.705C195.899 541.377 195.618 541.119 195.278 540.932C194.944 540.744 194.552 540.65 194.1 540.65C193.655 540.65 193.263 540.744 192.923 540.932C192.589 541.119 192.307 541.377 192.079 541.705C191.856 542.027 191.689 542.399 191.578 542.821C191.467 543.237 191.411 543.68 191.411 544.148ZM206.7 546.803V539.49H208.334V549H206.779L206.7 546.803ZM207.007 544.799L207.684 544.781C207.684 545.414 207.617 546 207.482 546.539C207.353 547.072 207.142 547.535 206.849 547.928C206.556 548.32 206.172 548.628 205.698 548.851C205.223 549.067 204.646 549.176 203.966 549.176C203.503 549.176 203.079 549.108 202.692 548.974C202.311 548.839 201.983 548.631 201.707 548.35C201.432 548.068 201.218 547.702 201.066 547.251C200.919 546.8 200.846 546.258 200.846 545.625V539.49H202.472V545.643C202.472 546.07 202.519 546.425 202.613 546.706C202.712 546.981 202.844 547.201 203.008 547.365C203.178 547.523 203.366 547.635 203.571 547.699C203.782 547.764 203.998 547.796 204.221 547.796C204.913 547.796 205.46 547.664 205.865 547.4C206.269 547.131 206.559 546.771 206.735 546.319C206.916 545.862 207.007 545.355 207.007 544.799ZM217.844 539.49V549H216.21V539.49H217.844ZM216.087 536.968C216.087 536.704 216.166 536.481 216.324 536.3C216.488 536.118 216.728 536.027 217.045 536.027C217.355 536.027 217.592 536.118 217.756 536.3C217.926 536.481 218.011 536.704 218.011 536.968C218.011 537.22 217.926 537.437 217.756 537.618C217.592 537.794 217.355 537.882 217.045 537.882C216.728 537.882 216.488 537.794 216.324 537.618C216.166 537.437 216.087 537.22 216.087 536.968ZM222.481 541.521V549H220.855V539.49H222.393L222.481 541.521ZM222.094 543.885L221.417 543.858C221.423 543.208 221.52 542.607 221.707 542.057C221.895 541.5 222.158 541.017 222.498 540.606C222.838 540.196 223.242 539.88 223.711 539.657C224.186 539.429 224.71 539.314 225.284 539.314C225.753 539.314 226.175 539.379 226.55 539.508C226.925 539.631 227.244 539.83 227.508 540.105C227.778 540.381 227.983 540.738 228.123 541.178C228.264 541.611 228.334 542.142 228.334 542.769V549H226.699V542.751C226.699 542.253 226.626 541.854 226.48 541.556C226.333 541.251 226.119 541.031 225.838 540.896C225.557 540.756 225.211 540.686 224.801 540.686C224.397 540.686 224.028 540.771 223.694 540.94C223.365 541.11 223.081 541.345 222.841 541.644C222.607 541.942 222.422 542.285 222.287 542.672C222.158 543.053 222.094 543.457 222.094 543.885ZM236.741 546.478C236.741 546.243 236.688 546.026 236.583 545.827C236.483 545.622 236.275 545.438 235.959 545.273C235.648 545.104 235.18 544.957 234.553 544.834C234.025 544.723 233.548 544.591 233.12 544.438C232.698 544.286 232.338 544.102 232.039 543.885C231.746 543.668 231.52 543.413 231.362 543.12C231.204 542.827 231.125 542.484 231.125 542.092C231.125 541.717 231.207 541.362 231.371 541.028C231.541 540.694 231.778 540.398 232.083 540.141C232.393 539.883 232.765 539.681 233.199 539.534C233.633 539.388 234.116 539.314 234.649 539.314C235.411 539.314 236.061 539.449 236.6 539.719C237.139 539.988 237.553 540.349 237.84 540.8C238.127 541.245 238.27 541.74 238.27 542.285H236.644C236.644 542.021 236.565 541.767 236.407 541.521C236.255 541.269 236.029 541.061 235.73 540.896C235.437 540.732 235.077 540.65 234.649 540.65C234.198 540.65 233.832 540.721 233.551 540.861C233.275 540.996 233.073 541.169 232.944 541.38C232.821 541.591 232.76 541.813 232.76 542.048C232.76 542.224 232.789 542.382 232.847 542.522C232.912 542.657 233.023 542.783 233.181 542.9C233.34 543.012 233.562 543.117 233.849 543.217C234.137 543.316 234.503 543.416 234.948 543.516C235.727 543.691 236.369 543.902 236.873 544.148C237.377 544.395 237.752 544.696 237.998 545.054C238.244 545.411 238.367 545.845 238.367 546.354C238.367 546.771 238.279 547.151 238.103 547.497C237.933 547.843 237.684 548.142 237.356 548.394C237.034 548.64 236.647 548.833 236.196 548.974C235.751 549.108 235.25 549.176 234.693 549.176C233.855 549.176 233.146 549.026 232.566 548.728C231.986 548.429 231.547 548.042 231.248 547.567C230.949 547.093 230.8 546.592 230.8 546.064H232.434C232.458 546.51 232.587 546.864 232.821 547.128C233.055 547.386 233.343 547.57 233.682 547.682C234.022 547.787 234.359 547.84 234.693 547.84C235.138 547.84 235.511 547.781 235.809 547.664C236.114 547.547 236.346 547.386 236.504 547.181C236.662 546.976 236.741 546.741 236.741 546.478ZM244.884 539.49V540.738H239.743V539.49H244.884ZM241.483 537.179H243.109V546.645C243.109 546.967 243.159 547.21 243.258 547.374C243.358 547.538 243.487 547.646 243.645 547.699C243.803 547.752 243.973 547.778 244.155 547.778C244.289 547.778 244.43 547.767 244.577 547.743C244.729 547.714 244.843 547.69 244.919 547.673L244.928 549C244.799 549.041 244.629 549.079 244.418 549.114C244.213 549.155 243.964 549.176 243.671 549.176C243.273 549.176 242.907 549.097 242.573 548.938C242.239 548.78 241.972 548.517 241.773 548.147C241.579 547.772 241.483 547.269 241.483 546.636V537.179ZM248.817 540.984V549H247.191V539.49H248.773L248.817 540.984ZM251.788 539.438L251.779 540.949C251.645 540.92 251.516 540.902 251.393 540.896C251.275 540.885 251.141 540.879 250.988 540.879C250.613 540.879 250.282 540.938 249.995 541.055C249.708 541.172 249.465 541.336 249.266 541.547C249.066 541.758 248.908 542.01 248.791 542.303C248.68 542.59 248.606 542.906 248.571 543.252L248.114 543.516C248.114 542.941 248.17 542.402 248.281 541.898C248.398 541.395 248.577 540.949 248.817 540.562C249.058 540.17 249.362 539.865 249.731 539.648C250.106 539.426 250.552 539.314 251.067 539.314C251.185 539.314 251.319 539.329 251.472 539.358C251.624 539.382 251.729 539.408 251.788 539.438ZM259.509 546.803V539.49H261.144V549H259.588L259.509 546.803ZM259.817 544.799L260.494 544.781C260.494 545.414 260.426 546 260.292 546.539C260.163 547.072 259.952 547.535 259.659 547.928C259.366 548.32 258.982 548.628 258.507 548.851C258.033 549.067 257.456 549.176 256.776 549.176C256.313 549.176 255.888 549.108 255.502 548.974C255.121 548.839 254.793 548.631 254.517 548.35C254.242 548.068 254.028 547.702 253.876 547.251C253.729 546.8 253.656 546.258 253.656 545.625V539.49H255.282V545.643C255.282 546.07 255.329 546.425 255.422 546.706C255.522 546.981 255.654 547.201 255.818 547.365C255.988 547.523 256.175 547.635 256.38 547.699C256.591 547.764 256.808 547.796 257.031 547.796C257.722 547.796 258.27 547.664 258.674 547.4C259.079 547.131 259.369 546.771 259.545 546.319C259.726 545.862 259.817 545.355 259.817 544.799ZM267.828 547.84C268.215 547.84 268.572 547.761 268.901 547.603C269.229 547.444 269.498 547.228 269.709 546.952C269.92 546.671 270.04 546.352 270.07 545.994H271.616C271.587 546.557 271.397 547.081 271.045 547.567C270.699 548.048 270.245 548.438 269.683 548.736C269.12 549.029 268.502 549.176 267.828 549.176C267.113 549.176 266.489 549.05 265.956 548.798C265.429 548.546 264.989 548.2 264.638 547.761C264.292 547.321 264.031 546.817 263.856 546.249C263.686 545.675 263.601 545.068 263.601 544.43V544.061C263.601 543.422 263.686 542.818 263.856 542.25C264.031 541.676 264.292 541.169 264.638 540.729C264.989 540.29 265.429 539.944 265.956 539.692C266.489 539.44 267.113 539.314 267.828 539.314C268.572 539.314 269.223 539.467 269.779 539.771C270.336 540.07 270.773 540.48 271.089 541.002C271.411 541.518 271.587 542.104 271.616 542.76H270.07C270.04 542.367 269.929 542.013 269.736 541.696C269.548 541.38 269.29 541.128 268.962 540.94C268.64 540.747 268.262 540.65 267.828 540.65C267.33 540.65 266.911 540.75 266.571 540.949C266.238 541.143 265.971 541.406 265.772 541.74C265.578 542.068 265.438 542.435 265.35 542.839C265.268 543.237 265.227 543.645 265.227 544.061V544.43C265.227 544.846 265.268 545.256 265.35 545.66C265.432 546.064 265.57 546.431 265.763 546.759C265.962 547.087 266.229 547.351 266.563 547.55C266.903 547.743 267.324 547.84 267.828 547.84ZM277.826 539.49V540.738H272.684V539.49H277.826ZM274.425 537.179H276.051V546.645C276.051 546.967 276.1 547.21 276.2 547.374C276.3 547.538 276.429 547.646 276.587 547.699C276.745 547.752 276.915 547.778 277.096 547.778C277.231 547.778 277.372 547.767 277.518 547.743C277.671 547.714 277.785 547.69 277.861 547.673L277.87 549C277.741 549.041 277.571 549.079 277.36 549.114C277.155 549.155 276.906 549.176 276.613 549.176C276.215 549.176 275.848 549.097 275.514 548.938C275.18 548.78 274.914 548.517 274.715 548.147C274.521 547.772 274.425 547.269 274.425 546.636V537.179ZM281.9 539.49V549H280.265V539.49H281.9ZM280.142 536.968C280.142 536.704 280.221 536.481 280.379 536.3C280.543 536.118 280.784 536.027 281.1 536.027C281.411 536.027 281.648 536.118 281.812 536.3C281.982 536.481 282.067 536.704 282.067 536.968C282.067 537.22 281.982 537.437 281.812 537.618C281.648 537.794 281.411 537.882 281.1 537.882C280.784 537.882 280.543 537.794 280.379 537.618C280.221 537.437 280.142 537.22 280.142 536.968ZM284.479 544.351V544.148C284.479 543.463 284.579 542.827 284.778 542.241C284.978 541.649 285.265 541.137 285.64 540.703C286.015 540.264 286.469 539.924 287.002 539.684C287.535 539.438 288.133 539.314 288.795 539.314C289.463 539.314 290.063 539.438 290.597 539.684C291.136 539.924 291.593 540.264 291.968 540.703C292.349 541.137 292.639 541.649 292.838 542.241C293.037 542.827 293.137 543.463 293.137 544.148V544.351C293.137 545.036 293.037 545.672 292.838 546.258C292.639 546.844 292.349 547.356 291.968 547.796C291.593 548.229 291.139 548.569 290.605 548.815C290.078 549.056 289.48 549.176 288.812 549.176C288.145 549.176 287.544 549.056 287.011 548.815C286.478 548.569 286.021 548.229 285.64 547.796C285.265 547.356 284.978 546.844 284.778 546.258C284.579 545.672 284.479 545.036 284.479 544.351ZM286.105 544.148V544.351C286.105 544.825 286.161 545.273 286.272 545.695C286.384 546.111 286.551 546.48 286.773 546.803C287.002 547.125 287.286 547.38 287.626 547.567C287.966 547.749 288.361 547.84 288.812 547.84C289.258 547.84 289.647 547.749 289.981 547.567C290.321 547.38 290.603 547.125 290.825 546.803C291.048 546.48 291.215 546.111 291.326 545.695C291.443 545.273 291.502 544.825 291.502 544.351V544.148C291.502 543.68 291.443 543.237 291.326 542.821C291.215 542.399 291.045 542.027 290.816 541.705C290.594 541.377 290.312 541.119 289.973 540.932C289.639 540.744 289.246 540.65 288.795 540.65C288.35 540.65 287.957 540.744 287.617 540.932C287.283 541.119 287.002 541.377 286.773 541.705C286.551 542.027 286.384 542.399 286.272 542.821C286.161 543.237 286.105 543.68 286.105 544.148ZM297.202 541.521V549H295.576V539.49H297.114L297.202 541.521ZM296.815 543.885L296.138 543.858C296.144 543.208 296.241 542.607 296.428 542.057C296.616 541.5 296.88 541.017 297.219 540.606C297.559 540.196 297.963 539.88 298.432 539.657C298.907 539.429 299.431 539.314 300.005 539.314C300.474 539.314 300.896 539.379 301.271 539.508C301.646 539.631 301.965 539.83 302.229 540.105C302.499 540.381 302.704 540.738 302.844 541.178C302.985 541.611 303.055 542.142 303.055 542.769V549H301.421V542.751C301.421 542.253 301.347 541.854 301.201 541.556C301.054 541.251 300.84 541.031 300.559 540.896C300.278 540.756 299.932 540.686 299.522 540.686C299.118 540.686 298.749 540.771 298.415 540.94C298.087 541.11 297.802 541.345 297.562 541.644C297.328 541.942 297.143 542.285 297.008 542.672C296.88 543.053 296.815 543.457 296.815 543.885ZM311.462 546.478C311.462 546.243 311.409 546.026 311.304 545.827C311.204 545.622 310.996 545.438 310.68 545.273C310.369 545.104 309.901 544.957 309.274 544.834C308.746 544.723 308.269 544.591 307.841 544.438C307.419 544.286 307.059 544.102 306.76 543.885C306.467 543.668 306.241 543.413 306.083 543.12C305.925 542.827 305.846 542.484 305.846 542.092C305.846 541.717 305.928 541.362 306.092 541.028C306.262 540.694 306.499 540.398 306.804 540.141C307.114 539.883 307.487 539.681 307.92 539.534C308.354 539.388 308.837 539.314 309.37 539.314C310.132 539.314 310.782 539.449 311.321 539.719C311.861 539.988 312.274 540.349 312.561 540.8C312.848 541.245 312.991 541.74 312.991 542.285H311.365C311.365 542.021 311.286 541.767 311.128 541.521C310.976 541.269 310.75 541.061 310.451 540.896C310.158 540.732 309.798 540.65 309.37 540.65C308.919 540.65 308.553 540.721 308.272 540.861C307.996 540.996 307.794 541.169 307.665 541.38C307.542 541.591 307.481 541.813 307.481 542.048C307.481 542.224 307.51 542.382 307.569 542.522C307.633 542.657 307.744 542.783 307.903 542.9C308.061 543.012 308.283 543.117 308.571 543.217C308.858 543.316 309.224 543.416 309.669 543.516C310.448 543.691 311.09 543.902 311.594 544.148C312.098 544.395 312.473 544.696 312.719 545.054C312.965 545.411 313.088 545.845 313.088 546.354C313.088 546.771 313 547.151 312.824 547.497C312.654 547.843 312.405 548.142 312.077 548.394C311.755 548.64 311.368 548.833 310.917 548.974C310.472 549.108 309.971 549.176 309.414 549.176C308.576 549.176 307.867 549.026 307.287 548.728C306.707 548.429 306.268 548.042 305.969 547.567C305.67 547.093 305.521 546.592 305.521 546.064H307.155C307.179 546.51 307.308 546.864 307.542 547.128C307.777 547.386 308.064 547.57 308.404 547.682C308.743 547.787 309.08 547.84 309.414 547.84C309.86 547.84 310.232 547.781 310.53 547.664C310.835 547.547 311.067 547.386 311.225 547.181C311.383 546.976 311.462 546.741 311.462 546.478ZM320.058 544.351V544.148C320.058 543.463 320.158 542.827 320.357 542.241C320.556 541.649 320.843 541.137 321.218 540.703C321.593 540.264 322.047 539.924 322.58 539.684C323.114 539.438 323.711 539.314 324.373 539.314C325.041 539.314 325.642 539.438 326.175 539.684C326.714 539.924 327.171 540.264 327.546 540.703C327.927 541.137 328.217 541.649 328.416 542.241C328.616 542.827 328.715 543.463 328.715 544.148V544.351C328.715 545.036 328.616 545.672 328.416 546.258C328.217 546.844 327.927 547.356 327.546 547.796C327.171 548.229 326.717 548.569 326.184 548.815C325.657 549.056 325.059 549.176 324.391 549.176C323.723 549.176 323.122 549.056 322.589 548.815C322.056 548.569 321.599 548.229 321.218 547.796C320.843 547.356 320.556 546.844 320.357 546.258C320.158 545.672 320.058 545.036 320.058 544.351ZM321.684 544.148V544.351C321.684 544.825 321.74 545.273 321.851 545.695C321.962 546.111 322.129 546.48 322.352 546.803C322.58 547.125 322.865 547.38 323.204 547.567C323.544 547.749 323.94 547.84 324.391 547.84C324.836 547.84 325.226 547.749 325.56 547.567C325.9 547.38 326.181 547.125 326.404 546.803C326.626 546.48 326.793 546.111 326.905 545.695C327.022 545.273 327.08 544.825 327.08 544.351V544.148C327.08 543.68 327.022 543.237 326.905 542.821C326.793 542.399 326.623 542.027 326.395 541.705C326.172 541.377 325.891 541.119 325.551 540.932C325.217 540.744 324.825 540.65 324.373 540.65C323.928 540.65 323.536 540.744 323.196 540.932C322.862 541.119 322.58 541.377 322.352 541.705C322.129 542.027 321.962 542.399 321.851 542.821C321.74 543.237 321.684 543.68 321.684 544.148ZM332.78 541.521V549H331.154V539.49H332.692L332.78 541.521ZM332.394 543.885L331.717 543.858C331.723 543.208 331.819 542.607 332.007 542.057C332.194 541.5 332.458 541.017 332.798 540.606C333.138 540.196 333.542 539.88 334.011 539.657C334.485 539.429 335.01 539.314 335.584 539.314C336.053 539.314 336.475 539.379 336.85 539.508C337.225 539.631 337.544 539.83 337.808 540.105C338.077 540.381 338.282 540.738 338.423 541.178C338.563 541.611 338.634 542.142 338.634 542.769V549H336.999V542.751C336.999 542.253 336.926 541.854 336.779 541.556C336.633 541.251 336.419 541.031 336.138 540.896C335.856 540.756 335.511 540.686 335.101 540.686C334.696 540.686 334.327 540.771 333.993 540.94C333.665 541.11 333.381 541.345 333.141 541.644C332.906 541.942 332.722 542.285 332.587 542.672C332.458 543.053 332.394 543.457 332.394 543.885ZM92.757 562.5V576H91.1311V562.5H92.757ZM92.3703 570.885L91.6936 570.858C91.6994 570.208 91.7961 569.607 91.9836 569.057C92.1711 568.5 92.4348 568.017 92.7746 567.606C93.1145 567.196 93.5188 566.88 93.9875 566.657C94.4621 566.429 94.9865 566.314 95.5607 566.314C96.0295 566.314 96.4514 566.379 96.8264 566.508C97.2014 566.631 97.5207 566.83 97.7844 567.105C98.0539 567.381 98.259 567.738 98.3996 568.178C98.5402 568.611 98.6105 569.142 98.6105 569.769V576H96.9758V569.751C96.9758 569.253 96.9025 568.854 96.7561 568.556C96.6096 568.251 96.3957 568.031 96.1145 567.896C95.8332 567.756 95.4875 567.686 95.0773 567.686C94.673 567.686 94.3039 567.771 93.9699 567.94C93.6418 568.11 93.3576 568.345 93.1174 568.644C92.883 568.942 92.6984 569.285 92.5637 569.672C92.4348 570.053 92.3703 570.457 92.3703 570.885ZM101.014 571.351V571.148C101.014 570.463 101.114 569.827 101.313 569.241C101.513 568.649 101.8 568.137 102.175 567.703C102.55 567.264 103.004 566.924 103.537 566.684C104.07 566.438 104.668 566.314 105.33 566.314C105.998 566.314 106.598 566.438 107.132 566.684C107.671 566.924 108.128 567.264 108.503 567.703C108.884 568.137 109.174 568.649 109.373 569.241C109.572 569.827 109.672 570.463 109.672 571.148V571.351C109.672 572.036 109.572 572.672 109.373 573.258C109.174 573.844 108.884 574.356 108.503 574.796C108.128 575.229 107.674 575.569 107.14 575.815C106.613 576.056 106.015 576.176 105.347 576.176C104.679 576.176 104.079 576.056 103.546 575.815C103.013 575.569 102.555 575.229 102.175 574.796C101.8 574.356 101.513 573.844 101.313 573.258C101.114 572.672 101.014 572.036 101.014 571.351ZM102.64 571.148V571.351C102.64 571.825 102.696 572.273 102.807 572.695C102.919 573.111 103.086 573.48 103.308 573.803C103.537 574.125 103.821 574.38 104.161 574.567C104.501 574.749 104.896 574.84 105.347 574.84C105.793 574.84 106.182 574.749 106.516 574.567C106.856 574.38 107.138 574.125 107.36 573.803C107.583 573.48 107.75 573.111 107.861 572.695C107.978 572.273 108.037 571.825 108.037 571.351V571.148C108.037 570.68 107.978 570.237 107.861 569.821C107.75 569.399 107.58 569.027 107.351 568.705C107.129 568.377 106.847 568.119 106.508 567.932C106.174 567.744 105.781 567.65 105.33 567.65C104.885 567.65 104.492 567.744 104.152 567.932C103.818 568.119 103.537 568.377 103.308 568.705C103.086 569.027 102.919 569.399 102.807 569.821C102.696 570.237 102.64 570.68 102.64 571.148ZM114.519 574.312L116.962 566.49H118.035L117.824 568.046L115.336 576H114.29L114.519 574.312ZM112.875 566.49L114.958 574.4L115.108 576H114.009L111.249 566.49H112.875ZM120.372 574.339L122.359 566.49H123.976L121.216 576H120.126L120.372 574.339ZM118.272 566.49L120.663 574.181L120.935 576H119.898L117.34 568.028L117.129 566.49H118.272ZM134.892 566.49V567.738H129.751V566.49H134.892ZM131.491 564.179H133.117V573.645C133.117 573.967 133.167 574.21 133.266 574.374C133.366 574.538 133.495 574.646 133.653 574.699C133.811 574.752 133.981 574.778 134.163 574.778C134.297 574.778 134.438 574.767 134.585 574.743C134.737 574.714 134.851 574.69 134.927 574.673L134.936 576C134.807 576.041 134.637 576.079 134.426 576.114C134.221 576.155 133.972 576.176 133.679 576.176C133.281 576.176 132.915 576.097 132.581 575.938C132.247 575.78 131.98 575.517 131.781 575.147C131.588 574.772 131.491 574.269 131.491 573.636V564.179ZM136.593 571.351V571.148C136.593 570.463 136.693 569.827 136.892 569.241C137.091 568.649 137.378 568.137 137.753 567.703C138.128 567.264 138.582 566.924 139.115 566.684C139.649 566.438 140.246 566.314 140.908 566.314C141.576 566.314 142.177 566.438 142.71 566.684C143.249 566.924 143.706 567.264 144.081 567.703C144.462 568.137 144.752 568.649 144.951 569.241C145.151 569.827 145.25 570.463 145.25 571.148V571.351C145.25 572.036 145.151 572.672 144.951 573.258C144.752 573.844 144.462 574.356 144.081 574.796C143.706 575.229 143.252 575.569 142.719 575.815C142.192 576.056 141.594 576.176 140.926 576.176C140.258 576.176 139.657 576.056 139.124 575.815C138.591 575.569 138.134 575.229 137.753 574.796C137.378 574.356 137.091 573.844 136.892 573.258C136.693 572.672 136.593 572.036 136.593 571.351ZM138.219 571.148V571.351C138.219 571.825 138.275 572.273 138.386 572.695C138.497 573.111 138.664 573.48 138.887 573.803C139.115 574.125 139.4 574.38 139.739 574.567C140.079 574.749 140.475 574.84 140.926 574.84C141.371 574.84 141.761 574.749 142.095 574.567C142.435 574.38 142.716 574.125 142.939 573.803C143.161 573.48 143.328 573.111 143.44 572.695C143.557 572.273 143.615 571.825 143.615 571.351V571.148C143.615 570.68 143.557 570.237 143.44 569.821C143.328 569.399 143.158 569.027 142.93 568.705C142.707 568.377 142.426 568.119 142.086 567.932C141.752 567.744 141.36 567.65 140.908 567.65C140.463 567.65 140.071 567.744 139.731 567.932C139.397 568.119 139.115 568.377 138.887 568.705C138.664 569.027 138.497 569.399 138.386 569.821C138.275 570.237 138.219 570.68 138.219 571.148ZM154.18 567.984V576H152.554V566.49H154.136L154.18 567.984ZM157.151 566.438L157.142 567.949C157.007 567.92 156.878 567.902 156.755 567.896C156.638 567.885 156.503 567.879 156.351 567.879C155.976 567.879 155.645 567.938 155.358 568.055C155.071 568.172 154.828 568.336 154.628 568.547C154.429 568.758 154.271 569.01 154.154 569.303C154.042 569.59 153.969 569.906 153.934 570.252L153.477 570.516C153.477 569.941 153.533 569.402 153.644 568.898C153.761 568.395 153.94 567.949 154.18 567.562C154.42 567.17 154.725 566.865 155.094 566.648C155.469 566.426 155.914 566.314 156.43 566.314C156.547 566.314 156.682 566.329 156.834 566.358C156.987 566.382 157.092 566.408 157.151 566.438ZM162.824 576.176C162.162 576.176 161.562 576.064 161.022 575.842C160.489 575.613 160.029 575.294 159.643 574.884C159.262 574.474 158.969 573.987 158.764 573.425C158.559 572.862 158.456 572.247 158.456 571.579V571.21C158.456 570.437 158.57 569.748 158.799 569.145C159.027 568.535 159.338 568.02 159.73 567.598C160.123 567.176 160.568 566.856 161.066 566.64C161.564 566.423 162.08 566.314 162.613 566.314C163.293 566.314 163.879 566.432 164.371 566.666C164.869 566.9 165.276 567.229 165.593 567.65C165.909 568.066 166.144 568.559 166.296 569.127C166.448 569.689 166.524 570.305 166.524 570.973V571.702H159.423V570.375H164.898V570.252C164.875 569.83 164.787 569.42 164.635 569.021C164.488 568.623 164.254 568.295 163.932 568.037C163.609 567.779 163.17 567.65 162.613 567.65C162.244 567.65 161.904 567.729 161.594 567.888C161.283 568.04 161.017 568.269 160.794 568.573C160.571 568.878 160.398 569.25 160.275 569.689C160.152 570.129 160.091 570.636 160.091 571.21V571.579C160.091 572.03 160.152 572.455 160.275 572.854C160.404 573.246 160.589 573.592 160.829 573.891C161.075 574.189 161.371 574.424 161.717 574.594C162.068 574.764 162.467 574.849 162.912 574.849C163.486 574.849 163.973 574.731 164.371 574.497C164.77 574.263 165.118 573.949 165.417 573.557L166.401 574.339C166.196 574.649 165.936 574.945 165.619 575.227C165.303 575.508 164.913 575.736 164.45 575.912C163.993 576.088 163.451 576.176 162.824 576.176ZM174.36 573.478C174.36 573.243 174.307 573.026 174.202 572.827C174.102 572.622 173.894 572.438 173.578 572.273C173.267 572.104 172.798 571.957 172.171 571.834C171.644 571.723 171.167 571.591 170.739 571.438C170.317 571.286 169.957 571.102 169.658 570.885C169.365 570.668 169.139 570.413 168.981 570.12C168.823 569.827 168.744 569.484 168.744 569.092C168.744 568.717 168.826 568.362 168.99 568.028C169.16 567.694 169.397 567.398 169.702 567.141C170.012 566.883 170.384 566.681 170.818 566.534C171.252 566.388 171.735 566.314 172.268 566.314C173.03 566.314 173.68 566.449 174.219 566.719C174.758 566.988 175.171 567.349 175.459 567.8C175.746 568.245 175.889 568.74 175.889 569.285H174.263C174.263 569.021 174.184 568.767 174.026 568.521C173.874 568.269 173.648 568.061 173.349 567.896C173.056 567.732 172.696 567.65 172.268 567.65C171.817 567.65 171.451 567.721 171.17 567.861C170.894 567.996 170.692 568.169 170.563 568.38C170.44 568.591 170.379 568.813 170.379 569.048C170.379 569.224 170.408 569.382 170.466 569.522C170.531 569.657 170.642 569.783 170.8 569.9C170.959 570.012 171.181 570.117 171.468 570.217C171.755 570.316 172.122 570.416 172.567 570.516C173.346 570.691 173.988 570.902 174.492 571.148C174.996 571.395 175.371 571.696 175.617 572.054C175.863 572.411 175.986 572.845 175.986 573.354C175.986 573.771 175.898 574.151 175.722 574.497C175.552 574.843 175.303 575.142 174.975 575.394C174.653 575.64 174.266 575.833 173.815 575.974C173.37 576.108 172.869 576.176 172.312 576.176C171.474 576.176 170.765 576.026 170.185 575.728C169.605 575.429 169.166 575.042 168.867 574.567C168.568 574.093 168.419 573.592 168.419 573.064H170.053C170.077 573.51 170.206 573.864 170.44 574.128C170.674 574.386 170.962 574.57 171.301 574.682C171.641 574.787 171.978 574.84 172.312 574.84C172.757 574.84 173.129 574.781 173.428 574.664C173.733 574.547 173.964 574.386 174.123 574.181C174.281 573.976 174.36 573.741 174.36 573.478ZM182.468 576.176C181.806 576.176 181.205 576.064 180.666 575.842C180.133 575.613 179.673 575.294 179.286 574.884C178.905 574.474 178.613 573.987 178.407 573.425C178.202 572.862 178.1 572.247 178.1 571.579V571.21C178.1 570.437 178.214 569.748 178.443 569.145C178.671 568.535 178.982 568.02 179.374 567.598C179.767 567.176 180.212 566.856 180.71 566.64C181.208 566.423 181.724 566.314 182.257 566.314C182.937 566.314 183.523 566.432 184.015 566.666C184.513 566.9 184.92 567.229 185.237 567.65C185.553 568.066 185.787 568.559 185.94 569.127C186.092 569.689 186.168 570.305 186.168 570.973V571.702H179.067V570.375H184.542V570.252C184.519 569.83 184.431 569.42 184.279 569.021C184.132 568.623 183.898 568.295 183.575 568.037C183.253 567.779 182.814 567.65 182.257 567.65C181.888 567.65 181.548 567.729 181.238 567.888C180.927 568.04 180.66 568.269 180.438 568.573C180.215 568.878 180.042 569.25 179.919 569.689C179.796 570.129 179.735 570.636 179.735 571.21V571.579C179.735 572.03 179.796 572.455 179.919 572.854C180.048 573.246 180.233 573.592 180.473 573.891C180.719 574.189 181.015 574.424 181.361 574.594C181.712 574.764 182.111 574.849 182.556 574.849C183.13 574.849 183.616 574.731 184.015 574.497C184.413 574.263 184.762 573.949 185.061 573.557L186.045 574.339C185.84 574.649 185.579 574.945 185.263 575.227C184.946 575.508 184.557 575.736 184.094 575.912C183.637 576.088 183.095 576.176 182.468 576.176ZM192.448 566.49V567.738H187.306V566.49H192.448ZM189.047 564.179H190.673V573.645C190.673 573.967 190.722 574.21 190.822 574.374C190.922 574.538 191.051 574.646 191.209 574.699C191.367 574.752 191.537 574.778 191.719 574.778C191.853 574.778 191.994 574.767 192.14 574.743C192.293 574.714 192.407 574.69 192.483 574.673L192.492 576C192.363 576.041 192.193 576.079 191.982 576.114C191.777 576.155 191.528 576.176 191.235 576.176C190.837 576.176 190.471 576.097 190.137 575.938C189.803 575.78 189.536 575.517 189.337 575.147C189.143 574.772 189.047 574.269 189.047 573.636V564.179ZM202.292 575.016L204.938 566.49H206.678L202.863 577.468C202.775 577.702 202.658 577.954 202.512 578.224C202.371 578.499 202.189 578.76 201.967 579.006C201.744 579.252 201.475 579.451 201.158 579.604C200.848 579.762 200.476 579.841 200.042 579.841C199.913 579.841 199.749 579.823 199.55 579.788C199.351 579.753 199.21 579.724 199.128 579.7L199.119 578.382C199.166 578.388 199.239 578.394 199.339 578.399C199.444 578.411 199.518 578.417 199.559 578.417C199.928 578.417 200.241 578.367 200.499 578.268C200.757 578.174 200.974 578.013 201.149 577.784C201.331 577.562 201.486 577.254 201.615 576.861L202.292 575.016ZM200.35 566.49L202.819 573.873L203.241 575.587L202.072 576.185L198.574 566.49H200.35ZM207.974 571.351V571.148C207.974 570.463 208.074 569.827 208.273 569.241C208.472 568.649 208.759 568.137 209.134 567.703C209.509 567.264 209.963 566.924 210.497 566.684C211.03 566.438 211.628 566.314 212.29 566.314C212.958 566.314 213.558 566.438 214.091 566.684C214.63 566.924 215.087 567.264 215.462 567.703C215.843 568.137 216.133 568.649 216.333 569.241C216.532 569.827 216.631 570.463 216.631 571.148V571.351C216.631 572.036 216.532 572.672 216.333 573.258C216.133 573.844 215.843 574.356 215.462 574.796C215.087 575.229 214.633 575.569 214.1 575.815C213.573 576.056 212.975 576.176 212.307 576.176C211.639 576.176 211.039 576.056 210.505 575.815C209.972 575.569 209.515 575.229 209.134 574.796C208.759 574.356 208.472 573.844 208.273 573.258C208.074 572.672 207.974 572.036 207.974 571.351ZM209.6 571.148V571.351C209.6 571.825 209.656 572.273 209.767 572.695C209.879 573.111 210.046 573.48 210.268 573.803C210.497 574.125 210.781 574.38 211.121 574.567C211.461 574.749 211.856 574.84 212.307 574.84C212.753 574.84 213.142 574.749 213.476 574.567C213.816 574.38 214.097 574.125 214.32 573.803C214.543 573.48 214.71 573.111 214.821 572.695C214.938 572.273 214.997 571.825 214.997 571.351V571.148C214.997 570.68 214.938 570.237 214.821 569.821C214.71 569.399 214.54 569.027 214.311 568.705C214.088 568.377 213.807 568.119 213.467 567.932C213.133 567.744 212.741 567.65 212.29 567.65C211.844 567.65 211.452 567.744 211.112 567.932C210.778 568.119 210.497 568.377 210.268 568.705C210.046 569.027 209.879 569.399 209.767 569.821C209.656 570.237 209.6 570.68 209.6 571.148ZM224.889 573.803V566.49H226.524V576H224.968L224.889 573.803ZM225.196 571.799L225.873 571.781C225.873 572.414 225.806 573 225.671 573.539C225.542 574.072 225.331 574.535 225.038 574.928C224.745 575.32 224.362 575.628 223.887 575.851C223.412 576.067 222.835 576.176 222.155 576.176C221.693 576.176 221.268 576.108 220.881 575.974C220.5 575.839 220.172 575.631 219.897 575.35C219.621 575.068 219.407 574.702 219.255 574.251C219.109 573.8 219.035 573.258 219.035 572.625V566.49H220.661V572.643C220.661 573.07 220.708 573.425 220.802 573.706C220.902 573.981 221.033 574.201 221.197 574.365C221.367 574.523 221.555 574.635 221.76 574.699C221.971 574.764 222.188 574.796 222.41 574.796C223.102 574.796 223.65 574.664 224.054 574.4C224.458 574.131 224.748 573.771 224.924 573.319C225.106 572.862 225.196 572.355 225.196 571.799ZM231.028 567.984V576H229.402V566.49H230.984L231.028 567.984ZM233.999 566.438L233.99 567.949C233.855 567.92 233.726 567.902 233.603 567.896C233.486 567.885 233.351 567.879 233.199 567.879C232.824 567.879 232.493 567.938 232.206 568.055C231.919 568.172 231.676 568.336 231.476 568.547C231.277 568.758 231.119 569.01 231.002 569.303C230.89 569.59 230.817 569.906 230.782 570.252L230.325 570.516C230.325 569.941 230.381 569.402 230.492 568.898C230.609 568.395 230.788 567.949 231.028 567.562C231.268 567.17 231.573 566.865 231.942 566.648C232.317 566.426 232.762 566.314 233.278 566.314C233.395 566.314 233.53 566.329 233.682 566.358C233.835 566.382 233.94 566.408 233.999 566.438ZM242.393 568.318V579.656H240.758V566.49H242.252L242.393 568.318ZM248.8 571.166V571.351C248.8 572.042 248.718 572.684 248.554 573.275C248.39 573.861 248.149 574.371 247.833 574.805C247.522 575.238 247.139 575.575 246.682 575.815C246.225 576.056 245.7 576.176 245.108 576.176C244.505 576.176 243.972 576.076 243.509 575.877C243.046 575.678 242.653 575.388 242.331 575.007C242.009 574.626 241.751 574.169 241.558 573.636C241.37 573.103 241.241 572.502 241.171 571.834V570.85C241.241 570.146 241.373 569.517 241.566 568.96C241.76 568.403 242.015 567.929 242.331 567.536C242.653 567.138 243.043 566.836 243.5 566.631C243.957 566.42 244.484 566.314 245.082 566.314C245.68 566.314 246.21 566.432 246.673 566.666C247.136 566.895 247.525 567.223 247.842 567.65C248.158 568.078 248.396 568.591 248.554 569.188C248.718 569.78 248.8 570.439 248.8 571.166ZM247.165 571.351V571.166C247.165 570.691 247.115 570.246 247.016 569.83C246.916 569.408 246.761 569.039 246.55 568.723C246.345 568.4 246.081 568.148 245.759 567.967C245.437 567.779 245.053 567.686 244.607 567.686C244.197 567.686 243.84 567.756 243.535 567.896C243.236 568.037 242.981 568.228 242.771 568.468C242.56 568.702 242.387 568.972 242.252 569.276C242.123 569.575 242.026 569.886 241.962 570.208V572.484C242.079 572.895 242.243 573.281 242.454 573.645C242.665 574.002 242.946 574.292 243.298 574.515C243.649 574.731 244.092 574.84 244.625 574.84C245.064 574.84 245.442 574.749 245.759 574.567C246.081 574.38 246.345 574.125 246.55 573.803C246.761 573.48 246.916 573.111 247.016 572.695C247.115 572.273 247.165 571.825 247.165 571.351ZM256.881 574.374V569.479C256.881 569.104 256.805 568.778 256.653 568.503C256.506 568.222 256.284 568.005 255.985 567.853C255.686 567.7 255.317 567.624 254.878 567.624C254.467 567.624 254.107 567.694 253.796 567.835C253.492 567.976 253.252 568.16 253.076 568.389C252.906 568.617 252.821 568.863 252.821 569.127H251.195C251.195 568.787 251.283 568.45 251.459 568.116C251.634 567.782 251.886 567.48 252.214 567.211C252.548 566.936 252.947 566.719 253.41 566.561C253.879 566.396 254.4 566.314 254.974 566.314C255.666 566.314 256.275 566.432 256.802 566.666C257.336 566.9 257.752 567.255 258.05 567.729C258.355 568.198 258.507 568.787 258.507 569.496V573.926C258.507 574.242 258.534 574.579 258.587 574.937C258.645 575.294 258.73 575.602 258.841 575.859V576H257.145C257.063 575.812 256.999 575.563 256.952 575.253C256.905 574.937 256.881 574.644 256.881 574.374ZM257.163 570.234L257.18 571.377H255.537C255.074 571.377 254.661 571.415 254.297 571.491C253.934 571.562 253.63 571.67 253.383 571.816C253.137 571.963 252.95 572.147 252.821 572.37C252.692 572.587 252.628 572.842 252.628 573.135C252.628 573.434 252.695 573.706 252.83 573.952C252.964 574.198 253.167 574.395 253.436 574.541C253.712 574.682 254.048 574.752 254.447 574.752C254.945 574.752 255.384 574.646 255.765 574.436C256.146 574.225 256.448 573.967 256.671 573.662C256.899 573.357 257.022 573.062 257.04 572.774L257.734 573.557C257.693 573.803 257.582 574.075 257.4 574.374C257.218 574.673 256.975 574.96 256.671 575.235C256.372 575.505 256.014 575.73 255.598 575.912C255.188 576.088 254.725 576.176 254.21 576.176C253.565 576.176 253 576.05 252.513 575.798C252.033 575.546 251.658 575.209 251.388 574.787C251.125 574.359 250.993 573.882 250.993 573.354C250.993 572.845 251.092 572.396 251.292 572.01C251.491 571.617 251.778 571.292 252.153 571.034C252.528 570.771 252.979 570.571 253.506 570.437C254.034 570.302 254.623 570.234 255.273 570.234H257.163ZM267.002 573.478C267.002 573.243 266.949 573.026 266.844 572.827C266.744 572.622 266.536 572.438 266.22 572.273C265.909 572.104 265.441 571.957 264.814 571.834C264.286 571.723 263.809 571.591 263.381 571.438C262.959 571.286 262.599 571.102 262.3 570.885C262.007 570.668 261.781 570.413 261.623 570.12C261.465 569.827 261.386 569.484 261.386 569.092C261.386 568.717 261.468 568.362 261.632 568.028C261.802 567.694 262.039 567.398 262.344 567.141C262.654 566.883 263.027 566.681 263.46 566.534C263.894 566.388 264.377 566.314 264.91 566.314C265.672 566.314 266.322 566.449 266.862 566.719C267.401 566.988 267.814 567.349 268.101 567.8C268.388 568.245 268.531 568.74 268.531 569.285H266.905C266.905 569.021 266.826 568.767 266.668 568.521C266.516 568.269 266.29 568.061 265.991 567.896C265.698 567.732 265.338 567.65 264.91 567.65C264.459 567.65 264.093 567.721 263.812 567.861C263.536 567.996 263.334 568.169 263.205 568.38C263.082 568.591 263.021 568.813 263.021 569.048C263.021 569.224 263.05 569.382 263.109 569.522C263.173 569.657 263.284 569.783 263.443 569.9C263.601 570.012 263.823 570.117 264.111 570.217C264.398 570.316 264.764 570.416 265.209 570.516C265.988 570.691 266.63 570.902 267.134 571.148C267.638 571.395 268.013 571.696 268.259 572.054C268.505 572.411 268.628 572.845 268.628 573.354C268.628 573.771 268.54 574.151 268.364 574.497C268.195 574.843 267.946 575.142 267.617 575.394C267.295 575.64 266.908 575.833 266.457 575.974C266.012 576.108 265.511 576.176 264.954 576.176C264.116 576.176 263.407 576.026 262.827 575.728C262.247 575.429 261.808 575.042 261.509 574.567C261.21 574.093 261.061 573.592 261.061 573.064H262.696C262.719 573.51 262.848 573.864 263.082 574.128C263.317 574.386 263.604 574.57 263.944 574.682C264.283 574.787 264.62 574.84 264.954 574.84C265.4 574.84 265.772 574.781 266.071 574.664C266.375 574.547 266.607 574.386 266.765 574.181C266.923 573.976 267.002 573.741 267.002 573.478ZM276.701 573.478C276.701 573.243 276.648 573.026 276.543 572.827C276.443 572.622 276.235 572.438 275.919 572.273C275.608 572.104 275.139 571.957 274.512 571.834C273.985 571.723 273.508 571.591 273.08 571.438C272.658 571.286 272.298 571.102 271.999 570.885C271.706 570.668 271.48 570.413 271.322 570.12C271.164 569.827 271.085 569.484 271.085 569.092C271.085 568.717 271.167 568.362 271.331 568.028C271.501 567.694 271.738 567.398 272.043 567.141C272.353 566.883 272.725 566.681 273.159 566.534C273.593 566.388 274.076 566.314 274.609 566.314C275.371 566.314 276.021 566.449 276.56 566.719C277.099 566.988 277.512 567.349 277.8 567.8C278.087 568.245 278.23 568.74 278.23 569.285H276.604C276.604 569.021 276.525 568.767 276.367 568.521C276.215 568.269 275.989 568.061 275.69 567.896C275.397 567.732 275.037 567.65 274.609 567.65C274.158 567.65 273.792 567.721 273.511 567.861C273.235 567.996 273.033 568.169 272.904 568.38C272.781 568.591 272.72 568.813 272.72 569.048C272.72 569.224 272.749 569.382 272.807 569.522C272.872 569.657 272.983 569.783 273.141 569.9C273.3 570.012 273.522 570.117 273.809 570.217C274.096 570.316 274.463 570.416 274.908 570.516C275.687 570.691 276.329 570.902 276.833 571.148C277.337 571.395 277.712 571.696 277.958 572.054C278.204 572.411 278.327 572.845 278.327 573.354C278.327 573.771 278.239 574.151 278.063 574.497C277.893 574.843 277.644 575.142 277.316 575.394C276.994 575.64 276.607 575.833 276.156 575.974C275.711 576.108 275.21 576.176 274.653 576.176C273.815 576.176 273.106 576.026 272.526 575.728C271.946 575.429 271.507 575.042 271.208 574.567C270.909 574.093 270.76 573.592 270.76 573.064H272.394C272.418 573.51 272.547 573.864 272.781 574.128C273.015 574.386 273.303 574.57 273.642 574.682C273.982 574.787 274.319 574.84 274.653 574.84C275.098 574.84 275.471 574.781 275.769 574.664C276.074 574.547 276.305 574.386 276.464 574.181C276.622 573.976 276.701 573.741 276.701 573.478ZM283.271 574.312L285.714 566.49H286.787L286.576 568.046L284.088 576H283.042L283.271 574.312ZM281.627 566.49L283.71 574.4L283.86 576H282.761L280.001 566.49H281.627ZM289.124 574.339L291.111 566.49H292.728L289.968 576H288.878L289.124 574.339ZM287.024 566.49L289.414 574.181L289.687 576H288.65L286.092 568.028L285.881 566.49H287.024ZM294.367 571.351V571.148C294.367 570.463 294.467 569.827 294.666 569.241C294.865 568.649 295.152 568.137 295.527 567.703C295.902 567.264 296.356 566.924 296.89 566.684C297.423 566.438 298.021 566.314 298.683 566.314C299.351 566.314 299.951 566.438 300.484 566.684C301.023 566.924 301.48 567.264 301.855 567.703C302.236 568.137 302.526 568.649 302.726 569.241C302.925 569.827 303.024 570.463 303.024 571.148V571.351C303.024 572.036 302.925 572.672 302.726 573.258C302.526 573.844 302.236 574.356 301.855 574.796C301.48 575.229 301.026 575.569 300.493 575.815C299.966 576.056 299.368 576.176 298.7 576.176C298.032 576.176 297.432 576.056 296.898 575.815C296.365 575.569 295.908 575.229 295.527 574.796C295.152 574.356 294.865 573.844 294.666 573.258C294.467 572.672 294.367 572.036 294.367 571.351ZM295.993 571.148V571.351C295.993 571.825 296.049 572.273 296.16 572.695C296.271 573.111 296.438 573.48 296.661 573.803C296.89 574.125 297.174 574.38 297.514 574.567C297.854 574.749 298.249 574.84 298.7 574.84C299.146 574.84 299.535 574.749 299.869 574.567C300.209 574.38 300.49 574.125 300.713 573.803C300.936 573.48 301.103 573.111 301.214 572.695C301.331 572.273 301.39 571.825 301.39 571.351V571.148C301.39 570.68 301.331 570.237 301.214 569.821C301.103 569.399 300.933 569.027 300.704 568.705C300.481 568.377 300.2 568.119 299.86 567.932C299.526 567.744 299.134 567.65 298.683 567.65C298.237 567.65 297.845 567.744 297.505 567.932C297.171 568.119 296.89 568.377 296.661 568.705C296.438 569.027 296.271 569.399 296.16 569.821C296.049 570.237 295.993 570.68 295.993 571.148ZM307.089 567.984V576H305.463V566.49H307.046L307.089 567.984ZM310.06 566.438L310.051 567.949C309.917 567.92 309.788 567.902 309.665 567.896C309.547 567.885 309.413 567.879 309.26 567.879C308.885 567.879 308.554 567.938 308.267 568.055C307.98 568.172 307.737 568.336 307.538 568.547C307.338 568.758 307.18 569.01 307.063 569.303C306.952 569.59 306.879 569.906 306.843 570.252L306.386 570.516C306.386 569.941 306.442 569.402 306.553 568.898C306.671 568.395 306.849 567.949 307.089 567.562C307.33 567.17 307.634 566.865 308.004 566.648C308.379 566.426 308.824 566.314 309.339 566.314C309.457 566.314 309.591 566.329 309.744 566.358C309.896 566.382 310.002 566.408 310.06 566.438ZM317.781 574.154V562.5H319.416V576H317.922L317.781 574.154ZM311.383 571.351V571.166C311.383 570.439 311.471 569.78 311.647 569.188C311.828 568.591 312.083 568.078 312.411 567.65C312.745 567.223 313.141 566.895 313.598 566.666C314.061 566.432 314.576 566.314 315.145 566.314C315.742 566.314 316.264 566.42 316.709 566.631C317.16 566.836 317.541 567.138 317.852 567.536C318.168 567.929 318.417 568.403 318.599 568.96C318.78 569.517 318.906 570.146 318.977 570.85V571.658C318.912 572.355 318.786 572.982 318.599 573.539C318.417 574.096 318.168 574.57 317.852 574.963C317.541 575.355 317.16 575.657 316.709 575.868C316.258 576.073 315.731 576.176 315.127 576.176C314.571 576.176 314.061 576.056 313.598 575.815C313.141 575.575 312.745 575.238 312.411 574.805C312.083 574.371 311.828 573.861 311.647 573.275C311.471 572.684 311.383 572.042 311.383 571.351ZM313.018 571.166V571.351C313.018 571.825 313.065 572.271 313.158 572.687C313.258 573.103 313.41 573.469 313.615 573.785C313.821 574.102 314.081 574.351 314.398 574.532C314.714 574.708 315.092 574.796 315.531 574.796C316.071 574.796 316.513 574.682 316.859 574.453C317.21 574.225 317.491 573.923 317.702 573.548C317.913 573.173 318.077 572.766 318.195 572.326V570.208C318.124 569.886 318.022 569.575 317.887 569.276C317.758 568.972 317.588 568.702 317.377 568.468C317.172 568.228 316.917 568.037 316.613 567.896C316.314 567.756 315.959 567.686 315.549 567.686C315.104 567.686 314.72 567.779 314.398 567.967C314.081 568.148 313.821 568.4 313.615 568.723C313.41 569.039 313.258 569.408 313.158 569.83C313.065 570.246 313.018 570.691 313.018 571.166Z" fill="#242424"/>
<path d="M112.951 471.816C112.839 471.64 112.735 471.4 112.639 471.096C112.543 470.792 112.495 470.472 112.495 470.136C112.495 469.512 112.631 469.064 112.903 468.792C113.191 468.52 113.559 468.384 114.007 468.384H124.471C124.583 468.56 124.687 468.8 124.783 469.104C124.879 469.408 124.927 469.728 124.927 470.064C124.927 470.688 124.783 471.136 124.495 471.408C124.223 471.68 123.863 471.816 123.415 471.816H120.751V482.904C120.575 482.952 120.295 483 119.911 483.048C119.543 483.096 119.175 483.12 118.807 483.12C118.439 483.12 118.111 483.088 117.823 483.024C117.551 482.976 117.319 482.88 117.127 482.736C116.935 482.592 116.791 482.392 116.695 482.136C116.599 481.88 116.551 481.544 116.551 481.128V471.816H112.951ZM135.03 482.904C134.853 482.952 134.581 483 134.213 483.048C133.845 483.096 133.485 483.12 133.134 483.12C132.398 483.12 131.845 483 131.477 482.76C131.109 482.504 130.925 481.976 130.925 481.176V477.936C130.525 477.344 130.093 476.688 129.629 475.968C129.165 475.248 128.709 474.512 128.261 473.76C127.813 473.008 127.397 472.272 127.013 471.552C126.629 470.816 126.317 470.144 126.077 469.536C126.285 469.248 126.565 468.984 126.917 468.744C127.285 468.504 127.733 468.384 128.261 468.384C128.885 468.384 129.389 468.512 129.773 468.768C130.173 469.024 130.549 469.504 130.901 470.208L132.893 474.216H133.037C133.261 473.72 133.453 473.272 133.613 472.872C133.789 472.456 133.957 472.048 134.118 471.648C134.278 471.232 134.446 470.808 134.622 470.376C134.797 469.928 134.997 469.416 135.222 468.84C135.51 468.696 135.829 468.584 136.182 468.504C136.533 468.424 136.869 468.384 137.19 468.384C137.75 468.384 138.221 468.536 138.605 468.84C139.006 469.128 139.206 469.568 139.206 470.16C139.206 470.352 139.166 470.584 139.086 470.856C139.006 471.128 138.822 471.544 138.534 472.104C138.246 472.648 137.822 473.392 137.261 474.336C136.718 475.28 135.974 476.512 135.03 478.032V482.904ZM146.527 475.2C147.199 475.2 147.711 475.048 148.063 474.744C148.431 474.424 148.615 473.944 148.615 473.304C148.615 472.696 148.423 472.232 148.039 471.912C147.671 471.576 147.127 471.408 146.407 471.408C146.151 471.408 145.935 471.416 145.759 471.432C145.599 471.432 145.431 471.448 145.255 471.48V475.2H146.527ZM145.279 482.904C145.103 482.952 144.823 483 144.439 483.048C144.071 483.096 143.703 483.12 143.335 483.12C142.967 483.12 142.639 483.088 142.351 483.024C142.079 482.976 141.847 482.88 141.655 482.736C141.463 482.592 141.319 482.392 141.223 482.136C141.127 481.88 141.079 481.544 141.079 481.128V469.824C141.079 469.488 141.167 469.232 141.343 469.056C141.535 468.864 141.791 468.712 142.111 468.6C142.655 468.408 143.271 468.272 143.959 468.192C144.663 468.096 145.367 468.048 146.071 468.048C148.279 468.048 149.967 468.52 151.135 469.464C152.303 470.408 152.887 471.688 152.887 473.304C152.887 474.088 152.759 474.8 152.503 475.44C152.263 476.064 151.895 476.608 151.399 477.072C150.919 477.52 150.303 477.872 149.551 478.128C148.815 478.368 147.959 478.488 146.983 478.488H145.279V482.904ZM154.924 470.688C154.924 470 155.124 469.456 155.524 469.056C155.924 468.656 156.468 468.456 157.156 468.456H165.076C165.188 468.632 165.284 468.864 165.364 469.152C165.46 469.44 165.508 469.744 165.508 470.064C165.508 470.672 165.372 471.104 165.1 471.36C164.844 471.616 164.5 471.744 164.068 471.744H159.004V473.976H164.404C164.516 474.152 164.612 474.384 164.692 474.672C164.788 474.944 164.836 475.24 164.836 475.56C164.836 476.168 164.708 476.6 164.452 476.856C164.196 477.112 163.852 477.24 163.42 477.24H159.004V479.76H165.172C165.284 479.936 165.38 480.168 165.46 480.456C165.556 480.744 165.604 481.048 165.604 481.368C165.604 481.976 165.468 482.416 165.196 482.688C164.94 482.944 164.596 483.072 164.164 483.072H157.156C156.468 483.072 155.924 482.872 155.524 482.472C155.124 482.072 154.924 481.528 154.924 480.84V470.688ZM180.309 482.904C180.133 482.952 179.861 483 179.493 483.048C179.125 483.096 178.765 483.12 178.413 483.12C177.677 483.12 177.125 483 176.757 482.76C176.389 482.504 176.205 481.976 176.205 481.176V477.936C175.805 477.344 175.373 476.688 174.909 475.968C174.445 475.248 173.989 474.512 173.541 473.76C173.093 473.008 172.677 472.272 172.293 471.552C171.909 470.816 171.597 470.144 171.357 469.536C171.565 469.248 171.845 468.984 172.197 468.744C172.565 468.504 173.013 468.384 173.541 468.384C174.165 468.384 174.669 468.512 175.053 468.768C175.453 469.024 175.829 469.504 176.181 470.208L178.173 474.216H178.317C178.541 473.72 178.733 473.272 178.893 472.872C179.069 472.456 179.237 472.048 179.397 471.648C179.557 471.232 179.725 470.808 179.901 470.376C180.077 469.928 180.277 469.416 180.501 468.84C180.789 468.696 181.109 468.584 181.461 468.504C181.813 468.424 182.149 468.384 182.469 468.384C183.029 468.384 183.501 468.536 183.885 468.84C184.285 469.128 184.485 469.568 184.485 470.16C184.485 470.352 184.445 470.584 184.365 470.856C184.285 471.128 184.101 471.544 183.813 472.104C183.525 472.648 183.101 473.392 182.541 474.336C181.997 475.28 181.253 476.512 180.309 478.032V482.904ZM185.287 475.704C185.287 474.456 185.479 473.352 185.863 472.392C186.263 471.432 186.799 470.632 187.471 469.992C188.159 469.336 188.959 468.84 189.871 468.504C190.799 468.168 191.799 468 192.871 468C193.943 468 194.935 468.168 195.847 468.504C196.775 468.84 197.583 469.336 198.271 469.992C198.959 470.632 199.495 471.432 199.879 472.392C200.279 473.352 200.479 474.456 200.479 475.704C200.479 476.952 200.287 478.064 199.903 479.04C199.519 480 198.983 480.808 198.295 481.464C197.623 482.104 196.823 482.592 195.895 482.928C194.967 483.264 193.959 483.432 192.871 483.432C191.783 483.432 190.775 483.264 189.847 482.928C188.919 482.576 188.119 482.072 187.447 481.416C186.775 480.76 186.247 479.952 185.863 478.992C185.479 478.032 185.287 476.936 185.287 475.704ZM189.607 475.704C189.607 477.16 189.903 478.248 190.495 478.968C191.087 479.688 191.879 480.048 192.871 480.048C193.879 480.048 194.679 479.688 195.271 478.968C195.863 478.248 196.159 477.16 196.159 475.704C196.159 474.264 195.863 473.184 195.271 472.464C194.695 471.744 193.903 471.384 192.895 471.384C191.903 471.384 191.103 471.744 190.495 472.464C189.903 473.168 189.607 474.248 189.607 475.704ZM215.67 477.624C215.67 478.488 215.518 479.28 215.214 480C214.926 480.704 214.502 481.312 213.942 481.824C213.382 482.32 212.702 482.704 211.902 482.976C211.102 483.248 210.198 483.384 209.19 483.384C208.182 483.384 207.278 483.248 206.478 482.976C205.678 482.704 204.998 482.32 204.438 481.824C203.878 481.312 203.446 480.704 203.142 480C202.854 479.28 202.71 478.488 202.71 477.624V468.456C202.886 468.424 203.166 468.384 203.55 468.336C203.934 468.272 204.302 468.24 204.654 468.24C205.022 468.24 205.342 468.272 205.614 468.336C205.902 468.384 206.142 468.48 206.334 468.624C206.526 468.768 206.67 468.968 206.766 469.224C206.862 469.48 206.91 469.816 206.91 470.232V477.552C206.91 478.32 207.118 478.92 207.534 479.352C207.966 479.784 208.518 480 209.19 480C209.878 480 210.43 479.784 210.846 479.352C211.262 478.92 211.47 478.32 211.47 477.552V468.456C211.646 468.424 211.926 468.384 212.31 468.336C212.694 468.272 213.062 468.24 213.414 468.24C213.782 468.24 214.102 468.272 214.374 468.336C214.662 468.384 214.902 468.48 215.094 468.624C215.286 468.768 215.43 468.968 215.526 469.224C215.622 469.48 215.67 469.816 215.67 470.232V477.624ZM222.795 478.296V482.904C222.619 482.952 222.339 483 221.955 483.048C221.587 483.096 221.219 483.12 220.851 483.12C220.483 483.12 220.155 483.088 219.867 483.024C219.595 482.976 219.363 482.88 219.171 482.736C218.995 482.592 218.859 482.392 218.763 482.136C218.667 481.88 218.619 481.544 218.619 481.128V469.824C218.619 469.488 218.707 469.232 218.883 469.056C219.075 468.864 219.331 468.712 219.651 468.6C220.195 468.408 220.827 468.272 221.547 468.192C222.267 468.096 223.035 468.048 223.851 468.048C226.059 468.048 227.723 468.512 228.843 469.44C229.963 470.368 230.523 471.624 230.523 473.208C230.523 474.2 230.267 475.048 229.755 475.752C229.243 476.456 228.635 477 227.931 477.384C228.507 478.168 229.075 478.904 229.635 479.592C230.195 480.28 230.635 480.904 230.955 481.464C230.795 482.024 230.499 482.456 230.067 482.76C229.651 483.048 229.179 483.192 228.651 483.192C228.299 483.192 227.995 483.152 227.739 483.072C227.483 482.992 227.259 482.88 227.067 482.736C226.875 482.592 226.699 482.416 226.539 482.208C226.379 482 226.227 481.776 226.083 481.536L224.067 478.296H222.795ZM224.307 475.104C224.915 475.104 225.395 474.952 225.747 474.648C226.099 474.328 226.275 473.864 226.275 473.256C226.275 472.648 226.075 472.192 225.675 471.888C225.291 471.568 224.675 471.408 223.827 471.408C223.587 471.408 223.395 471.416 223.251 471.432C223.107 471.448 222.947 471.472 222.771 471.504V475.104H224.307ZM237.849 470.688C237.849 470 238.049 469.456 238.449 469.056C238.849 468.656 239.393 468.456 240.081 468.456H248.001C248.113 468.632 248.209 468.864 248.289 469.152C248.385 469.44 248.433 469.744 248.433 470.064C248.433 470.672 248.297 471.104 248.025 471.36C247.769 471.616 247.425 471.744 246.993 471.744H241.929V473.976H247.329C247.441 474.152 247.537 474.384 247.617 474.672C247.713 474.944 247.761 475.24 247.761 475.56C247.761 476.168 247.633 476.6 247.377 476.856C247.121 477.112 246.777 477.24 246.345 477.24H241.929V479.76H248.097C248.209 479.936 248.305 480.168 248.385 480.456C248.481 480.744 248.529 481.048 248.529 481.368C248.529 481.976 248.393 482.416 248.121 482.688C247.865 482.944 247.521 483.072 247.089 483.072H240.081C239.393 483.072 238.849 482.872 238.449 482.472C238.049 482.072 237.849 481.528 237.849 480.84V470.688ZM261.047 479.424C260.839 479.6 260.567 479.744 260.231 479.856C259.911 479.952 259.535 480 259.103 480C258.527 480 258.047 479.928 257.663 479.784C257.295 479.64 257.055 479.392 256.943 479.04C256.495 477.632 256.127 476.496 255.839 475.632C255.551 474.752 255.327 473.984 255.167 473.328H255.047C254.999 474.272 254.959 475.136 254.927 475.92C254.911 476.688 254.895 477.44 254.879 478.176C254.879 478.912 254.863 479.656 254.831 480.408C254.815 481.16 254.783 481.992 254.735 482.904C254.527 482.984 254.255 483.048 253.919 483.096C253.583 483.16 253.247 483.192 252.911 483.192C252.207 483.192 251.655 483.08 251.255 482.856C250.871 482.632 250.679 482.224 250.679 481.632L251.375 469.392C251.503 469.184 251.783 468.96 252.215 468.72C252.647 468.48 253.255 468.36 254.039 468.36C254.887 468.36 255.551 468.496 256.031 468.768C256.511 469.024 256.863 469.448 257.087 470.04C257.231 470.424 257.383 470.864 257.543 471.36C257.719 471.856 257.887 472.368 258.047 472.896C258.223 473.424 258.391 473.952 258.551 474.48C258.711 474.992 258.855 475.456 258.983 475.872H259.103C259.487 474.528 259.871 473.232 260.255 471.984C260.639 470.72 260.991 469.664 261.311 468.816C261.551 468.688 261.855 468.584 262.223 468.504C262.607 468.408 263.031 468.36 263.495 468.36C264.279 468.36 264.919 468.48 265.415 468.72C265.911 468.944 266.199 469.272 266.279 469.704C266.343 470.024 266.407 470.52 266.471 471.192C266.551 471.848 266.631 472.592 266.711 473.424C266.791 474.256 266.871 475.136 266.951 476.064C267.031 476.992 267.103 477.888 267.167 478.752C267.247 479.6 267.311 480.384 267.359 481.104C267.407 481.808 267.439 482.352 267.455 482.736C267.183 482.896 266.895 483.008 266.591 483.072C266.303 483.152 265.927 483.192 265.463 483.192C264.855 483.192 264.343 483.088 263.927 482.88C263.511 482.672 263.287 482.264 263.255 481.656C263.159 479.912 263.095 478.344 263.063 476.952C263.047 475.56 263.015 474.392 262.967 473.448H262.847C262.687 474.072 262.455 474.856 262.151 475.8C261.847 476.744 261.479 477.952 261.047 479.424ZM273.229 468.888C273.501 468.728 273.909 468.576 274.453 468.432C275.013 468.288 275.573 468.216 276.133 468.216C276.933 468.216 277.637 468.336 278.245 468.576C278.869 468.8 279.269 469.16 279.445 469.656C279.733 470.488 280.045 471.456 280.381 472.56C280.717 473.664 281.053 474.808 281.389 475.992C281.725 477.16 282.053 478.32 282.373 479.472C282.693 480.608 282.973 481.616 283.213 482.496C283.021 482.72 282.733 482.896 282.349 483.024C281.965 483.168 281.509 483.24 280.981 483.24C280.597 483.24 280.269 483.208 279.997 483.144C279.741 483.08 279.525 482.984 279.349 482.856C279.189 482.728 279.053 482.56 278.941 482.352C278.845 482.144 278.757 481.904 278.677 481.632L278.245 479.976H273.901C273.773 480.456 273.645 480.952 273.517 481.464C273.389 481.976 273.261 482.472 273.133 482.952C272.909 483.032 272.669 483.096 272.413 483.144C272.173 483.208 271.877 483.24 271.525 483.24C270.709 483.24 270.101 483.104 269.701 482.832C269.317 482.544 269.125 482.152 269.125 481.656C269.125 481.432 269.157 481.208 269.221 480.984C269.285 480.76 269.357 480.496 269.437 480.192C269.549 479.76 269.701 479.224 269.893 478.584C270.101 477.944 270.325 477.256 270.565 476.52C270.805 475.768 271.061 475 271.333 474.216C271.605 473.432 271.861 472.696 272.101 472.008C272.341 471.304 272.557 470.68 272.749 470.136C272.957 469.592 273.117 469.176 273.229 468.888ZM276.109 471.984C275.885 472.656 275.629 473.408 275.341 474.24C275.069 475.056 274.821 475.888 274.597 476.736H277.573C277.349 475.872 277.117 475.032 276.877 474.216C276.653 473.384 276.445 472.64 276.253 471.984H276.109ZM289.28 482.904C289.104 482.952 288.824 483 288.44 483.048C288.072 483.096 287.704 483.12 287.336 483.12C286.968 483.12 286.64 483.088 286.352 483.024C286.08 482.976 285.848 482.88 285.656 482.736C285.464 482.592 285.32 482.392 285.224 482.136C285.128 481.88 285.08 481.544 285.08 481.128V468.456C285.256 468.424 285.536 468.384 285.92 468.336C286.304 468.272 286.672 468.24 287.024 468.24C287.392 468.24 287.712 468.272 287.984 468.336C288.272 468.384 288.512 468.48 288.704 468.624C288.896 468.768 289.04 468.968 289.136 469.224C289.232 469.48 289.28 469.816 289.28 470.232V482.904ZM294.525 483.072C293.837 483.072 293.293 482.872 292.893 482.472C292.493 482.072 292.293 481.528 292.293 480.84V468.432C292.469 468.4 292.749 468.36 293.133 468.312C293.517 468.248 293.885 468.216 294.237 468.216C294.605 468.216 294.925 468.248 295.197 468.312C295.485 468.36 295.725 468.456 295.917 468.6C296.109 468.744 296.253 468.944 296.349 469.2C296.445 469.456 296.493 469.792 296.493 470.208V479.688H301.989C302.101 479.864 302.205 480.104 302.301 480.408C302.397 480.696 302.445 481 302.445 481.32C302.445 481.96 302.309 482.416 302.037 482.688C301.765 482.944 301.405 483.072 300.957 483.072H294.525Z" fill="#5A7FCC"/>
<path d="M62.7143 655H47.2857C46.9447 655 46.6177 655.158 46.3766 655.439C46.1355 655.721 46 656.102 46 656.5V668.5C46 668.898 46.1355 669.279 46.3766 669.561C46.6177 669.842 46.9447 670 47.2857 670H62.7143C63.0553 670 63.3823 669.842 63.6234 669.561C63.8645 669.279 64 668.898 64 668.5V656.5C64 656.102 63.8645 655.721 63.6234 655.439C63.3823 655.158 63.0553 655 62.7143 655ZM61.3 656.5L55 661.585L48.7 656.5H61.3ZM47.2857 668.5V657.182L54.6336 663.115C54.7412 663.202 54.869 663.249 55 663.249C55.131 663.249 55.2588 663.202 55.3664 663.115L62.7143 657.182V668.5H47.2857Z" fill="#BDBDBD"/>
<path d="M75.04 658.792C75.04 658.333 75.1733 657.971 75.44 657.704C75.7067 657.437 76.0693 657.304 76.528 657.304H81.808C81.8827 657.421 81.9467 657.576 82 657.768C82.064 657.96 82.096 658.163 82.096 658.376C82.096 658.781 82.0053 659.069 81.824 659.24C81.6533 659.411 81.424 659.496 81.136 659.496H77.76V660.984H81.36C81.4347 661.101 81.4987 661.256 81.552 661.448C81.616 661.629 81.648 661.827 81.648 662.04C81.648 662.445 81.5627 662.733 81.392 662.904C81.2213 663.075 80.992 663.16 80.704 663.16H77.76V664.84H81.872C81.9467 664.957 82.0107 665.112 82.064 665.304C82.128 665.496 82.16 665.699 82.16 665.912C82.16 666.317 82.0693 666.611 81.888 666.792C81.7173 666.963 81.488 667.048 81.2 667.048H76.528C76.0693 667.048 75.7067 666.915 75.44 666.648C75.1733 666.381 75.04 666.019 75.04 665.56V658.792ZM87.0475 658.984C87.4848 658.984 87.9115 659.048 88.3275 659.176C88.7542 659.293 89.1222 659.475 89.4315 659.72C89.7515 659.507 90.1088 659.331 90.5035 659.192C90.9088 659.053 91.3942 658.984 91.9595 658.984C92.3648 658.984 92.7595 659.037 93.1435 659.144C93.5382 659.251 93.8848 659.421 94.1835 659.656C94.4928 659.88 94.7382 660.184 94.9195 660.568C95.1008 660.941 95.1915 661.4 95.1915 661.944V666.984C95.0848 667.016 94.9142 667.048 94.6795 667.08C94.4555 667.112 94.2208 667.128 93.9755 667.128C93.7408 667.128 93.5275 667.112 93.3355 667.08C93.1542 667.048 92.9995 666.984 92.8715 666.888C92.7435 666.792 92.6422 666.664 92.5675 666.504C92.5035 666.333 92.4715 666.115 92.4715 665.848V662.024C92.4715 661.704 92.3808 661.475 92.1995 661.336C92.0182 661.187 91.7728 661.112 91.4635 661.112C91.3142 661.112 91.1542 661.149 90.9835 661.224C90.8128 661.288 90.6848 661.357 90.5995 661.432C90.6102 661.475 90.6155 661.517 90.6155 661.56C90.6155 661.592 90.6155 661.624 90.6155 661.656V666.984C90.4982 667.016 90.3222 667.048 90.0875 667.08C89.8635 667.112 89.6342 667.128 89.3995 667.128C89.1648 667.128 88.9515 667.112 88.7595 667.08C88.5782 667.048 88.4235 666.984 88.2955 666.888C88.1675 666.792 88.0662 666.664 87.9915 666.504C87.9275 666.333 87.8955 666.115 87.8955 665.848V662.024C87.8955 661.704 87.7942 661.475 87.5915 661.336C87.3995 661.187 87.1648 661.112 86.8875 661.112C86.6955 661.112 86.5302 661.144 86.3915 661.208C86.2528 661.261 86.1355 661.315 86.0395 661.368V666.984C85.9328 667.016 85.7622 667.048 85.5275 667.08C85.3035 667.112 85.0688 667.128 84.8235 667.128C84.5888 667.128 84.3755 667.112 84.1835 667.08C84.0022 667.048 83.8475 666.984 83.7195 666.888C83.5915 666.792 83.4902 666.664 83.4155 666.504C83.3515 666.333 83.3195 666.115 83.3195 665.848V661.016C83.3195 660.728 83.3782 660.499 83.4955 660.328C83.6235 660.157 83.7942 659.997 84.0075 659.848C84.3702 659.592 84.8182 659.384 85.3515 659.224C85.8955 659.064 86.4608 658.984 87.0475 658.984ZM99.9788 665.272C100.16 665.272 100.357 665.256 100.571 665.224C100.795 665.181 100.96 665.128 101.067 665.064V663.784L99.9148 663.88C99.6161 663.901 99.3708 663.965 99.1788 664.072C98.9868 664.179 98.8908 664.339 98.8908 664.552C98.8908 664.765 98.9708 664.941 99.1308 665.08C99.3014 665.208 99.5841 665.272 99.9788 665.272ZM99.8508 658.984C100.427 658.984 100.949 659.043 101.419 659.16C101.899 659.277 102.304 659.459 102.635 659.704C102.976 659.939 103.237 660.243 103.419 660.616C103.6 660.979 103.691 661.411 103.691 661.912V665.496C103.691 665.773 103.611 666.003 103.451 666.184C103.301 666.355 103.12 666.504 102.907 666.632C102.213 667.048 101.237 667.256 99.9788 667.256C99.4134 667.256 98.9014 667.203 98.4428 667.096C97.9948 666.989 97.6054 666.829 97.2748 666.616C96.9548 666.403 96.7041 666.131 96.5228 665.8C96.3521 665.469 96.2668 665.085 96.2668 664.648C96.2668 663.912 96.4854 663.347 96.9228 662.952C97.3601 662.557 98.0374 662.312 98.9548 662.216L101.051 661.992V661.88C101.051 661.571 100.912 661.352 100.635 661.224C100.368 661.085 99.9788 661.016 99.4668 661.016C99.0614 661.016 98.6668 661.059 98.2828 661.144C97.8988 661.229 97.5521 661.336 97.2428 661.464C97.1041 661.368 96.9868 661.224 96.8908 661.032C96.7948 660.829 96.7468 660.621 96.7468 660.408C96.7468 660.131 96.8108 659.912 96.9388 659.752C97.0774 659.581 97.2854 659.437 97.5628 659.32C97.8721 659.203 98.2348 659.117 98.6508 659.064C99.0774 659.011 99.4774 658.984 99.8508 658.984ZM105.09 657.064C105.09 656.659 105.223 656.317 105.49 656.04C105.767 655.763 106.13 655.624 106.578 655.624C107.026 655.624 107.383 655.763 107.65 656.04C107.927 656.317 108.066 656.659 108.066 657.064C108.066 657.469 107.927 657.811 107.65 658.088C107.383 658.365 107.026 658.504 106.578 658.504C106.13 658.504 105.767 658.365 105.49 658.088C105.223 657.811 105.09 657.469 105.09 657.064ZM107.938 666.984C107.821 667.005 107.645 667.032 107.41 667.064C107.186 667.107 106.957 667.128 106.722 667.128C106.487 667.128 106.274 667.112 106.082 667.08C105.901 667.048 105.746 666.984 105.618 666.888C105.49 666.792 105.389 666.664 105.314 666.504C105.25 666.333 105.218 666.115 105.218 665.848V659.336C105.335 659.315 105.506 659.288 105.73 659.256C105.965 659.213 106.199 659.192 106.434 659.192C106.669 659.192 106.877 659.208 107.058 659.24C107.25 659.272 107.41 659.336 107.538 659.432C107.666 659.528 107.762 659.661 107.826 659.832C107.901 659.992 107.938 660.205 107.938 660.472V666.984ZM112.238 666.984C112.12 667.005 111.944 667.032 111.71 667.064C111.486 667.107 111.256 667.128 111.022 667.128C110.787 667.128 110.574 667.112 110.382 667.08C110.2 667.048 110.046 666.984 109.918 666.888C109.79 666.792 109.688 666.664 109.614 666.504C109.55 666.333 109.518 666.115 109.518 665.848V656.568C109.635 656.547 109.806 656.52 110.03 656.488C110.264 656.445 110.499 656.424 110.734 656.424C110.968 656.424 111.176 656.44 111.358 656.472C111.55 656.504 111.71 656.568 111.838 656.664C111.966 656.76 112.062 656.893 112.126 657.064C112.2 657.224 112.238 657.437 112.238 657.704V666.984Z" fill="#BDBDBD"/>
</g>
<defs>
<clipPath id="clip0_8_327">
<rect width="414" height="896" fill="white"/>
</clipPath>
</defs>
</svg>
