<svg width="414" height="896" viewBox="0 0 414 896" fill="none" xmlns="http://www.w3.org/2000/svg">
<g clip-path="url(#clip0_5_92)">
<rect width="414" height="896" fill="#5A7FCC"/>
<rect width="415" height="44" transform="translate(-1)" fill="white"/>
<path d="M35.942 28.23C36.582 28.23 37.092 28.065 37.472 27.735C37.862 27.405 38.057 26.95 38.057 26.37C37.947 26.46 37.742 26.565 37.442 26.685C37.152 26.805 36.777 26.865 36.317 26.865C35.857 26.865 35.437 26.8 35.057 26.67C34.687 26.54 34.367 26.35 34.097 26.1C33.827 25.84 33.617 25.525 33.467 25.155C33.317 24.785 33.242 24.355 33.242 23.865C33.242 23.435 33.317 23.03 33.467 22.65C33.617 22.26 33.842 21.92 34.142 21.63C34.442 21.33 34.812 21.095 35.252 20.925C35.702 20.745 36.222 20.655 36.812 20.655C37.992 20.655 38.917 21.05 39.587 21.84C40.267 22.63 40.607 23.755 40.607 25.215C40.607 26.045 40.502 26.775 40.292 27.405C40.082 28.035 39.787 28.56 39.407 28.98C39.037 29.4 38.592 29.715 38.072 29.925C37.552 30.135 36.977 30.24 36.347 30.24C35.547 30.24 34.922 30.13 34.472 29.91C34.022 29.69 33.797 29.355 33.797 28.905C33.797 28.695 33.842 28.495 33.932 28.305C34.032 28.105 34.147 27.955 34.277 27.855C34.547 27.975 34.827 28.07 35.117 28.14C35.417 28.2 35.692 28.23 35.942 28.23ZM36.902 24.945C37.092 24.945 37.282 24.905 37.472 24.825C37.672 24.745 37.837 24.635 37.967 24.495V24.315C37.957 23.745 37.857 23.33 37.667 23.07C37.477 22.81 37.197 22.68 36.827 22.68C36.497 22.68 36.237 22.785 36.047 22.995C35.867 23.195 35.777 23.47 35.777 23.82C35.777 24.16 35.882 24.435 36.092 24.645C36.302 24.845 36.572 24.945 36.902 24.945ZM41.4412 24.075C41.4412 23.655 41.5712 23.305 41.8312 23.025C42.0912 22.745 42.4462 22.605 42.8962 22.605C43.3462 22.605 43.7012 22.745 43.9612 23.025C44.2212 23.305 44.3512 23.655 44.3512 24.075C44.3512 24.495 44.2212 24.845 43.9612 25.125C43.7012 25.405 43.3462 25.545 42.8962 25.545C42.4462 25.545 42.0912 25.405 41.8312 25.125C41.5712 24.845 41.4412 24.495 41.4412 24.075ZM41.4412 28.785C41.4412 28.365 41.5712 28.015 41.8312 27.735C42.0912 27.455 42.4462 27.315 42.8962 27.315C43.3462 27.315 43.7012 27.455 43.9612 27.735C44.2212 28.015 44.3512 28.365 44.3512 28.785C44.3512 29.205 44.2212 29.555 43.9612 29.835C43.7012 30.115 43.3462 30.255 42.8962 30.255C42.4462 30.255 42.0912 30.115 41.8312 29.835C41.5712 29.555 41.4412 29.205 41.4412 28.785ZM48.9534 20.985C49.1434 20.925 49.3584 20.875 49.5984 20.835C49.8484 20.795 50.0734 20.775 50.2734 20.775C50.5034 20.775 50.7234 20.8 50.9334 20.85C51.1534 20.89 51.3484 20.965 51.5184 21.075C51.6884 21.175 51.8234 21.315 51.9234 21.495C52.0234 21.675 52.0734 21.9 52.0734 22.17V26.16H53.4084C53.4684 26.27 53.5284 26.415 53.5884 26.595C53.6484 26.775 53.6784 26.965 53.6784 27.165C53.6784 27.545 53.5934 27.815 53.4234 27.975C53.2534 28.135 53.0384 28.215 52.7784 28.215H52.0734V29.985C51.9634 30.005 51.7984 30.03 51.5784 30.06C51.3584 30.1 51.1484 30.12 50.9484 30.12C50.7284 30.12 50.5334 30.11 50.3634 30.09C50.1934 30.07 50.0484 30.025 49.9284 29.955C49.8184 29.875 49.7334 29.765 49.6734 29.625C49.6134 29.485 49.5834 29.295 49.5834 29.055V28.215H45.8184C45.5884 28.095 45.3884 27.92 45.2184 27.69C45.0584 27.45 44.9784 27.16 44.9784 26.82C44.9784 26.63 45.0034 26.42 45.0534 26.19C45.1034 25.96 45.1884 25.76 45.3084 25.59L48.9534 20.985ZM49.7184 23.34H49.6734L47.6784 26.16H49.7184V23.34ZM55.6271 23.31L54.1271 23.775C53.9771 23.675 53.8271 23.535 53.6771 23.355C53.5271 23.175 53.4521 22.925 53.4521 22.605C53.4521 22.005 53.8171 21.585 54.5471 21.345L56.2271 20.775H56.7821C57.2121 20.775 57.5521 20.9 57.8021 21.15C58.0521 21.4 58.1771 21.74 58.1771 22.17V29.985C58.0671 30.005 57.9021 30.03 57.6821 30.06C57.4721 30.1 57.2571 30.12 57.0371 30.12C56.8171 30.12 56.6171 30.105 56.4371 30.075C56.2671 30.045 56.1221 29.985 56.0021 29.895C55.8821 29.805 55.7871 29.685 55.7171 29.535C55.6571 29.375 55.6271 29.17 55.6271 28.92V23.31Z" fill="#212121"/>
<path fill-rule="evenodd" clip-rule="evenodd" d="M378.589 17.16H393.411C394.659 17.16 395.111 17.29 395.568 17.534C396.024 17.778 396.382 18.1361 396.626 18.5924C396.87 19.0487 397 19.5013 397 20.7494V25.0706C397 26.3187 396.87 26.7713 396.626 27.2276C396.382 27.6839 396.024 28.042 395.568 28.286C395.111 28.53 394.659 28.66 393.411 28.66H378.589C377.341 28.66 376.889 28.53 376.432 28.286C375.976 28.042 375.618 27.6839 375.374 27.2276C375.13 26.7713 375 26.3187 375 25.0706V20.7494C375 19.5013 375.13 19.0487 375.374 18.5924C375.618 18.1361 375.976 17.778 376.432 17.534C376.889 17.29 377.341 17.16 378.589 17.16ZM378.589 18.16C377.602 18.16 377.258 18.2265 376.904 18.4158C376.622 18.5666 376.407 18.782 376.256 19.064C376.067 19.4179 376 19.7625 376 20.7494V25.0706C376 26.0575 376.067 26.4021 376.256 26.756C376.407 27.038 376.622 27.2534 376.904 27.4042C377.258 27.5935 377.602 27.66 378.589 27.66H393.411C394.398 27.66 394.742 27.5935 395.096 27.4042C395.378 27.2534 395.593 27.038 395.744 26.756C395.933 26.4021 396 26.0575 396 25.0706V20.7494C396 19.7625 395.933 19.4179 395.744 19.064C395.593 18.782 395.378 18.5666 395.096 18.4158C394.742 18.2265 394.398 18.16 393.411 18.16H378.589ZM399.5 22.85C399.5 24.0866 398 24.85 398 24.85V20.85C398 20.85 399.5 21.6134 399.5 22.85Z" fill="#212121"/>
<rect x="377" y="19.0767" width="18" height="7.66667" rx="1.6" fill="#212121"/>
<path fill-rule="evenodd" clip-rule="evenodd" d="M346.623 18.5659C346.6 18.6818 346.6 18.8212 346.6 19.1V26.8C346.6 27.0788 346.6 27.2182 346.623 27.3341C346.718 27.8101 347.09 28.1823 347.566 28.2769C347.682 28.3 347.821 28.3 348.1 28.3C348.379 28.3 348.518 28.3 348.634 28.2769C349.11 28.1823 349.482 27.8101 349.577 27.3341C349.6 27.2182 349.6 27.0788 349.6 26.8V19.1C349.6 18.8212 349.6 18.6818 349.577 18.5659C349.482 18.0899 349.11 17.7178 348.634 17.6231C348.518 17.6 348.379 17.6 348.1 17.6C347.821 17.6 347.682 17.6 347.566 17.6231C347.09 17.7178 346.718 18.0899 346.623 18.5659ZM341.9 21.5C341.9 21.2212 341.9 21.0818 341.923 20.9659C342.018 20.4899 342.39 20.1178 342.866 20.0231C342.982 20 343.121 20 343.4 20C343.679 20 343.818 20 343.934 20.0231C344.41 20.1178 344.782 20.4899 344.877 20.9659C344.9 21.0818 344.9 21.2212 344.9 21.5V26.8C344.9 27.0788 344.9 27.2182 344.877 27.3341C344.782 27.8101 344.41 28.1823 343.934 28.277C343.818 28.3 343.679 28.3 343.4 28.3C343.121 28.3 342.982 28.3 342.866 28.277C342.39 28.1823 342.018 27.8101 341.923 27.3341C341.9 27.2182 341.9 27.0788 341.9 26.8V21.5ZM337.323 23.2659C337.3 23.3818 337.3 23.5212 337.3 23.8V26.8C337.3 27.0788 337.3 27.2182 337.323 27.3341C337.418 27.8101 337.79 28.1823 338.266 28.277C338.382 28.3 338.521 28.3 338.8 28.3C339.079 28.3 339.218 28.3 339.334 28.277C339.81 28.1823 340.182 27.8101 340.277 27.3341C340.3 27.2182 340.3 27.0788 340.3 26.8V23.8C340.3 23.5212 340.3 23.3818 340.277 23.2659C340.182 22.7899 339.81 22.4178 339.334 22.3231C339.218 22.3 339.079 22.3 338.8 22.3C338.521 22.3 338.382 22.3 338.266 22.3231C337.79 22.4178 337.418 22.7899 337.323 23.2659ZM332.523 25.2659C332.5 25.3818 332.5 25.5212 332.5 25.8V26.8C332.5 27.0788 332.5 27.2182 332.523 27.3341C332.618 27.8101 332.99 28.1823 333.466 28.277C333.582 28.3 333.721 28.3 334 28.3C334.279 28.3 334.418 28.3 334.534 28.277C335.01 28.1823 335.382 27.8101 335.477 27.3341C335.5 27.2182 335.5 27.0788 335.5 26.8V25.8C335.5 25.5212 335.5 25.3818 335.477 25.2659C335.382 24.7899 335.01 24.4178 334.534 24.3231C334.418 24.3 334.279 24.3 334 24.3C333.721 24.3 333.582 24.3 333.466 24.3231C332.99 24.4178 332.618 24.7899 332.523 25.2659Z" fill="#212121"/>
<path fill-rule="evenodd" clip-rule="evenodd" d="M362.3 19.6964C364.535 19.6965 366.684 20.555 368.303 22.0946C368.425 22.2134 368.62 22.2119 368.74 22.0912L369.906 20.9148C369.967 20.8536 370 20.7706 370 20.6843C369.999 20.598 369.965 20.5155 369.903 20.455C365.653 16.3817 358.947 16.3817 354.697 20.455C354.635 20.5154 354.601 20.598 354.6 20.6843C354.599 20.7705 354.633 20.8535 354.694 20.9148L355.86 22.0912C355.98 22.2121 356.175 22.2136 356.297 22.0946C357.917 20.5549 360.066 19.6963 362.3 19.6964ZM362.3 23.5237C363.528 23.5237 364.712 23.98 365.622 24.804C365.745 24.921 365.939 24.9184 366.059 24.7983L367.223 23.6219C367.285 23.5602 367.319 23.4765 367.318 23.3895C367.317 23.3025 367.281 23.2195 367.218 23.1591C364.447 20.5813 360.156 20.5813 357.385 23.1591C357.322 23.2195 357.286 23.3025 357.286 23.3896C357.285 23.4766 357.319 23.5603 357.38 23.6219L358.544 24.7983C358.664 24.9184 358.858 24.921 358.981 24.804C359.891 23.9805 361.074 23.5242 362.3 23.5237ZM364.538 26.3313C364.6 26.2702 364.635 26.1861 364.633 26.0989C364.631 26.0117 364.593 25.929 364.529 25.8705C363.242 24.7826 361.358 24.7826 360.072 25.8705C360.008 25.929 359.97 26.0116 359.968 26.0988C359.966 26.1861 360 26.2702 360.063 26.3313L362.077 28.3639C362.136 28.4236 362.216 28.4572 362.3 28.4572C362.384 28.4572 362.465 28.4236 362.524 28.3639L364.538 26.3313Z" fill="#212121"/>
<path d="M126.703 258.964C127.879 258.964 128.983 259.168 130.015 259.576C131.071 259.96 131.983 260.536 132.751 261.304C133.519 262.072 134.119 263.032 134.551 264.184C135.007 265.336 135.235 266.668 135.235 268.18C135.235 269.692 134.995 271.036 134.515 272.212C134.059 273.364 133.411 274.336 132.571 275.128C131.731 275.92 130.699 276.532 129.475 276.964C128.275 277.372 126.943 277.576 125.479 277.576C123.895 277.576 122.551 277.384 121.447 277C120.343 276.64 119.407 276.184 118.639 275.632C117.583 274.888 117.055 273.928 117.055 272.752V253.528C117.319 253.456 117.691 253.384 118.171 253.312C118.675 253.24 119.215 253.204 119.791 253.204C120.991 253.204 121.855 253.408 122.383 253.816C122.911 254.2 123.175 254.956 123.175 256.084V259.648C123.655 259.456 124.183 259.3 124.759 259.18C125.359 259.036 126.007 258.964 126.703 258.964ZM125.551 263.752C125.071 263.752 124.627 263.812 124.219 263.932C123.835 264.052 123.475 264.208 123.139 264.4V272.212C123.403 272.356 123.715 272.488 124.075 272.608C124.459 272.704 124.903 272.752 125.407 272.752C126.487 272.752 127.351 272.368 127.999 271.6C128.647 270.832 128.971 269.692 128.971 268.18C128.971 266.644 128.659 265.528 128.035 264.832C127.435 264.112 126.607 263.752 125.551 263.752ZM156.161 268.252C156.161 269.692 155.933 270.988 155.477 272.14C155.045 273.292 154.409 274.276 153.569 275.092C152.753 275.884 151.769 276.496 150.617 276.928C149.465 277.36 148.169 277.576 146.729 277.576C145.289 277.576 143.993 277.372 142.841 276.964C141.689 276.532 140.693 275.92 139.853 275.128C139.037 274.312 138.401 273.328 137.945 272.176C137.513 271.024 137.297 269.716 137.297 268.252C137.297 266.836 137.525 265.552 137.981 264.4C138.437 263.248 139.073 262.276 139.889 261.484C140.729 260.668 141.725 260.044 142.877 259.612C144.029 259.18 145.313 258.964 146.729 258.964C148.145 258.964 149.429 259.192 150.581 259.648C151.733 260.08 152.717 260.704 153.533 261.52C154.373 262.312 155.021 263.284 155.477 264.436C155.933 265.588 156.161 266.86 156.161 268.252ZM146.729 263.752C145.721 263.752 144.941 264.148 144.389 264.94C143.837 265.708 143.561 266.812 143.561 268.252C143.561 269.764 143.837 270.904 144.389 271.672C144.941 272.416 145.721 272.788 146.729 272.788C147.737 272.788 148.517 272.404 149.069 271.636C149.621 270.868 149.897 269.74 149.897 268.252C149.897 266.812 149.621 265.708 149.069 264.94C148.517 264.148 147.737 263.752 146.729 263.752ZM177.089 268.252C177.089 269.692 176.861 270.988 176.405 272.14C175.973 273.292 175.337 274.276 174.497 275.092C173.681 275.884 172.697 276.496 171.545 276.928C170.393 277.36 169.097 277.576 167.657 277.576C166.217 277.576 164.921 277.372 163.769 276.964C162.617 276.532 161.621 275.92 160.781 275.128C159.965 274.312 159.329 273.328 158.873 272.176C158.441 271.024 158.225 269.716 158.225 268.252C158.225 266.836 158.453 265.552 158.909 264.4C159.365 263.248 160.001 262.276 160.817 261.484C161.657 260.668 162.653 260.044 163.805 259.612C164.957 259.18 166.241 258.964 167.657 258.964C169.073 258.964 170.357 259.192 171.509 259.648C172.661 260.08 173.645 260.704 174.461 261.52C175.301 262.312 175.949 263.284 176.405 264.436C176.861 265.588 177.089 266.86 177.089 268.252ZM167.657 263.752C166.649 263.752 165.869 264.148 165.317 264.94C164.765 265.708 164.489 266.812 164.489 268.252C164.489 269.764 164.765 270.904 165.317 271.672C165.869 272.416 166.649 272.788 167.657 272.788C168.665 272.788 169.445 272.404 169.997 271.636C170.549 270.868 170.825 269.74 170.825 268.252C170.825 266.812 170.549 265.708 169.997 264.94C169.445 264.148 168.665 263.752 167.657 263.752ZM186.102 276.964C185.838 277.036 185.454 277.108 184.95 277.18C184.47 277.252 183.942 277.288 183.366 277.288C182.166 277.288 181.302 277.096 180.774 276.712C180.246 276.304 179.982 275.536 179.982 274.408V253.528C180.246 253.456 180.618 253.384 181.098 253.312C181.602 253.24 182.142 253.204 182.718 253.204C183.918 253.204 184.782 253.408 185.31 253.816C185.838 254.2 186.102 254.956 186.102 256.084V265.588L192.294 259.252C193.542 259.252 194.538 259.528 195.282 260.08C196.05 260.632 196.434 261.328 196.434 262.168C196.434 262.528 196.374 262.864 196.254 263.176C196.134 263.464 195.942 263.764 195.678 264.076C195.438 264.388 195.114 264.724 194.706 265.084C194.322 265.42 193.866 265.816 193.338 266.272L191.214 268.108L197.01 273.832C196.89 274.96 196.554 275.824 196.002 276.424C195.474 277.024 194.694 277.324 193.662 277.324C192.894 277.324 192.21 277.144 191.61 276.784C191.01 276.4 190.362 275.764 189.666 274.876L186.102 270.448V276.964ZM226.426 276.964C226.162 277.036 225.778 277.108 225.274 277.18C224.794 277.252 224.266 277.288 223.69 277.288C222.49 277.288 221.626 277.096 221.098 276.712C220.57 276.304 220.306 275.536 220.306 274.408V265.804C220.306 265.084 220.114 264.568 219.73 264.256C219.346 263.92 218.842 263.752 218.218 263.752C217.81 263.752 217.414 263.824 217.03 263.968C216.67 264.112 216.358 264.28 216.094 264.472C216.094 264.568 216.094 264.664 216.094 264.76C216.118 264.832 216.13 264.904 216.13 264.976V276.964C215.866 277.036 215.482 277.108 214.978 277.18C214.498 277.252 213.97 277.288 213.394 277.288C212.194 277.288 211.33 277.096 210.802 276.712C210.274 276.304 210.01 275.536 210.01 274.408V265.804C210.01 265.084 209.794 264.568 209.362 264.256C208.954 263.92 208.45 263.752 207.85 263.752C207.394 263.752 206.998 263.824 206.662 263.968C206.326 264.088 206.05 264.208 205.834 264.328V276.964C205.57 277.036 205.186 277.108 204.682 277.18C204.202 277.252 203.674 277.288 203.098 277.288C201.898 277.288 201.034 277.096 200.506 276.712C199.978 276.304 199.714 275.536 199.714 274.408V263.572C199.714 262.924 199.846 262.396 200.11 261.988C200.398 261.58 200.782 261.208 201.262 260.872C202.078 260.296 203.086 259.84 204.286 259.504C205.486 259.144 206.758 258.964 208.102 258.964C209.086 258.964 210.022 259.096 210.91 259.36C211.822 259.624 212.674 260.032 213.466 260.584C214.186 260.128 214.99 259.744 215.878 259.432C216.79 259.12 217.882 258.964 219.154 258.964C220.066 258.964 220.954 259.084 221.818 259.324C222.706 259.564 223.486 259.948 224.158 260.476C224.854 260.98 225.406 261.664 225.814 262.528C226.222 263.368 226.426 264.4 226.426 265.624V276.964ZM237.517 273.112C237.925 273.112 238.369 273.076 238.849 273.004C239.353 272.908 239.725 272.788 239.965 272.644V269.764L237.373 269.98C236.701 270.028 236.149 270.172 235.717 270.412C235.285 270.652 235.069 271.012 235.069 271.492C235.069 271.972 235.249 272.368 235.609 272.68C235.993 272.968 236.629 273.112 237.517 273.112ZM237.229 258.964C238.525 258.964 239.701 259.096 240.757 259.36C241.837 259.624 242.749 260.032 243.493 260.584C244.261 261.112 244.849 261.796 245.257 262.636C245.665 263.452 245.869 264.424 245.869 265.552V273.616C245.869 274.24 245.689 274.756 245.329 275.164C244.993 275.548 244.585 275.884 244.105 276.172C242.545 277.108 240.349 277.576 237.517 277.576C236.245 277.576 235.093 277.456 234.061 277.216C233.053 276.976 232.177 276.616 231.433 276.136C230.713 275.656 230.149 275.044 229.741 274.3C229.357 273.556 229.165 272.692 229.165 271.708C229.165 270.052 229.657 268.78 230.641 267.892C231.625 267.004 233.149 266.452 235.213 266.236L239.929 265.732V265.48C239.929 264.784 239.617 264.292 238.993 264.004C238.393 263.692 237.517 263.536 236.365 263.536C235.477 263.536 234.589 263.632 233.701 263.824C232.837 264.016 232.057 264.256 231.361 264.544C231.049 264.328 230.785 264.004 230.569 263.572C230.353 263.116 230.245 262.648 230.245 262.168C230.245 261.544 230.389 261.052 230.677 260.692C230.989 260.308 231.457 259.984 232.081 259.72C232.777 259.456 233.593 259.264 234.529 259.144C235.489 259.024 236.389 258.964 237.229 258.964ZM256.106 277.54C253.994 277.54 252.362 277.06 251.21 276.1C250.082 275.14 249.518 273.58 249.518 271.42V255.436C249.782 255.364 250.154 255.292 250.634 255.22C251.138 255.124 251.666 255.076 252.218 255.076C253.394 255.076 254.246 255.28 254.774 255.688C255.302 256.096 255.566 256.852 255.566 257.956V259.9H260.282C260.426 260.164 260.558 260.5 260.678 260.908C260.822 261.292 260.894 261.724 260.894 262.204C260.894 263.044 260.702 263.656 260.318 264.04C259.958 264.4 259.466 264.58 258.842 264.58H255.566V270.988C255.566 271.612 255.758 272.056 256.142 272.32C256.55 272.584 257.114 272.716 257.834 272.716C258.194 272.716 258.566 272.692 258.95 272.644C259.334 272.572 259.67 272.488 259.958 272.392C260.174 272.656 260.354 272.956 260.498 273.292C260.666 273.604 260.75 273.988 260.75 274.444C260.75 275.356 260.402 276.1 259.706 276.676C259.034 277.252 257.834 277.54 256.106 277.54ZM268.705 270.664C269.041 271.528 269.605 272.14 270.397 272.5C271.189 272.836 272.077 273.004 273.061 273.004C274.069 273.004 275.029 272.884 275.941 272.644C276.853 272.38 277.585 272.08 278.137 271.744C278.521 271.984 278.845 272.32 279.109 272.752C279.373 273.184 279.505 273.64 279.505 274.12C279.505 274.72 279.337 275.236 279.001 275.668C278.665 276.1 278.185 276.46 277.561 276.748C276.961 277.036 276.241 277.24 275.401 277.36C274.561 277.504 273.637 277.576 272.629 277.576C271.213 277.576 269.893 277.384 268.669 277C267.469 276.592 266.425 275.992 265.537 275.2C264.649 274.408 263.953 273.412 263.449 272.212C262.945 271.012 262.693 269.608 262.693 268C262.693 266.416 262.945 265.06 263.449 263.932C263.977 262.78 264.661 261.844 265.501 261.124C266.365 260.38 267.337 259.84 268.417 259.504C269.497 259.144 270.601 258.964 271.729 258.964C273.001 258.964 274.153 259.156 275.185 259.54C276.241 259.924 277.141 260.452 277.885 261.124C278.653 261.796 279.241 262.6 279.649 263.536C280.057 264.472 280.261 265.492 280.261 266.596C280.261 267.412 280.033 268.036 279.577 268.468C279.121 268.9 278.485 269.176 277.669 269.296L268.705 270.664ZM271.765 263.428C270.853 263.428 270.085 263.704 269.461 264.256C268.861 264.808 268.501 265.588 268.381 266.596L274.501 265.588C274.477 265.348 274.405 265.108 274.285 264.868C274.165 264.604 273.997 264.364 273.781 264.148C273.565 263.932 273.289 263.764 272.953 263.644C272.617 263.5 272.221 263.428 271.765 263.428ZM297.802 271.78C297.802 273.604 297.118 275.032 295.75 276.064C294.382 277.096 292.366 277.612 289.702 277.612C288.694 277.612 287.758 277.54 286.894 277.396C286.03 277.252 285.286 277.036 284.662 276.748C284.062 276.436 283.582 276.052 283.222 275.596C282.886 275.14 282.718 274.6 282.718 273.976C282.718 273.4 282.838 272.92 283.078 272.536C283.318 272.128 283.606 271.792 283.942 271.528C284.638 271.912 285.43 272.26 286.318 272.572C287.23 272.86 288.274 273.004 289.45 273.004C290.194 273.004 290.758 272.896 291.142 272.68C291.55 272.464 291.754 272.176 291.754 271.816C291.754 271.48 291.61 271.216 291.322 271.024C291.034 270.832 290.554 270.676 289.882 270.556L288.802 270.34C286.714 269.932 285.154 269.296 284.122 268.432C283.114 267.544 282.61 266.284 282.61 264.652C282.61 263.764 282.802 262.96 283.186 262.24C283.57 261.52 284.11 260.92 284.806 260.44C285.502 259.96 286.33 259.588 287.29 259.324C288.274 259.06 289.354 258.928 290.53 258.928C291.418 258.928 292.246 259 293.014 259.144C293.806 259.264 294.49 259.456 295.066 259.72C295.642 259.984 296.098 260.332 296.434 260.764C296.77 261.172 296.938 261.664 296.938 262.24C296.938 262.792 296.83 263.272 296.614 263.68C296.422 264.064 296.17 264.388 295.858 264.652C295.666 264.532 295.378 264.412 294.994 264.292C294.61 264.148 294.19 264.028 293.734 263.932C293.278 263.812 292.81 263.716 292.33 263.644C291.874 263.572 291.454 263.536 291.07 263.536C290.278 263.536 289.666 263.632 289.234 263.824C288.802 263.992 288.586 264.268 288.586 264.652C288.586 264.916 288.706 265.132 288.946 265.3C289.186 265.468 289.642 265.624 290.314 265.768L291.43 266.02C293.734 266.548 295.366 267.28 296.326 268.216C297.31 269.128 297.802 270.316 297.802 271.78Z" fill="white"/>
<path d="M179 195C179 195 183.05 190 192.5 190C201.95 190 206 195 206 195V230C206 230 201.95 227.5 192.5 227.5C183.05 227.5 179 230 179 230V195ZM206 195C206 195 210.05 190 219.5 190C228.95 190 233 195 233 195V230C233 230 228.95 227.5 219.5 227.5C210.05 227.5 206 230 206 230V195Z" stroke="white" stroke-width="2" stroke-linecap="round" stroke-linejoin="round"/>
<path d="M-1 457C-1 441.536 11.536 429 27 429H386C401.464 429 414 441.536 414 457V896H-1V457Z" fill="white"/>
<path d="M107.797 812H105.422L105.438 810.773H107.797C108.609 810.773 109.286 810.604 109.828 810.266C110.37 809.922 110.776 809.443 111.047 808.828C111.323 808.208 111.461 807.484 111.461 806.656V805.961C111.461 805.31 111.383 804.732 111.227 804.227C111.07 803.716 110.841 803.286 110.539 802.938C110.237 802.583 109.867 802.315 109.43 802.133C108.997 801.951 108.5 801.859 107.938 801.859H105.375V800.625H107.938C108.682 800.625 109.362 800.75 109.977 801C110.591 801.245 111.12 801.602 111.562 802.07C112.01 802.534 112.354 803.096 112.594 803.758C112.833 804.414 112.953 805.154 112.953 805.977V806.656C112.953 807.479 112.833 808.221 112.594 808.883C112.354 809.539 112.008 810.099 111.555 810.562C111.107 811.026 110.565 811.383 109.93 811.633C109.299 811.878 108.589 812 107.797 812ZM106.227 800.625V812H104.719V800.625H106.227ZM114.417 807.867V807.688C114.417 807.078 114.506 806.513 114.683 805.992C114.86 805.466 115.115 805.01 115.448 804.625C115.782 804.234 116.185 803.932 116.659 803.719C117.133 803.5 117.665 803.391 118.253 803.391C118.847 803.391 119.381 803.5 119.855 803.719C120.334 803.932 120.74 804.234 121.073 804.625C121.412 805.01 121.67 805.466 121.847 805.992C122.024 806.513 122.113 807.078 122.113 807.688V807.867C122.113 808.477 122.024 809.042 121.847 809.562C121.67 810.083 121.412 810.539 121.073 810.93C120.74 811.315 120.336 811.617 119.863 811.836C119.394 812.049 118.863 812.156 118.269 812.156C117.675 812.156 117.141 812.049 116.667 811.836C116.193 811.617 115.787 811.315 115.448 810.93C115.115 810.539 114.86 810.083 114.683 809.562C114.506 809.042 114.417 808.477 114.417 807.867ZM115.863 807.688V807.867C115.863 808.289 115.912 808.688 116.011 809.062C116.11 809.432 116.258 809.76 116.456 810.047C116.659 810.333 116.912 810.56 117.214 810.727C117.516 810.888 117.868 810.969 118.269 810.969C118.665 810.969 119.011 810.888 119.308 810.727C119.61 810.56 119.86 810.333 120.058 810.047C120.256 809.76 120.404 809.432 120.503 809.062C120.607 808.688 120.659 808.289 120.659 807.867V807.688C120.659 807.271 120.607 806.878 120.503 806.508C120.404 806.133 120.253 805.802 120.05 805.516C119.852 805.224 119.602 804.995 119.3 804.828C119.003 804.661 118.654 804.578 118.253 804.578C117.857 804.578 117.508 804.661 117.206 804.828C116.909 804.995 116.659 805.224 116.456 805.516C116.258 805.802 116.11 806.133 116.011 806.508C115.912 806.878 115.863 807.271 115.863 807.688ZM125.17 805.352V812H123.725V803.547H125.092L125.17 805.352ZM124.827 807.453L124.225 807.43C124.23 806.852 124.316 806.318 124.483 805.828C124.649 805.333 124.884 804.904 125.186 804.539C125.488 804.174 125.847 803.893 126.264 803.695C126.686 803.492 127.152 803.391 127.663 803.391C128.079 803.391 128.454 803.448 128.788 803.562C129.121 803.672 129.405 803.849 129.639 804.094C129.879 804.339 130.061 804.656 130.186 805.047C130.311 805.432 130.373 805.904 130.373 806.461V812H128.92V806.445C128.92 806.003 128.855 805.648 128.725 805.383C128.595 805.112 128.405 804.917 128.155 804.797C127.905 804.672 127.597 804.609 127.233 804.609C126.873 804.609 126.545 804.685 126.248 804.836C125.957 804.987 125.704 805.195 125.491 805.461C125.282 805.727 125.118 806.031 124.998 806.375C124.884 806.714 124.827 807.073 124.827 807.453ZM132.439 800V800.859L132.275 803.734H131.267L131.275 800.992V800H132.439ZM137.692 803.547V804.656H133.122V803.547H137.692ZM134.669 801.492H136.114V809.906C136.114 810.193 136.158 810.409 136.247 810.555C136.335 810.701 136.45 810.797 136.591 810.844C136.731 810.891 136.882 810.914 137.044 810.914C137.164 810.914 137.289 810.904 137.419 810.883C137.554 810.857 137.656 810.836 137.723 810.82L137.731 812C137.617 812.036 137.466 812.07 137.278 812.102C137.096 812.138 136.874 812.156 136.614 812.156C136.26 812.156 135.934 812.086 135.638 811.945C135.341 811.805 135.104 811.57 134.927 811.242C134.755 810.909 134.669 810.461 134.669 809.898V801.492ZM144.402 800V812H142.956V800H144.402ZM144.058 807.453L143.456 807.43C143.461 806.852 143.547 806.318 143.714 805.828C143.881 805.333 144.115 804.904 144.417 804.539C144.719 804.174 145.079 803.893 145.495 803.695C145.917 803.492 146.383 803.391 146.894 803.391C147.31 803.391 147.685 803.448 148.019 803.562C148.352 803.672 148.636 803.849 148.87 804.094C149.11 804.339 149.292 804.656 149.417 805.047C149.542 805.432 149.605 805.904 149.605 806.461V812H148.152V806.445C148.152 806.003 148.086 805.648 147.956 805.383C147.826 805.112 147.636 804.917 147.386 804.797C147.136 804.672 146.829 804.609 146.464 804.609C146.105 804.609 145.777 804.685 145.48 804.836C145.188 804.987 144.935 805.195 144.722 805.461C144.514 805.727 144.349 806.031 144.23 806.375C144.115 806.714 144.058 807.073 144.058 807.453ZM156.553 810.555V806.203C156.553 805.87 156.485 805.581 156.35 805.336C156.22 805.086 156.022 804.893 155.756 804.758C155.491 804.622 155.162 804.555 154.772 804.555C154.407 804.555 154.087 804.617 153.811 804.742C153.54 804.867 153.327 805.031 153.17 805.234C153.019 805.438 152.944 805.656 152.944 805.891H151.498C151.498 805.589 151.577 805.289 151.733 804.992C151.889 804.695 152.113 804.427 152.405 804.188C152.702 803.943 153.056 803.75 153.467 803.609C153.884 803.464 154.347 803.391 154.858 803.391C155.472 803.391 156.014 803.495 156.483 803.703C156.957 803.911 157.327 804.227 157.592 804.648C157.863 805.065 157.998 805.589 157.998 806.219V810.156C157.998 810.438 158.022 810.737 158.069 811.055C158.121 811.372 158.196 811.646 158.295 811.875V812H156.787C156.715 811.833 156.657 811.612 156.616 811.336C156.574 811.055 156.553 810.794 156.553 810.555ZM156.803 806.875L156.819 807.891H155.358C154.946 807.891 154.579 807.924 154.256 807.992C153.933 808.055 153.662 808.151 153.444 808.281C153.225 808.411 153.058 808.576 152.944 808.773C152.829 808.966 152.772 809.193 152.772 809.453C152.772 809.719 152.832 809.961 152.952 810.18C153.071 810.398 153.251 810.573 153.491 810.703C153.735 810.828 154.035 810.891 154.389 810.891C154.832 810.891 155.222 810.797 155.561 810.609C155.899 810.422 156.168 810.193 156.366 809.922C156.569 809.651 156.678 809.388 156.694 809.133L157.311 809.828C157.274 810.047 157.176 810.289 157.014 810.555C156.853 810.82 156.636 811.076 156.366 811.32C156.1 811.56 155.782 811.76 155.412 811.922C155.048 812.078 154.636 812.156 154.178 812.156C153.605 812.156 153.103 812.044 152.67 811.82C152.243 811.596 151.91 811.297 151.67 810.922C151.436 810.542 151.319 810.117 151.319 809.648C151.319 809.195 151.407 808.797 151.584 808.453C151.761 808.104 152.017 807.815 152.35 807.586C152.683 807.352 153.084 807.174 153.553 807.055C154.022 806.935 154.545 806.875 155.123 806.875H156.803ZM162.517 810.695L164.83 803.547H166.306L163.267 812H162.298L162.517 810.695ZM160.588 803.547L162.97 810.734L163.134 812H162.166L159.103 803.547H160.588ZM170.895 812.156C170.307 812.156 169.773 812.057 169.294 811.859C168.82 811.656 168.411 811.372 168.067 811.008C167.729 810.643 167.468 810.211 167.286 809.711C167.104 809.211 167.013 808.664 167.013 808.07V807.742C167.013 807.055 167.114 806.443 167.317 805.906C167.52 805.365 167.796 804.906 168.145 804.531C168.494 804.156 168.89 803.872 169.333 803.68C169.776 803.487 170.234 803.391 170.708 803.391C171.312 803.391 171.833 803.495 172.27 803.703C172.713 803.911 173.075 804.203 173.356 804.578C173.638 804.948 173.846 805.385 173.981 805.891C174.117 806.391 174.184 806.938 174.184 807.531V808.18H167.872V807H172.739V806.891C172.718 806.516 172.64 806.151 172.505 805.797C172.374 805.443 172.166 805.151 171.88 804.922C171.593 804.693 171.203 804.578 170.708 804.578C170.38 804.578 170.078 804.648 169.802 804.789C169.526 804.924 169.289 805.128 169.091 805.398C168.893 805.669 168.739 806 168.63 806.391C168.52 806.781 168.466 807.232 168.466 807.742V808.07C168.466 808.471 168.52 808.849 168.63 809.203C168.744 809.552 168.908 809.859 169.122 810.125C169.341 810.391 169.604 810.599 169.911 810.75C170.223 810.901 170.578 810.977 170.973 810.977C171.484 810.977 171.916 810.872 172.27 810.664C172.624 810.456 172.934 810.177 173.2 809.828L174.075 810.523C173.893 810.799 173.661 811.062 173.38 811.312C173.098 811.562 172.752 811.766 172.341 811.922C171.934 812.078 171.453 812.156 170.895 812.156ZM184.425 810.555V806.203C184.425 805.87 184.357 805.581 184.222 805.336C184.092 805.086 183.894 804.893 183.628 804.758C183.363 804.622 183.034 804.555 182.644 804.555C182.279 804.555 181.959 804.617 181.683 804.742C181.412 804.867 181.198 805.031 181.042 805.234C180.891 805.438 180.816 805.656 180.816 805.891H179.37C179.37 805.589 179.448 805.289 179.605 804.992C179.761 804.695 179.985 804.427 180.277 804.188C180.573 803.943 180.928 803.75 181.339 803.609C181.756 803.464 182.219 803.391 182.73 803.391C183.344 803.391 183.886 803.495 184.355 803.703C184.829 803.911 185.198 804.227 185.464 804.648C185.735 805.065 185.87 805.589 185.87 806.219V810.156C185.87 810.438 185.894 810.737 185.941 811.055C185.993 811.372 186.068 811.646 186.167 811.875V812H184.659C184.586 811.833 184.529 811.612 184.488 811.336C184.446 811.055 184.425 810.794 184.425 810.555ZM184.675 806.875L184.691 807.891H183.23C182.818 807.891 182.451 807.924 182.128 807.992C181.805 808.055 181.534 808.151 181.316 808.281C181.097 808.411 180.93 808.576 180.816 808.773C180.701 808.966 180.644 809.193 180.644 809.453C180.644 809.719 180.704 809.961 180.823 810.18C180.943 810.398 181.123 810.573 181.363 810.703C181.607 810.828 181.907 810.891 182.261 810.891C182.704 810.891 183.094 810.797 183.433 810.609C183.771 810.422 184.04 810.193 184.238 809.922C184.441 809.651 184.55 809.388 184.566 809.133L185.183 809.828C185.146 810.047 185.047 810.289 184.886 810.555C184.724 810.82 184.508 811.076 184.238 811.32C183.972 811.56 183.654 811.76 183.284 811.922C182.92 812.078 182.508 812.156 182.05 812.156C181.477 812.156 180.974 812.044 180.542 811.82C180.115 811.596 179.782 811.297 179.542 810.922C179.308 810.542 179.191 810.117 179.191 809.648C179.191 809.195 179.279 808.797 179.456 808.453C179.633 808.104 179.889 807.815 180.222 807.586C180.555 807.352 180.956 807.174 181.425 807.055C181.894 806.935 182.417 806.875 182.995 806.875H184.675ZM189.389 805.352V812H187.944V803.547H189.311L189.389 805.352ZM189.045 807.453L188.444 807.43C188.449 806.852 188.535 806.318 188.702 805.828C188.868 805.333 189.103 804.904 189.405 804.539C189.707 804.174 190.066 803.893 190.483 803.695C190.905 803.492 191.371 803.391 191.881 803.391C192.298 803.391 192.673 803.448 193.006 803.562C193.34 803.672 193.623 803.849 193.858 804.094C194.097 804.339 194.28 804.656 194.405 805.047C194.53 805.432 194.592 805.904 194.592 806.461V812H193.139V806.445C193.139 806.003 193.074 805.648 192.944 805.383C192.814 805.112 192.623 804.917 192.373 804.797C192.123 804.672 191.816 804.609 191.452 804.609C191.092 804.609 190.764 804.685 190.467 804.836C190.176 804.987 189.923 805.195 189.709 805.461C189.501 805.727 189.337 806.031 189.217 806.375C189.103 806.714 189.045 807.073 189.045 807.453ZM205.341 810.555V806.203C205.341 805.87 205.273 805.581 205.137 805.336C205.007 805.086 204.809 804.893 204.544 804.758C204.278 804.622 203.95 804.555 203.559 804.555C203.195 804.555 202.874 804.617 202.598 804.742C202.328 804.867 202.114 805.031 201.958 805.234C201.807 805.438 201.731 805.656 201.731 805.891H200.286C200.286 805.589 200.364 805.289 200.52 804.992C200.677 804.695 200.901 804.427 201.192 804.188C201.489 803.943 201.843 803.75 202.255 803.609C202.671 803.464 203.135 803.391 203.645 803.391C204.26 803.391 204.802 803.495 205.27 803.703C205.744 803.911 206.114 804.227 206.38 804.648C206.651 805.065 206.786 805.589 206.786 806.219V810.156C206.786 810.438 206.809 810.737 206.856 811.055C206.908 811.372 206.984 811.646 207.083 811.875V812H205.575C205.502 811.833 205.445 811.612 205.403 811.336C205.361 811.055 205.341 810.794 205.341 810.555ZM205.591 806.875L205.606 807.891H204.145C203.734 807.891 203.367 807.924 203.044 807.992C202.721 808.055 202.45 808.151 202.231 808.281C202.012 808.411 201.846 808.576 201.731 808.773C201.617 808.966 201.559 809.193 201.559 809.453C201.559 809.719 201.619 809.961 201.739 810.18C201.859 810.398 202.039 810.573 202.278 810.703C202.523 810.828 202.822 810.891 203.177 810.891C203.619 810.891 204.01 810.797 204.348 810.609C204.687 810.422 204.955 810.193 205.153 809.922C205.356 809.651 205.466 809.388 205.481 809.133L206.098 809.828C206.062 810.047 205.963 810.289 205.802 810.555C205.64 810.82 205.424 811.076 205.153 811.32C204.887 811.56 204.57 811.76 204.2 811.922C203.835 812.078 203.424 812.156 202.966 812.156C202.393 812.156 201.89 812.044 201.458 811.82C201.031 811.596 200.697 811.297 200.458 810.922C200.223 810.542 200.106 810.117 200.106 809.648C200.106 809.195 200.195 808.797 200.372 808.453C200.549 808.104 200.804 807.815 201.137 807.586C201.471 807.352 201.872 807.174 202.341 807.055C202.809 806.935 203.333 806.875 203.911 806.875H205.591ZM212.242 810.969C212.586 810.969 212.904 810.898 213.195 810.758C213.487 810.617 213.727 810.424 213.914 810.18C214.102 809.93 214.208 809.646 214.234 809.328H215.609C215.583 809.828 215.414 810.294 215.102 810.727C214.794 811.154 214.391 811.5 213.891 811.766C213.391 812.026 212.841 812.156 212.242 812.156C211.607 812.156 211.052 812.044 210.578 811.82C210.109 811.596 209.719 811.289 209.406 810.898C209.099 810.508 208.867 810.06 208.711 809.555C208.56 809.044 208.484 808.505 208.484 807.938V807.609C208.484 807.042 208.56 806.505 208.711 806C208.867 805.49 209.099 805.039 209.406 804.648C209.719 804.258 210.109 803.951 210.578 803.727C211.052 803.503 211.607 803.391 212.242 803.391C212.904 803.391 213.482 803.526 213.977 803.797C214.471 804.062 214.859 804.427 215.141 804.891C215.427 805.349 215.583 805.87 215.609 806.453H214.234C214.208 806.104 214.109 805.789 213.938 805.508C213.771 805.227 213.542 805.003 213.25 804.836C212.964 804.664 212.628 804.578 212.242 804.578C211.799 804.578 211.427 804.667 211.125 804.844C210.828 805.016 210.591 805.25 210.414 805.547C210.242 805.839 210.117 806.164 210.039 806.523C209.966 806.878 209.93 807.24 209.93 807.609V807.938C209.93 808.307 209.966 808.672 210.039 809.031C210.112 809.391 210.234 809.716 210.406 810.008C210.583 810.299 210.82 810.534 211.117 810.711C211.419 810.883 211.794 810.969 212.242 810.969ZM220.417 810.969C220.761 810.969 221.079 810.898 221.37 810.758C221.662 810.617 221.902 810.424 222.089 810.18C222.277 809.93 222.383 809.646 222.409 809.328H223.784C223.758 809.828 223.589 810.294 223.277 810.727C222.969 811.154 222.566 811.5 222.066 811.766C221.566 812.026 221.016 812.156 220.417 812.156C219.782 812.156 219.227 812.044 218.753 811.82C218.284 811.596 217.894 811.289 217.581 810.898C217.274 810.508 217.042 810.06 216.886 809.555C216.735 809.044 216.659 808.505 216.659 807.938V807.609C216.659 807.042 216.735 806.505 216.886 806C217.042 805.49 217.274 805.039 217.581 804.648C217.894 804.258 218.284 803.951 218.753 803.727C219.227 803.503 219.782 803.391 220.417 803.391C221.079 803.391 221.657 803.526 222.152 803.797C222.646 804.062 223.034 804.427 223.316 804.891C223.602 805.349 223.758 805.87 223.784 806.453H222.409C222.383 806.104 222.284 805.789 222.113 805.508C221.946 805.227 221.717 805.003 221.425 804.836C221.139 804.664 220.803 804.578 220.417 804.578C219.974 804.578 219.602 804.667 219.3 804.844C219.003 805.016 218.766 805.25 218.589 805.547C218.417 805.839 218.292 806.164 218.214 806.523C218.141 806.878 218.105 807.24 218.105 807.609V807.938C218.105 808.307 218.141 808.672 218.214 809.031C218.287 809.391 218.409 809.716 218.581 810.008C218.758 810.299 218.995 810.534 219.292 810.711C219.594 810.883 219.969 810.969 220.417 810.969ZM224.827 807.867V807.688C224.827 807.078 224.915 806.513 225.092 805.992C225.269 805.466 225.524 805.01 225.858 804.625C226.191 804.234 226.595 803.932 227.069 803.719C227.543 803.5 228.074 803.391 228.662 803.391C229.256 803.391 229.79 803.5 230.264 803.719C230.743 803.932 231.149 804.234 231.483 804.625C231.821 805.01 232.079 805.466 232.256 805.992C232.433 806.513 232.522 807.078 232.522 807.688V807.867C232.522 808.477 232.433 809.042 232.256 809.562C232.079 810.083 231.821 810.539 231.483 810.93C231.149 811.315 230.746 811.617 230.272 811.836C229.803 812.049 229.272 812.156 228.678 812.156C228.084 812.156 227.551 812.049 227.077 811.836C226.603 811.617 226.196 811.315 225.858 810.93C225.524 810.539 225.269 810.083 225.092 809.562C224.915 809.042 224.827 808.477 224.827 807.867ZM226.272 807.688V807.867C226.272 808.289 226.321 808.688 226.42 809.062C226.519 809.432 226.668 809.76 226.866 810.047C227.069 810.333 227.321 810.56 227.623 810.727C227.926 810.888 228.277 810.969 228.678 810.969C229.074 810.969 229.42 810.888 229.717 810.727C230.019 810.56 230.269 810.333 230.467 810.047C230.665 809.76 230.814 809.432 230.912 809.062C231.017 808.688 231.069 808.289 231.069 807.867V807.688C231.069 807.271 231.017 806.878 230.912 806.508C230.814 806.133 230.662 805.802 230.459 805.516C230.261 805.224 230.011 804.995 229.709 804.828C229.412 804.661 229.064 804.578 228.662 804.578C228.267 804.578 227.918 804.661 227.616 804.828C227.319 804.995 227.069 805.224 226.866 805.516C226.668 805.802 226.519 806.133 226.42 806.508C226.321 806.878 226.272 807.271 226.272 807.688ZM239.306 810.047V803.547H240.759V812H239.377L239.306 810.047ZM239.58 808.266L240.181 808.25C240.181 808.812 240.121 809.333 240.002 809.812C239.887 810.286 239.699 810.698 239.439 811.047C239.179 811.396 238.837 811.669 238.416 811.867C237.994 812.06 237.481 812.156 236.877 812.156C236.465 812.156 236.087 812.096 235.744 811.977C235.405 811.857 235.114 811.672 234.869 811.422C234.624 811.172 234.434 810.846 234.298 810.445C234.168 810.044 234.103 809.562 234.103 809V803.547H235.548V809.016C235.548 809.396 235.59 809.711 235.673 809.961C235.762 810.206 235.879 810.401 236.025 810.547C236.176 810.688 236.343 810.786 236.525 810.844C236.712 810.901 236.905 810.93 237.103 810.93C237.718 810.93 238.205 810.812 238.564 810.578C238.923 810.339 239.181 810.018 239.337 809.617C239.499 809.211 239.58 808.76 239.58 808.266ZM244.208 805.352V812H242.762V803.547H244.13L244.208 805.352ZM243.864 807.453L243.262 807.43C243.268 806.852 243.354 806.318 243.52 805.828C243.687 805.333 243.921 804.904 244.223 804.539C244.526 804.174 244.885 803.893 245.302 803.695C245.723 803.492 246.19 803.391 246.7 803.391C247.117 803.391 247.492 803.448 247.825 803.562C248.158 803.672 248.442 803.849 248.677 804.094C248.916 804.339 249.098 804.656 249.223 805.047C249.348 805.432 249.411 805.904 249.411 806.461V812H247.958V806.445C247.958 806.003 247.893 805.648 247.762 805.383C247.632 805.112 247.442 804.917 247.192 804.797C246.942 804.672 246.635 804.609 246.27 804.609C245.911 804.609 245.583 804.685 245.286 804.836C244.994 804.987 244.742 805.195 244.528 805.461C244.32 805.727 244.156 806.031 244.036 806.375C243.921 806.714 243.864 807.073 243.864 807.453ZM254.945 803.547V804.656H250.375V803.547H254.945ZM251.922 801.492H253.367V809.906C253.367 810.193 253.411 810.409 253.5 810.555C253.589 810.701 253.703 810.797 253.844 810.844C253.984 810.891 254.135 810.914 254.297 810.914C254.417 810.914 254.542 810.904 254.672 810.883C254.807 810.857 254.909 810.836 254.977 810.82L254.984 812C254.87 812.036 254.719 812.07 254.531 812.102C254.349 812.138 254.128 812.156 253.867 812.156C253.513 812.156 253.188 812.086 252.891 811.945C252.594 811.805 252.357 811.57 252.18 811.242C252.008 810.909 251.922 810.461 251.922 809.898V801.492ZM259.581 808.797H258.128C258.133 808.297 258.178 807.888 258.261 807.57C258.349 807.247 258.493 806.953 258.691 806.688C258.889 806.422 259.152 806.12 259.48 805.781C259.719 805.536 259.938 805.307 260.136 805.094C260.339 804.875 260.503 804.641 260.628 804.391C260.753 804.135 260.816 803.831 260.816 803.477C260.816 803.117 260.751 802.807 260.62 802.547C260.495 802.286 260.308 802.086 260.058 801.945C259.813 801.805 259.508 801.734 259.144 801.734C258.842 801.734 258.555 801.789 258.284 801.898C258.014 802.008 257.795 802.177 257.628 802.406C257.461 802.63 257.376 802.924 257.37 803.289H255.925C255.935 802.701 256.081 802.195 256.363 801.773C256.649 801.352 257.034 801.029 257.519 800.805C258.003 800.581 258.545 800.469 259.144 800.469C259.805 800.469 260.368 800.589 260.831 800.828C261.3 801.068 261.657 801.411 261.902 801.859C262.146 802.302 262.269 802.828 262.269 803.438C262.269 803.906 262.172 804.339 261.98 804.734C261.792 805.125 261.55 805.492 261.253 805.836C260.956 806.18 260.641 806.508 260.308 806.82C260.021 807.086 259.829 807.385 259.73 807.719C259.631 808.052 259.581 808.411 259.581 808.797ZM258.066 811.273C258.066 811.039 258.139 810.841 258.284 810.68C258.43 810.518 258.641 810.438 258.917 810.438C259.198 810.438 259.412 810.518 259.558 810.68C259.704 810.841 259.777 811.039 259.777 811.273C259.777 811.497 259.704 811.69 259.558 811.852C259.412 812.013 259.198 812.094 258.917 812.094C258.641 812.094 258.43 812.013 258.284 811.852C258.139 811.69 258.066 811.497 258.066 811.273Z" fill="#606060"/>
<path d="M269.497 808.144C269.027 807.984 268.601 807.824 268.217 807.664C267.833 807.493 267.502 807.291 267.225 807.056C266.947 806.821 266.729 806.544 266.569 806.224C266.419 805.893 266.345 805.493 266.345 805.024C266.345 804.117 266.691 803.392 267.385 802.848C268.089 802.304 269.07 802.032 270.329 802.032C270.787 802.032 271.214 802.064 271.609 802.128C272.003 802.192 272.339 802.293 272.617 802.432C272.905 802.56 273.129 802.731 273.289 802.944C273.449 803.147 273.529 803.387 273.529 803.664C273.529 803.941 273.465 804.181 273.337 804.384C273.209 804.576 273.054 804.741 272.873 804.88C272.638 804.731 272.323 804.603 271.929 804.496C271.534 804.379 271.102 804.32 270.633 804.32C270.153 804.32 269.801 804.389 269.577 804.528C269.353 804.656 269.241 804.821 269.241 805.024C269.241 805.184 269.31 805.317 269.449 805.424C269.587 805.52 269.795 805.611 270.073 805.696L270.921 805.968C271.923 806.288 272.691 806.699 273.225 807.2C273.769 807.691 274.041 808.363 274.041 809.216C274.041 810.123 273.683 810.859 272.969 811.424C272.254 811.979 271.203 812.256 269.817 812.256C269.326 812.256 268.867 812.213 268.441 812.128C268.025 812.053 267.657 811.941 267.337 811.792C267.027 811.632 266.782 811.44 266.601 811.216C266.43 810.981 266.345 810.715 266.345 810.416C266.345 810.107 266.435 809.845 266.617 809.632C266.798 809.408 266.995 809.237 267.209 809.12C267.507 809.355 267.87 809.557 268.297 809.728C268.734 809.899 269.209 809.984 269.721 809.984C270.243 809.984 270.611 809.904 270.825 809.744C271.038 809.584 271.145 809.397 271.145 809.184C271.145 808.971 271.059 808.811 270.889 808.704C270.718 808.587 270.478 808.475 270.169 808.368L269.497 808.144ZM278.157 811.936C278.04 811.968 277.853 812 277.597 812.032C277.352 812.064 277.107 812.08 276.861 812.08C276.616 812.08 276.397 812.059 276.205 812.016C276.024 811.984 275.869 811.92 275.741 811.824C275.613 811.728 275.517 811.595 275.453 811.424C275.389 811.253 275.357 811.029 275.357 810.752V802.304C275.475 802.283 275.661 802.256 275.917 802.224C276.173 802.181 276.419 802.16 276.653 802.16C276.899 802.16 277.112 802.181 277.293 802.224C277.485 802.256 277.645 802.32 277.773 802.416C277.901 802.512 277.997 802.645 278.061 802.816C278.125 802.987 278.157 803.211 278.157 803.488V811.936ZM288.816 810.416C288.816 810.747 288.758 810.992 288.64 811.152C288.523 811.312 288.336 811.467 288.08 811.616C287.931 811.701 287.744 811.787 287.52 811.872C287.296 811.947 287.051 812.011 286.784 812.064C286.518 812.128 286.235 812.176 285.936 812.208C285.648 812.24 285.36 812.256 285.072 812.256C284.304 812.256 283.584 812.155 282.912 811.952C282.24 811.739 281.654 811.424 281.152 811.008C280.662 810.581 280.272 810.053 279.984 809.424C279.696 808.795 279.552 808.064 279.552 807.232C279.552 806.357 279.707 805.595 280.016 804.944C280.336 804.293 280.752 803.755 281.264 803.328C281.787 802.891 282.379 802.565 283.04 802.352C283.712 802.139 284.4 802.032 285.104 802.032C286.118 802.032 286.918 802.197 287.504 802.528C288.102 802.848 288.4 803.269 288.4 803.792C288.4 804.069 288.331 804.309 288.192 804.512C288.054 804.715 287.894 804.875 287.712 804.992C287.446 804.832 287.11 804.677 286.704 804.528C286.31 804.368 285.862 804.288 285.36 804.288C284.464 804.288 283.75 804.544 283.216 805.056C282.694 805.568 282.432 806.277 282.432 807.184C282.432 807.675 282.502 808.101 282.64 808.464C282.79 808.816 282.987 809.109 283.232 809.344C283.478 809.568 283.76 809.739 284.08 809.856C284.4 809.963 284.742 810.016 285.104 810.016C285.339 810.016 285.547 809.995 285.728 809.952C285.91 809.909 286.048 809.861 286.144 809.808V808.304H284.432C284.368 808.187 284.304 808.032 284.24 807.84C284.187 807.648 284.16 807.445 284.16 807.232C284.16 806.848 284.246 806.571 284.416 806.4C284.598 806.229 284.827 806.144 285.104 806.144H287.808C288.128 806.144 288.374 806.235 288.544 806.416C288.726 806.587 288.816 806.832 288.816 807.152V810.416ZM299.241 811.664C299.092 811.813 298.873 811.925 298.585 812C298.308 812.085 297.972 812.128 297.577 812.128C297.183 812.128 296.809 812.069 296.457 811.952C296.105 811.835 295.817 811.552 295.593 811.104L294.009 807.872C293.849 807.541 293.705 807.232 293.577 806.944C293.449 806.645 293.311 806.304 293.161 805.92L293.065 805.936C293.108 806.512 293.129 807.099 293.129 807.696C293.14 808.293 293.145 808.88 293.145 809.456V811.936C293.028 811.968 292.847 812 292.601 812.032C292.367 812.064 292.132 812.08 291.897 812.08C291.663 812.08 291.455 812.064 291.273 812.032C291.092 812 290.943 811.936 290.825 811.84C290.708 811.744 290.617 811.616 290.553 811.456C290.489 811.285 290.457 811.067 290.457 810.8V802.8C290.607 802.587 290.836 802.427 291.145 802.32C291.455 802.213 291.785 802.16 292.137 802.16C292.532 802.16 292.905 802.224 293.257 802.352C293.62 802.469 293.908 802.747 294.121 803.184L295.721 806.416C295.881 806.747 296.025 807.061 296.153 807.36C296.281 807.648 296.42 807.984 296.569 808.368L296.649 808.352C296.607 807.776 296.58 807.2 296.569 806.624C296.559 806.048 296.553 805.472 296.553 804.896V802.304C296.671 802.272 296.847 802.24 297.081 802.208C297.327 802.176 297.567 802.16 297.801 802.16C298.271 802.16 298.628 802.245 298.873 802.416C299.119 802.576 299.241 802.917 299.241 803.44V811.664ZM312.712 808.416C312.712 808.992 312.61 809.52 312.408 810C312.216 810.469 311.933 810.875 311.56 811.216C311.186 811.547 310.733 811.803 310.2 811.984C309.666 812.165 309.064 812.256 308.392 812.256C307.72 812.256 307.117 812.165 306.584 811.984C306.05 811.803 305.597 811.547 305.224 811.216C304.85 810.875 304.562 810.469 304.36 810C304.168 809.52 304.072 808.992 304.072 808.416V802.304C304.189 802.283 304.376 802.256 304.632 802.224C304.888 802.181 305.133 802.16 305.368 802.16C305.613 802.16 305.826 802.181 306.008 802.224C306.2 802.256 306.36 802.32 306.488 802.416C306.616 802.512 306.712 802.645 306.776 802.816C306.84 802.987 306.872 803.211 306.872 803.488V808.368C306.872 808.88 307.01 809.28 307.288 809.568C307.576 809.856 307.944 810 308.392 810C308.85 810 309.218 809.856 309.496 809.568C309.773 809.28 309.912 808.88 309.912 808.368V802.304C310.029 802.283 310.216 802.256 310.472 802.224C310.728 802.181 310.973 802.16 311.208 802.16C311.453 802.16 311.666 802.181 311.848 802.224C312.04 802.256 312.2 802.32 312.328 802.416C312.456 802.512 312.552 802.645 312.616 802.816C312.68 802.987 312.712 803.211 312.712 803.488V808.416ZM318.177 806.8C318.625 806.8 318.966 806.699 319.201 806.496C319.446 806.283 319.569 805.963 319.569 805.536C319.569 805.131 319.441 804.821 319.185 804.608C318.939 804.384 318.577 804.272 318.097 804.272C317.926 804.272 317.782 804.277 317.665 804.288C317.558 804.288 317.446 804.299 317.329 804.32V806.8H318.177ZM317.345 811.936C317.227 811.968 317.041 812 316.785 812.032C316.539 812.064 316.294 812.08 316.049 812.08C315.803 812.08 315.585 812.059 315.393 812.016C315.211 811.984 315.057 811.92 314.929 811.824C314.801 811.728 314.705 811.595 314.641 811.424C314.577 811.253 314.545 811.029 314.545 810.752V803.216C314.545 802.992 314.603 802.821 314.721 802.704C314.849 802.576 315.019 802.475 315.233 802.4C315.595 802.272 316.006 802.181 316.465 802.128C316.934 802.064 317.403 802.032 317.873 802.032C319.345 802.032 320.47 802.347 321.249 802.976C322.027 803.605 322.417 804.459 322.417 805.536C322.417 806.059 322.331 806.533 322.161 806.96C322.001 807.376 321.755 807.739 321.425 808.048C321.105 808.347 320.694 808.581 320.193 808.752C319.702 808.912 319.131 808.992 318.481 808.992H317.345V811.936Z" fill="#5A7FCC"/>
<path d="M140.978 753.516C141.043 753.619 141.099 753.759 141.146 753.936C141.202 754.104 141.23 754.281 141.23 754.468C141.23 754.832 141.15 755.093 140.992 755.252C140.842 755.401 140.637 755.476 140.376 755.476H137.436V757.058H140.502C140.576 757.161 140.637 757.296 140.684 757.464C140.74 757.632 140.768 757.809 140.768 757.996C140.768 758.351 140.688 758.607 140.53 758.766C140.38 758.915 140.175 758.99 139.914 758.99H137.464V761.944C137.361 761.972 137.198 762 136.974 762.028C136.759 762.056 136.544 762.07 136.33 762.07C136.115 762.07 135.924 762.051 135.756 762.014C135.597 761.986 135.462 761.93 135.35 761.846C135.238 761.762 135.154 761.645 135.098 761.496C135.042 761.347 135.014 761.151 135.014 760.908V754.818C135.014 754.417 135.13 754.099 135.364 753.866C135.597 753.633 135.914 753.516 136.316 753.516H140.978ZM143.963 757.744C143.963 757.016 144.075 756.372 144.299 755.812C144.532 755.252 144.845 754.785 145.237 754.412C145.638 754.029 146.105 753.74 146.637 753.544C147.178 753.348 147.761 753.25 148.387 753.25C149.012 753.25 149.591 753.348 150.123 753.544C150.664 753.74 151.135 754.029 151.537 754.412C151.938 754.785 152.251 755.252 152.475 755.812C152.708 756.372 152.825 757.016 152.825 757.744C152.825 758.472 152.713 759.121 152.489 759.69C152.265 760.25 151.952 760.721 151.551 761.104C151.159 761.477 150.692 761.762 150.151 761.958C149.609 762.154 149.021 762.252 148.387 762.252C147.752 762.252 147.164 762.154 146.623 761.958C146.081 761.753 145.615 761.459 145.223 761.076C144.831 760.693 144.523 760.222 144.299 759.662C144.075 759.102 143.963 758.463 143.963 757.744ZM146.483 757.744C146.483 758.593 146.655 759.228 147.001 759.648C147.346 760.068 147.808 760.278 148.387 760.278C148.975 760.278 149.441 760.068 149.787 759.648C150.132 759.228 150.305 758.593 150.305 757.744C150.305 756.904 150.132 756.274 149.787 755.854C149.451 755.434 148.989 755.224 148.401 755.224C147.822 755.224 147.355 755.434 147.001 755.854C146.655 756.265 146.483 756.895 146.483 757.744ZM158.662 759.256V761.944C158.56 761.972 158.396 762 158.172 762.028C157.958 762.056 157.743 762.07 157.528 762.07C157.314 762.07 157.122 762.051 156.954 762.014C156.796 761.986 156.66 761.93 156.548 761.846C156.446 761.762 156.366 761.645 156.31 761.496C156.254 761.347 156.226 761.151 156.226 760.908V754.314C156.226 754.118 156.278 753.969 156.38 753.866C156.492 753.754 156.642 753.665 156.828 753.6C157.146 753.488 157.514 753.409 157.934 753.362C158.354 753.306 158.802 753.278 159.278 753.278C160.566 753.278 161.537 753.549 162.19 754.09C162.844 754.631 163.17 755.364 163.17 756.288C163.17 756.867 163.021 757.361 162.722 757.772C162.424 758.183 162.069 758.5 161.658 758.724C161.994 759.181 162.326 759.611 162.652 760.012C162.979 760.413 163.236 760.777 163.422 761.104C163.329 761.431 163.156 761.683 162.904 761.86C162.662 762.028 162.386 762.112 162.078 762.112C161.873 762.112 161.696 762.089 161.546 762.042C161.397 761.995 161.266 761.93 161.154 761.846C161.042 761.762 160.94 761.659 160.846 761.538C160.753 761.417 160.664 761.286 160.58 761.146L159.404 759.256H158.662ZM159.544 757.394C159.899 757.394 160.179 757.305 160.384 757.128C160.59 756.941 160.692 756.671 160.692 756.316C160.692 755.961 160.576 755.695 160.342 755.518C160.118 755.331 159.759 755.238 159.264 755.238C159.124 755.238 159.012 755.243 158.928 755.252C158.844 755.261 158.751 755.275 158.648 755.294V757.394H159.544ZM174.334 760.614C174.334 760.903 174.283 761.118 174.18 761.258C174.078 761.398 173.914 761.533 173.69 761.664C173.56 761.739 173.396 761.813 173.2 761.888C173.004 761.953 172.79 762.009 172.556 762.056C172.323 762.112 172.076 762.154 171.814 762.182C171.562 762.21 171.31 762.224 171.058 762.224C170.386 762.224 169.756 762.135 169.168 761.958C168.58 761.771 168.067 761.496 167.628 761.132C167.199 760.759 166.858 760.297 166.606 759.746C166.354 759.195 166.228 758.556 166.228 757.828C166.228 757.063 166.364 756.395 166.634 755.826C166.914 755.257 167.278 754.785 167.726 754.412C168.184 754.029 168.702 753.745 169.28 753.558C169.868 753.371 170.47 753.278 171.086 753.278C171.973 753.278 172.673 753.423 173.186 753.712C173.709 753.992 173.97 754.361 173.97 754.818C173.97 755.061 173.91 755.271 173.788 755.448C173.667 755.625 173.527 755.765 173.368 755.868C173.135 755.728 172.841 755.593 172.486 755.462C172.141 755.322 171.749 755.252 171.31 755.252C170.526 755.252 169.901 755.476 169.434 755.924C168.977 756.372 168.748 756.993 168.748 757.786C168.748 758.215 168.809 758.589 168.93 758.906C169.061 759.214 169.234 759.471 169.448 759.676C169.663 759.872 169.91 760.021 170.19 760.124C170.47 760.217 170.769 760.264 171.086 760.264C171.292 760.264 171.474 760.245 171.632 760.208C171.791 760.171 171.912 760.129 171.996 760.082V758.766H170.498C170.442 758.663 170.386 758.528 170.33 758.36C170.284 758.192 170.26 758.015 170.26 757.828C170.26 757.492 170.335 757.249 170.484 757.1C170.643 756.951 170.844 756.876 171.086 756.876H173.452C173.732 756.876 173.947 756.955 174.096 757.114C174.255 757.263 174.334 757.478 174.334 757.758V760.614ZM177.525 757.744C177.525 757.016 177.637 756.372 177.861 755.812C178.094 755.252 178.407 754.785 178.799 754.412C179.2 754.029 179.667 753.74 180.199 753.544C180.74 753.348 181.324 753.25 181.949 753.25C182.574 753.25 183.153 753.348 183.685 753.544C184.226 753.74 184.698 754.029 185.099 754.412C185.5 754.785 185.813 755.252 186.037 755.812C186.27 756.372 186.387 757.016 186.387 757.744C186.387 758.472 186.275 759.121 186.051 759.69C185.827 760.25 185.514 760.721 185.113 761.104C184.721 761.477 184.254 761.762 183.713 761.958C183.172 762.154 182.584 762.252 181.949 762.252C181.314 762.252 180.726 762.154 180.185 761.958C179.644 761.753 179.177 761.459 178.785 761.076C178.393 760.693 178.085 760.222 177.861 759.662C177.637 759.102 177.525 758.463 177.525 757.744ZM180.045 757.744C180.045 758.593 180.218 759.228 180.563 759.648C180.908 760.068 181.37 760.278 181.949 760.278C182.537 760.278 183.004 760.068 183.349 759.648C183.694 759.228 183.867 758.593 183.867 757.744C183.867 756.904 183.694 756.274 183.349 755.854C183.013 755.434 182.551 755.224 181.963 755.224C181.384 755.224 180.918 755.434 180.563 755.854C180.218 756.265 180.045 756.895 180.045 757.744ZM189.151 755.476C189.085 755.373 189.025 755.233 188.969 755.056C188.913 754.879 188.885 754.692 188.885 754.496C188.885 754.132 188.964 753.871 189.123 753.712C189.291 753.553 189.505 753.474 189.767 753.474H195.871C195.936 753.577 195.997 753.717 196.053 753.894C196.109 754.071 196.137 754.258 196.137 754.454C196.137 754.818 196.053 755.079 195.885 755.238C195.726 755.397 195.516 755.476 195.255 755.476H193.701V761.944C193.598 761.972 193.435 762 193.211 762.028C192.996 762.056 192.781 762.07 192.567 762.07C192.352 762.07 192.161 762.051 191.993 762.014C191.834 761.986 191.699 761.93 191.587 761.846C191.475 761.762 191.391 761.645 191.335 761.496C191.279 761.347 191.251 761.151 191.251 760.908V755.476H189.151ZM207.303 757.45C207.695 757.45 207.994 757.361 208.199 757.184C208.414 756.997 208.521 756.717 208.521 756.344C208.521 755.989 208.409 755.719 208.185 755.532C207.97 755.336 207.653 755.238 207.233 755.238C207.084 755.238 206.958 755.243 206.855 755.252C206.762 755.252 206.664 755.261 206.561 755.28V757.45H207.303ZM206.575 761.944C206.472 761.972 206.309 762 206.085 762.028C205.87 762.056 205.656 762.07 205.441 762.07C205.226 762.07 205.035 762.051 204.867 762.014C204.708 761.986 204.573 761.93 204.461 761.846C204.349 761.762 204.265 761.645 204.209 761.496C204.153 761.347 204.125 761.151 204.125 760.908V754.314C204.125 754.118 204.176 753.969 204.279 753.866C204.391 753.754 204.54 753.665 204.727 753.6C205.044 753.488 205.404 753.409 205.805 753.362C206.216 753.306 206.626 753.278 207.037 753.278C208.325 753.278 209.31 753.553 209.991 754.104C210.672 754.655 211.013 755.401 211.013 756.344C211.013 756.801 210.938 757.217 210.789 757.59C210.649 757.954 210.434 758.271 210.145 758.542C209.865 758.803 209.506 759.009 209.067 759.158C208.638 759.298 208.138 759.368 207.569 759.368H206.575V761.944ZM215.642 753.768C215.8 753.675 216.038 753.586 216.356 753.502C216.682 753.418 217.009 753.376 217.336 753.376C217.802 753.376 218.213 753.446 218.568 753.586C218.932 753.717 219.165 753.927 219.268 754.216C219.436 754.701 219.618 755.266 219.814 755.91C220.01 756.554 220.206 757.221 220.402 757.912C220.598 758.593 220.789 759.27 220.976 759.942C221.162 760.605 221.326 761.193 221.466 761.706C221.354 761.837 221.186 761.939 220.962 762.014C220.738 762.098 220.472 762.14 220.164 762.14C219.94 762.14 219.748 762.121 219.59 762.084C219.44 762.047 219.314 761.991 219.212 761.916C219.118 761.841 219.039 761.743 218.974 761.622C218.918 761.501 218.866 761.361 218.82 761.202L218.568 760.236H216.034C215.959 760.516 215.884 760.805 215.81 761.104C215.735 761.403 215.66 761.692 215.586 761.972C215.455 762.019 215.315 762.056 215.166 762.084C215.026 762.121 214.853 762.14 214.648 762.14C214.172 762.14 213.817 762.061 213.584 761.902C213.36 761.734 213.248 761.505 213.248 761.216C213.248 761.085 213.266 760.955 213.304 760.824C213.341 760.693 213.383 760.539 213.43 760.362C213.495 760.11 213.584 759.797 213.696 759.424C213.817 759.051 213.948 758.649 214.088 758.22C214.228 757.781 214.377 757.333 214.536 756.876C214.694 756.419 214.844 755.989 214.984 755.588C215.124 755.177 215.25 754.813 215.362 754.496C215.483 754.179 215.576 753.936 215.642 753.768ZM217.322 755.574C217.191 755.966 217.042 756.405 216.874 756.89C216.715 757.366 216.57 757.851 216.44 758.346H218.176C218.045 757.842 217.91 757.352 217.77 756.876C217.639 756.391 217.518 755.957 217.406 755.574H217.322ZM227.076 758.626C226.665 758.486 226.292 758.346 225.956 758.206C225.62 758.057 225.33 757.879 225.088 757.674C224.845 757.469 224.654 757.226 224.514 756.946C224.383 756.657 224.318 756.307 224.318 755.896C224.318 755.103 224.621 754.468 225.228 753.992C225.844 753.516 226.702 753.278 227.804 753.278C228.205 753.278 228.578 753.306 228.924 753.362C229.269 753.418 229.563 753.507 229.806 753.628C230.058 753.74 230.254 753.889 230.394 754.076C230.534 754.253 230.604 754.463 230.604 754.706C230.604 754.949 230.548 755.159 230.436 755.336C230.324 755.504 230.188 755.649 230.03 755.77C229.824 755.639 229.549 755.527 229.204 755.434C228.858 755.331 228.48 755.28 228.07 755.28C227.65 755.28 227.342 755.341 227.146 755.462C226.95 755.574 226.852 755.719 226.852 755.896C226.852 756.036 226.912 756.153 227.034 756.246C227.155 756.33 227.337 756.409 227.58 756.484L228.322 756.722C229.199 757.002 229.871 757.361 230.338 757.8C230.814 758.229 231.052 758.817 231.052 759.564C231.052 760.357 230.739 761.001 230.114 761.496C229.488 761.981 228.569 762.224 227.356 762.224C226.926 762.224 226.525 762.187 226.152 762.112C225.788 762.047 225.466 761.949 225.186 761.818C224.915 761.678 224.7 761.51 224.542 761.314C224.392 761.109 224.318 760.875 224.318 760.614C224.318 760.343 224.397 760.115 224.556 759.928C224.714 759.732 224.887 759.583 225.074 759.48C225.335 759.685 225.652 759.863 226.026 760.012C226.408 760.161 226.824 760.236 227.272 760.236C227.729 760.236 228.051 760.166 228.238 760.026C228.424 759.886 228.518 759.723 228.518 759.536C228.518 759.349 228.443 759.209 228.294 759.116C228.144 759.013 227.934 758.915 227.664 758.822L227.076 758.626ZM236.787 758.626C236.376 758.486 236.003 758.346 235.667 758.206C235.331 758.057 235.041 757.879 234.799 757.674C234.556 757.469 234.365 757.226 234.225 756.946C234.094 756.657 234.029 756.307 234.029 755.896C234.029 755.103 234.332 754.468 234.939 753.992C235.555 753.516 236.413 753.278 237.515 753.278C237.916 753.278 238.289 753.306 238.635 753.362C238.98 753.418 239.274 753.507 239.517 753.628C239.769 753.74 239.965 753.889 240.105 754.076C240.245 754.253 240.315 754.463 240.315 754.706C240.315 754.949 240.259 755.159 240.147 755.336C240.035 755.504 239.899 755.649 239.741 755.77C239.535 755.639 239.26 755.527 238.915 755.434C238.569 755.331 238.191 755.28 237.781 755.28C237.361 755.28 237.053 755.341 236.857 755.462C236.661 755.574 236.563 755.719 236.563 755.896C236.563 756.036 236.623 756.153 236.745 756.246C236.866 756.33 237.048 756.409 237.291 756.484L238.033 756.722C238.91 757.002 239.582 757.361 240.049 757.8C240.525 758.229 240.763 758.817 240.763 759.564C240.763 760.357 240.45 761.001 239.825 761.496C239.199 761.981 238.28 762.224 237.067 762.224C236.637 762.224 236.236 762.187 235.863 762.112C235.499 762.047 235.177 761.949 234.897 761.818C234.626 761.678 234.411 761.51 234.253 761.314C234.103 761.109 234.029 760.875 234.029 760.614C234.029 760.343 234.108 760.115 234.267 759.928C234.425 759.732 234.598 759.583 234.785 759.48C235.046 759.685 235.363 759.863 235.737 760.012C236.119 760.161 236.535 760.236 236.983 760.236C237.44 760.236 237.762 760.166 237.949 760.026C238.135 759.886 238.229 759.723 238.229 759.536C238.229 759.349 238.154 759.209 238.005 759.116C237.855 759.013 237.645 758.915 237.375 758.822L236.787 758.626ZM247.941 755.588C248.044 755.541 248.203 755.49 248.417 755.434C248.641 755.369 248.865 755.336 249.089 755.336C249.481 755.336 249.808 755.397 250.069 755.518C250.331 755.63 250.489 755.798 250.545 756.022C250.648 756.405 250.741 756.764 250.825 757.1C250.919 757.427 251.007 757.744 251.091 758.052C251.175 758.351 251.255 758.649 251.329 758.948C251.413 759.247 251.493 759.559 251.567 759.886H251.637C251.721 759.317 251.796 758.775 251.861 758.262C251.927 757.739 251.987 757.231 252.043 756.736C252.099 756.232 252.155 755.737 252.211 755.252C252.267 754.757 252.323 754.258 252.379 753.754C252.725 753.558 253.093 753.46 253.485 753.46C253.831 753.46 254.129 753.535 254.381 753.684C254.633 753.833 254.759 754.085 254.759 754.44C254.759 754.645 254.736 754.939 254.689 755.322C254.652 755.695 254.596 756.115 254.521 756.582C254.456 757.049 254.377 757.539 254.283 758.052C254.19 758.565 254.092 759.055 253.989 759.522C253.887 759.989 253.779 760.413 253.667 760.796C253.565 761.169 253.467 761.459 253.373 761.664C253.233 761.795 253.005 761.902 252.687 761.986C252.37 762.07 252.043 762.112 251.707 762.112C251.269 762.112 250.895 762.056 250.587 761.944C250.289 761.823 250.107 761.655 250.041 761.44C249.92 761.067 249.789 760.623 249.649 760.11C249.509 759.597 249.36 759.032 249.201 758.416C249.071 759.023 248.935 759.615 248.795 760.194C248.655 760.773 248.529 761.263 248.417 761.664C248.277 761.795 248.067 761.902 247.787 761.986C247.507 762.07 247.199 762.112 246.863 762.112C246.443 762.112 246.061 762.056 245.715 761.944C245.379 761.823 245.16 761.655 245.057 761.44C244.973 761.272 244.88 761.025 244.777 760.698C244.684 760.362 244.586 759.984 244.483 759.564C244.381 759.135 244.273 758.673 244.161 758.178C244.059 757.683 243.961 757.189 243.867 756.694C243.783 756.199 243.704 755.719 243.629 755.252C243.555 754.776 243.499 754.342 243.461 753.95C243.592 753.829 243.774 753.717 244.007 753.614C244.241 753.511 244.493 753.46 244.763 753.46C245.118 753.46 245.407 753.539 245.631 753.698C245.865 753.847 246.009 754.104 246.065 754.468C246.215 755.42 246.336 756.213 246.429 756.848C246.532 757.483 246.611 758.005 246.667 758.416C246.733 758.817 246.779 759.13 246.807 759.354C246.835 759.578 246.863 759.755 246.891 759.886H246.961C247.045 759.513 247.125 759.167 247.199 758.85C247.274 758.533 247.349 758.215 247.423 757.898C247.507 757.571 247.591 757.226 247.675 756.862C247.759 756.489 247.848 756.064 247.941 755.588ZM257.687 757.744C257.687 757.016 257.799 756.372 258.023 755.812C258.257 755.252 258.569 754.785 258.961 754.412C259.363 754.029 259.829 753.74 260.361 753.544C260.903 753.348 261.486 753.25 262.111 753.25C262.737 753.25 263.315 753.348 263.847 753.544C264.389 753.74 264.86 754.029 265.261 754.412C265.663 754.785 265.975 755.252 266.199 755.812C266.433 756.372 266.549 757.016 266.549 757.744C266.549 758.472 266.437 759.121 266.213 759.69C265.989 760.25 265.677 760.721 265.275 761.104C264.883 761.477 264.417 761.762 263.875 761.958C263.334 762.154 262.746 762.252 262.111 762.252C261.477 762.252 260.889 762.154 260.347 761.958C259.806 761.753 259.339 761.459 258.947 761.076C258.555 760.693 258.247 760.222 258.023 759.662C257.799 759.102 257.687 758.463 257.687 757.744ZM260.207 757.744C260.207 758.593 260.38 759.228 260.725 759.648C261.071 760.068 261.533 760.278 262.111 760.278C262.699 760.278 263.166 760.068 263.511 759.648C263.857 759.228 264.029 758.593 264.029 757.744C264.029 756.904 263.857 756.274 263.511 755.854C263.175 755.434 262.713 755.224 262.125 755.224C261.547 755.224 261.08 755.434 260.725 755.854C260.38 756.265 260.207 756.895 260.207 757.744ZM272.387 759.256V761.944C272.284 761.972 272.121 762 271.897 762.028C271.682 762.056 271.468 762.07 271.253 762.07C271.038 762.07 270.847 762.051 270.679 762.014C270.52 761.986 270.385 761.93 270.273 761.846C270.17 761.762 270.091 761.645 270.035 761.496C269.979 761.347 269.951 761.151 269.951 760.908V754.314C269.951 754.118 270.002 753.969 270.105 753.866C270.217 753.754 270.366 753.665 270.553 753.6C270.87 753.488 271.239 753.409 271.659 753.362C272.079 753.306 272.527 753.278 273.003 753.278C274.291 753.278 275.262 753.549 275.915 754.09C276.568 754.631 276.895 755.364 276.895 756.288C276.895 756.867 276.746 757.361 276.447 757.772C276.148 758.183 275.794 758.5 275.383 758.724C275.719 759.181 276.05 759.611 276.377 760.012C276.704 760.413 276.96 760.777 277.147 761.104C277.054 761.431 276.881 761.683 276.629 761.86C276.386 762.028 276.111 762.112 275.803 762.112C275.598 762.112 275.42 762.089 275.271 762.042C275.122 761.995 274.991 761.93 274.879 761.846C274.767 761.762 274.664 761.659 274.571 761.538C274.478 761.417 274.389 761.286 274.305 761.146L273.129 759.256H272.387ZM273.269 757.394C273.624 757.394 273.904 757.305 274.109 757.128C274.314 756.941 274.417 756.671 274.417 756.316C274.417 755.961 274.3 755.695 274.067 755.518C273.843 755.331 273.484 755.238 272.989 755.238C272.849 755.238 272.737 755.243 272.653 755.252C272.569 755.261 272.476 755.275 272.373 755.294V757.394H273.269ZM282.918 760.18C283.021 760.199 283.147 760.217 283.296 760.236C283.446 760.245 283.586 760.25 283.716 760.25C284.034 760.25 284.323 760.203 284.584 760.11C284.855 760.017 285.084 759.872 285.27 759.676C285.466 759.48 285.616 759.228 285.718 758.92C285.83 758.603 285.886 758.225 285.886 757.786C285.886 756.946 285.69 756.316 285.298 755.896C284.906 755.467 284.384 755.252 283.73 755.252C283.6 755.252 283.464 755.257 283.324 755.266C283.194 755.275 283.058 755.289 282.918 755.308V760.18ZM283.702 762.224C283.544 762.224 283.362 762.219 283.156 762.21C282.951 762.201 282.736 762.182 282.512 762.154C282.298 762.126 282.078 762.089 281.854 762.042C281.64 762.005 281.439 761.949 281.252 761.874C280.739 761.678 280.482 761.337 280.482 760.852V754.314C280.482 754.118 280.534 753.969 280.636 753.866C280.748 753.754 280.898 753.665 281.084 753.6C281.486 753.469 281.91 753.385 282.358 753.348C282.806 753.301 283.208 753.278 283.562 753.278C284.29 753.278 284.948 753.367 285.536 753.544C286.134 753.721 286.642 753.997 287.062 754.37C287.492 754.734 287.823 755.196 288.056 755.756C288.29 756.316 288.406 756.979 288.406 757.744C288.406 758.491 288.294 759.144 288.07 759.704C287.846 760.255 287.524 760.721 287.104 761.104C286.694 761.477 286.199 761.757 285.62 761.944C285.042 762.131 284.402 762.224 283.702 762.224Z" fill="#5A7FCC"/>
<path d="M51 690C51 675.641 62.6406 664 77 664H348C362.359 664 374 675.641 374 690V690C374 704.359 362.359 716 348 716H77C62.6406 716 51 704.359 51 690V690Z" fill="#5A7FCC"/>
<path d="M188.962 694.048C188.504 694.048 188.141 693.915 187.874 693.648C187.608 693.381 187.474 693.019 187.474 692.56V684.288C187.592 684.267 187.778 684.24 188.034 684.208C188.29 684.165 188.536 684.144 188.77 684.144C189.016 684.144 189.229 684.165 189.41 684.208C189.602 684.24 189.762 684.304 189.89 684.4C190.018 684.496 190.114 684.629 190.178 684.8C190.242 684.971 190.274 685.195 190.274 685.472V691.792H193.938C194.013 691.909 194.082 692.069 194.146 692.272C194.21 692.464 194.242 692.667 194.242 692.88C194.242 693.307 194.152 693.611 193.97 693.792C193.789 693.963 193.549 694.048 193.25 694.048H188.962ZM195.313 689.136C195.313 688.304 195.441 687.568 195.697 686.928C195.964 686.288 196.321 685.755 196.769 685.328C197.228 684.891 197.761 684.56 198.369 684.336C198.988 684.112 199.654 684 200.369 684C201.084 684 201.745 684.112 202.353 684.336C202.972 684.56 203.51 684.891 203.969 685.328C204.428 685.755 204.785 686.288 205.041 686.928C205.308 687.568 205.441 688.304 205.441 689.136C205.441 689.968 205.313 690.709 205.057 691.36C204.801 692 204.444 692.539 203.985 692.976C203.537 693.403 203.004 693.728 202.385 693.952C201.766 694.176 201.094 694.288 200.369 694.288C199.644 694.288 198.972 694.176 198.353 693.952C197.734 693.717 197.201 693.381 196.753 692.944C196.305 692.507 195.953 691.968 195.697 691.328C195.441 690.688 195.313 689.957 195.313 689.136ZM198.193 689.136C198.193 690.107 198.39 690.832 198.785 691.312C199.18 691.792 199.708 692.032 200.369 692.032C201.041 692.032 201.574 691.792 201.969 691.312C202.364 690.832 202.561 690.107 202.561 689.136C202.561 688.176 202.364 687.456 201.969 686.976C201.585 686.496 201.057 686.256 200.385 686.256C199.724 686.256 199.19 686.496 198.785 686.976C198.39 687.445 198.193 688.165 198.193 689.136ZM216.427 692.416C216.427 692.747 216.368 692.992 216.251 693.152C216.134 693.312 215.947 693.467 215.691 693.616C215.542 693.701 215.355 693.787 215.131 693.872C214.907 693.947 214.662 694.011 214.395 694.064C214.128 694.128 213.846 694.176 213.547 694.208C213.259 694.24 212.971 694.256 212.683 694.256C211.915 694.256 211.195 694.155 210.523 693.952C209.851 693.739 209.264 693.424 208.763 693.008C208.272 692.581 207.883 692.053 207.595 691.424C207.307 690.795 207.163 690.064 207.163 689.232C207.163 688.357 207.318 687.595 207.627 686.944C207.947 686.293 208.363 685.755 208.875 685.328C209.398 684.891 209.99 684.565 210.651 684.352C211.323 684.139 212.011 684.032 212.715 684.032C213.728 684.032 214.528 684.197 215.115 684.528C215.712 684.848 216.011 685.269 216.011 685.792C216.011 686.069 215.942 686.309 215.803 686.512C215.664 686.715 215.504 686.875 215.323 686.992C215.056 686.832 214.72 686.677 214.315 686.528C213.92 686.368 213.472 686.288 212.971 686.288C212.075 686.288 211.36 686.544 210.827 687.056C210.304 687.568 210.043 688.277 210.043 689.184C210.043 689.675 210.112 690.101 210.251 690.464C210.4 690.816 210.598 691.109 210.843 691.344C211.088 691.568 211.371 691.739 211.691 691.856C212.011 691.963 212.352 692.016 212.715 692.016C212.95 692.016 213.158 691.995 213.339 691.952C213.52 691.909 213.659 691.861 213.755 691.808V690.304H212.043C211.979 690.187 211.915 690.032 211.851 689.84C211.798 689.648 211.771 689.445 211.771 689.232C211.771 688.848 211.856 688.571 212.027 688.4C212.208 688.229 212.438 688.144 212.715 688.144H215.419C215.739 688.144 215.984 688.235 216.155 688.416C216.336 688.587 216.427 688.832 216.427 689.152V692.416ZM225.471 693.936C225.354 693.968 225.167 694 224.911 694.032C224.666 694.064 224.421 694.08 224.175 694.08C223.93 694.08 223.711 694.059 223.519 694.016C223.338 693.984 223.183 693.92 223.055 693.824C222.927 693.728 222.831 693.595 222.767 693.424C222.703 693.253 222.671 693.029 222.671 692.752V684.304C222.789 684.283 222.975 684.256 223.231 684.224C223.487 684.181 223.733 684.16 223.967 684.16C224.213 684.16 224.426 684.181 224.607 684.224C224.799 684.256 224.959 684.32 225.087 684.416C225.215 684.512 225.311 684.645 225.375 684.816C225.439 684.987 225.471 685.211 225.471 685.488V693.936ZM236.93 693.664C236.781 693.813 236.562 693.925 236.274 694C235.997 694.085 235.661 694.128 235.266 694.128C234.872 694.128 234.498 694.069 234.146 693.952C233.794 693.835 233.506 693.552 233.282 693.104L231.698 689.872C231.538 689.541 231.394 689.232 231.266 688.944C231.138 688.645 231 688.304 230.85 687.92L230.754 687.936C230.797 688.512 230.818 689.099 230.818 689.696C230.829 690.293 230.834 690.88 230.834 691.456V693.936C230.717 693.968 230.536 694 230.29 694.032C230.056 694.064 229.821 694.08 229.586 694.08C229.352 694.08 229.144 694.064 228.962 694.032C228.781 694 228.632 693.936 228.514 693.84C228.397 693.744 228.306 693.616 228.242 693.456C228.178 693.285 228.146 693.067 228.146 692.8V684.8C228.296 684.587 228.525 684.427 228.834 684.32C229.144 684.213 229.474 684.16 229.826 684.16C230.221 684.16 230.594 684.224 230.946 684.352C231.309 684.469 231.597 684.747 231.81 685.184L233.41 688.416C233.57 688.747 233.714 689.061 233.842 689.36C233.97 689.648 234.109 689.984 234.258 690.368L234.338 690.352C234.296 689.776 234.269 689.2 234.258 688.624C234.248 688.048 234.242 687.472 234.242 686.896V684.304C234.36 684.272 234.536 684.24 234.77 684.208C235.016 684.176 235.256 684.16 235.49 684.16C235.96 684.16 236.317 684.245 236.562 684.416C236.808 684.576 236.93 684.917 236.93 685.44V693.664Z" fill="white"/>
<rect x="50" y="504" width="325" height="50" rx="25" fill="#F3F5F7"/>
<rect x="50" y="574" width="325" height="50" rx="25" fill="#F3F5F7"/>
<path d="M96.04 525.792C96.04 525.333 96.1733 524.971 96.44 524.704C96.7067 524.437 97.0693 524.304 97.528 524.304H102.808C102.883 524.421 102.947 524.576 103 524.768C103.064 524.96 103.096 525.163 103.096 525.376C103.096 525.781 103.005 526.069 102.824 526.24C102.653 526.411 102.424 526.496 102.136 526.496H98.76V527.984H102.36C102.435 528.101 102.499 528.256 102.552 528.448C102.616 528.629 102.648 528.827 102.648 529.04C102.648 529.445 102.563 529.733 102.392 529.904C102.221 530.075 101.992 530.16 101.704 530.16H98.76V531.84H102.872C102.947 531.957 103.011 532.112 103.064 532.304C103.128 532.496 103.16 532.699 103.16 532.912C103.16 533.317 103.069 533.611 102.888 533.792C102.717 533.963 102.488 534.048 102.2 534.048H97.528C97.0693 534.048 96.7067 533.915 96.44 533.648C96.1733 533.381 96.04 533.019 96.04 532.56V525.792ZM108.048 525.984C108.485 525.984 108.912 526.048 109.328 526.176C109.754 526.293 110.122 526.475 110.432 526.72C110.752 526.507 111.109 526.331 111.504 526.192C111.909 526.053 112.394 525.984 112.96 525.984C113.365 525.984 113.76 526.037 114.144 526.144C114.538 526.251 114.885 526.421 115.184 526.656C115.493 526.88 115.738 527.184 115.92 527.568C116.101 527.941 116.192 528.4 116.192 528.944V533.984C116.085 534.016 115.914 534.048 115.68 534.08C115.456 534.112 115.221 534.128 114.976 534.128C114.741 534.128 114.528 534.112 114.336 534.08C114.154 534.048 114 533.984 113.872 533.888C113.744 533.792 113.642 533.664 113.568 533.504C113.504 533.333 113.472 533.115 113.472 532.848V529.024C113.472 528.704 113.381 528.475 113.2 528.336C113.018 528.187 112.773 528.112 112.464 528.112C112.314 528.112 112.154 528.149 111.984 528.224C111.813 528.288 111.685 528.357 111.6 528.432C111.61 528.475 111.616 528.517 111.616 528.56C111.616 528.592 111.616 528.624 111.616 528.656V533.984C111.498 534.016 111.322 534.048 111.088 534.08C110.864 534.112 110.634 534.128 110.4 534.128C110.165 534.128 109.952 534.112 109.76 534.08C109.578 534.048 109.424 533.984 109.296 533.888C109.168 533.792 109.066 533.664 108.992 533.504C108.928 533.333 108.896 533.115 108.896 532.848V529.024C108.896 528.704 108.794 528.475 108.592 528.336C108.4 528.187 108.165 528.112 107.888 528.112C107.696 528.112 107.53 528.144 107.392 528.208C107.253 528.261 107.136 528.315 107.04 528.368V533.984C106.933 534.016 106.762 534.048 106.528 534.08C106.304 534.112 106.069 534.128 105.824 534.128C105.589 534.128 105.376 534.112 105.184 534.08C105.002 534.048 104.848 533.984 104.72 533.888C104.592 533.792 104.49 533.664 104.416 533.504C104.352 533.333 104.32 533.115 104.32 532.848V528.016C104.32 527.728 104.378 527.499 104.496 527.328C104.624 527.157 104.794 526.997 105.008 526.848C105.37 526.592 105.818 526.384 106.352 526.224C106.896 526.064 107.461 525.984 108.048 525.984ZM120.979 532.272C121.16 532.272 121.357 532.256 121.571 532.224C121.795 532.181 121.96 532.128 122.067 532.064V530.784L120.915 530.88C120.616 530.901 120.371 530.965 120.179 531.072C119.987 531.179 119.891 531.339 119.891 531.552C119.891 531.765 119.971 531.941 120.131 532.08C120.301 532.208 120.584 532.272 120.979 532.272ZM120.851 525.984C121.427 525.984 121.949 526.043 122.419 526.16C122.899 526.277 123.304 526.459 123.635 526.704C123.976 526.939 124.237 527.243 124.419 527.616C124.6 527.979 124.691 528.411 124.691 528.912V532.496C124.691 532.773 124.611 533.003 124.451 533.184C124.301 533.355 124.12 533.504 123.907 533.632C123.213 534.048 122.237 534.256 120.979 534.256C120.413 534.256 119.901 534.203 119.443 534.096C118.995 533.989 118.605 533.829 118.275 533.616C117.955 533.403 117.704 533.131 117.523 532.8C117.352 532.469 117.267 532.085 117.267 531.648C117.267 530.912 117.485 530.347 117.923 529.952C118.36 529.557 119.037 529.312 119.955 529.216L122.051 528.992V528.88C122.051 528.571 121.912 528.352 121.635 528.224C121.368 528.085 120.979 528.016 120.467 528.016C120.061 528.016 119.667 528.059 119.283 528.144C118.899 528.229 118.552 528.336 118.243 528.464C118.104 528.368 117.987 528.224 117.891 528.032C117.795 527.829 117.747 527.621 117.747 527.408C117.747 527.131 117.811 526.912 117.939 526.752C118.077 526.581 118.285 526.437 118.563 526.32C118.872 526.203 119.235 526.117 119.651 526.064C120.077 526.011 120.477 525.984 120.851 525.984ZM126.09 524.064C126.09 523.659 126.223 523.317 126.49 523.04C126.767 522.763 127.13 522.624 127.578 522.624C128.026 522.624 128.383 522.763 128.65 523.04C128.927 523.317 129.066 523.659 129.066 524.064C129.066 524.469 128.927 524.811 128.65 525.088C128.383 525.365 128.026 525.504 127.578 525.504C127.13 525.504 126.767 525.365 126.49 525.088C126.223 524.811 126.09 524.469 126.09 524.064ZM128.938 533.984C128.821 534.005 128.645 534.032 128.41 534.064C128.186 534.107 127.957 534.128 127.722 534.128C127.487 534.128 127.274 534.112 127.082 534.08C126.901 534.048 126.746 533.984 126.618 533.888C126.49 533.792 126.389 533.664 126.314 533.504C126.25 533.333 126.218 533.115 126.218 532.848V526.336C126.335 526.315 126.506 526.288 126.73 526.256C126.965 526.213 127.199 526.192 127.434 526.192C127.669 526.192 127.877 526.208 128.058 526.24C128.25 526.272 128.41 526.336 128.538 526.432C128.666 526.528 128.762 526.661 128.826 526.832C128.901 526.992 128.938 527.205 128.938 527.472V533.984ZM133.238 533.984C133.12 534.005 132.944 534.032 132.71 534.064C132.486 534.107 132.256 534.128 132.022 534.128C131.787 534.128 131.574 534.112 131.382 534.08C131.2 534.048 131.046 533.984 130.918 533.888C130.79 533.792 130.688 533.664 130.614 533.504C130.55 533.333 130.518 533.115 130.518 532.848V523.568C130.635 523.547 130.806 523.52 131.03 523.488C131.264 523.445 131.499 523.424 131.734 523.424C131.968 523.424 132.176 523.44 132.358 523.472C132.55 523.504 132.71 523.568 132.838 523.664C132.966 523.76 133.062 523.893 133.126 524.064C133.2 524.224 133.238 524.437 133.238 524.704V533.984Z" fill="#BDBDBD"/>
<path d="M99.672 600.8C100.12 600.8 100.461 600.699 100.696 600.496C100.941 600.283 101.064 599.963 101.064 599.536C101.064 599.131 100.936 598.821 100.68 598.608C100.435 598.384 100.072 598.272 99.592 598.272C99.4213 598.272 99.2773 598.277 99.16 598.288C99.0533 598.288 98.9413 598.299 98.824 598.32V600.8H99.672ZM98.84 605.936C98.7227 605.968 98.536 606 98.28 606.032C98.0347 606.064 97.7893 606.08 97.544 606.08C97.2987 606.08 97.08 606.059 96.888 606.016C96.7067 605.984 96.552 605.92 96.424 605.824C96.296 605.728 96.2 605.595 96.136 605.424C96.072 605.253 96.04 605.029 96.04 604.752V597.216C96.04 596.992 96.0987 596.821 96.216 596.704C96.344 596.576 96.5147 596.475 96.728 596.4C97.0907 596.272 97.5013 596.181 97.96 596.128C98.4293 596.064 98.8987 596.032 99.368 596.032C100.84 596.032 101.965 596.347 102.744 596.976C103.523 597.605 103.912 598.459 103.912 599.536C103.912 600.059 103.827 600.533 103.656 600.96C103.496 601.376 103.251 601.739 102.92 602.048C102.6 602.347 102.189 602.581 101.688 602.752C101.197 602.912 100.627 602.992 99.976 602.992H98.84V605.936ZM108.101 604.272C108.282 604.272 108.479 604.256 108.693 604.224C108.917 604.181 109.082 604.128 109.189 604.064V602.784L108.037 602.88C107.738 602.901 107.493 602.965 107.301 603.072C107.109 603.179 107.013 603.339 107.013 603.552C107.013 603.765 107.093 603.941 107.253 604.08C107.423 604.208 107.706 604.272 108.101 604.272ZM107.973 597.984C108.549 597.984 109.071 598.043 109.541 598.16C110.021 598.277 110.426 598.459 110.757 598.704C111.098 598.939 111.359 599.243 111.541 599.616C111.722 599.979 111.813 600.411 111.813 600.912V604.496C111.813 604.773 111.733 605.003 111.573 605.184C111.423 605.355 111.242 605.504 111.029 605.632C110.335 606.048 109.359 606.256 108.101 606.256C107.535 606.256 107.023 606.203 106.565 606.096C106.117 605.989 105.727 605.829 105.397 605.616C105.077 605.403 104.826 605.131 104.645 604.8C104.474 604.469 104.389 604.085 104.389 603.648C104.389 602.912 104.607 602.347 105.045 601.952C105.482 601.557 106.159 601.312 107.077 601.216L109.173 600.992V600.88C109.173 600.571 109.034 600.352 108.757 600.224C108.49 600.085 108.101 600.016 107.589 600.016C107.183 600.016 106.789 600.059 106.405 600.144C106.021 600.229 105.674 600.336 105.365 600.464C105.226 600.368 105.109 600.224 105.013 600.032C104.917 599.829 104.869 599.621 104.869 599.408C104.869 599.131 104.933 598.912 105.061 598.752C105.199 598.581 105.407 598.437 105.685 598.32C105.994 598.203 106.357 598.117 106.773 598.064C107.199 598.011 107.599 597.984 107.973 597.984ZM119.836 603.68C119.836 604.491 119.532 605.125 118.924 605.584C118.316 606.043 117.42 606.272 116.236 606.272C115.788 606.272 115.372 606.24 114.988 606.176C114.604 606.112 114.273 606.016 113.996 605.888C113.729 605.749 113.516 605.579 113.356 605.376C113.206 605.173 113.132 604.933 113.132 604.656C113.132 604.4 113.185 604.187 113.292 604.016C113.398 603.835 113.526 603.685 113.676 603.568C113.985 603.739 114.337 603.893 114.732 604.032C115.137 604.16 115.601 604.224 116.124 604.224C116.454 604.224 116.705 604.176 116.876 604.08C117.057 603.984 117.148 603.856 117.148 603.696C117.148 603.547 117.084 603.429 116.956 603.344C116.828 603.259 116.614 603.189 116.316 603.136L115.836 603.04C114.908 602.859 114.214 602.576 113.756 602.192C113.308 601.797 113.084 601.237 113.084 600.512C113.084 600.117 113.169 599.76 113.34 599.44C113.51 599.12 113.75 598.853 114.06 598.64C114.369 598.427 114.737 598.261 115.164 598.144C115.601 598.027 116.081 597.968 116.604 597.968C116.998 597.968 117.366 598 117.708 598.064C118.06 598.117 118.364 598.203 118.62 598.32C118.876 598.437 119.078 598.592 119.228 598.784C119.377 598.965 119.452 599.184 119.452 599.44C119.452 599.685 119.404 599.899 119.308 600.08C119.222 600.251 119.11 600.395 118.972 600.512C118.886 600.459 118.758 600.405 118.588 600.352C118.417 600.288 118.23 600.235 118.028 600.192C117.825 600.139 117.617 600.096 117.404 600.064C117.201 600.032 117.014 600.016 116.844 600.016C116.492 600.016 116.22 600.059 116.028 600.144C115.836 600.219 115.74 600.341 115.74 600.512C115.74 600.629 115.793 600.725 115.9 600.8C116.006 600.875 116.209 600.944 116.508 601.008L117.004 601.12C118.028 601.355 118.753 601.68 119.18 602.096C119.617 602.501 119.836 603.029 119.836 603.68ZM127.511 603.68C127.511 604.491 127.207 605.125 126.599 605.584C125.991 606.043 125.095 606.272 123.911 606.272C123.463 606.272 123.047 606.24 122.663 606.176C122.279 606.112 121.948 606.016 121.671 605.888C121.404 605.749 121.191 605.579 121.031 605.376C120.881 605.173 120.807 604.933 120.807 604.656C120.807 604.4 120.86 604.187 120.967 604.016C121.073 603.835 121.201 603.685 121.351 603.568C121.66 603.739 122.012 603.893 122.407 604.032C122.812 604.16 123.276 604.224 123.799 604.224C124.129 604.224 124.38 604.176 124.551 604.08C124.732 603.984 124.823 603.856 124.823 603.696C124.823 603.547 124.759 603.429 124.631 603.344C124.503 603.259 124.289 603.189 123.991 603.136L123.511 603.04C122.583 602.859 121.889 602.576 121.431 602.192C120.983 601.797 120.759 601.237 120.759 600.512C120.759 600.117 120.844 599.76 121.015 599.44C121.185 599.12 121.425 598.853 121.735 598.64C122.044 598.427 122.412 598.261 122.839 598.144C123.276 598.027 123.756 597.968 124.279 597.968C124.673 597.968 125.041 598 125.383 598.064C125.735 598.117 126.039 598.203 126.295 598.32C126.551 598.437 126.753 598.592 126.903 598.784C127.052 598.965 127.127 599.184 127.127 599.44C127.127 599.685 127.079 599.899 126.983 600.08C126.897 600.251 126.785 600.395 126.647 600.512C126.561 600.459 126.433 600.405 126.263 600.352C126.092 600.288 125.905 600.235 125.703 600.192C125.5 600.139 125.292 600.096 125.079 600.064C124.876 600.032 124.689 600.016 124.519 600.016C124.167 600.016 123.895 600.059 123.703 600.144C123.511 600.219 123.415 600.341 123.415 600.512C123.415 600.629 123.468 600.725 123.575 600.8C123.681 600.875 123.884 600.944 124.183 601.008L124.679 601.12C125.703 601.355 126.428 601.68 126.855 602.096C127.292 602.501 127.511 603.029 127.511 603.68ZM132.98 605.76C132.83 605.888 132.628 605.989 132.372 606.064C132.116 606.149 131.812 606.192 131.46 606.192C131.022 606.192 130.644 606.128 130.324 606C130.004 605.883 129.79 605.712 129.684 605.488C129.566 605.232 129.428 604.827 129.268 604.272C129.118 603.717 128.969 603.109 128.82 602.448C128.67 601.787 128.526 601.115 128.388 600.432C128.26 599.749 128.158 599.147 128.084 598.624C128.233 598.475 128.43 598.347 128.676 598.24C128.932 598.123 129.209 598.064 129.508 598.064C129.881 598.064 130.185 598.149 130.42 598.32C130.665 598.48 130.814 598.763 130.868 599.168C130.974 599.979 131.065 600.651 131.14 601.184C131.214 601.707 131.273 602.139 131.316 602.48C131.369 602.811 131.406 603.067 131.428 603.248C131.46 603.419 131.486 603.557 131.508 603.664H131.572C131.604 603.493 131.657 603.248 131.732 602.928C131.817 602.597 131.913 602.224 132.02 601.808C132.126 601.392 132.238 600.944 132.356 600.464C132.473 599.973 132.59 599.488 132.708 599.008C132.921 598.891 133.129 598.8 133.332 598.736C133.545 598.672 133.806 598.64 134.116 598.64C134.489 598.64 134.809 598.699 135.076 598.816C135.342 598.933 135.513 599.115 135.588 599.36C135.716 599.829 135.838 600.288 135.956 600.736C136.073 601.173 136.18 601.584 136.276 601.968C136.372 602.341 136.457 602.677 136.532 602.976C136.606 603.264 136.66 603.493 136.692 603.664H136.772C136.889 602.843 137.001 601.989 137.108 601.104C137.225 600.219 137.332 599.317 137.428 598.4C137.62 598.283 137.822 598.197 138.036 598.144C138.249 598.091 138.462 598.064 138.676 598.064C139.049 598.064 139.358 598.144 139.604 598.304C139.849 598.464 139.972 598.741 139.972 599.136C139.972 599.307 139.945 599.563 139.892 599.904C139.838 600.245 139.769 600.629 139.684 601.056C139.598 601.483 139.497 601.931 139.38 602.4C139.273 602.869 139.161 603.323 139.044 603.76C138.937 604.197 138.83 604.592 138.724 604.944C138.628 605.296 138.542 605.568 138.468 605.76C138.318 605.888 138.089 605.989 137.78 606.064C137.47 606.149 137.14 606.192 136.788 606.192C135.892 606.192 135.364 605.968 135.204 605.52C135.14 605.328 135.06 605.088 134.964 604.8C134.868 604.501 134.766 604.176 134.66 603.824C134.553 603.472 134.452 603.109 134.356 602.736C134.26 602.352 134.18 601.984 134.116 601.632C134.041 602.005 133.95 602.395 133.844 602.8C133.737 603.195 133.625 603.584 133.508 603.968C133.401 604.341 133.3 604.688 133.204 605.008C133.108 605.317 133.033 605.568 132.98 605.76ZM149.052 602.112C149.052 602.773 148.951 603.365 148.748 603.888C148.545 604.4 148.257 604.832 147.884 605.184C147.521 605.536 147.084 605.803 146.572 605.984C146.06 606.165 145.489 606.256 144.86 606.256C144.231 606.256 143.66 606.16 143.148 605.968C142.636 605.776 142.193 605.504 141.82 605.152C141.457 604.789 141.175 604.352 140.972 603.84C140.769 603.328 140.668 602.752 140.668 602.112C140.668 601.483 140.769 600.912 140.972 600.4C141.175 599.888 141.457 599.456 141.82 599.104C142.193 598.741 142.636 598.464 143.148 598.272C143.66 598.08 144.231 597.984 144.86 597.984C145.489 597.984 146.06 598.085 146.572 598.288C147.084 598.48 147.521 598.757 147.884 599.12C148.257 599.472 148.545 599.904 148.748 600.416C148.951 600.928 149.052 601.493 149.052 602.112ZM143.452 602.112C143.452 602.763 143.575 603.264 143.82 603.616C144.076 603.957 144.428 604.128 144.876 604.128C145.324 604.128 145.665 603.952 145.9 603.6C146.145 603.248 146.268 602.752 146.268 602.112C146.268 601.472 146.145 600.981 145.9 600.64C145.655 600.288 145.308 600.112 144.86 600.112C144.412 600.112 144.065 600.288 143.82 600.64C143.575 600.981 143.452 601.472 143.452 602.112ZM152.899 605.984C152.792 606.016 152.622 606.048 152.387 606.08C152.163 606.112 151.928 606.128 151.683 606.128C151.448 606.128 151.235 606.112 151.043 606.08C150.862 606.048 150.707 605.984 150.579 605.888C150.451 605.792 150.35 605.664 150.275 605.504C150.211 605.333 150.179 605.115 150.179 604.848V600.048C150.179 599.803 150.222 599.595 150.307 599.424C150.403 599.243 150.536 599.083 150.707 598.944C150.878 598.805 151.086 598.683 151.331 598.576C151.587 598.459 151.859 598.357 152.147 598.272C152.435 598.187 152.734 598.123 153.043 598.08C153.352 598.027 153.662 598 153.971 598C154.483 598 154.888 598.101 155.187 598.304C155.486 598.496 155.635 598.816 155.635 599.264C155.635 599.413 155.614 599.563 155.571 599.712C155.528 599.851 155.475 599.979 155.411 600.096C155.187 600.096 154.958 600.107 154.723 600.128C154.488 600.149 154.259 600.181 154.035 600.224C153.811 600.267 153.598 600.315 153.395 600.368C153.203 600.411 153.038 600.464 152.899 600.528V605.984ZM155.924 602.112C155.924 601.408 156.031 600.8 156.244 600.288C156.457 599.765 156.751 599.333 157.124 598.992C157.508 598.651 157.951 598.4 158.452 598.24C158.964 598.069 159.513 597.984 160.1 597.984C160.313 597.984 160.521 598.005 160.724 598.048C160.927 598.08 161.092 598.123 161.22 598.176V595.584C161.327 595.552 161.497 595.52 161.732 595.488C161.967 595.445 162.207 595.424 162.452 595.424C162.687 595.424 162.895 595.44 163.076 595.472C163.268 595.504 163.428 595.568 163.556 595.664C163.684 595.76 163.78 595.893 163.844 596.064C163.908 596.224 163.94 596.437 163.94 596.704V604.288C163.94 604.789 163.705 605.189 163.236 605.488C162.927 605.691 162.527 605.867 162.036 606.016C161.545 606.176 160.98 606.256 160.34 606.256C159.647 606.256 159.023 606.16 158.468 605.968C157.924 605.776 157.46 605.499 157.076 605.136C156.703 604.773 156.415 604.341 156.212 603.84C156.02 603.328 155.924 602.752 155.924 602.112ZM160.468 600.112C159.892 600.112 159.449 600.277 159.14 600.608C158.831 600.939 158.676 601.44 158.676 602.112C158.676 602.773 158.82 603.275 159.108 603.616C159.396 603.947 159.812 604.112 160.356 604.112C160.548 604.112 160.719 604.085 160.868 604.032C161.028 603.968 161.151 603.899 161.236 603.824V600.304C161.023 600.176 160.767 600.112 160.468 600.112Z" fill="#BDBDBD"/>
<path fill-rule="evenodd" clip-rule="evenodd" d="M352.162 599.053C352.162 600.799 350.746 602.214 349 602.214C347.254 602.214 345.839 600.799 345.839 599.053C345.839 597.306 347.254 595.891 349 595.891C350.746 595.891 352.162 597.306 352.162 599.053Z" stroke="#242424" stroke-width="1.5" stroke-linecap="round" stroke-linejoin="round"/>
<path fill-rule="evenodd" clip-rule="evenodd" d="M348.998 606.355C352.806 606.355 356.289 603.617 358.25 599.053C356.289 594.489 352.806 591.751 348.998 591.751H349.002C345.194 591.751 341.711 594.489 339.75 599.053C341.711 603.617 345.194 606.355 349.002 606.355H348.998Z" stroke="#242424" stroke-width="1.5" stroke-linecap="round" stroke-linejoin="round"/>
<path d="M82 596H84C84.2652 596 84.5196 596.09 84.7071 596.251C84.8946 596.412 85 596.63 85 596.857V607.143C85 607.37 84.8946 607.588 84.7071 607.749C84.5196 607.91 84.2652 608 84 608H68C67.7348 608 67.4804 607.91 67.2929 607.749C67.1054 607.588 67 607.37 67 607.143V596.857C67 596.63 67.1054 596.412 67.2929 596.251C67.4804 596.09 67.7348 596 68 596H70V595.143C70 593.779 70.6321 592.471 71.7574 591.506C72.8826 590.542 74.4087 590 76 590C77.5913 590 79.1174 590.542 80.2426 591.506C81.3679 592.471 82 593.779 82 595.143V596ZM80 596V595.143C80 594.234 79.5786 593.361 78.8284 592.718C78.0783 592.076 77.0609 591.714 76 591.714C74.9391 591.714 73.9217 592.076 73.1716 592.718C72.4214 593.361 72 594.234 72 595.143V596H80ZM75 601.143V602.857H77V601.143H75ZM71 601.143V602.857H73V601.143H71ZM79 601.143V602.857H81V601.143H79Z" fill="#BDBDBD"/>
<path d="M83.7143 521H68.2857C67.9447 521 67.6177 521.158 67.3766 521.439C67.1355 521.721 67 522.102 67 522.5V534.5C67 534.898 67.1355 535.279 67.3766 535.561C67.6177 535.842 67.9447 536 68.2857 536H83.7143C84.0553 536 84.3823 535.842 84.6234 535.561C84.8645 535.279 85 534.898 85 534.5V522.5C85 522.102 84.8645 521.721 84.6234 521.439C84.3823 521.158 84.0553 521 83.7143 521ZM82.3 522.5L76 527.585L69.7 522.5H82.3ZM68.2857 534.5V523.182L75.6336 529.115C75.7412 529.202 75.869 529.249 76 529.249C76.131 529.249 76.2588 529.202 76.3664 529.115L83.7143 523.182V534.5H68.2857Z" fill="#BDBDBD"/>
</g>
<defs>
<clipPath id="clip0_5_92">
<rect width="414" height="896" fill="white"/>
</clipPath>
</defs>
</svg>
