<svg width="414" height="896" viewBox="0 0 414 896" fill="none" xmlns="http://www.w3.org/2000/svg">
<g clip-path="url(#clip0_9_419)">
<rect width="414" height="896" fill="#5A7FCC"/>
<rect width="415" height="44" transform="translate(-1)" fill="white"/>
<path d="M35.942 28.23C36.582 28.23 37.092 28.065 37.472 27.735C37.862 27.405 38.057 26.95 38.057 26.37C37.947 26.46 37.742 26.565 37.442 26.685C37.152 26.805 36.777 26.865 36.317 26.865C35.857 26.865 35.437 26.8 35.057 26.67C34.687 26.54 34.367 26.35 34.097 26.1C33.827 25.84 33.617 25.525 33.467 25.155C33.317 24.785 33.242 24.355 33.242 23.865C33.242 23.435 33.317 23.03 33.467 22.65C33.617 22.26 33.842 21.92 34.142 21.63C34.442 21.33 34.812 21.095 35.252 20.925C35.702 20.745 36.222 20.655 36.812 20.655C37.992 20.655 38.917 21.05 39.587 21.84C40.267 22.63 40.607 23.755 40.607 25.215C40.607 26.045 40.502 26.775 40.292 27.405C40.082 28.035 39.787 28.56 39.407 28.98C39.037 29.4 38.592 29.715 38.072 29.925C37.552 30.135 36.977 30.24 36.347 30.24C35.547 30.24 34.922 30.13 34.472 29.91C34.022 29.69 33.797 29.355 33.797 28.905C33.797 28.695 33.842 28.495 33.932 28.305C34.032 28.105 34.147 27.955 34.277 27.855C34.547 27.975 34.827 28.07 35.117 28.14C35.417 28.2 35.692 28.23 35.942 28.23ZM36.902 24.945C37.092 24.945 37.282 24.905 37.472 24.825C37.672 24.745 37.837 24.635 37.967 24.495V24.315C37.957 23.745 37.857 23.33 37.667 23.07C37.477 22.81 37.197 22.68 36.827 22.68C36.497 22.68 36.237 22.785 36.047 22.995C35.867 23.195 35.777 23.47 35.777 23.82C35.777 24.16 35.882 24.435 36.092 24.645C36.302 24.845 36.572 24.945 36.902 24.945ZM41.4413 24.075C41.4413 23.655 41.5713 23.305 41.8313 23.025C42.0913 22.745 42.4463 22.605 42.8963 22.605C43.3463 22.605 43.7013 22.745 43.9613 23.025C44.2213 23.305 44.3513 23.655 44.3513 24.075C44.3513 24.495 44.2213 24.845 43.9613 25.125C43.7013 25.405 43.3463 25.545 42.8963 25.545C42.4463 25.545 42.0913 25.405 41.8313 25.125C41.5713 24.845 41.4413 24.495 41.4413 24.075ZM41.4413 28.785C41.4413 28.365 41.5713 28.015 41.8313 27.735C42.0913 27.455 42.4463 27.315 42.8963 27.315C43.3463 27.315 43.7013 27.455 43.9613 27.735C44.2213 28.015 44.3513 28.365 44.3513 28.785C44.3513 29.205 44.2213 29.555 43.9613 29.835C43.7013 30.115 43.3463 30.255 42.8963 30.255C42.4463 30.255 42.0913 30.115 41.8313 29.835C41.5713 29.555 41.4413 29.205 41.4413 28.785ZM48.9534 20.985C49.1434 20.925 49.3584 20.875 49.5984 20.835C49.8484 20.795 50.0734 20.775 50.2734 20.775C50.5034 20.775 50.7234 20.8 50.9334 20.85C51.1534 20.89 51.3484 20.965 51.5184 21.075C51.6884 21.175 51.8234 21.315 51.9234 21.495C52.0234 21.675 52.0734 21.9 52.0734 22.17V26.16H53.4084C53.4684 26.27 53.5284 26.415 53.5884 26.595C53.6484 26.775 53.6784 26.965 53.6784 27.165C53.6784 27.545 53.5934 27.815 53.4234 27.975C53.2534 28.135 53.0384 28.215 52.7784 28.215H52.0734V29.985C51.9634 30.005 51.7984 30.03 51.5784 30.06C51.3584 30.1 51.1484 30.12 50.9484 30.12C50.7284 30.12 50.5334 30.11 50.3634 30.09C50.1934 30.07 50.0484 30.025 49.9284 29.955C49.8184 29.875 49.7334 29.765 49.6734 29.625C49.6134 29.485 49.5834 29.295 49.5834 29.055V28.215H45.8184C45.5884 28.095 45.3884 27.92 45.2184 27.69C45.0584 27.45 44.9784 27.16 44.9784 26.82C44.9784 26.63 45.0034 26.42 45.0534 26.19C45.1034 25.96 45.1884 25.76 45.3084 25.59L48.9534 20.985ZM49.7184 23.34H49.6734L47.6784 26.16H49.7184V23.34ZM55.6271 23.31L54.1271 23.775C53.9771 23.675 53.8271 23.535 53.6771 23.355C53.5271 23.175 53.4521 22.925 53.4521 22.605C53.4521 22.005 53.8171 21.585 54.5471 21.345L56.2271 20.775H56.7821C57.2121 20.775 57.5521 20.9 57.8021 21.15C58.0521 21.4 58.1771 21.74 58.1771 22.17V29.985C58.0671 30.005 57.9021 30.03 57.6821 30.06C57.4721 30.1 57.2571 30.12 57.0371 30.12C56.8171 30.12 56.6171 30.105 56.4371 30.075C56.2671 30.045 56.1221 29.985 56.0021 29.895C55.8821 29.805 55.7871 29.685 55.7171 29.535C55.6571 29.375 55.6271 29.17 55.6271 28.92V23.31Z" fill="#212121"/>
<path fill-rule="evenodd" clip-rule="evenodd" d="M378.589 17.16H393.411C394.659 17.16 395.111 17.29 395.568 17.534C396.024 17.778 396.382 18.1361 396.626 18.5924C396.87 19.0487 397 19.5013 397 20.7494V25.0706C397 26.3187 396.87 26.7713 396.626 27.2276C396.382 27.6839 396.024 28.042 395.568 28.286C395.111 28.53 394.659 28.66 393.411 28.66H378.589C377.341 28.66 376.889 28.53 376.432 28.286C375.976 28.042 375.618 27.6839 375.374 27.2276C375.13 26.7713 375 26.3187 375 25.0706V20.7494C375 19.5013 375.13 19.0487 375.374 18.5924C375.618 18.1361 375.976 17.778 376.432 17.534C376.889 17.29 377.341 17.16 378.589 17.16ZM378.589 18.16C377.602 18.16 377.258 18.2265 376.904 18.4158C376.622 18.5666 376.407 18.782 376.256 19.064C376.067 19.4179 376 19.7625 376 20.7494V25.0706C376 26.0575 376.067 26.4021 376.256 26.756C376.407 27.038 376.622 27.2534 376.904 27.4042C377.258 27.5935 377.602 27.66 378.589 27.66H393.411C394.398 27.66 394.742 27.5935 395.096 27.4042C395.378 27.2534 395.593 27.038 395.744 26.756C395.933 26.4021 396 26.0575 396 25.0706V20.7494C396 19.7625 395.933 19.4179 395.744 19.064C395.593 18.782 395.378 18.5666 395.096 18.4158C394.742 18.2265 394.398 18.16 393.411 18.16H378.589ZM399.5 22.85C399.5 24.0866 398 24.85 398 24.85V20.85C398 20.85 399.5 21.6134 399.5 22.85Z" fill="#212121"/>
<rect x="377" y="19.0767" width="18" height="7.66667" rx="1.6" fill="#212121"/>
<path fill-rule="evenodd" clip-rule="evenodd" d="M346.623 18.5659C346.6 18.6818 346.6 18.8212 346.6 19.1V26.8C346.6 27.0788 346.6 27.2182 346.623 27.3341C346.718 27.8101 347.09 28.1823 347.566 28.2769C347.682 28.3 347.821 28.3 348.1 28.3C348.379 28.3 348.518 28.3 348.634 28.2769C349.11 28.1823 349.482 27.8101 349.577 27.3341C349.6 27.2182 349.6 27.0788 349.6 26.8V19.1C349.6 18.8212 349.6 18.6818 349.577 18.5659C349.482 18.0899 349.11 17.7178 348.634 17.6231C348.518 17.6 348.379 17.6 348.1 17.6C347.821 17.6 347.682 17.6 347.566 17.6231C347.09 17.7178 346.718 18.0899 346.623 18.5659ZM341.9 21.5C341.9 21.2212 341.9 21.0818 341.923 20.9659C342.018 20.4899 342.39 20.1178 342.866 20.0231C342.982 20 343.121 20 343.4 20C343.679 20 343.818 20 343.934 20.0231C344.41 20.1178 344.782 20.4899 344.877 20.9659C344.9 21.0818 344.9 21.2212 344.9 21.5V26.8C344.9 27.0788 344.9 27.2182 344.877 27.3341C344.782 27.8101 344.41 28.1823 343.934 28.277C343.818 28.3 343.679 28.3 343.4 28.3C343.121 28.3 342.982 28.3 342.866 28.277C342.39 28.1823 342.018 27.8101 341.923 27.3341C341.9 27.2182 341.9 27.0788 341.9 26.8V21.5ZM337.323 23.2659C337.3 23.3818 337.3 23.5212 337.3 23.8V26.8C337.3 27.0788 337.3 27.2182 337.323 27.3341C337.418 27.8101 337.79 28.1823 338.266 28.277C338.382 28.3 338.521 28.3 338.8 28.3C339.079 28.3 339.218 28.3 339.334 28.277C339.81 28.1823 340.182 27.8101 340.277 27.3341C340.3 27.2182 340.3 27.0788 340.3 26.8V23.8C340.3 23.5212 340.3 23.3818 340.277 23.2659C340.182 22.7899 339.81 22.4178 339.334 22.3231C339.218 22.3 339.079 22.3 338.8 22.3C338.521 22.3 338.382 22.3 338.266 22.3231C337.79 22.4178 337.418 22.7899 337.323 23.2659ZM332.523 25.2659C332.5 25.3818 332.5 25.5212 332.5 25.8V26.8C332.5 27.0788 332.5 27.2182 332.523 27.3341C332.618 27.8101 332.99 28.1823 333.466 28.277C333.582 28.3 333.721 28.3 334 28.3C334.279 28.3 334.418 28.3 334.534 28.277C335.01 28.1823 335.382 27.8101 335.477 27.3341C335.5 27.2182 335.5 27.0788 335.5 26.8V25.8C335.5 25.5212 335.5 25.3818 335.477 25.2659C335.382 24.7899 335.01 24.4178 334.534 24.3231C334.418 24.3 334.279 24.3 334 24.3C333.721 24.3 333.582 24.3 333.466 24.3231C332.99 24.4178 332.618 24.7899 332.523 25.2659Z" fill="#212121"/>
<path fill-rule="evenodd" clip-rule="evenodd" d="M362.3 19.6964C364.535 19.6965 366.684 20.555 368.303 22.0946C368.425 22.2134 368.62 22.2119 368.74 22.0912L369.906 20.9148C369.967 20.8536 370.001 20.7706 370 20.6843C369.999 20.598 369.965 20.5155 369.903 20.455C365.653 16.3817 358.947 16.3817 354.697 20.455C354.636 20.5154 354.601 20.598 354.6 20.6843C354.599 20.7705 354.633 20.8535 354.694 20.9148L355.86 22.0912C355.98 22.2121 356.175 22.2136 356.297 22.0946C357.917 20.5549 360.066 19.6963 362.3 19.6964ZM362.3 23.5237C363.528 23.5237 364.712 23.98 365.622 24.804C365.745 24.921 365.939 24.9184 366.059 24.7983L367.223 23.6219C367.285 23.5602 367.319 23.4765 367.318 23.3895C367.317 23.3025 367.281 23.2195 367.219 23.1591C364.447 20.5813 360.156 20.5813 357.385 23.1591C357.322 23.2195 357.286 23.3025 357.286 23.3896C357.285 23.4766 357.319 23.5603 357.38 23.6219L358.544 24.7983C358.664 24.9184 358.858 24.921 358.981 24.804C359.891 23.9805 361.074 23.5242 362.3 23.5237ZM364.538 26.3313C364.6 26.2702 364.635 26.1861 364.633 26.0989C364.631 26.0117 364.593 25.929 364.529 25.8705C363.242 24.7826 361.359 24.7826 360.072 25.8705C360.008 25.929 359.97 26.0116 359.968 26.0988C359.966 26.1861 360 26.2702 360.063 26.3313L362.077 28.3639C362.136 28.4236 362.216 28.4572 362.3 28.4572C362.384 28.4572 362.465 28.4236 362.524 28.3639L364.538 26.3313Z" fill="#212121"/>
<path d="M126.703 470.964C127.879 470.964 128.983 471.168 130.015 471.576C131.071 471.96 131.983 472.536 132.751 473.304C133.519 474.072 134.119 475.032 134.551 476.184C135.007 477.336 135.235 478.668 135.235 480.18C135.235 481.692 134.995 483.036 134.515 484.212C134.059 485.364 133.411 486.336 132.571 487.128C131.731 487.92 130.699 488.532 129.475 488.964C128.275 489.372 126.943 489.576 125.479 489.576C123.895 489.576 122.551 489.384 121.447 489C120.343 488.64 119.407 488.184 118.639 487.632C117.583 486.888 117.055 485.928 117.055 484.752V465.528C117.319 465.456 117.691 465.384 118.171 465.312C118.675 465.24 119.215 465.204 119.791 465.204C120.991 465.204 121.855 465.408 122.383 465.816C122.911 466.2 123.175 466.956 123.175 468.084V471.648C123.655 471.456 124.183 471.3 124.759 471.18C125.359 471.036 126.007 470.964 126.703 470.964ZM125.551 475.752C125.071 475.752 124.627 475.812 124.219 475.932C123.835 476.052 123.475 476.208 123.139 476.4V484.212C123.403 484.356 123.715 484.488 124.075 484.608C124.459 484.704 124.903 484.752 125.407 484.752C126.487 484.752 127.351 484.368 127.999 483.6C128.647 482.832 128.971 481.692 128.971 480.18C128.971 478.644 128.659 477.528 128.035 476.832C127.435 476.112 126.607 475.752 125.551 475.752ZM156.161 480.252C156.161 481.692 155.933 482.988 155.477 484.14C155.045 485.292 154.409 486.276 153.569 487.092C152.753 487.884 151.769 488.496 150.617 488.928C149.465 489.36 148.169 489.576 146.729 489.576C145.289 489.576 143.993 489.372 142.841 488.964C141.689 488.532 140.693 487.92 139.853 487.128C139.037 486.312 138.401 485.328 137.945 484.176C137.513 483.024 137.297 481.716 137.297 480.252C137.297 478.836 137.525 477.552 137.981 476.4C138.437 475.248 139.073 474.276 139.889 473.484C140.729 472.668 141.725 472.044 142.877 471.612C144.029 471.18 145.313 470.964 146.729 470.964C148.145 470.964 149.429 471.192 150.581 471.648C151.733 472.08 152.717 472.704 153.533 473.52C154.373 474.312 155.021 475.284 155.477 476.436C155.933 477.588 156.161 478.86 156.161 480.252ZM146.729 475.752C145.721 475.752 144.941 476.148 144.389 476.94C143.837 477.708 143.561 478.812 143.561 480.252C143.561 481.764 143.837 482.904 144.389 483.672C144.941 484.416 145.721 484.788 146.729 484.788C147.737 484.788 148.517 484.404 149.069 483.636C149.621 482.868 149.897 481.74 149.897 480.252C149.897 478.812 149.621 477.708 149.069 476.94C148.517 476.148 147.737 475.752 146.729 475.752ZM177.089 480.252C177.089 481.692 176.861 482.988 176.405 484.14C175.973 485.292 175.337 486.276 174.497 487.092C173.681 487.884 172.697 488.496 171.545 488.928C170.393 489.36 169.097 489.576 167.657 489.576C166.217 489.576 164.921 489.372 163.769 488.964C162.617 488.532 161.621 487.92 160.781 487.128C159.965 486.312 159.329 485.328 158.873 484.176C158.441 483.024 158.225 481.716 158.225 480.252C158.225 478.836 158.453 477.552 158.909 476.4C159.365 475.248 160.001 474.276 160.817 473.484C161.657 472.668 162.653 472.044 163.805 471.612C164.957 471.18 166.241 470.964 167.657 470.964C169.073 470.964 170.357 471.192 171.509 471.648C172.661 472.08 173.645 472.704 174.461 473.52C175.301 474.312 175.949 475.284 176.405 476.436C176.861 477.588 177.089 478.86 177.089 480.252ZM167.657 475.752C166.649 475.752 165.869 476.148 165.317 476.94C164.765 477.708 164.489 478.812 164.489 480.252C164.489 481.764 164.765 482.904 165.317 483.672C165.869 484.416 166.649 484.788 167.657 484.788C168.665 484.788 169.445 484.404 169.997 483.636C170.549 482.868 170.825 481.74 170.825 480.252C170.825 478.812 170.549 477.708 169.997 476.94C169.445 476.148 168.665 475.752 167.657 475.752ZM186.102 488.964C185.838 489.036 185.454 489.108 184.95 489.18C184.47 489.252 183.942 489.288 183.366 489.288C182.166 489.288 181.302 489.096 180.774 488.712C180.246 488.304 179.982 487.536 179.982 486.408V465.528C180.246 465.456 180.618 465.384 181.098 465.312C181.602 465.24 182.142 465.204 182.718 465.204C183.918 465.204 184.782 465.408 185.31 465.816C185.838 466.2 186.102 466.956 186.102 468.084V477.588L192.294 471.252C193.542 471.252 194.538 471.528 195.282 472.08C196.05 472.632 196.434 473.328 196.434 474.168C196.434 474.528 196.374 474.864 196.254 475.176C196.134 475.464 195.942 475.764 195.678 476.076C195.438 476.388 195.114 476.724 194.706 477.084C194.322 477.42 193.866 477.816 193.338 478.272L191.214 480.108L197.01 485.832C196.89 486.96 196.554 487.824 196.002 488.424C195.474 489.024 194.694 489.324 193.662 489.324C192.894 489.324 192.21 489.144 191.61 488.784C191.01 488.4 190.362 487.764 189.666 486.876L186.102 482.448V488.964ZM226.426 488.964C226.162 489.036 225.778 489.108 225.274 489.18C224.794 489.252 224.266 489.288 223.69 489.288C222.49 489.288 221.626 489.096 221.098 488.712C220.57 488.304 220.306 487.536 220.306 486.408V477.804C220.306 477.084 220.114 476.568 219.73 476.256C219.346 475.92 218.842 475.752 218.218 475.752C217.81 475.752 217.414 475.824 217.03 475.968C216.67 476.112 216.358 476.28 216.094 476.472C216.094 476.568 216.094 476.664 216.094 476.76C216.118 476.832 216.13 476.904 216.13 476.976V488.964C215.866 489.036 215.482 489.108 214.978 489.18C214.498 489.252 213.97 489.288 213.394 489.288C212.194 489.288 211.33 489.096 210.802 488.712C210.274 488.304 210.01 487.536 210.01 486.408V477.804C210.01 477.084 209.794 476.568 209.362 476.256C208.954 475.92 208.45 475.752 207.85 475.752C207.394 475.752 206.998 475.824 206.662 475.968C206.326 476.088 206.05 476.208 205.834 476.328V488.964C205.57 489.036 205.186 489.108 204.682 489.18C204.202 489.252 203.674 489.288 203.098 489.288C201.898 489.288 201.034 489.096 200.506 488.712C199.978 488.304 199.714 487.536 199.714 486.408V475.572C199.714 474.924 199.846 474.396 200.11 473.988C200.398 473.58 200.782 473.208 201.262 472.872C202.078 472.296 203.086 471.84 204.286 471.504C205.486 471.144 206.758 470.964 208.102 470.964C209.086 470.964 210.022 471.096 210.91 471.36C211.822 471.624 212.674 472.032 213.466 472.584C214.186 472.128 214.99 471.744 215.878 471.432C216.79 471.12 217.882 470.964 219.154 470.964C220.066 470.964 220.954 471.084 221.818 471.324C222.706 471.564 223.486 471.948 224.158 472.476C224.854 472.98 225.406 473.664 225.814 474.528C226.222 475.368 226.426 476.4 226.426 477.624V488.964ZM237.517 485.112C237.925 485.112 238.369 485.076 238.849 485.004C239.353 484.908 239.725 484.788 239.965 484.644V481.764L237.373 481.98C236.701 482.028 236.149 482.172 235.717 482.412C235.285 482.652 235.069 483.012 235.069 483.492C235.069 483.972 235.249 484.368 235.609 484.68C235.993 484.968 236.629 485.112 237.517 485.112ZM237.229 470.964C238.525 470.964 239.701 471.096 240.757 471.36C241.837 471.624 242.749 472.032 243.493 472.584C244.261 473.112 244.849 473.796 245.257 474.636C245.665 475.452 245.869 476.424 245.869 477.552V485.616C245.869 486.24 245.689 486.756 245.329 487.164C244.993 487.548 244.585 487.884 244.105 488.172C242.545 489.108 240.349 489.576 237.517 489.576C236.245 489.576 235.093 489.456 234.061 489.216C233.053 488.976 232.177 488.616 231.433 488.136C230.713 487.656 230.149 487.044 229.741 486.3C229.357 485.556 229.165 484.692 229.165 483.708C229.165 482.052 229.657 480.78 230.641 479.892C231.625 479.004 233.149 478.452 235.213 478.236L239.929 477.732V477.48C239.929 476.784 239.617 476.292 238.993 476.004C238.393 475.692 237.517 475.536 236.365 475.536C235.477 475.536 234.589 475.632 233.701 475.824C232.837 476.016 232.057 476.256 231.361 476.544C231.049 476.328 230.785 476.004 230.569 475.572C230.353 475.116 230.245 474.648 230.245 474.168C230.245 473.544 230.389 473.052 230.677 472.692C230.989 472.308 231.457 471.984 232.081 471.72C232.777 471.456 233.593 471.264 234.529 471.144C235.489 471.024 236.389 470.964 237.229 470.964ZM256.106 489.54C253.994 489.54 252.362 489.06 251.21 488.1C250.082 487.14 249.518 485.58 249.518 483.42V467.436C249.782 467.364 250.154 467.292 250.634 467.22C251.138 467.124 251.666 467.076 252.218 467.076C253.394 467.076 254.246 467.28 254.774 467.688C255.302 468.096 255.566 468.852 255.566 469.956V471.9H260.282C260.426 472.164 260.558 472.5 260.678 472.908C260.822 473.292 260.894 473.724 260.894 474.204C260.894 475.044 260.702 475.656 260.318 476.04C259.958 476.4 259.466 476.58 258.842 476.58H255.566V482.988C255.566 483.612 255.758 484.056 256.142 484.32C256.55 484.584 257.114 484.716 257.834 484.716C258.194 484.716 258.566 484.692 258.95 484.644C259.334 484.572 259.67 484.488 259.958 484.392C260.174 484.656 260.354 484.956 260.498 485.292C260.666 485.604 260.75 485.988 260.75 486.444C260.75 487.356 260.402 488.1 259.706 488.676C259.034 489.252 257.834 489.54 256.106 489.54ZM268.705 482.664C269.041 483.528 269.605 484.14 270.397 484.5C271.189 484.836 272.077 485.004 273.061 485.004C274.069 485.004 275.029 484.884 275.941 484.644C276.853 484.38 277.585 484.08 278.137 483.744C278.521 483.984 278.845 484.32 279.109 484.752C279.373 485.184 279.505 485.64 279.505 486.12C279.505 486.72 279.337 487.236 279.001 487.668C278.665 488.1 278.185 488.46 277.561 488.748C276.961 489.036 276.241 489.24 275.401 489.36C274.561 489.504 273.637 489.576 272.629 489.576C271.213 489.576 269.893 489.384 268.669 489C267.469 488.592 266.425 487.992 265.537 487.2C264.649 486.408 263.953 485.412 263.449 484.212C262.945 483.012 262.693 481.608 262.693 480C262.693 478.416 262.945 477.06 263.449 475.932C263.977 474.78 264.661 473.844 265.501 473.124C266.365 472.38 267.337 471.84 268.417 471.504C269.497 471.144 270.601 470.964 271.729 470.964C273.001 470.964 274.153 471.156 275.185 471.54C276.241 471.924 277.141 472.452 277.885 473.124C278.653 473.796 279.241 474.6 279.649 475.536C280.057 476.472 280.261 477.492 280.261 478.596C280.261 479.412 280.033 480.036 279.577 480.468C279.121 480.9 278.485 481.176 277.669 481.296L268.705 482.664ZM271.765 475.428C270.853 475.428 270.085 475.704 269.461 476.256C268.861 476.808 268.501 477.588 268.381 478.596L274.501 477.588C274.477 477.348 274.405 477.108 274.285 476.868C274.165 476.604 273.997 476.364 273.781 476.148C273.565 475.932 273.289 475.764 272.953 475.644C272.617 475.5 272.221 475.428 271.765 475.428ZM297.802 483.78C297.802 485.604 297.118 487.032 295.75 488.064C294.382 489.096 292.366 489.612 289.702 489.612C288.694 489.612 287.758 489.54 286.894 489.396C286.03 489.252 285.286 489.036 284.662 488.748C284.062 488.436 283.582 488.052 283.222 487.596C282.886 487.14 282.718 486.6 282.718 485.976C282.718 485.4 282.838 484.92 283.078 484.536C283.318 484.128 283.606 483.792 283.942 483.528C284.638 483.912 285.43 484.26 286.318 484.572C287.23 484.86 288.274 485.004 289.45 485.004C290.194 485.004 290.758 484.896 291.142 484.68C291.55 484.464 291.754 484.176 291.754 483.816C291.754 483.48 291.61 483.216 291.322 483.024C291.034 482.832 290.554 482.676 289.882 482.556L288.802 482.34C286.714 481.932 285.154 481.296 284.122 480.432C283.114 479.544 282.61 478.284 282.61 476.652C282.61 475.764 282.802 474.96 283.186 474.24C283.57 473.52 284.11 472.92 284.806 472.44C285.502 471.96 286.33 471.588 287.29 471.324C288.274 471.06 289.354 470.928 290.53 470.928C291.418 470.928 292.246 471 293.014 471.144C293.806 471.264 294.49 471.456 295.066 471.72C295.642 471.984 296.098 472.332 296.434 472.764C296.77 473.172 296.938 473.664 296.938 474.24C296.938 474.792 296.83 475.272 296.614 475.68C296.422 476.064 296.17 476.388 295.858 476.652C295.666 476.532 295.378 476.412 294.994 476.292C294.61 476.148 294.19 476.028 293.734 475.932C293.278 475.812 292.81 475.716 292.33 475.644C291.874 475.572 291.454 475.536 291.07 475.536C290.278 475.536 289.666 475.632 289.234 475.824C288.802 475.992 288.586 476.268 288.586 476.652C288.586 476.916 288.706 477.132 288.946 477.3C289.186 477.468 289.642 477.624 290.314 477.768L291.43 478.02C293.734 478.548 295.366 479.28 296.326 480.216C297.31 481.128 297.802 482.316 297.802 483.78Z" fill="white"/>
<path d="M206 407C206 407 201.95 402 192.5 402C183.05 402 179 407 179 407V442C179 442 183.05 439.5 192.5 439.5C201.95 439.5 206 442 206 442M206 407V442M206 407C206 407 210.05 402 219.5 402C228.95 402 233 407 233 407V442C233 442 228.95 439.5 219.5 439.5C210.05 439.5 206 442 206 442" stroke="white" stroke-width="2" stroke-linecap="round" stroke-linejoin="round"/>
</g>
<defs>
<clipPath id="clip0_9_419">
<rect width="414" height="896" fill="white"/>
</clipPath>
</defs>
</svg>
