<svg width="1363" height="301" viewBox="0 0 1363 301" fill="none" xmlns="http://www.w3.org/2000/svg">
<rect width="1363" height="301" rx="15" fill="#F0F0F0"/>
<path d="M0 15C0 6.71573 6.71573 0 15 0H37V301H15C6.71573 301 0 294.284 0 286V15Z" fill="#6886C5"/>
<path d="M110.933 127.376H100.862L100.809 121.2H108.973C110.441 121.2 111.613 121.039 112.491 120.716C113.368 120.376 114.004 119.884 114.397 119.239C114.809 118.595 115.015 117.789 115.015 116.822C115.015 115.712 114.809 114.817 114.397 114.137C113.986 113.456 113.332 112.964 112.437 112.66C111.56 112.337 110.423 112.176 109.026 112.176H104.407V144H94.981V104.898H109.026C111.443 104.898 113.601 105.122 115.499 105.57C117.396 106 119.008 106.662 120.333 107.557C121.675 108.452 122.696 109.58 123.394 110.941C124.092 112.284 124.441 113.868 124.441 115.694C124.441 117.288 124.101 118.783 123.421 120.179C122.741 121.576 121.604 122.713 120.01 123.59C118.435 124.449 116.277 124.897 113.538 124.933L110.933 127.376ZM110.557 144H98.5796L101.802 136.749H110.557C111.846 136.749 112.876 136.552 113.646 136.158C114.433 135.746 114.997 135.209 115.337 134.547C115.695 133.867 115.875 133.115 115.875 132.291C115.875 131.288 115.704 130.42 115.364 129.686C115.042 128.952 114.523 128.388 113.807 127.994C113.09 127.582 112.133 127.376 110.933 127.376H103.011L103.064 121.2H112.544L114.747 123.67C117.361 123.563 119.428 123.93 120.95 124.771C122.49 125.613 123.591 126.723 124.253 128.102C124.916 129.48 125.247 130.921 125.247 132.425C125.247 134.986 124.692 137.125 123.582 138.844C122.49 140.562 120.852 141.852 118.667 142.711C116.483 143.57 113.78 144 110.557 144ZM128.926 129.767V129.203C128.926 127.072 129.231 125.112 129.839 123.321C130.448 121.513 131.343 119.946 132.525 118.622C133.707 117.297 135.166 116.267 136.902 115.533C138.639 114.781 140.644 114.405 142.918 114.405C145.21 114.405 147.224 114.781 148.96 115.533C150.715 116.267 152.183 117.297 153.365 118.622C154.546 119.946 155.442 121.513 156.05 123.321C156.659 125.112 156.963 127.072 156.963 129.203V129.767C156.963 131.879 156.659 133.84 156.05 135.648C155.442 137.438 154.546 139.005 153.365 140.348C152.183 141.673 150.724 142.702 148.987 143.436C147.251 144.17 145.245 144.537 142.972 144.537C140.698 144.537 138.684 144.17 136.929 143.436C135.175 142.702 133.707 141.673 132.525 140.348C131.343 139.005 130.448 137.438 129.839 135.648C129.231 133.84 128.926 131.879 128.926 129.767ZM137.977 129.203V129.767C137.977 130.859 138.057 131.879 138.218 132.828C138.379 133.777 138.648 134.61 139.024 135.326C139.4 136.024 139.91 136.57 140.555 136.964C141.199 137.358 142.005 137.555 142.972 137.555C143.921 137.555 144.708 137.358 145.335 136.964C145.979 136.57 146.49 136.024 146.866 135.326C147.242 134.61 147.51 133.777 147.671 132.828C147.833 131.879 147.913 130.859 147.913 129.767V129.203C147.913 128.146 147.833 127.153 147.671 126.222C147.51 125.273 147.242 124.44 146.866 123.724C146.49 122.99 145.979 122.417 145.335 122.005C144.69 121.594 143.885 121.388 142.918 121.388C141.969 121.388 141.172 121.594 140.528 122.005C139.901 122.417 139.4 122.99 139.024 123.724C138.648 124.44 138.379 125.273 138.218 126.222C138.057 127.153 137.977 128.146 137.977 129.203ZM159.864 129.767V129.203C159.864 127.072 160.168 125.112 160.777 123.321C161.386 121.513 162.281 119.946 163.462 118.622C164.644 117.297 166.103 116.267 167.84 115.533C169.576 114.781 171.582 114.405 173.855 114.405C176.147 114.405 178.161 114.781 179.898 115.533C181.653 116.267 183.121 117.297 184.302 118.622C185.484 119.946 186.379 121.513 186.988 123.321C187.597 125.112 187.901 127.072 187.901 129.203V129.767C187.901 131.879 187.597 133.84 186.988 135.648C186.379 137.438 185.484 139.005 184.302 140.348C183.121 141.673 181.661 142.702 179.925 143.436C178.188 144.17 176.183 144.537 173.909 144.537C171.635 144.537 169.621 144.17 167.867 143.436C166.112 142.702 164.644 141.673 163.462 140.348C162.281 139.005 161.386 137.438 160.777 135.648C160.168 133.84 159.864 131.879 159.864 129.767ZM168.914 129.203V129.767C168.914 130.859 168.995 131.879 169.156 132.828C169.317 133.777 169.585 134.61 169.961 135.326C170.337 136.024 170.848 136.57 171.492 136.964C172.137 137.358 172.942 137.555 173.909 137.555C174.858 137.555 175.646 137.358 176.272 136.964C176.917 136.57 177.427 136.024 177.803 135.326C178.179 134.61 178.448 133.777 178.609 132.828C178.77 131.879 178.851 130.859 178.851 129.767V129.203C178.851 128.146 178.77 127.153 178.609 126.222C178.448 125.273 178.179 124.44 177.803 123.724C177.427 122.99 176.917 122.417 176.272 122.005C175.628 121.594 174.822 121.388 173.855 121.388C172.907 121.388 172.11 121.594 171.465 122.005C170.839 122.417 170.337 122.99 169.961 123.724C169.585 124.44 169.317 125.273 169.156 126.222C168.995 127.153 168.914 128.146 168.914 129.203ZM201.06 102.723V144H192.01V102.723H201.06ZM219.644 114.942L207.022 129.74L200.416 136.346L196.468 130.599L201.973 123.429L208.794 114.942H219.644ZM209.949 144L202.188 130.76L208.875 126.007L220.315 144H209.949ZM231.138 121.092V144H222.088V114.942H230.574L231.138 121.092ZM230.037 128.478L227.969 128.531C227.969 126.49 228.211 124.61 228.694 122.892C229.178 121.173 229.894 119.678 230.843 118.407C231.792 117.136 232.955 116.151 234.334 115.453C235.73 114.754 237.342 114.405 239.168 114.405C240.439 114.405 241.594 114.602 242.632 114.996C243.671 115.372 244.566 115.972 245.318 116.795C246.07 117.601 246.643 118.657 247.037 119.964C247.448 121.253 247.654 122.802 247.654 124.61V144H238.604V125.765C238.604 124.53 238.461 123.599 238.174 122.972C237.906 122.346 237.512 121.925 236.993 121.71C236.473 121.495 235.838 121.388 235.086 121.388C234.298 121.388 233.591 121.567 232.964 121.925C232.338 122.283 231.801 122.784 231.353 123.429C230.923 124.055 230.592 124.798 230.359 125.658C230.145 126.517 230.037 127.457 230.037 128.478ZM246.634 128.478L244.109 128.531C244.109 126.49 244.333 124.61 244.781 122.892C245.246 121.173 245.936 119.678 246.849 118.407C247.78 117.136 248.934 116.151 250.313 115.453C251.692 114.754 253.294 114.405 255.12 114.405C256.445 114.405 257.662 114.602 258.772 114.996C259.882 115.39 260.84 116.026 261.646 116.903C262.452 117.78 263.078 118.944 263.526 120.394C263.973 121.826 264.197 123.599 264.197 125.711V144H255.12V125.711C255.12 124.512 254.977 123.608 254.69 122.999C254.422 122.372 254.028 121.952 253.509 121.737C252.99 121.504 252.372 121.388 251.656 121.388C250.796 121.388 250.053 121.567 249.427 121.925C248.8 122.283 248.272 122.784 247.842 123.429C247.431 124.055 247.126 124.798 246.929 125.658C246.732 126.517 246.634 127.457 246.634 128.478ZM284.473 136.695V124.718C284.473 123.894 284.357 123.187 284.124 122.596C283.891 122.005 283.524 121.549 283.023 121.227C282.522 120.886 281.85 120.716 281.009 120.716C280.328 120.716 279.747 120.833 279.263 121.065C278.78 121.298 278.413 121.647 278.162 122.113C277.911 122.578 277.786 123.169 277.786 123.885H268.736C268.736 122.542 269.031 121.298 269.622 120.152C270.231 118.989 271.09 117.977 272.2 117.118C273.328 116.258 274.671 115.596 276.229 115.13C277.804 114.647 279.559 114.405 281.492 114.405C283.802 114.405 285.861 114.79 287.669 115.56C289.495 116.33 290.936 117.485 291.993 119.024C293.049 120.546 293.577 122.462 293.577 124.771V136.668C293.577 138.566 293.685 140.007 293.899 140.992C294.114 141.959 294.419 142.809 294.812 143.543V144H285.735C285.306 143.105 284.983 142.013 284.769 140.724C284.572 139.417 284.473 138.074 284.473 136.695ZM285.574 126.249L285.628 131.083H281.626C280.785 131.083 280.069 131.199 279.478 131.432C278.905 131.664 278.44 131.987 278.082 132.398C277.741 132.792 277.491 133.24 277.33 133.741C277.186 134.243 277.115 134.771 277.115 135.326C277.115 135.863 277.24 136.346 277.491 136.776C277.759 137.188 278.117 137.51 278.565 137.743C279.013 137.975 279.514 138.092 280.069 138.092C281.071 138.092 281.922 137.904 282.62 137.528C283.336 137.134 283.882 136.66 284.258 136.104C284.634 135.549 284.822 135.03 284.822 134.547L286.81 138.253C286.451 138.969 286.04 139.694 285.574 140.428C285.127 141.162 284.563 141.843 283.882 142.469C283.22 143.078 282.405 143.579 281.438 143.973C280.472 144.349 279.299 144.537 277.92 144.537C276.13 144.537 274.483 144.17 272.979 143.436C271.493 142.702 270.302 141.681 269.407 140.375C268.512 139.05 268.064 137.528 268.064 135.809C268.064 134.305 268.333 132.962 268.87 131.781C269.425 130.599 270.258 129.597 271.368 128.773C272.478 127.949 273.892 127.323 275.611 126.893C277.33 126.463 279.353 126.249 281.68 126.249H285.574ZM313.907 114.942V121.227H296.397V114.942H313.907ZM300.076 107.718H309.126V134.52C309.126 135.29 309.216 135.89 309.395 136.319C309.574 136.731 309.878 137.027 310.308 137.206C310.756 137.367 311.347 137.447 312.081 137.447C312.6 137.447 313.029 137.438 313.37 137.42C313.71 137.385 314.032 137.34 314.336 137.286V143.758C313.567 144.009 312.761 144.197 311.919 144.322C311.078 144.465 310.183 144.537 309.234 144.537C307.3 144.537 305.644 144.233 304.266 143.624C302.905 143.015 301.867 142.057 301.15 140.75C300.434 139.444 300.076 137.743 300.076 135.648V107.718ZM331.578 144.537C329.214 144.537 327.102 144.17 325.24 143.436C323.378 142.684 321.802 141.655 320.513 140.348C319.242 139.041 318.266 137.537 317.586 135.836C316.924 134.135 316.592 132.336 316.592 130.438V129.417C316.592 127.287 316.888 125.318 317.479 123.509C318.069 121.683 318.947 120.09 320.11 118.729C321.274 117.368 322.733 116.312 324.488 115.56C326.242 114.79 328.283 114.405 330.611 114.405C332.67 114.405 334.514 114.736 336.143 115.399C337.772 116.061 339.151 117.01 340.279 118.246C341.425 119.481 342.293 120.976 342.884 122.73C343.493 124.485 343.797 126.454 343.797 128.639V132.318H320.057V126.651H334.961V125.953C334.979 124.986 334.809 124.163 334.451 123.482C334.111 122.802 333.61 122.283 332.947 121.925C332.285 121.567 331.479 121.388 330.53 121.388C329.546 121.388 328.731 121.603 328.086 122.032C327.46 122.462 326.967 123.053 326.609 123.805C326.269 124.539 326.028 125.389 325.884 126.356C325.741 127.323 325.669 128.343 325.669 129.417V130.438C325.669 131.512 325.813 132.488 326.099 133.365C326.403 134.243 326.833 134.994 327.388 135.621C327.961 136.23 328.641 136.704 329.429 137.044C330.235 137.385 331.148 137.555 332.168 137.555C333.404 137.555 334.621 137.322 335.821 136.856C337.02 136.391 338.05 135.621 338.909 134.547L343.018 139.435C342.427 140.276 341.586 141.091 340.494 141.878C339.419 142.666 338.13 143.311 336.626 143.812C335.123 144.295 333.44 144.537 331.578 144.537ZM362.703 135.836C362.703 135.335 362.533 134.905 362.193 134.547C361.871 134.171 361.298 133.831 360.474 133.526C359.651 133.204 358.496 132.882 357.01 132.56C355.595 132.255 354.262 131.852 353.008 131.351C351.773 130.85 350.69 130.241 349.759 129.525C348.828 128.809 348.094 127.958 347.557 126.974C347.037 125.989 346.778 124.861 346.778 123.59C346.778 122.354 347.037 121.191 347.557 120.099C348.094 118.989 348.873 118.013 349.893 117.171C350.931 116.312 352.194 115.641 353.68 115.157C355.166 114.656 356.858 114.405 358.755 114.405C361.369 114.405 363.625 114.808 365.523 115.614C367.421 116.402 368.88 117.512 369.9 118.944C370.939 120.358 371.458 121.996 371.458 123.858H362.408C362.408 123.124 362.282 122.498 362.032 121.979C361.799 121.459 361.414 121.065 360.877 120.797C360.34 120.51 359.624 120.367 358.729 120.367C358.102 120.367 357.529 120.484 357.01 120.716C356.508 120.949 356.106 121.271 355.801 121.683C355.497 122.095 355.345 122.578 355.345 123.133C355.345 123.527 355.434 123.885 355.613 124.208C355.81 124.512 356.106 124.798 356.5 125.067C356.893 125.318 357.395 125.55 358.003 125.765C358.612 125.962 359.346 126.141 360.206 126.302C362.157 126.66 363.983 127.171 365.684 127.833C367.385 128.495 368.764 129.435 369.82 130.653C370.894 131.87 371.431 133.508 371.431 135.567C371.431 136.856 371.136 138.047 370.545 139.139C369.954 140.213 369.104 141.162 367.994 141.986C366.884 142.792 365.55 143.418 363.992 143.866C362.435 144.313 360.68 144.537 358.729 144.537C355.953 144.537 353.608 144.045 351.692 143.06C349.777 142.057 348.326 140.804 347.342 139.3C346.375 137.778 345.892 136.239 345.892 134.681H354.324C354.36 135.576 354.575 136.31 354.969 136.883C355.381 137.456 355.927 137.877 356.607 138.146C357.287 138.414 358.075 138.548 358.97 138.548C359.794 138.548 360.474 138.432 361.011 138.199C361.566 137.966 361.987 137.653 362.273 137.259C362.56 136.847 362.703 136.373 362.703 135.836Z" fill="black"/>
<path d="M110.218 76.001V80H97.6909V76.001H110.218ZM99.3486 55.1172V80H94.2217V55.1172H99.3486ZM122.83 75.8301V67.5928C122.83 67.0003 122.733 66.4933 122.54 66.0718C122.346 65.6388 122.044 65.3027 121.634 65.0635C121.235 64.8242 120.717 64.7046 120.079 64.7046C119.532 64.7046 119.059 64.8014 118.66 64.9951C118.261 65.1774 117.954 65.4451 117.737 65.7983C117.521 66.1401 117.413 66.5446 117.413 67.0117H112.491C112.491 66.2256 112.673 65.4793 113.038 64.7729C113.402 64.0666 113.932 63.4456 114.627 62.9102C115.322 62.3633 116.148 61.936 117.105 61.6284C118.073 61.3208 119.156 61.167 120.352 61.167C121.788 61.167 123.064 61.4062 124.18 61.8848C125.297 62.3633 126.174 63.0811 126.812 64.0381C127.461 64.9951 127.786 66.1914 127.786 67.627V75.5396C127.786 76.5535 127.849 77.3853 127.974 78.0347C128.099 78.6727 128.282 79.231 128.521 79.7095V80H123.548C123.309 79.4987 123.126 78.8721 123.001 78.1201C122.887 77.3568 122.83 76.5934 122.83 75.8301ZM123.479 68.7378L123.514 71.5234H120.762C120.113 71.5234 119.549 71.5975 119.07 71.7456C118.592 71.8937 118.199 72.1045 117.891 72.3779C117.583 72.64 117.356 72.9476 117.208 73.3008C117.071 73.654 117.002 74.0413 117.002 74.4629C117.002 74.8844 117.099 75.2661 117.293 75.6079C117.487 75.9383 117.766 76.2004 118.13 76.394C118.495 76.5763 118.922 76.6675 119.412 76.6675C120.153 76.6675 120.796 76.5194 121.343 76.2231C121.89 75.9269 122.312 75.5623 122.608 75.1294C122.916 74.6965 123.075 74.2863 123.086 73.8989L124.385 75.9839C124.203 76.451 123.952 76.9352 123.633 77.4365C123.326 77.9378 122.933 78.4106 122.454 78.855C121.976 79.2879 121.4 79.6468 120.728 79.9316C120.056 80.2051 119.258 80.3418 118.335 80.3418C117.162 80.3418 116.097 80.1082 115.14 79.6411C114.194 79.1626 113.442 78.5075 112.884 77.6758C112.337 76.8327 112.063 75.8757 112.063 74.8047C112.063 73.8363 112.246 72.9761 112.61 72.2241C112.975 71.4722 113.51 70.8398 114.217 70.3271C114.935 69.8031 115.829 69.41 116.9 69.1479C117.971 68.8745 119.213 68.7378 120.625 68.7378H123.479ZM142.518 75.5737V61.5088H147.439V80H142.808L142.518 75.5737ZM143.064 71.7798L144.517 71.7456C144.517 72.9761 144.375 74.1211 144.09 75.1807C143.805 76.2288 143.378 77.1403 142.808 77.915C142.238 78.6784 141.521 79.2765 140.655 79.7095C139.789 80.131 138.769 80.3418 137.596 80.3418C136.696 80.3418 135.864 80.2165 135.101 79.9658C134.349 79.7038 133.699 79.2993 133.152 78.7524C132.617 78.1942 132.195 77.4821 131.888 76.6162C131.591 75.7389 131.443 74.6851 131.443 73.4546V61.5088H136.365V73.4888C136.365 74.0356 136.428 74.4971 136.553 74.873C136.69 75.249 136.878 75.5566 137.117 75.7959C137.356 76.0352 137.636 76.2061 137.955 76.3086C138.285 76.4111 138.65 76.4624 139.048 76.4624C140.062 76.4624 140.86 76.2573 141.441 75.8472C142.033 75.437 142.449 74.8787 142.688 74.1724C142.939 73.4546 143.064 72.6571 143.064 71.7798ZM156.121 65.542V80H151.199V61.5088H155.831L156.121 65.542ZM161.692 61.3892L161.607 65.9521C161.368 65.918 161.077 65.8895 160.735 65.8667C160.405 65.8325 160.103 65.8154 159.83 65.8154C159.135 65.8154 158.531 65.9066 158.018 66.0889C157.517 66.2598 157.095 66.5161 156.753 66.8579C156.423 67.1997 156.172 67.6156 156.001 68.1055C155.842 68.5954 155.751 69.1536 155.728 69.7803L154.737 69.4727C154.737 68.2764 154.856 67.1769 155.096 66.1743C155.335 65.1603 155.682 64.2773 156.138 63.5254C156.605 62.7734 157.175 62.1924 157.847 61.7822C158.519 61.3721 159.288 61.167 160.154 61.167C160.428 61.167 160.707 61.1898 160.992 61.2354C161.277 61.2695 161.51 61.3208 161.692 61.3892ZM172.186 80.3418C170.75 80.3418 169.463 80.1139 168.323 79.6582C167.184 79.1911 166.215 78.5474 165.418 77.7271C164.632 76.9067 164.028 75.9554 163.606 74.873C163.185 73.7793 162.974 72.6172 162.974 71.3867V70.7031C162.974 69.3018 163.174 68.02 163.572 66.8579C163.971 65.6958 164.541 64.6875 165.281 63.833C166.033 62.9785 166.945 62.3234 168.016 61.8677C169.087 61.4006 170.294 61.167 171.639 61.167C172.949 61.167 174.111 61.3835 175.125 61.8164C176.139 62.2493 176.988 62.8646 177.671 63.6621C178.366 64.4596 178.89 65.4167 179.244 66.5332C179.597 67.6383 179.773 68.8688 179.773 70.2246V72.2754H165.076V68.9941H174.937V68.6182C174.937 67.9346 174.812 67.325 174.561 66.7896C174.322 66.2427 173.957 65.8097 173.467 65.4907C172.977 65.1717 172.351 65.0122 171.587 65.0122C170.938 65.0122 170.38 65.1546 169.913 65.4395C169.445 65.7243 169.064 66.123 168.768 66.6357C168.483 67.1484 168.266 67.7523 168.118 68.4473C167.981 69.1309 167.913 69.8828 167.913 70.7031V71.3867C167.913 72.1273 168.016 72.8109 168.221 73.4375C168.437 74.0641 168.739 74.6053 169.126 75.061C169.525 75.5168 170.004 75.87 170.562 76.1206C171.132 76.3713 171.775 76.4966 172.493 76.4966C173.382 76.4966 174.208 76.3257 174.971 75.9839C175.746 75.6307 176.412 75.1009 176.971 74.3945L179.363 76.9922C178.976 77.5505 178.446 78.0859 177.774 78.5986C177.113 79.1113 176.316 79.5329 175.381 79.8633C174.447 80.1823 173.382 80.3418 172.186 80.3418ZM187.396 65.4565V80H182.474V61.5088H187.088L187.396 65.4565ZM186.678 70.105H185.345C185.345 68.7378 185.521 67.5073 185.875 66.4136C186.228 65.3084 186.723 64.3685 187.361 63.5938C187.999 62.8076 188.757 62.2095 189.634 61.7993C190.523 61.3778 191.514 61.167 192.608 61.167C193.474 61.167 194.266 61.2923 194.983 61.543C195.701 61.7936 196.316 62.1924 196.829 62.7393C197.353 63.2861 197.752 64.0096 198.025 64.9097C198.31 65.8097 198.453 66.9092 198.453 68.208V80H193.497V68.1909C193.497 67.3706 193.383 66.7326 193.155 66.2769C192.927 65.8211 192.591 65.5021 192.146 65.3198C191.714 65.1261 191.178 65.0293 190.54 65.0293C189.879 65.0293 189.304 65.1603 188.814 65.4224C188.335 65.6844 187.937 66.049 187.618 66.5161C187.31 66.9718 187.076 67.5073 186.917 68.1226C186.757 68.7378 186.678 69.3986 186.678 70.105ZM212.176 75.8301V67.5928C212.176 67.0003 212.079 66.4933 211.885 66.0718C211.692 65.6388 211.39 65.3027 210.979 65.0635C210.581 64.8242 210.062 64.7046 209.424 64.7046C208.877 64.7046 208.405 64.8014 208.006 64.9951C207.607 65.1774 207.299 65.4451 207.083 65.7983C206.867 66.1401 206.758 66.5446 206.758 67.0117H201.836C201.836 66.2256 202.019 65.4793 202.383 64.7729C202.748 64.0666 203.278 63.4456 203.973 62.9102C204.668 62.3633 205.494 61.936 206.451 61.6284C207.419 61.3208 208.501 61.167 209.698 61.167C211.133 61.167 212.409 61.4062 213.526 61.8848C214.642 62.3633 215.52 63.0811 216.158 64.0381C216.807 64.9951 217.132 66.1914 217.132 67.627V75.5396C217.132 76.5535 217.194 77.3853 217.32 78.0347C217.445 78.6727 217.627 79.231 217.867 79.7095V80H212.894C212.654 79.4987 212.472 78.8721 212.347 78.1201C212.233 77.3568 212.176 76.5934 212.176 75.8301ZM212.825 68.7378L212.859 71.5234H210.108C209.458 71.5234 208.895 71.5975 208.416 71.7456C207.938 71.8937 207.544 72.1045 207.237 72.3779C206.929 72.64 206.701 72.9476 206.553 73.3008C206.417 73.654 206.348 74.0413 206.348 74.4629C206.348 74.8844 206.445 75.2661 206.639 75.6079C206.832 75.9383 207.111 76.2004 207.476 76.394C207.841 76.5763 208.268 76.6675 208.758 76.6675C209.498 76.6675 210.142 76.5194 210.689 76.2231C211.236 75.9269 211.657 75.5623 211.954 75.1294C212.261 74.6965 212.421 74.2863 212.432 73.8989L213.731 75.9839C213.549 76.451 213.298 76.9352 212.979 77.4365C212.671 77.9378 212.278 78.4106 211.8 78.855C211.321 79.2879 210.746 79.6468 210.074 79.9316C209.402 80.2051 208.604 80.3418 207.681 80.3418C206.508 80.3418 205.442 80.1082 204.485 79.6411C203.54 79.1626 202.788 78.5075 202.229 77.6758C201.683 76.8327 201.409 75.8757 201.409 74.8047C201.409 73.8363 201.591 72.9761 201.956 72.2241C202.321 71.4722 202.856 70.8398 203.562 70.3271C204.28 69.8031 205.175 69.41 206.246 69.1479C207.317 68.8745 208.558 68.7378 209.971 68.7378H212.825ZM235.076 55.1172V80H229.949V55.1172H235.076ZM244.988 65.7471V69.7461H233.675V65.7471H244.988ZM246.185 55.1172V59.1333H233.675V55.1172H246.185ZM258.25 75.8301V67.5928C258.25 67.0003 258.153 66.4933 257.959 66.0718C257.766 65.6388 257.464 65.3027 257.054 65.0635C256.655 64.8242 256.137 64.7046 255.499 64.7046C254.952 64.7046 254.479 64.8014 254.08 64.9951C253.681 65.1774 253.374 65.4451 253.157 65.7983C252.941 66.1401 252.833 66.5446 252.833 67.0117H247.911C247.911 66.2256 248.093 65.4793 248.458 64.7729C248.822 64.0666 249.352 63.4456 250.047 62.9102C250.742 62.3633 251.568 61.936 252.525 61.6284C253.493 61.3208 254.576 61.167 255.772 61.167C257.208 61.167 258.484 61.4062 259.6 61.8848C260.717 62.3633 261.594 63.0811 262.232 64.0381C262.881 64.9951 263.206 66.1914 263.206 67.627V75.5396C263.206 76.5535 263.269 77.3853 263.394 78.0347C263.519 78.6727 263.702 79.231 263.941 79.7095V80H258.968C258.729 79.4987 258.546 78.8721 258.421 78.1201C258.307 77.3568 258.25 76.5934 258.25 75.8301ZM258.899 68.7378L258.934 71.5234H256.182C255.533 71.5234 254.969 71.5975 254.49 71.7456C254.012 71.8937 253.619 72.1045 253.311 72.3779C253.003 72.64 252.776 72.9476 252.627 73.3008C252.491 73.654 252.422 74.0413 252.422 74.4629C252.422 74.8844 252.519 75.2661 252.713 75.6079C252.907 75.9383 253.186 76.2004 253.55 76.394C253.915 76.5763 254.342 76.6675 254.832 76.6675C255.573 76.6675 256.216 76.5194 256.763 76.2231C257.31 75.9269 257.732 75.5623 258.028 75.1294C258.335 74.6965 258.495 74.2863 258.506 73.8989L259.805 75.9839C259.623 76.451 259.372 76.9352 259.053 77.4365C258.746 77.9378 258.353 78.4106 257.874 78.855C257.396 79.2879 256.82 79.6468 256.148 79.9316C255.476 80.2051 254.678 80.3418 253.755 80.3418C252.582 80.3418 251.517 80.1082 250.56 79.6411C249.614 79.1626 248.862 78.5075 248.304 77.6758C247.757 76.8327 247.483 75.8757 247.483 74.8047C247.483 73.8363 247.666 72.9761 248.03 72.2241C248.395 71.4722 248.93 70.8398 249.637 70.3271C250.354 69.8031 251.249 69.41 252.32 69.1479C253.391 68.8745 254.633 68.7378 256.045 68.7378H258.899ZM272.212 77.915L277.117 61.5088H282.398L274.964 82.7856C274.804 83.2528 274.588 83.7541 274.314 84.2896C274.052 84.825 273.694 85.332 273.238 85.8105C272.793 86.3005 272.229 86.6992 271.546 87.0068C270.874 87.3145 270.048 87.4683 269.068 87.4683C268.601 87.4683 268.219 87.4398 267.923 87.3828C267.627 87.3258 267.273 87.2461 266.863 87.1436V83.5376C266.989 83.5376 267.12 83.5376 267.256 83.5376C267.393 83.549 267.524 83.5547 267.649 83.5547C268.299 83.5547 268.829 83.4806 269.239 83.3325C269.649 83.1844 269.979 82.9565 270.23 82.6489C270.481 82.3527 270.68 81.9653 270.828 81.4868L272.212 77.915ZM270.162 61.5088L274.178 74.9072L274.878 80.1196L271.529 80.4785L264.881 61.5088H270.162ZM294.07 75.8301V67.5928C294.07 67.0003 293.973 66.4933 293.78 66.0718C293.586 65.6388 293.284 65.3027 292.874 65.0635C292.475 64.8242 291.957 64.7046 291.319 64.7046C290.772 64.7046 290.299 64.8014 289.9 64.9951C289.502 65.1774 289.194 65.4451 288.978 65.7983C288.761 66.1401 288.653 66.5446 288.653 67.0117H283.731C283.731 66.2256 283.913 65.4793 284.278 64.7729C284.642 64.0666 285.172 63.4456 285.867 62.9102C286.562 62.3633 287.388 61.936 288.345 61.6284C289.314 61.3208 290.396 61.167 291.592 61.167C293.028 61.167 294.304 61.4062 295.42 61.8848C296.537 62.3633 297.414 63.0811 298.052 64.0381C298.702 64.9951 299.026 66.1914 299.026 67.627V75.5396C299.026 76.5535 299.089 77.3853 299.214 78.0347C299.34 78.6727 299.522 79.231 299.761 79.7095V80H294.788C294.549 79.4987 294.367 78.8721 294.241 78.1201C294.127 77.3568 294.07 76.5934 294.07 75.8301ZM294.72 68.7378L294.754 71.5234H292.002C291.353 71.5234 290.789 71.5975 290.311 71.7456C289.832 71.8937 289.439 72.1045 289.131 72.3779C288.824 72.64 288.596 72.9476 288.448 73.3008C288.311 73.654 288.243 74.0413 288.243 74.4629C288.243 74.8844 288.34 75.2661 288.533 75.6079C288.727 75.9383 289.006 76.2004 289.371 76.394C289.735 76.5763 290.162 76.6675 290.652 76.6675C291.393 76.6675 292.037 76.5194 292.583 76.2231C293.13 75.9269 293.552 75.5623 293.848 75.1294C294.156 74.6965 294.315 74.2863 294.327 73.8989L295.625 75.9839C295.443 76.451 295.193 76.9352 294.874 77.4365C294.566 77.9378 294.173 78.4106 293.694 78.855C293.216 79.2879 292.64 79.6468 291.968 79.9316C291.296 80.2051 290.499 80.3418 289.576 80.3418C288.402 80.3418 287.337 80.1082 286.38 79.6411C285.434 79.1626 284.682 78.5075 284.124 77.6758C283.577 76.8327 283.304 75.8757 283.304 74.8047C283.304 73.8363 283.486 72.9761 283.851 72.2241C284.215 71.4722 284.751 70.8398 285.457 70.3271C286.175 69.8031 287.069 69.41 288.14 69.1479C289.211 68.8745 290.453 68.7378 291.866 68.7378H294.72ZM313.741 75.9668V53.75H318.697V80H314.236L313.741 75.9668ZM302.051 70.9766V70.6177C302.051 69.2049 302.211 67.9232 302.53 66.7725C302.849 65.6104 303.316 64.6134 303.931 63.7817C304.546 62.95 305.304 62.3063 306.204 61.8506C307.104 61.3949 308.13 61.167 309.28 61.167C310.363 61.167 311.308 61.3949 312.117 61.8506C312.938 62.3063 313.632 62.9557 314.202 63.7988C314.783 64.6305 315.25 65.616 315.604 66.7554C315.957 67.8833 316.213 69.1195 316.373 70.4639V71.25C316.213 72.5374 315.957 73.7337 315.604 74.8389C315.25 75.944 314.783 76.9124 314.202 77.7441C313.632 78.5645 312.938 79.2025 312.117 79.6582C311.297 80.1139 310.34 80.3418 309.246 80.3418C308.095 80.3418 307.07 80.1082 306.17 79.6411C305.281 79.174 304.529 78.5189 303.914 77.6758C303.31 76.8327 302.849 75.8415 302.53 74.7021C302.211 73.5628 302.051 72.321 302.051 70.9766ZM306.973 70.6177V70.9766C306.973 71.7399 307.03 72.452 307.144 73.1128C307.269 73.7736 307.469 74.3604 307.742 74.873C308.027 75.3743 308.392 75.7674 308.836 76.0522C309.292 76.3257 309.844 76.4624 310.494 76.4624C311.337 76.4624 312.032 76.2744 312.579 75.8984C313.125 75.5111 313.541 74.9813 313.826 74.3091C314.122 73.6369 314.293 72.8621 314.339 71.9849V69.7461C314.305 69.0283 314.202 68.3846 314.031 67.8149C313.872 67.2339 313.632 66.7383 313.313 66.3281C313.006 65.918 312.618 65.599 312.151 65.3711C311.696 65.1432 311.154 65.0293 310.528 65.0293C309.89 65.0293 309.343 65.1774 308.887 65.4736C308.431 65.7585 308.061 66.1515 307.776 66.6528C307.503 67.1541 307.298 67.7466 307.161 68.4302C307.036 69.1024 306.973 69.8315 306.973 70.6177Z" fill="#888888"/>
<rect x="92" y="181" width="1179" height="80" rx="13.3333" fill="#CCCCCC"/>
<rect x="107" y="196.333" width="208" height="49.3333" rx="4.66667" fill="#888888" stroke="#888888" stroke-width="4"/>
<path d="M166.656 213.167H169.635L173.021 223.719L176.406 213.167H179.385L174.229 228.333H171.813L166.656 213.167ZM164.844 213.167H167.927L168.5 224.792V228.333H164.844V213.167ZM178.115 213.167H181.208V228.333H177.542V224.792L178.115 213.167ZM182.948 222.812V222.594C182.948 221.767 183.066 221.007 183.302 220.312C183.538 219.611 183.885 219.003 184.344 218.49C184.802 217.976 185.368 217.576 186.042 217.292C186.715 217 187.493 216.854 188.375 216.854C189.264 216.854 190.045 217 190.719 217.292C191.399 217.576 191.969 217.976 192.427 218.49C192.885 219.003 193.233 219.611 193.469 220.312C193.705 221.007 193.823 221.767 193.823 222.594V222.812C193.823 223.632 193.705 224.392 193.469 225.094C193.233 225.788 192.885 226.396 192.427 226.917C191.969 227.431 191.403 227.83 190.729 228.115C190.056 228.399 189.278 228.542 188.396 228.542C187.514 228.542 186.733 228.399 186.052 228.115C185.372 227.83 184.802 227.431 184.344 226.917C183.885 226.396 183.538 225.788 183.302 225.094C183.066 224.392 182.948 223.632 182.948 222.812ZM186.458 222.594V222.812C186.458 223.236 186.49 223.632 186.552 224C186.615 224.368 186.719 224.691 186.865 224.969C187.01 225.24 187.208 225.451 187.458 225.604C187.708 225.757 188.021 225.833 188.396 225.833C188.764 225.833 189.069 225.757 189.313 225.604C189.563 225.451 189.76 225.24 189.906 224.969C190.052 224.691 190.156 224.368 190.219 224C190.281 223.632 190.313 223.236 190.313 222.812V222.594C190.313 222.184 190.281 221.799 190.219 221.437C190.156 221.069 190.052 220.747 189.906 220.469C189.76 220.184 189.563 219.962 189.313 219.802C189.063 219.642 188.75 219.562 188.375 219.562C188.007 219.562 187.698 219.642 187.448 219.802C187.205 219.962 187.01 220.184 186.865 220.469C186.719 220.747 186.615 221.069 186.552 221.437C186.49 221.799 186.458 222.184 186.458 222.594ZM198.833 219.469V228.333H195.323V217.062H198.615L198.833 219.469ZM198.417 222.312L197.594 222.333C197.594 221.472 197.698 220.705 197.906 220.031C198.115 219.351 198.41 218.774 198.792 218.302C199.174 217.83 199.628 217.472 200.156 217.229C200.691 216.979 201.285 216.854 201.938 216.854C202.458 216.854 202.934 216.931 203.365 217.083C203.802 217.236 204.177 217.483 204.49 217.823C204.809 218.163 205.052 218.615 205.219 219.177C205.392 219.733 205.479 220.42 205.479 221.24V228.333H201.948V221.229C201.948 220.778 201.885 220.434 201.76 220.198C201.635 219.955 201.455 219.788 201.219 219.698C200.983 219.608 200.694 219.562 200.354 219.562C199.993 219.562 199.688 219.632 199.438 219.771C199.188 219.91 198.986 220.104 198.833 220.354C198.688 220.597 198.58 220.885 198.51 221.219C198.448 221.552 198.417 221.917 198.417 222.312ZM214.51 217.062H217.698V227.896C217.698 228.937 217.458 229.819 216.979 230.542C216.5 231.271 215.83 231.823 214.969 232.198C214.115 232.58 213.115 232.771 211.969 232.771C211.462 232.771 210.944 232.705 210.417 232.573C209.889 232.448 209.396 232.26 208.938 232.01C208.479 231.76 208.094 231.451 207.781 231.083L209.25 229.021C209.535 229.34 209.892 229.611 210.323 229.833C210.753 230.062 211.26 230.177 211.844 230.177C212.351 230.177 212.774 230.087 213.115 229.906C213.462 229.726 213.726 229.462 213.906 229.115C214.087 228.774 214.177 228.361 214.177 227.875V219.729L214.51 217.062ZM207.021 222.833V222.615C207.021 221.76 207.125 220.983 207.333 220.281C207.549 219.573 207.854 218.965 208.25 218.458C208.653 217.944 209.139 217.549 209.708 217.271C210.278 216.993 210.92 216.854 211.635 216.854C212.406 216.854 213.038 217.003 213.531 217.302C214.031 217.594 214.431 218.003 214.729 218.531C215.035 219.059 215.271 219.677 215.438 220.385C215.611 221.087 215.757 221.844 215.875 222.656V222.917C215.757 223.681 215.594 224.403 215.385 225.083C215.184 225.757 214.92 226.354 214.594 226.875C214.267 227.396 213.858 227.806 213.365 228.104C212.878 228.396 212.295 228.542 211.615 228.542C210.906 228.542 210.267 228.399 209.698 228.115C209.135 227.83 208.653 227.431 208.25 226.917C207.854 226.403 207.549 225.799 207.333 225.104C207.125 224.41 207.021 223.653 207.021 222.833ZM210.531 222.615V222.833C210.531 223.257 210.569 223.649 210.646 224.01C210.729 224.372 210.854 224.691 211.021 224.969C211.188 225.24 211.392 225.451 211.635 225.604C211.885 225.757 212.177 225.833 212.51 225.833C213.017 225.833 213.427 225.726 213.74 225.51C214.052 225.295 214.278 224.99 214.417 224.594C214.556 224.198 214.615 223.733 214.594 223.198V222.375C214.608 221.917 214.576 221.514 214.5 221.167C214.424 220.812 214.302 220.517 214.135 220.281C213.976 220.045 213.76 219.868 213.49 219.75C213.226 219.625 212.906 219.562 212.531 219.562C212.205 219.562 211.917 219.639 211.667 219.792C211.417 219.944 211.208 220.16 211.042 220.437C210.875 220.708 210.747 221.031 210.656 221.406C210.573 221.774 210.531 222.177 210.531 222.615ZM219.281 222.812V222.594C219.281 221.767 219.399 221.007 219.635 220.312C219.872 219.611 220.219 219.003 220.677 218.49C221.135 217.976 221.701 217.576 222.375 217.292C223.049 217 223.826 216.854 224.708 216.854C225.597 216.854 226.378 217 227.052 217.292C227.733 217.576 228.302 217.976 228.76 218.49C229.219 219.003 229.566 219.611 229.802 220.312C230.038 221.007 230.156 221.767 230.156 222.594V222.812C230.156 223.632 230.038 224.392 229.802 225.094C229.566 225.788 229.219 226.396 228.76 226.917C228.302 227.431 227.736 227.83 227.063 228.115C226.389 228.399 225.611 228.542 224.729 228.542C223.847 228.542 223.066 228.399 222.385 228.115C221.705 227.83 221.135 227.431 220.677 226.917C220.219 226.396 219.872 225.788 219.635 225.094C219.399 224.392 219.281 223.632 219.281 222.812ZM222.792 222.594V222.812C222.792 223.236 222.823 223.632 222.885 224C222.948 224.368 223.052 224.691 223.198 224.969C223.344 225.24 223.542 225.451 223.792 225.604C224.042 225.757 224.354 225.833 224.729 225.833C225.097 225.833 225.403 225.757 225.646 225.604C225.896 225.451 226.094 225.24 226.24 224.969C226.385 224.691 226.49 224.368 226.552 224C226.615 223.632 226.646 223.236 226.646 222.812V222.594C226.646 222.184 226.615 221.799 226.552 221.437C226.49 221.069 226.385 220.747 226.24 220.469C226.094 220.184 225.896 219.962 225.646 219.802C225.396 219.642 225.083 219.562 224.708 219.562C224.34 219.562 224.031 219.642 223.781 219.802C223.538 219.962 223.344 220.184 223.198 220.469C223.052 220.747 222.948 221.069 222.885 221.437C222.823 221.799 222.792 222.184 222.792 222.594ZM236.813 228.333H233.448L233.469 225.521H236.813C237.507 225.521 238.094 225.354 238.573 225.021C239.059 224.687 239.427 224.191 239.677 223.531C239.934 222.865 240.063 222.045 240.063 221.073V220.417C240.063 219.687 239.99 219.049 239.844 218.5C239.705 217.944 239.497 217.483 239.219 217.115C238.941 216.74 238.594 216.458 238.177 216.271C237.767 216.083 237.295 215.99 236.76 215.99H233.385V213.167H236.76C237.788 213.167 238.729 213.344 239.583 213.698C240.444 214.045 241.188 214.545 241.813 215.198C242.444 215.844 242.931 216.611 243.271 217.5C243.618 218.382 243.792 219.361 243.792 220.437V221.073C243.792 222.142 243.618 223.122 243.271 224.01C242.931 224.899 242.448 225.667 241.823 226.312C241.198 226.958 240.458 227.458 239.604 227.812C238.757 228.16 237.826 228.333 236.813 228.333ZM235.542 213.167V228.333H231.885V213.167H235.542ZM251.885 221.885H247.979L247.958 219.49H251.125C251.694 219.49 252.149 219.427 252.49 219.302C252.83 219.17 253.076 218.979 253.229 218.729C253.389 218.479 253.469 218.167 253.469 217.792C253.469 217.361 253.389 217.014 253.229 216.75C253.069 216.486 252.816 216.295 252.469 216.177C252.128 216.052 251.688 215.99 251.146 215.99H249.354V228.333H245.698V213.167H251.146C252.083 213.167 252.92 213.253 253.656 213.427C254.392 213.594 255.017 213.851 255.531 214.198C256.052 214.545 256.448 214.983 256.719 215.51C256.99 216.031 257.125 216.646 257.125 217.354C257.125 217.972 256.993 218.552 256.729 219.094C256.465 219.635 256.024 220.076 255.406 220.417C254.795 220.75 253.958 220.924 252.896 220.937L251.885 221.885ZM251.74 228.333H247.094L248.344 225.521H251.74C252.24 225.521 252.639 225.444 252.938 225.292C253.243 225.132 253.462 224.924 253.594 224.667C253.733 224.403 253.802 224.111 253.802 223.792C253.802 223.403 253.736 223.066 253.604 222.781C253.479 222.497 253.278 222.278 253 222.125C252.722 221.965 252.351 221.885 251.885 221.885H248.813L248.833 219.49H252.51L253.365 220.448C254.378 220.406 255.181 220.549 255.771 220.875C256.368 221.201 256.795 221.632 257.052 222.167C257.309 222.701 257.438 223.26 257.438 223.844C257.438 224.837 257.222 225.667 256.792 226.333C256.368 227 255.733 227.5 254.885 227.833C254.038 228.167 252.99 228.333 251.74 228.333Z" fill="white"/>
<rect x="339" y="196.333" width="208" height="49.3333" rx="4.66667" fill="#888888" stroke="#888888" stroke-width="4"/>
<path d="M416.427 225.521V228.333H408.344V225.521H416.427ZM409.646 213.167V228.333H405.99V213.167H409.646ZM415.385 219.187V221.906H408.344V219.187H415.385ZM416.458 213.167V215.99H408.344V213.167H416.458ZM420.74 217.062L422.323 220.167L423.958 217.062H427.604L424.646 222.552L427.76 228.333H424.083L422.323 225L420.573 228.333H416.896L420.01 222.552L417.062 217.062H420.74ZM432.302 219.229V232.667H428.792V217.062H432.062L432.302 219.229ZM439.219 222.562V222.781C439.219 223.601 439.125 224.361 438.937 225.062C438.75 225.764 438.472 226.375 438.104 226.896C437.736 227.417 437.278 227.823 436.729 228.115C436.187 228.399 435.559 228.542 434.844 228.542C434.17 228.542 433.59 228.392 433.104 228.094C432.618 227.795 432.212 227.382 431.885 226.854C431.559 226.326 431.295 225.722 431.094 225.042C430.892 224.361 430.733 223.642 430.615 222.885V222.604C430.733 221.792 430.892 221.038 431.094 220.344C431.295 219.642 431.559 219.031 431.885 218.51C432.212 217.99 432.615 217.583 433.094 217.292C433.58 217 434.16 216.854 434.833 216.854C435.549 216.854 436.177 216.99 436.719 217.26C437.267 217.531 437.726 217.92 438.094 218.427C438.469 218.927 438.75 219.528 438.937 220.229C439.125 220.931 439.219 221.708 439.219 222.562ZM435.708 222.781V222.562C435.708 222.125 435.677 221.726 435.615 221.365C435.552 220.997 435.451 220.677 435.312 220.406C435.181 220.135 435.003 219.927 434.781 219.781C434.559 219.635 434.285 219.562 433.958 219.562C433.583 219.562 433.267 219.622 433.01 219.74C432.76 219.851 432.559 220.024 432.406 220.26C432.26 220.49 432.156 220.778 432.094 221.125C432.038 221.465 432.014 221.865 432.021 222.323V223.177C432.007 223.705 432.059 224.17 432.177 224.573C432.295 224.969 432.5 225.278 432.792 225.5C433.083 225.722 433.479 225.833 433.979 225.833C434.312 225.833 434.59 225.757 434.812 225.604C435.035 225.444 435.212 225.226 435.344 224.948C435.476 224.663 435.569 224.337 435.625 223.969C435.681 223.601 435.708 223.205 435.708 222.781ZM444.323 219.854V228.333H440.812V217.062H444.094L444.323 219.854ZM447.656 216.979L447.594 220.24C447.455 220.226 447.267 220.208 447.031 220.187C446.795 220.167 446.597 220.156 446.437 220.156C446.028 220.156 445.674 220.205 445.375 220.302C445.083 220.392 444.84 220.531 444.646 220.719C444.458 220.899 444.319 221.128 444.229 221.406C444.146 221.684 444.108 222.007 444.115 222.375L443.479 221.958C443.479 221.201 443.552 220.514 443.698 219.896C443.851 219.271 444.066 218.733 444.344 218.281C444.622 217.823 444.958 217.472 445.354 217.229C445.75 216.979 446.194 216.854 446.687 216.854C446.861 216.854 447.031 216.865 447.198 216.885C447.372 216.906 447.524 216.937 447.656 216.979ZM454.115 228.542C453.198 228.542 452.378 228.399 451.656 228.115C450.934 227.823 450.323 227.424 449.823 226.917C449.33 226.41 448.951 225.826 448.687 225.167C448.431 224.507 448.302 223.809 448.302 223.073V222.677C448.302 221.851 448.417 221.087 448.646 220.385C448.875 219.677 449.215 219.059 449.667 218.531C450.118 218.003 450.684 217.594 451.365 217.302C452.045 217.003 452.837 216.854 453.74 216.854C454.538 216.854 455.253 216.983 455.885 217.24C456.517 217.497 457.052 217.865 457.49 218.344C457.934 218.823 458.271 219.403 458.5 220.083C458.736 220.764 458.854 221.528 458.854 222.375V223.802H449.646V221.604H455.427V221.333C455.434 220.958 455.368 220.639 455.229 220.375C455.097 220.111 454.903 219.91 454.646 219.771C454.389 219.632 454.076 219.562 453.708 219.562C453.326 219.562 453.01 219.646 452.76 219.812C452.517 219.979 452.326 220.208 452.187 220.5C452.056 220.785 451.962 221.115 451.906 221.49C451.851 221.865 451.823 222.26 451.823 222.677V223.073C451.823 223.49 451.878 223.868 451.99 224.208C452.108 224.549 452.274 224.84 452.49 225.083C452.712 225.319 452.976 225.503 453.281 225.635C453.594 225.767 453.948 225.833 454.344 225.833C454.823 225.833 455.295 225.743 455.76 225.562C456.226 225.382 456.625 225.083 456.958 224.667L458.552 226.562C458.323 226.889 457.997 227.205 457.573 227.51C457.156 227.816 456.656 228.066 456.073 228.26C455.49 228.448 454.837 228.542 454.115 228.542ZM466.187 225.167C466.187 224.972 466.122 224.806 465.99 224.667C465.865 224.521 465.642 224.389 465.323 224.271C465.003 224.146 464.556 224.021 463.979 223.896C463.431 223.778 462.913 223.622 462.427 223.427C461.948 223.233 461.528 222.997 461.167 222.719C460.806 222.441 460.521 222.111 460.312 221.729C460.111 221.347 460.01 220.91 460.01 220.417C460.01 219.937 460.111 219.486 460.312 219.062C460.521 218.632 460.823 218.253 461.219 217.927C461.622 217.594 462.111 217.333 462.687 217.146C463.264 216.951 463.92 216.854 464.656 216.854C465.67 216.854 466.545 217.01 467.281 217.323C468.017 217.628 468.583 218.059 468.979 218.615C469.382 219.163 469.583 219.799 469.583 220.521H466.073C466.073 220.236 466.024 219.993 465.927 219.792C465.837 219.59 465.687 219.437 465.479 219.333C465.271 219.222 464.993 219.167 464.646 219.167C464.403 219.167 464.181 219.212 463.979 219.302C463.785 219.392 463.628 219.517 463.51 219.677C463.392 219.837 463.333 220.024 463.333 220.24C463.333 220.392 463.368 220.531 463.437 220.656C463.514 220.774 463.628 220.885 463.781 220.99C463.934 221.087 464.128 221.177 464.365 221.26C464.601 221.337 464.885 221.406 465.219 221.469C465.976 221.608 466.684 221.806 467.344 222.062C468.003 222.319 468.538 222.684 468.948 223.156C469.365 223.628 469.573 224.264 469.573 225.062C469.573 225.562 469.458 226.024 469.229 226.448C469 226.865 468.67 227.233 468.24 227.552C467.809 227.865 467.292 228.108 466.687 228.281C466.083 228.455 465.403 228.542 464.646 228.542C463.569 228.542 462.66 228.351 461.917 227.969C461.174 227.58 460.611 227.094 460.229 226.51C459.854 225.92 459.667 225.323 459.667 224.719H462.937C462.951 225.066 463.035 225.351 463.187 225.573C463.347 225.795 463.559 225.958 463.823 226.062C464.087 226.167 464.392 226.219 464.74 226.219C465.059 226.219 465.323 226.174 465.531 226.083C465.747 225.993 465.91 225.872 466.021 225.719C466.132 225.559 466.187 225.375 466.187 225.167ZM477.125 225.167C477.125 224.972 477.059 224.806 476.927 224.667C476.802 224.521 476.58 224.389 476.26 224.271C475.941 224.146 475.493 224.021 474.917 223.896C474.368 223.778 473.851 223.622 473.365 223.427C472.885 223.233 472.465 222.997 472.104 222.719C471.743 222.441 471.458 222.111 471.25 221.729C471.049 221.347 470.948 220.91 470.948 220.417C470.948 219.937 471.049 219.486 471.25 219.062C471.458 218.632 471.76 218.253 472.156 217.927C472.559 217.594 473.049 217.333 473.625 217.146C474.201 216.951 474.858 216.854 475.594 216.854C476.608 216.854 477.483 217.01 478.219 217.323C478.955 217.628 479.521 218.059 479.917 218.615C480.319 219.163 480.521 219.799 480.521 220.521H477.01C477.01 220.236 476.962 219.993 476.865 219.792C476.774 219.59 476.625 219.437 476.417 219.333C476.208 219.222 475.931 219.167 475.583 219.167C475.34 219.167 475.118 219.212 474.917 219.302C474.722 219.392 474.566 219.517 474.448 219.677C474.33 219.837 474.271 220.024 474.271 220.24C474.271 220.392 474.306 220.531 474.375 220.656C474.451 220.774 474.566 220.885 474.719 220.99C474.872 221.087 475.066 221.177 475.302 221.26C475.538 221.337 475.823 221.406 476.156 221.469C476.913 221.608 477.622 221.806 478.281 222.062C478.941 222.319 479.476 222.684 479.885 223.156C480.302 223.628 480.51 224.264 480.51 225.062C480.51 225.562 480.396 226.024 480.167 226.448C479.937 226.865 479.608 227.233 479.177 227.552C478.747 227.865 478.229 228.108 477.625 228.281C477.021 228.455 476.34 228.542 475.583 228.542C474.507 228.542 473.597 228.351 472.854 227.969C472.111 227.58 471.549 227.094 471.167 226.51C470.792 225.92 470.604 225.323 470.604 224.719H473.875C473.889 225.066 473.972 225.351 474.125 225.573C474.285 225.795 474.497 225.958 474.76 226.062C475.024 226.167 475.33 226.219 475.677 226.219C475.997 226.219 476.26 226.174 476.469 226.083C476.684 225.993 476.847 225.872 476.958 225.719C477.069 225.559 477.125 225.375 477.125 225.167Z" fill="white"/>
<path d="M575.667 196.333H774.333C776.911 196.333 779 198.423 779 201V241C779 243.577 776.911 245.667 774.333 245.667H575.667C573.089 245.667 571 243.577 571 241V201C571 198.423 573.089 196.333 575.667 196.333Z" fill="#888888" stroke="#888888" stroke-width="4"/>
<path d="M614.833 213.167H620.802C621.969 213.167 622.983 213.34 623.844 213.687C624.705 214.035 625.368 214.549 625.833 215.229C626.306 215.91 626.542 216.75 626.542 217.75C626.542 218.618 626.406 219.344 626.135 219.927C625.865 220.51 625.486 220.993 625 221.375C624.521 221.75 623.962 222.059 623.323 222.302L622.125 222.979H617.115L617.094 220.156H620.802C621.267 220.156 621.653 220.073 621.958 219.906C622.264 219.74 622.493 219.503 622.646 219.198C622.806 218.885 622.885 218.514 622.885 218.083C622.885 217.646 622.806 217.271 622.646 216.958C622.486 216.646 622.25 216.406 621.937 216.24C621.632 216.073 621.253 215.99 620.802 215.99H618.49V228.333H614.833V213.167ZM623.135 228.333L619.781 221.625L623.656 221.604L627.052 228.177V228.333H623.135ZM634.042 228.542C633.125 228.542 632.306 228.399 631.583 228.115C630.861 227.823 630.25 227.424 629.75 226.917C629.257 226.41 628.878 225.826 628.615 225.167C628.358 224.507 628.229 223.809 628.229 223.073V222.677C628.229 221.851 628.344 221.087 628.573 220.385C628.802 219.677 629.142 219.059 629.594 218.531C630.045 218.003 630.611 217.594 631.292 217.302C631.972 217.003 632.764 216.854 633.667 216.854C634.465 216.854 635.181 216.983 635.813 217.24C636.444 217.497 636.979 217.865 637.417 218.344C637.861 218.823 638.198 219.403 638.427 220.083C638.663 220.764 638.781 221.528 638.781 222.375V223.802H629.573V221.604H635.354V221.333C635.361 220.958 635.295 220.639 635.156 220.375C635.024 220.111 634.83 219.91 634.573 219.771C634.316 219.632 634.003 219.562 633.635 219.562C633.253 219.562 632.938 219.646 632.688 219.812C632.444 219.979 632.253 220.208 632.115 220.5C631.983 220.785 631.889 221.115 631.833 221.49C631.778 221.865 631.75 222.26 631.75 222.677V223.073C631.75 223.49 631.806 223.868 631.917 224.208C632.035 224.549 632.201 224.84 632.417 225.083C632.639 225.319 632.903 225.503 633.208 225.635C633.521 225.767 633.875 225.833 634.271 225.833C634.75 225.833 635.222 225.743 635.688 225.562C636.153 225.382 636.552 225.083 636.885 224.667L638.479 226.562C638.25 226.889 637.924 227.205 637.5 227.51C637.083 227.816 636.583 228.066 636 228.26C635.417 228.448 634.764 228.542 634.042 228.542ZM646.063 225.5V220.854C646.063 220.535 646.017 220.26 645.927 220.031C645.837 219.802 645.694 219.625 645.5 219.5C645.306 219.368 645.045 219.302 644.719 219.302C644.455 219.302 644.229 219.347 644.042 219.437C643.854 219.528 643.712 219.663 643.615 219.844C643.517 220.024 643.469 220.253 643.469 220.531H639.958C639.958 220.01 640.073 219.528 640.302 219.083C640.538 218.632 640.872 218.24 641.302 217.906C641.74 217.573 642.26 217.316 642.865 217.135C643.476 216.948 644.156 216.854 644.906 216.854C645.802 216.854 646.601 217.003 647.302 217.302C648.01 217.601 648.569 218.049 648.979 218.646C649.389 219.236 649.594 219.979 649.594 220.875V225.49C649.594 226.226 649.635 226.785 649.719 227.167C649.802 227.542 649.92 227.872 650.073 228.156V228.333H646.552C646.385 227.986 646.26 227.562 646.177 227.062C646.101 226.556 646.063 226.035 646.063 225.5ZM646.49 221.448L646.51 223.323H644.958C644.632 223.323 644.354 223.368 644.125 223.458C643.903 223.549 643.722 223.674 643.583 223.833C643.451 223.986 643.354 224.16 643.292 224.354C643.236 224.549 643.208 224.753 643.208 224.969C643.208 225.177 643.257 225.365 643.354 225.531C643.458 225.691 643.597 225.816 643.771 225.906C643.944 225.997 644.139 226.042 644.354 226.042C644.743 226.042 645.073 225.969 645.344 225.823C645.622 225.67 645.833 225.486 645.979 225.271C646.125 225.056 646.198 224.854 646.198 224.667L646.969 226.104C646.83 226.382 646.67 226.663 646.49 226.948C646.316 227.233 646.097 227.497 645.833 227.74C645.576 227.976 645.26 228.17 644.885 228.323C644.51 228.469 644.056 228.542 643.521 228.542C642.826 228.542 642.188 228.399 641.604 228.115C641.028 227.83 640.566 227.434 640.219 226.927C639.872 226.413 639.698 225.823 639.698 225.156C639.698 224.573 639.802 224.052 640.01 223.594C640.226 223.135 640.549 222.747 640.979 222.427C641.41 222.108 641.958 221.865 642.625 221.698C643.292 221.531 644.076 221.448 644.979 221.448H646.49ZM656.302 225.833C656.628 225.833 656.906 225.774 657.135 225.656C657.372 225.531 657.549 225.358 657.667 225.135C657.792 224.906 657.851 224.632 657.844 224.312H661.146C661.153 225.16 660.944 225.903 660.521 226.542C660.104 227.174 659.535 227.667 658.812 228.021C658.097 228.368 657.288 228.542 656.385 228.542C655.503 228.542 654.733 228.399 654.073 228.115C653.413 227.823 652.861 227.42 652.417 226.906C651.979 226.385 651.649 225.778 651.427 225.083C651.212 224.389 651.104 223.635 651.104 222.823V222.583C651.104 221.771 651.212 221.017 651.427 220.323C651.649 219.622 651.979 219.014 652.417 218.5C652.861 217.979 653.41 217.576 654.062 217.292C654.722 217 655.49 216.854 656.365 216.854C657.302 216.854 658.128 217.031 658.844 217.385C659.566 217.74 660.132 218.253 660.542 218.927C660.951 219.601 661.153 220.417 661.146 221.375H657.844C657.851 221.035 657.799 220.729 657.687 220.458C657.576 220.187 657.403 219.972 657.167 219.812C656.937 219.646 656.642 219.562 656.281 219.562C655.92 219.562 655.628 219.642 655.406 219.802C655.184 219.962 655.014 220.184 654.896 220.469C654.785 220.747 654.708 221.066 654.667 221.427C654.632 221.788 654.615 222.174 654.615 222.583V222.823C654.615 223.24 654.632 223.632 654.667 224C654.708 224.361 654.788 224.681 654.906 224.958C655.024 225.229 655.194 225.444 655.417 225.604C655.639 225.757 655.934 225.833 656.302 225.833ZM668.583 217.062V219.5H661.792V217.062H668.583ZM663.219 214.26H666.729V224.656C666.729 224.955 666.764 225.187 666.833 225.354C666.903 225.514 667.021 225.628 667.188 225.698C667.361 225.76 667.59 225.792 667.875 225.792C668.076 225.792 668.243 225.788 668.375 225.781C668.507 225.767 668.632 225.75 668.75 225.729V228.24C668.451 228.337 668.139 228.41 667.813 228.458C667.486 228.514 667.139 228.542 666.771 228.542C666.021 228.542 665.378 228.424 664.844 228.187C664.316 227.951 663.913 227.58 663.635 227.073C663.358 226.566 663.219 225.906 663.219 225.094V214.26ZM688.125 213.167V228.333H684.479L679.115 218.896V228.333H675.458V213.167H679.115L684.479 222.604V213.167H688.125ZM696.125 225.5V220.854C696.125 220.535 696.08 220.26 695.99 220.031C695.899 219.802 695.757 219.625 695.563 219.5C695.368 219.368 695.108 219.302 694.781 219.302C694.517 219.302 694.292 219.347 694.104 219.437C693.917 219.528 693.774 219.663 693.677 219.844C693.58 220.024 693.531 220.253 693.531 220.531H690.021C690.021 220.01 690.135 219.528 690.365 219.083C690.601 218.632 690.934 218.24 691.365 217.906C691.802 217.573 692.323 217.316 692.927 217.135C693.538 216.948 694.219 216.854 694.969 216.854C695.865 216.854 696.663 217.003 697.365 217.302C698.073 217.601 698.632 218.049 699.042 218.646C699.451 219.236 699.656 219.979 699.656 220.875V225.49C699.656 226.226 699.698 226.785 699.781 227.167C699.865 227.542 699.983 227.872 700.135 228.156V228.333H696.615C696.448 227.986 696.323 227.562 696.24 227.062C696.163 226.556 696.125 226.035 696.125 225.5ZM696.552 221.448L696.573 223.323H695.021C694.694 223.323 694.417 223.368 694.188 223.458C693.965 223.549 693.785 223.674 693.646 223.833C693.514 223.986 693.417 224.16 693.354 224.354C693.299 224.549 693.271 224.753 693.271 224.969C693.271 225.177 693.319 225.365 693.417 225.531C693.521 225.691 693.66 225.816 693.833 225.906C694.007 225.997 694.201 226.042 694.417 226.042C694.806 226.042 695.135 225.969 695.406 225.823C695.684 225.67 695.896 225.486 696.042 225.271C696.188 225.056 696.26 224.854 696.26 224.667L697.031 226.104C696.892 226.382 696.733 226.663 696.552 226.948C696.378 227.233 696.16 227.497 695.896 227.74C695.639 227.976 695.323 228.17 694.948 228.323C694.573 228.469 694.118 228.542 693.583 228.542C692.889 228.542 692.25 228.399 691.667 228.115C691.09 227.83 690.628 227.434 690.281 226.927C689.934 226.413 689.76 225.823 689.76 225.156C689.76 224.573 689.865 224.052 690.073 223.594C690.288 223.135 690.611 222.747 691.042 222.427C691.472 222.108 692.021 221.865 692.688 221.698C693.354 221.531 694.139 221.448 695.042 221.448H696.552ZM707.542 217.062V219.5H700.75V217.062H707.542ZM702.177 214.26H705.687V224.656C705.687 224.955 705.722 225.187 705.792 225.354C705.861 225.514 705.979 225.628 706.146 225.698C706.319 225.76 706.549 225.792 706.833 225.792C707.035 225.792 707.201 225.788 707.333 225.781C707.465 225.767 707.59 225.75 707.708 225.729V228.24C707.41 228.337 707.097 228.41 706.771 228.458C706.444 228.514 706.097 228.542 705.729 228.542C704.979 228.542 704.337 228.424 703.802 228.187C703.274 227.951 702.872 227.58 702.594 227.073C702.316 226.566 702.177 225.906 702.177 225.094V214.26ZM712.646 217.062V228.333H709.125V217.062H712.646ZM708.917 214.156C708.917 213.656 709.097 213.247 709.458 212.927C709.819 212.608 710.288 212.448 710.865 212.448C711.441 212.448 711.91 212.608 712.271 212.927C712.632 213.247 712.813 213.656 712.813 214.156C712.813 214.656 712.632 215.066 712.271 215.385C711.91 215.705 711.441 215.865 710.865 215.865C710.288 215.865 709.819 215.705 709.458 215.385C709.097 215.066 708.917 214.656 708.917 214.156ZM718.875 225.927L721.094 217.062H724.792L721.104 228.333H718.917L718.875 225.927ZM717.563 217.062L719.75 225.927L719.729 228.333H717.531L713.854 217.062H717.563ZM731.146 228.542C730.229 228.542 729.41 228.399 728.688 228.115C727.965 227.823 727.354 227.424 726.854 226.917C726.361 226.41 725.983 225.826 725.719 225.167C725.462 224.507 725.333 223.809 725.333 223.073V222.677C725.333 221.851 725.448 221.087 725.677 220.385C725.906 219.677 726.247 219.059 726.698 218.531C727.149 218.003 727.715 217.594 728.396 217.302C729.076 217.003 729.868 216.854 730.771 216.854C731.569 216.854 732.285 216.983 732.917 217.24C733.549 217.497 734.083 217.865 734.521 218.344C734.965 218.823 735.302 219.403 735.531 220.083C735.767 220.764 735.885 221.528 735.885 222.375V223.802H726.677V221.604H732.458V221.333C732.465 220.958 732.399 220.639 732.26 220.375C732.128 220.111 731.934 219.91 731.677 219.771C731.42 219.632 731.108 219.562 730.74 219.562C730.358 219.562 730.042 219.646 729.792 219.812C729.549 219.979 729.358 220.208 729.219 220.5C729.087 220.785 728.993 221.115 728.938 221.49C728.882 221.865 728.854 222.26 728.854 222.677V223.073C728.854 223.49 728.91 223.868 729.021 224.208C729.139 224.549 729.306 224.84 729.521 225.083C729.743 225.319 730.007 225.503 730.313 225.635C730.625 225.767 730.979 225.833 731.375 225.833C731.854 225.833 732.326 225.743 732.792 225.562C733.257 225.382 733.656 225.083 733.99 224.667L735.583 226.562C735.354 226.889 735.028 227.205 734.604 227.51C734.188 227.816 733.688 228.066 733.104 228.26C732.521 228.448 731.868 228.542 731.146 228.542Z" fill="white"/>
<path d="M807.667 196.333H1006.33C1008.91 196.333 1011 198.423 1011 201V241C1011 243.577 1008.91 245.667 1006.33 245.667H807.667C805.089 245.667 803 243.577 803 241V201C803 198.423 805.089 196.333 807.667 196.333Z" fill="#888888" stroke="#888888" stroke-width="4"/>
<path d="M882.844 213.167V228.333H879.198L873.833 218.896V228.333H870.177V213.167H873.833L879.198 222.604V213.167H882.844ZM884.552 222.812V222.594C884.552 221.767 884.67 221.007 884.906 220.312C885.142 219.611 885.49 219.003 885.948 218.49C886.406 217.976 886.972 217.576 887.646 217.292C888.319 217 889.097 216.854 889.979 216.854C890.868 216.854 891.649 217 892.323 217.292C893.003 217.576 893.573 217.976 894.031 218.49C894.49 219.003 894.837 219.611 895.073 220.312C895.309 221.007 895.427 221.767 895.427 222.594V222.812C895.427 223.632 895.309 224.392 895.073 225.094C894.837 225.788 894.49 226.396 894.031 226.917C893.573 227.431 893.007 227.83 892.333 228.115C891.66 228.399 890.882 228.542 890 228.542C889.118 228.542 888.337 228.399 887.656 228.115C886.976 227.83 886.406 227.431 885.948 226.917C885.49 226.396 885.142 225.788 884.906 225.094C884.67 224.392 884.552 223.632 884.552 222.812ZM888.062 222.594V222.812C888.062 223.236 888.094 223.632 888.156 224C888.219 224.368 888.323 224.691 888.469 224.969C888.615 225.24 888.812 225.451 889.062 225.604C889.312 225.757 889.625 225.833 890 225.833C890.368 225.833 890.674 225.757 890.917 225.604C891.167 225.451 891.365 225.24 891.51 224.969C891.656 224.691 891.76 224.368 891.823 224C891.885 223.632 891.917 223.236 891.917 222.812V222.594C891.917 222.184 891.885 221.799 891.823 221.437C891.76 221.069 891.656 220.747 891.51 220.469C891.365 220.184 891.167 219.962 890.917 219.802C890.667 219.642 890.354 219.562 889.979 219.562C889.611 219.562 889.302 219.642 889.052 219.802C888.809 219.962 888.615 220.184 888.469 220.469C888.323 220.747 888.219 221.069 888.156 221.437C888.094 221.799 888.062 222.184 888.062 222.594ZM903.469 225.75V212.333H907V228.333H903.833L903.469 225.75ZM896.552 222.833V222.615C896.552 221.76 896.646 220.983 896.833 220.281C897.021 219.573 897.299 218.965 897.667 218.458C898.035 217.944 898.493 217.549 899.042 217.271C899.59 216.993 900.222 216.854 900.938 216.854C901.576 216.854 902.135 217.003 902.615 217.302C903.094 217.594 903.503 218.003 903.844 218.531C904.184 219.059 904.462 219.677 904.677 220.385C904.892 221.087 905.056 221.844 905.167 222.656V222.917C905.056 223.681 904.892 224.403 904.677 225.083C904.462 225.757 904.184 226.354 903.844 226.875C903.503 227.396 903.09 227.806 902.604 228.104C902.125 228.396 901.563 228.542 900.917 228.542C900.201 228.542 899.569 228.399 899.021 228.115C898.479 227.83 898.024 227.431 897.656 226.917C897.295 226.403 897.021 225.799 896.833 225.104C896.646 224.41 896.552 223.653 896.552 222.833ZM900.063 222.615V222.833C900.063 223.257 900.09 223.649 900.146 224.01C900.201 224.372 900.295 224.691 900.427 224.969C900.566 225.24 900.747 225.451 900.969 225.604C901.198 225.757 901.479 225.833 901.813 225.833C902.264 225.833 902.635 225.726 902.927 225.51C903.226 225.295 903.444 224.99 903.583 224.594C903.729 224.198 903.792 223.733 903.771 223.198V222.375C903.785 221.917 903.753 221.514 903.677 221.167C903.601 220.812 903.479 220.517 903.313 220.281C903.153 220.045 902.948 219.868 902.698 219.75C902.455 219.625 902.167 219.562 901.833 219.562C901.507 219.562 901.229 219.639 901 219.792C900.778 219.944 900.597 220.16 900.458 220.437C900.319 220.708 900.219 221.031 900.156 221.406C900.094 221.774 900.063 222.177 900.063 222.615ZM914.448 228.542C913.531 228.542 912.712 228.399 911.99 228.115C911.267 227.823 910.656 227.424 910.156 226.917C909.663 226.41 909.285 225.826 909.021 225.167C908.764 224.507 908.635 223.809 908.635 223.073V222.677C908.635 221.851 908.75 221.087 908.979 220.385C909.208 219.677 909.549 219.059 910 218.531C910.451 218.003 911.017 217.594 911.698 217.302C912.378 217.003 913.17 216.854 914.073 216.854C914.872 216.854 915.587 216.983 916.219 217.24C916.851 217.497 917.385 217.865 917.823 218.344C918.267 218.823 918.604 219.403 918.833 220.083C919.069 220.764 919.188 221.528 919.188 222.375V223.802H909.979V221.604H915.76V221.333C915.767 220.958 915.701 220.639 915.563 220.375C915.431 220.111 915.236 219.91 914.979 219.771C914.722 219.632 914.41 219.562 914.042 219.562C913.66 219.562 913.344 219.646 913.094 219.812C912.851 219.979 912.66 220.208 912.521 220.5C912.389 220.785 912.295 221.115 912.24 221.49C912.184 221.865 912.156 222.26 912.156 222.677V223.073C912.156 223.49 912.212 223.868 912.323 224.208C912.441 224.549 912.608 224.84 912.823 225.083C913.045 225.319 913.309 225.503 913.615 225.635C913.927 225.767 914.281 225.833 914.677 225.833C915.156 225.833 915.628 225.743 916.094 225.562C916.559 225.382 916.958 225.083 917.292 224.667L918.885 226.562C918.656 226.889 918.33 227.205 917.906 227.51C917.49 227.816 916.99 228.066 916.406 228.26C915.823 228.448 915.17 228.542 914.448 228.542ZM926.813 223.573V213.167H930.458V223.573C930.458 224.587 930.226 225.465 929.76 226.208C929.302 226.951 928.677 227.528 927.885 227.937C927.101 228.34 926.219 228.542 925.24 228.542C924.226 228.542 923.323 228.372 922.531 228.031C921.747 227.691 921.128 227.167 920.677 226.458C920.233 225.75 920.01 224.847 920.01 223.75H923.677C923.677 224.264 923.736 224.667 923.854 224.958C923.972 225.243 924.146 225.444 924.375 225.562C924.611 225.674 924.899 225.729 925.24 225.729C925.573 225.729 925.854 225.646 926.083 225.479C926.319 225.306 926.5 225.059 926.625 224.74C926.75 224.413 926.813 224.024 926.813 223.573ZM940.594 224.302C940.594 224.066 940.559 223.854 940.49 223.667C940.42 223.472 940.292 223.292 940.104 223.125C939.917 222.958 939.646 222.792 939.292 222.625C938.944 222.451 938.486 222.271 937.917 222.083C937.25 221.861 936.608 221.611 935.99 221.333C935.372 221.049 934.819 220.719 934.333 220.344C933.847 219.962 933.462 219.517 933.177 219.01C932.892 218.497 932.75 217.899 932.75 217.219C932.75 216.566 932.896 215.979 933.188 215.458C933.479 214.931 933.885 214.483 934.406 214.115C934.934 213.74 935.552 213.455 936.26 213.26C936.969 213.059 937.743 212.958 938.583 212.958C939.694 212.958 940.674 213.153 941.521 213.542C942.375 213.924 943.042 214.469 943.521 215.177C944.007 215.878 944.25 216.708 944.25 217.667H940.615C940.615 217.285 940.535 216.948 940.375 216.656C940.222 216.365 939.99 216.135 939.677 215.969C939.365 215.802 938.972 215.719 938.5 215.719C938.042 215.719 937.656 215.788 937.344 215.927C937.031 216.066 936.795 216.253 936.635 216.49C936.476 216.719 936.396 216.972 936.396 217.25C936.396 217.479 936.458 217.687 936.583 217.875C936.715 218.056 936.899 218.226 937.135 218.385C937.378 218.545 937.67 218.698 938.01 218.844C938.358 218.99 938.747 219.132 939.177 219.271C939.983 219.528 940.698 219.816 941.323 220.135C941.955 220.448 942.486 220.806 942.917 221.208C943.354 221.604 943.684 222.056 943.906 222.562C944.135 223.069 944.25 223.642 944.25 224.281C944.25 224.962 944.118 225.566 943.854 226.094C943.59 226.622 943.212 227.069 942.719 227.437C942.226 227.799 941.635 228.073 940.948 228.26C940.26 228.448 939.493 228.542 938.646 228.542C937.868 228.542 937.101 228.444 936.344 228.25C935.594 228.049 934.913 227.743 934.302 227.333C933.691 226.917 933.201 226.385 932.833 225.74C932.472 225.087 932.292 224.312 932.292 223.417H935.958C935.958 223.861 936.017 224.236 936.135 224.542C936.253 224.847 936.427 225.094 936.656 225.281C936.885 225.462 937.167 225.594 937.5 225.677C937.833 225.753 938.215 225.792 938.646 225.792C939.111 225.792 939.486 225.726 939.771 225.594C940.056 225.455 940.264 225.274 940.396 225.052C940.528 224.823 940.594 224.573 940.594 224.302Z" fill="white"/>
</svg>
