<svg width="1363" height="167" viewBox="0 0 1363 167" fill="none" xmlns="http://www.w3.org/2000/svg">
<rect width="1363" height="167" rx="15" fill="#F0F0F0"/>
<path d="M0 15C0 6.71573 6.71573 0 15 0H37V167H15C6.71573 167 0 160.284 0 152V15Z" fill="#424241"/>
<path d="M100.906 50.9219L93.3945 48.2383V45.0859L103.602 49.375V51.6367L100.906 50.9219ZM93.3945 53.1719L100.918 50.4297L103.602 49.7852V52.0352L93.3945 56.3242V53.1719ZM118.578 50.5117H114.195L114.172 48.0977H117.852C118.5 48.0977 119.031 48.0156 119.445 47.8516C119.859 47.6797 120.168 47.4336 120.371 47.1133C120.582 46.7852 120.688 46.3867 120.688 45.918C120.688 45.3867 120.586 44.957 120.383 44.6289C120.188 44.3008 119.879 44.0625 119.457 43.9141C119.043 43.7656 118.508 43.6914 117.852 43.6914H115.414V58H111.898V40.9375H117.852C118.844 40.9375 119.73 41.0312 120.512 41.2188C121.301 41.4062 121.969 41.6914 122.516 42.0742C123.062 42.457 123.48 42.9414 123.77 43.5273C124.059 44.1055 124.203 44.793 124.203 45.5898C124.203 46.293 124.043 46.9414 123.723 47.5352C123.41 48.1289 122.914 48.6133 122.234 48.9883C121.562 49.3633 120.684 49.5703 119.598 49.6094L118.578 50.5117ZM118.426 58H113.234L114.605 55.2578H118.426C119.043 55.2578 119.547 55.1602 119.938 54.9648C120.328 54.7617 120.617 54.4883 120.805 54.1445C120.992 53.8008 121.086 53.4062 121.086 52.9609C121.086 52.4609 121 52.0273 120.828 51.6602C120.664 51.293 120.398 51.0117 120.031 50.8164C119.664 50.6133 119.18 50.5117 118.578 50.5117H115.191L115.215 48.0977H119.434L120.242 49.0469C121.281 49.0312 122.117 49.2148 122.75 49.5977C123.391 49.9727 123.855 50.4609 124.145 51.0625C124.441 51.6641 124.59 52.3086 124.59 52.9961C124.59 54.0898 124.352 55.0117 123.875 55.7617C123.398 56.5039 122.699 57.0625 121.777 57.4375C120.863 57.8125 119.746 58 118.426 58ZM126.477 51.7891V51.543C126.477 50.6133 126.609 49.7578 126.875 48.9766C127.141 48.1875 127.527 47.5039 128.035 46.9258C128.543 46.3477 129.168 45.8984 129.91 45.5781C130.652 45.25 131.504 45.0859 132.465 45.0859C133.426 45.0859 134.281 45.25 135.031 45.5781C135.781 45.8984 136.41 46.3477 136.918 46.9258C137.434 47.5039 137.824 48.1875 138.09 48.9766C138.355 49.7578 138.488 50.6133 138.488 51.543V51.7891C138.488 52.7109 138.355 53.5664 138.09 54.3555C137.824 55.1367 137.434 55.8203 136.918 56.4062C136.41 56.9844 135.785 57.4336 135.043 57.7539C134.301 58.0742 133.449 58.2344 132.488 58.2344C131.527 58.2344 130.672 58.0742 129.922 57.7539C129.18 57.4336 128.551 56.9844 128.035 56.4062C127.527 55.8203 127.141 55.1367 126.875 54.3555C126.609 53.5664 126.477 52.7109 126.477 51.7891ZM129.852 51.543V51.7891C129.852 52.3203 129.898 52.8164 129.992 53.2773C130.086 53.7383 130.234 54.1445 130.438 54.4961C130.648 54.8398 130.922 55.1094 131.258 55.3047C131.594 55.5 132.004 55.5977 132.488 55.5977C132.957 55.5977 133.359 55.5 133.695 55.3047C134.031 55.1094 134.301 54.8398 134.504 54.4961C134.707 54.1445 134.855 53.7383 134.949 53.2773C135.051 52.8164 135.102 52.3203 135.102 51.7891V51.543C135.102 51.0273 135.051 50.543 134.949 50.0898C134.855 49.6289 134.703 49.2227 134.492 48.8711C134.289 48.5117 134.02 48.2305 133.684 48.0273C133.348 47.8242 132.941 47.7227 132.465 47.7227C131.988 47.7227 131.582 47.8242 131.246 48.0273C130.918 48.2305 130.648 48.5117 130.438 48.8711C130.234 49.2227 130.086 49.6289 129.992 50.0898C129.898 50.543 129.852 51.0273 129.852 51.543ZM140.023 51.7891V51.543C140.023 50.6133 140.156 49.7578 140.422 48.9766C140.688 48.1875 141.074 47.5039 141.582 46.9258C142.09 46.3477 142.715 45.8984 143.457 45.5781C144.199 45.25 145.051 45.0859 146.012 45.0859C146.973 45.0859 147.828 45.25 148.578 45.5781C149.328 45.8984 149.957 46.3477 150.465 46.9258C150.98 47.5039 151.371 48.1875 151.637 48.9766C151.902 49.7578 152.035 50.6133 152.035 51.543V51.7891C152.035 52.7109 151.902 53.5664 151.637 54.3555C151.371 55.1367 150.98 55.8203 150.465 56.4062C149.957 56.9844 149.332 57.4336 148.59 57.7539C147.848 58.0742 146.996 58.2344 146.035 58.2344C145.074 58.2344 144.219 58.0742 143.469 57.7539C142.727 57.4336 142.098 56.9844 141.582 56.4062C141.074 55.8203 140.688 55.1367 140.422 54.3555C140.156 53.5664 140.023 52.7109 140.023 51.7891ZM143.398 51.543V51.7891C143.398 52.3203 143.445 52.8164 143.539 53.2773C143.633 53.7383 143.781 54.1445 143.984 54.4961C144.195 54.8398 144.469 55.1094 144.805 55.3047C145.141 55.5 145.551 55.5977 146.035 55.5977C146.504 55.5977 146.906 55.5 147.242 55.3047C147.578 55.1094 147.848 54.8398 148.051 54.4961C148.254 54.1445 148.402 53.7383 148.496 53.2773C148.598 52.8164 148.648 52.3203 148.648 51.7891V51.543C148.648 51.0273 148.598 50.543 148.496 50.0898C148.402 49.6289 148.25 49.2227 148.039 48.8711C147.836 48.5117 147.566 48.2305 147.23 48.0273C146.895 47.8242 146.488 47.7227 146.012 47.7227C145.535 47.7227 145.129 47.8242 144.793 48.0273C144.465 48.2305 144.195 48.5117 143.984 48.8711C143.781 49.2227 143.633 49.6289 143.539 50.0898C143.445 50.543 143.398 51.0273 143.398 51.543ZM157.484 39.9883V58H154.109V39.9883H157.484ZM165.477 45.3203L159.969 51.6016L157.016 54.5898L155.785 52.1523L158.129 49.1758L161.422 45.3203H165.477ZM161.973 58L158.223 52.1406L160.555 50.1016L165.863 58H161.973ZM170.305 47.9453V58H166.918V45.3203H170.094L170.305 47.9453ZM169.836 51.2148H168.898C168.898 50.332 169.004 49.5195 169.215 48.7773C169.434 48.0273 169.75 47.3789 170.164 46.832C170.586 46.2773 171.105 45.8477 171.723 45.543C172.34 45.2383 173.055 45.0859 173.867 45.0859C174.43 45.0859 174.945 45.1719 175.414 45.3438C175.883 45.5078 176.285 45.7695 176.621 46.1289C176.965 46.4805 177.23 46.9414 177.418 47.5117C177.605 48.0742 177.699 48.75 177.699 49.5391V58H174.324V49.9141C174.324 49.3359 174.246 48.8906 174.09 48.5781C173.934 48.2656 173.711 48.0469 173.422 47.9219C173.141 47.7969 172.801 47.7344 172.402 47.7344C171.965 47.7344 171.582 47.8242 171.254 48.0039C170.934 48.1836 170.668 48.4336 170.457 48.7539C170.246 49.0664 170.09 49.4336 169.988 49.8555C169.887 50.2773 169.836 50.7305 169.836 51.2148ZM177.383 50.8281L176.176 50.9805C176.176 50.1523 176.277 49.3828 176.48 48.6719C176.691 47.9609 177 47.3359 177.406 46.7969C177.82 46.2578 178.332 45.8398 178.941 45.543C179.551 45.2383 180.254 45.0859 181.051 45.0859C181.66 45.0859 182.215 45.1758 182.715 45.3555C183.215 45.5273 183.641 45.8047 183.992 46.1875C184.352 46.5625 184.625 47.0547 184.812 47.6641C185.008 48.2734 185.105 49.0195 185.105 49.9023V58H181.719V49.9023C181.719 49.3164 181.641 48.8711 181.484 48.5664C181.336 48.2539 181.117 48.0391 180.828 47.9219C180.547 47.7969 180.211 47.7344 179.82 47.7344C179.414 47.7344 179.059 47.8164 178.754 47.9805C178.449 48.1367 178.195 48.3555 177.992 48.6367C177.789 48.918 177.637 49.2461 177.535 49.6211C177.434 49.9883 177.383 50.3906 177.383 50.8281ZM194.562 55.1406V49.4922C194.562 49.0859 194.496 48.7383 194.363 48.4492C194.23 48.1523 194.023 47.9219 193.742 47.7578C193.469 47.5938 193.113 47.5117 192.676 47.5117C192.301 47.5117 191.977 47.5781 191.703 47.7109C191.43 47.8359 191.219 48.0195 191.07 48.2617C190.922 48.4961 190.848 48.7734 190.848 49.0938H187.473C187.473 48.5547 187.598 48.043 187.848 47.5586C188.098 47.0742 188.461 46.6484 188.938 46.2812C189.414 45.9062 189.98 45.6133 190.637 45.4023C191.301 45.1914 192.043 45.0859 192.863 45.0859C193.848 45.0859 194.723 45.25 195.488 45.5781C196.254 45.9062 196.855 46.3984 197.293 47.0547C197.738 47.7109 197.961 48.5312 197.961 49.5156V54.9414C197.961 55.6367 198.004 56.207 198.09 56.6523C198.176 57.0898 198.301 57.4727 198.465 57.8008V58H195.055C194.891 57.6562 194.766 57.2266 194.68 56.7109C194.602 56.1875 194.562 55.6641 194.562 55.1406ZM195.008 50.2773L195.031 52.1875H193.145C192.699 52.1875 192.312 52.2383 191.984 52.3398C191.656 52.4414 191.387 52.5859 191.176 52.7734C190.965 52.9531 190.809 53.1641 190.707 53.4062C190.613 53.6484 190.566 53.9141 190.566 54.2031C190.566 54.4922 190.633 54.7539 190.766 54.9883C190.898 55.2148 191.09 55.3945 191.34 55.5273C191.59 55.6523 191.883 55.7148 192.219 55.7148C192.727 55.7148 193.168 55.6133 193.543 55.4102C193.918 55.207 194.207 54.957 194.41 54.6602C194.621 54.3633 194.73 54.082 194.738 53.8164L195.629 55.2461C195.504 55.5664 195.332 55.8984 195.113 56.2422C194.902 56.5859 194.633 56.9102 194.305 57.2148C193.977 57.5117 193.582 57.7578 193.121 57.9531C192.66 58.1406 192.113 58.2344 191.48 58.2344C190.676 58.2344 189.945 58.0742 189.289 57.7539C188.641 57.4258 188.125 56.9766 187.742 56.4062C187.367 55.8281 187.18 55.1719 187.18 54.4375C187.18 53.7734 187.305 53.1836 187.555 52.668C187.805 52.1523 188.172 51.7188 188.656 51.3672C189.148 51.0078 189.762 50.7383 190.496 50.5586C191.23 50.3711 192.082 50.2773 193.051 50.2773H195.008ZM206.773 45.3203V47.7109H199.391V45.3203H206.773ZM201.219 42.1914H204.594V54.1797C204.594 54.5469 204.641 54.8281 204.734 55.0234C204.836 55.2188 204.984 55.3555 205.18 55.4336C205.375 55.5039 205.621 55.5391 205.918 55.5391C206.129 55.5391 206.316 55.5312 206.48 55.5156C206.652 55.4922 206.797 55.4688 206.914 55.4453L206.926 57.9297C206.637 58.0234 206.324 58.0977 205.988 58.1523C205.652 58.207 205.281 58.2344 204.875 58.2344C204.133 58.2344 203.484 58.1133 202.93 57.8711C202.383 57.6211 201.961 57.2227 201.664 56.6758C201.367 56.1289 201.219 55.4102 201.219 54.5195V42.1914ZM214.531 58.2344C213.547 58.2344 212.664 58.0781 211.883 57.7656C211.102 57.4453 210.438 57.0039 209.891 56.4414C209.352 55.8789 208.938 55.2266 208.648 54.4844C208.359 53.7344 208.215 52.9375 208.215 52.0938V51.625C208.215 50.6641 208.352 49.7852 208.625 48.9883C208.898 48.1914 209.289 47.5 209.797 46.9141C210.312 46.3281 210.938 45.8789 211.672 45.5664C212.406 45.2461 213.234 45.0859 214.156 45.0859C215.055 45.0859 215.852 45.2344 216.547 45.5312C217.242 45.8281 217.824 46.25 218.293 46.7969C218.77 47.3438 219.129 48 219.371 48.7656C219.613 49.5234 219.734 50.3672 219.734 51.2969V52.7031H209.656V50.4531H216.418V50.1953C216.418 49.7266 216.332 49.3086 216.16 48.9414C215.996 48.5664 215.746 48.2695 215.41 48.0508C215.074 47.832 214.645 47.7227 214.121 47.7227C213.676 47.7227 213.293 47.8203 212.973 48.0156C212.652 48.2109 212.391 48.4844 212.188 48.8359C211.992 49.1875 211.844 49.6016 211.742 50.0781C211.648 50.5469 211.602 51.0625 211.602 51.625V52.0938C211.602 52.6016 211.672 53.0703 211.812 53.5C211.961 53.9297 212.168 54.3008 212.434 54.6133C212.707 54.9258 213.035 55.168 213.418 55.3398C213.809 55.5117 214.25 55.5977 214.742 55.5977C215.352 55.5977 215.918 55.4805 216.441 55.2461C216.973 55.0039 217.43 54.6406 217.812 54.1562L219.453 55.9375C219.188 56.3203 218.824 56.6875 218.363 57.0391C217.91 57.3906 217.363 57.6797 216.723 57.9062C216.082 58.125 215.352 58.2344 214.531 58.2344ZM228.512 54.4961C228.512 54.2539 228.441 54.0352 228.301 53.8398C228.16 53.6445 227.898 53.4648 227.516 53.3008C227.141 53.1289 226.598 52.9727 225.887 52.832C225.246 52.6914 224.648 52.5156 224.094 52.3047C223.547 52.0859 223.07 51.8242 222.664 51.5195C222.266 51.2148 221.953 50.8555 221.727 50.4414C221.5 50.0195 221.387 49.5391 221.387 49C221.387 48.4688 221.5 47.9688 221.727 47.5C221.961 47.0312 222.293 46.6172 222.723 46.2578C223.16 45.8906 223.691 45.6055 224.316 45.4023C224.949 45.1914 225.66 45.0859 226.449 45.0859C227.551 45.0859 228.496 45.2617 229.285 45.6133C230.082 45.9648 230.691 46.4492 231.113 47.0664C231.543 47.6758 231.758 48.3711 231.758 49.1523H228.383C228.383 48.8242 228.312 48.5312 228.172 48.2734C228.039 48.0078 227.828 47.8008 227.539 47.6523C227.258 47.4961 226.891 47.418 226.438 47.418C226.062 47.418 225.738 47.4844 225.465 47.6172C225.191 47.7422 224.98 47.9141 224.832 48.1328C224.691 48.3438 224.621 48.5781 224.621 48.8359C224.621 49.0312 224.66 49.207 224.738 49.3633C224.824 49.5117 224.961 49.6484 225.148 49.7734C225.336 49.8984 225.578 50.0156 225.875 50.125C226.18 50.2266 226.555 50.3203 227 50.4062C227.914 50.5938 228.73 50.8398 229.449 51.1445C230.168 51.4414 230.738 51.8477 231.16 52.3633C231.582 52.8711 231.793 53.5391 231.793 54.3672C231.793 54.9297 231.668 55.4453 231.418 55.9141C231.168 56.3828 230.809 56.793 230.34 57.1445C229.871 57.4883 229.309 57.7578 228.652 57.9531C228.004 58.1406 227.273 58.2344 226.461 58.2344C225.281 58.2344 224.281 58.0234 223.461 57.6016C222.648 57.1797 222.031 56.6445 221.609 55.9961C221.195 55.3398 220.988 54.668 220.988 53.9805H224.188C224.203 54.4414 224.32 54.8125 224.539 55.0938C224.766 55.375 225.051 55.5781 225.395 55.7031C225.746 55.8281 226.125 55.8906 226.531 55.8906C226.969 55.8906 227.332 55.832 227.621 55.7148C227.91 55.5898 228.129 55.4258 228.277 55.2227C228.434 55.0117 228.512 54.7695 228.512 54.4961Z" fill="#888888"/>
<path d="M109.93 86.0078V118H102.217V86.0078H109.93ZM119.554 86.0078V91.9624H92.813V86.0078H119.554ZM132.012 118.439C130.079 118.439 128.35 118.139 126.827 117.539C125.303 116.923 124.014 116.081 122.959 115.012C121.919 113.942 121.121 112.712 120.564 111.32C120.022 109.929 119.751 108.457 119.751 106.904V106.069C119.751 104.326 119.993 102.714 120.477 101.235C120.96 99.7407 121.678 98.437 122.63 97.3237C123.582 96.2104 124.776 95.3462 126.211 94.731C127.647 94.1011 129.317 93.7861 131.221 93.7861C132.906 93.7861 134.415 94.0571 135.748 94.5991C137.081 95.1411 138.208 95.9175 139.131 96.9282C140.069 97.939 140.779 99.1621 141.263 100.598C141.761 102.033 142.01 103.645 142.01 105.432V108.442H122.586V103.806H134.781V103.234C134.795 102.443 134.656 101.77 134.363 101.213C134.085 100.656 133.675 100.231 133.133 99.9385C132.591 99.6455 131.932 99.499 131.155 99.499C130.35 99.499 129.683 99.6748 129.156 100.026C128.643 100.378 128.24 100.861 127.947 101.477C127.669 102.077 127.471 102.773 127.354 103.564C127.237 104.355 127.178 105.19 127.178 106.069V106.904C127.178 107.783 127.295 108.581 127.53 109.299C127.779 110.017 128.13 110.632 128.584 111.145C129.053 111.643 129.61 112.031 130.254 112.309C130.914 112.587 131.661 112.727 132.496 112.727C133.506 112.727 134.502 112.536 135.484 112.155C136.465 111.774 137.308 111.145 138.011 110.266L141.373 114.265C140.889 114.953 140.201 115.62 139.307 116.264C138.428 116.909 137.374 117.436 136.143 117.846C134.913 118.242 133.536 118.439 132.012 118.439ZM155.062 112.727C155.75 112.727 156.336 112.602 156.819 112.353C157.317 112.089 157.691 111.723 157.94 111.254C158.204 110.771 158.328 110.192 158.313 109.519H165.279C165.293 111.306 164.854 112.873 163.96 114.221C163.082 115.554 161.88 116.594 160.357 117.341C158.848 118.073 157.142 118.439 155.237 118.439C153.377 118.439 151.751 118.139 150.359 117.539C148.968 116.923 147.803 116.074 146.866 114.99C145.943 113.891 145.247 112.609 144.778 111.145C144.324 109.68 144.097 108.09 144.097 106.376V105.871C144.097 104.157 144.324 102.568 144.778 101.103C145.247 99.6235 145.943 98.3418 146.866 97.2578C147.803 96.1592 148.96 95.3096 150.337 94.709C151.729 94.0938 153.348 93.7861 155.193 93.7861C157.171 93.7861 158.914 94.1597 160.423 94.9067C161.946 95.6538 163.14 96.7378 164.004 98.1587C164.869 99.5796 165.293 101.301 165.279 103.322H158.313C158.328 102.604 158.218 101.96 157.984 101.389C157.75 100.817 157.383 100.363 156.885 100.026C156.402 99.6748 155.779 99.499 155.018 99.499C154.256 99.499 153.641 99.6675 153.172 100.004C152.703 100.341 152.344 100.81 152.095 101.411C151.861 101.997 151.7 102.67 151.612 103.432C151.539 104.194 151.502 105.007 151.502 105.871V106.376C151.502 107.255 151.539 108.083 151.612 108.859C151.7 109.621 151.868 110.295 152.117 110.881C152.366 111.452 152.725 111.906 153.194 112.243C153.663 112.565 154.285 112.727 155.062 112.727ZM175.694 84.25V118H168.289V84.25H175.694ZM174.815 105.3L173.079 105.344C173.079 103.674 173.284 102.136 173.694 100.729C174.104 99.3232 174.69 98.1001 175.452 97.0601C176.214 96.02 177.129 95.2144 178.199 94.6431C179.268 94.0718 180.455 93.7861 181.758 93.7861C182.93 93.7861 184 93.9546 184.966 94.2915C185.948 94.6284 186.79 95.1704 187.493 95.9175C188.211 96.6646 188.76 97.6387 189.141 98.8398C189.537 100.041 189.734 101.506 189.734 103.234V118H182.286V103.19C182.286 102.224 182.146 101.477 181.868 100.949C181.604 100.407 181.224 100.034 180.726 99.8286C180.228 99.6089 179.62 99.499 178.902 99.499C178.038 99.499 177.334 99.6455 176.792 99.9385C176.25 100.231 175.833 100.642 175.54 101.169C175.262 101.682 175.071 102.29 174.969 102.993C174.866 103.696 174.815 104.465 174.815 105.3ZM221.88 109.497C221.88 108.999 221.807 108.552 221.661 108.156C221.514 107.746 221.243 107.365 220.848 107.014C220.452 106.662 219.881 106.311 219.134 105.959C218.401 105.593 217.435 105.212 216.233 104.816C214.827 104.348 213.472 103.82 212.168 103.234C210.865 102.634 209.7 101.938 208.675 101.147C207.649 100.341 206.836 99.4038 206.236 98.3345C205.635 97.2505 205.335 95.9907 205.335 94.5552C205.335 93.1782 205.643 91.9404 206.258 90.8418C206.873 89.7285 207.73 88.7837 208.829 88.0073C209.942 87.2163 211.246 86.6157 212.74 86.2056C214.234 85.7808 215.867 85.5684 217.64 85.5684C219.983 85.5684 222.049 85.9785 223.836 86.7988C225.638 87.6045 227.044 88.7544 228.055 90.2485C229.08 91.728 229.593 93.4785 229.593 95.5H221.924C221.924 94.6943 221.756 93.9839 221.419 93.3687C221.097 92.7534 220.606 92.27 219.947 91.9185C219.288 91.5669 218.46 91.3911 217.464 91.3911C216.497 91.3911 215.684 91.5376 215.025 91.8306C214.366 92.1235 213.868 92.519 213.531 93.0171C213.194 93.5005 213.025 94.0352 213.025 94.6211C213.025 95.1045 213.157 95.5439 213.421 95.9395C213.699 96.3203 214.087 96.6792 214.585 97.0161C215.098 97.353 215.713 97.6753 216.431 97.9829C217.164 98.2905 217.984 98.5908 218.892 98.8838C220.591 99.4258 222.1 100.034 223.418 100.708C224.751 101.367 225.872 102.121 226.78 102.971C227.703 103.806 228.399 104.758 228.868 105.827C229.351 106.896 229.593 108.105 229.593 109.453C229.593 110.888 229.314 112.163 228.758 113.276C228.201 114.389 227.403 115.334 226.363 116.11C225.323 116.872 224.078 117.451 222.627 117.846C221.177 118.242 219.559 118.439 217.771 118.439C216.131 118.439 214.512 118.234 212.916 117.824C211.333 117.399 209.898 116.755 208.609 115.891C207.32 115.012 206.287 113.891 205.511 112.529C204.749 111.152 204.368 109.519 204.368 107.629H212.103C212.103 108.566 212.227 109.357 212.476 110.002C212.725 110.646 213.091 111.167 213.575 111.562C214.058 111.943 214.651 112.221 215.354 112.397C216.058 112.558 216.863 112.639 217.771 112.639C218.753 112.639 219.544 112.5 220.145 112.221C220.745 111.928 221.185 111.547 221.463 111.079C221.741 110.595 221.88 110.068 221.88 109.497ZM245.743 94.2256V99.3672H231.417V94.2256H245.743ZM234.427 88.3149H241.832V110.244C241.832 110.874 241.905 111.364 242.051 111.716C242.198 112.053 242.447 112.294 242.798 112.441C243.165 112.573 243.648 112.639 244.249 112.639C244.673 112.639 245.025 112.631 245.303 112.617C245.582 112.587 245.845 112.551 246.094 112.507V117.802C245.464 118.007 244.805 118.161 244.117 118.264C243.428 118.381 242.696 118.439 241.919 118.439C240.337 118.439 238.982 118.19 237.854 117.692C236.741 117.194 235.892 116.411 235.306 115.341C234.72 114.272 234.427 112.88 234.427 111.167V88.3149ZM261.036 112.023V102.224C261.036 101.55 260.94 100.971 260.75 100.488C260.56 100.004 260.259 99.6309 259.849 99.3672C259.439 99.0889 258.89 98.9497 258.201 98.9497C257.645 98.9497 257.168 99.0449 256.773 99.2354C256.377 99.4258 256.077 99.7114 255.872 100.092C255.667 100.473 255.564 100.957 255.564 101.542H248.16C248.16 100.444 248.401 99.4258 248.885 98.4883C249.383 97.5361 250.086 96.7085 250.994 96.0054C251.917 95.3022 253.016 94.7603 254.29 94.3794C255.579 93.9839 257.015 93.7861 258.597 93.7861C260.486 93.7861 262.171 94.1011 263.65 94.731C265.145 95.3608 266.324 96.3057 267.188 97.5654C268.052 98.8105 268.484 100.378 268.484 102.268V112.001C268.484 113.554 268.572 114.733 268.748 115.539C268.924 116.33 269.173 117.026 269.495 117.626V118H262.068C261.717 117.268 261.453 116.374 261.277 115.319C261.116 114.25 261.036 113.151 261.036 112.023ZM261.937 103.476L261.98 107.431H258.707C258.018 107.431 257.432 107.526 256.949 107.717C256.48 107.907 256.099 108.171 255.806 108.508C255.528 108.83 255.323 109.196 255.191 109.606C255.074 110.017 255.015 110.449 255.015 110.903C255.015 111.342 255.118 111.738 255.323 112.089C255.542 112.426 255.835 112.69 256.202 112.88C256.568 113.071 256.978 113.166 257.432 113.166C258.252 113.166 258.948 113.012 259.52 112.705C260.105 112.382 260.552 111.994 260.86 111.54C261.167 111.086 261.321 110.661 261.321 110.266L262.947 113.298C262.654 113.884 262.317 114.477 261.937 115.078C261.57 115.678 261.109 116.235 260.552 116.748C260.01 117.246 259.344 117.656 258.553 117.978C257.762 118.286 256.802 118.439 255.674 118.439C254.209 118.439 252.862 118.139 251.631 117.539C250.416 116.938 249.441 116.103 248.709 115.034C247.977 113.95 247.61 112.705 247.61 111.298C247.61 110.068 247.83 108.969 248.27 108.002C248.724 107.036 249.405 106.215 250.313 105.542C251.221 104.868 252.378 104.355 253.785 104.003C255.191 103.652 256.846 103.476 258.75 103.476H261.937ZM282.635 112.727C283.323 112.727 283.909 112.602 284.393 112.353C284.891 112.089 285.264 111.723 285.513 111.254C285.777 110.771 285.901 110.192 285.887 109.519H292.852C292.867 111.306 292.427 112.873 291.534 114.221C290.655 115.554 289.454 116.594 287.93 117.341C286.421 118.073 284.715 118.439 282.811 118.439C280.95 118.439 279.324 118.139 277.933 117.539C276.541 116.923 275.376 116.074 274.439 114.99C273.516 113.891 272.82 112.609 272.352 111.145C271.897 109.68 271.67 108.09 271.67 106.376V105.871C271.67 104.157 271.897 102.568 272.352 101.103C272.82 99.6235 273.516 98.3418 274.439 97.2578C275.376 96.1592 276.534 95.3096 277.911 94.709C279.302 94.0938 280.921 93.7861 282.767 93.7861C284.744 93.7861 286.487 94.1597 287.996 94.9067C289.52 95.6538 290.713 96.7378 291.578 98.1587C292.442 99.5796 292.867 101.301 292.852 103.322H285.887C285.901 102.604 285.792 101.96 285.557 101.389C285.323 100.817 284.957 100.363 284.458 100.026C283.975 99.6748 283.353 99.499 282.591 99.499C281.829 99.499 281.214 99.6675 280.745 100.004C280.276 100.341 279.917 100.81 279.668 101.411C279.434 101.997 279.273 102.67 279.185 103.432C279.112 104.194 279.075 105.007 279.075 105.871V106.376C279.075 107.255 279.112 108.083 279.185 108.859C279.273 109.621 279.441 110.295 279.69 110.881C279.939 111.452 280.298 111.906 280.767 112.243C281.236 112.565 281.858 112.727 282.635 112.727ZM303.487 84.228V118H296.082V84.228H303.487ZM318.692 94.2256L308.365 106.333L302.959 111.738L299.729 107.036L304.234 101.169L309.815 94.2256H318.692ZM310.76 118L304.41 107.167L309.881 103.278L319.241 118H310.76Z" fill="#424241"/>
<path d="M1363 15C1363 6.71573 1356.28 0 1348 0H1134V167H1348C1356.28 167 1363 160.284 1363 152V15Z" fill="#6886C5"/>
<path fill-rule="evenodd" clip-rule="evenodd" d="M1218.5 55C1218.37 55 1218.24 55.0527 1218.15 55.1464C1218.05 55.2402 1218 55.3674 1218 55.5V111.5C1218 111.633 1218.05 111.76 1218.15 111.854C1218.24 111.947 1218.37 112 1218.5 112H1278C1278.13 112 1278.26 111.947 1278.35 111.854C1278.45 111.76 1278.5 111.633 1278.5 111.5V66C1278.5 65.8674 1278.45 65.7402 1278.35 65.6464C1278.26 65.5527 1278.13 65.5 1278 65.5H1248.25C1247.36 65.5 1246.52 65.1045 1245.95 64.4206L1238.09 55H1218.5ZM1213.9 50.9038C1215.12 49.6848 1216.78 49 1218.5 49H1239.5C1240.39 49 1241.23 49.3955 1241.8 50.0794L1249.66 59.5H1278C1279.72 59.5 1281.38 60.1848 1282.6 61.4038C1283.82 62.6228 1284.5 64.2761 1284.5 66V111.5C1284.5 113.224 1283.82 114.877 1282.6 116.096C1281.38 117.315 1279.72 118 1278 118H1218.5C1216.78 118 1215.12 117.315 1213.9 116.096C1212.68 114.877 1212 113.224 1212 111.5V55.5C1212 53.7761 1212.68 52.1228 1213.9 50.9038Z" fill="white"/>
<path fill-rule="evenodd" clip-rule="evenodd" d="M1243.72 77.5251C1245.09 78.892 1245.09 81.108 1243.72 82.4749L1237.45 88.75L1243.72 95.0251C1245.09 96.392 1245.09 98.608 1243.72 99.9749C1242.36 101.342 1240.14 101.342 1238.78 99.9749L1230.03 91.2249C1228.66 89.858 1228.66 87.642 1230.03 86.2751L1238.78 77.5251C1240.14 76.1583 1242.36 76.1583 1243.72 77.5251Z" fill="white"/>
<path fill-rule="evenodd" clip-rule="evenodd" d="M1252.03 99.9749C1250.66 98.608 1250.66 96.392 1252.03 95.0251L1258.3 88.75L1252.03 82.4749C1250.66 81.108 1250.66 78.892 1252.03 77.5251C1253.39 76.1583 1255.61 76.1583 1256.97 77.5251L1265.72 86.2751C1267.09 87.642 1267.09 89.858 1265.72 91.2249L1256.97 99.9749C1255.61 101.342 1253.39 101.342 1252.03 99.9749Z" fill="white"/>
</svg>
