<svg width="1363" height="167" viewBox="0 0 1363 167" fill="none" xmlns="http://www.w3.org/2000/svg">
<rect width="1363" height="167" rx="15" fill="#F0F0F0"/>
<path d="M0 15C0 6.71573 6.71573 0 15 0H37V167H15C6.71573 167 0 160.284 0 152V15Z" fill="#424241"/>
<path d="M100.906 50.9219L93.3945 48.2383V45.0859L103.602 49.375V51.6367L100.906 50.9219ZM93.3945 53.1719L100.918 50.4297L103.602 49.7852V52.0352L93.3945 56.3242V53.1719ZM118.578 50.5117H114.195L114.172 48.0977H117.852C118.5 48.0977 119.031 48.0156 119.445 47.8516C119.859 47.6797 120.168 47.4336 120.371 47.1133C120.582 46.7852 120.688 46.3867 120.688 45.918C120.688 45.3867 120.586 44.957 120.383 44.6289C120.188 44.3008 119.879 44.0625 119.457 43.9141C119.043 43.7656 118.508 43.6914 117.852 43.6914H115.414V58H111.898V40.9375H117.852C118.844 40.9375 119.73 41.0312 120.512 41.2188C121.301 41.4062 121.969 41.6914 122.516 42.0742C123.062 42.457 123.48 42.9414 123.77 43.5273C124.059 44.1055 124.203 44.793 124.203 45.5898C124.203 46.293 124.043 46.9414 123.723 47.5352C123.41 48.1289 122.914 48.6133 122.234 48.9883C121.562 49.3633 120.684 49.5703 119.598 49.6094L118.578 50.5117ZM118.426 58H113.234L114.605 55.2578H118.426C119.043 55.2578 119.547 55.1602 119.938 54.9648C120.328 54.7617 120.617 54.4883 120.805 54.1445C120.992 53.8008 121.086 53.4062 121.086 52.9609C121.086 52.4609 121 52.0273 120.828 51.6602C120.664 51.293 120.398 51.0117 120.031 50.8164C119.664 50.6133 119.18 50.5117 118.578 50.5117H115.191L115.215 48.0977H119.434L120.242 49.0469C121.281 49.0312 122.117 49.2148 122.75 49.5977C123.391 49.9727 123.855 50.4609 124.145 51.0625C124.441 51.6641 124.59 52.3086 124.59 52.9961C124.59 54.0898 124.352 55.0117 123.875 55.7617C123.398 56.5039 122.699 57.0625 121.777 57.4375C120.863 57.8125 119.746 58 118.426 58ZM126.477 51.7891V51.543C126.477 50.6133 126.609 49.7578 126.875 48.9766C127.141 48.1875 127.527 47.5039 128.035 46.9258C128.543 46.3477 129.168 45.8984 129.91 45.5781C130.652 45.25 131.504 45.0859 132.465 45.0859C133.426 45.0859 134.281 45.25 135.031 45.5781C135.781 45.8984 136.41 46.3477 136.918 46.9258C137.434 47.5039 137.824 48.1875 138.09 48.9766C138.355 49.7578 138.488 50.6133 138.488 51.543V51.7891C138.488 52.7109 138.355 53.5664 138.09 54.3555C137.824 55.1367 137.434 55.8203 136.918 56.4062C136.41 56.9844 135.785 57.4336 135.043 57.7539C134.301 58.0742 133.449 58.2344 132.488 58.2344C131.527 58.2344 130.672 58.0742 129.922 57.7539C129.18 57.4336 128.551 56.9844 128.035 56.4062C127.527 55.8203 127.141 55.1367 126.875 54.3555C126.609 53.5664 126.477 52.7109 126.477 51.7891ZM129.852 51.543V51.7891C129.852 52.3203 129.898 52.8164 129.992 53.2773C130.086 53.7383 130.234 54.1445 130.438 54.4961C130.648 54.8398 130.922 55.1094 131.258 55.3047C131.594 55.5 132.004 55.5977 132.488 55.5977C132.957 55.5977 133.359 55.5 133.695 55.3047C134.031 55.1094 134.301 54.8398 134.504 54.4961C134.707 54.1445 134.855 53.7383 134.949 53.2773C135.051 52.8164 135.102 52.3203 135.102 51.7891V51.543C135.102 51.0273 135.051 50.543 134.949 50.0898C134.855 49.6289 134.703 49.2227 134.492 48.8711C134.289 48.5117 134.02 48.2305 133.684 48.0273C133.348 47.8242 132.941 47.7227 132.465 47.7227C131.988 47.7227 131.582 47.8242 131.246 48.0273C130.918 48.2305 130.648 48.5117 130.438 48.8711C130.234 49.2227 130.086 49.6289 129.992 50.0898C129.898 50.543 129.852 51.0273 129.852 51.543ZM140.023 51.7891V51.543C140.023 50.6133 140.156 49.7578 140.422 48.9766C140.688 48.1875 141.074 47.5039 141.582 46.9258C142.09 46.3477 142.715 45.8984 143.457 45.5781C144.199 45.25 145.051 45.0859 146.012 45.0859C146.973 45.0859 147.828 45.25 148.578 45.5781C149.328 45.8984 149.957 46.3477 150.465 46.9258C150.98 47.5039 151.371 48.1875 151.637 48.9766C151.902 49.7578 152.035 50.6133 152.035 51.543V51.7891C152.035 52.7109 151.902 53.5664 151.637 54.3555C151.371 55.1367 150.98 55.8203 150.465 56.4062C149.957 56.9844 149.332 57.4336 148.59 57.7539C147.848 58.0742 146.996 58.2344 146.035 58.2344C145.074 58.2344 144.219 58.0742 143.469 57.7539C142.727 57.4336 142.098 56.9844 141.582 56.4062C141.074 55.8203 140.688 55.1367 140.422 54.3555C140.156 53.5664 140.023 52.7109 140.023 51.7891ZM143.398 51.543V51.7891C143.398 52.3203 143.445 52.8164 143.539 53.2773C143.633 53.7383 143.781 54.1445 143.984 54.4961C144.195 54.8398 144.469 55.1094 144.805 55.3047C145.141 55.5 145.551 55.5977 146.035 55.5977C146.504 55.5977 146.906 55.5 147.242 55.3047C147.578 55.1094 147.848 54.8398 148.051 54.4961C148.254 54.1445 148.402 53.7383 148.496 53.2773C148.598 52.8164 148.648 52.3203 148.648 51.7891V51.543C148.648 51.0273 148.598 50.543 148.496 50.0898C148.402 49.6289 148.25 49.2227 148.039 48.8711C147.836 48.5117 147.566 48.2305 147.23 48.0273C146.895 47.8242 146.488 47.7227 146.012 47.7227C145.535 47.7227 145.129 47.8242 144.793 48.0273C144.465 48.2305 144.195 48.5117 143.984 48.8711C143.781 49.2227 143.633 49.6289 143.539 50.0898C143.445 50.543 143.398 51.0273 143.398 51.543ZM157.484 39.9883V58H154.109V39.9883H157.484ZM165.477 45.3203L159.969 51.6016L157.016 54.5898L155.785 52.1523L158.129 49.1758L161.422 45.3203H165.477ZM161.973 58L158.223 52.1406L160.555 50.1016L165.863 58H161.973ZM170.305 47.9453V58H166.918V45.3203H170.094L170.305 47.9453ZM169.836 51.2148H168.898C168.898 50.332 169.004 49.5195 169.215 48.7773C169.434 48.0273 169.75 47.3789 170.164 46.832C170.586 46.2773 171.105 45.8477 171.723 45.543C172.34 45.2383 173.055 45.0859 173.867 45.0859C174.43 45.0859 174.945 45.1719 175.414 45.3438C175.883 45.5078 176.285 45.7695 176.621 46.1289C176.965 46.4805 177.23 46.9414 177.418 47.5117C177.605 48.0742 177.699 48.75 177.699 49.5391V58H174.324V49.9141C174.324 49.3359 174.246 48.8906 174.09 48.5781C173.934 48.2656 173.711 48.0469 173.422 47.9219C173.141 47.7969 172.801 47.7344 172.402 47.7344C171.965 47.7344 171.582 47.8242 171.254 48.0039C170.934 48.1836 170.668 48.4336 170.457 48.7539C170.246 49.0664 170.09 49.4336 169.988 49.8555C169.887 50.2773 169.836 50.7305 169.836 51.2148ZM177.383 50.8281L176.176 50.9805C176.176 50.1523 176.277 49.3828 176.48 48.6719C176.691 47.9609 177 47.3359 177.406 46.7969C177.82 46.2578 178.332 45.8398 178.941 45.543C179.551 45.2383 180.254 45.0859 181.051 45.0859C181.66 45.0859 182.215 45.1758 182.715 45.3555C183.215 45.5273 183.641 45.8047 183.992 46.1875C184.352 46.5625 184.625 47.0547 184.812 47.6641C185.008 48.2734 185.105 49.0195 185.105 49.9023V58H181.719V49.9023C181.719 49.3164 181.641 48.8711 181.484 48.5664C181.336 48.2539 181.117 48.0391 180.828 47.9219C180.547 47.7969 180.211 47.7344 179.82 47.7344C179.414 47.7344 179.059 47.8164 178.754 47.9805C178.449 48.1367 178.195 48.3555 177.992 48.6367C177.789 48.918 177.637 49.2461 177.535 49.6211C177.434 49.9883 177.383 50.3906 177.383 50.8281ZM194.562 55.1406V49.4922C194.562 49.0859 194.496 48.7383 194.363 48.4492C194.23 48.1523 194.023 47.9219 193.742 47.7578C193.469 47.5938 193.113 47.5117 192.676 47.5117C192.301 47.5117 191.977 47.5781 191.703 47.7109C191.43 47.8359 191.219 48.0195 191.07 48.2617C190.922 48.4961 190.848 48.7734 190.848 49.0938H187.473C187.473 48.5547 187.598 48.043 187.848 47.5586C188.098 47.0742 188.461 46.6484 188.938 46.2812C189.414 45.9062 189.98 45.6133 190.637 45.4023C191.301 45.1914 192.043 45.0859 192.863 45.0859C193.848 45.0859 194.723 45.25 195.488 45.5781C196.254 45.9062 196.855 46.3984 197.293 47.0547C197.738 47.7109 197.961 48.5312 197.961 49.5156V54.9414C197.961 55.6367 198.004 56.207 198.09 56.6523C198.176 57.0898 198.301 57.4727 198.465 57.8008V58H195.055C194.891 57.6562 194.766 57.2266 194.68 56.7109C194.602 56.1875 194.562 55.6641 194.562 55.1406ZM195.008 50.2773L195.031 52.1875H193.145C192.699 52.1875 192.312 52.2383 191.984 52.3398C191.656 52.4414 191.387 52.5859 191.176 52.7734C190.965 52.9531 190.809 53.1641 190.707 53.4062C190.613 53.6484 190.566 53.9141 190.566 54.2031C190.566 54.4922 190.633 54.7539 190.766 54.9883C190.898 55.2148 191.09 55.3945 191.34 55.5273C191.59 55.6523 191.883 55.7148 192.219 55.7148C192.727 55.7148 193.168 55.6133 193.543 55.4102C193.918 55.207 194.207 54.957 194.41 54.6602C194.621 54.3633 194.73 54.082 194.738 53.8164L195.629 55.2461C195.504 55.5664 195.332 55.8984 195.113 56.2422C194.902 56.5859 194.633 56.9102 194.305 57.2148C193.977 57.5117 193.582 57.7578 193.121 57.9531C192.66 58.1406 192.113 58.2344 191.48 58.2344C190.676 58.2344 189.945 58.0742 189.289 57.7539C188.641 57.4258 188.125 56.9766 187.742 56.4062C187.367 55.8281 187.18 55.1719 187.18 54.4375C187.18 53.7734 187.305 53.1836 187.555 52.668C187.805 52.1523 188.172 51.7188 188.656 51.3672C189.148 51.0078 189.762 50.7383 190.496 50.5586C191.23 50.3711 192.082 50.2773 193.051 50.2773H195.008ZM206.773 45.3203V47.7109H199.391V45.3203H206.773ZM201.219 42.1914H204.594V54.1797C204.594 54.5469 204.641 54.8281 204.734 55.0234C204.836 55.2188 204.984 55.3555 205.18 55.4336C205.375 55.5039 205.621 55.5391 205.918 55.5391C206.129 55.5391 206.316 55.5312 206.48 55.5156C206.652 55.4922 206.797 55.4688 206.914 55.4453L206.926 57.9297C206.637 58.0234 206.324 58.0977 205.988 58.1523C205.652 58.207 205.281 58.2344 204.875 58.2344C204.133 58.2344 203.484 58.1133 202.93 57.8711C202.383 57.6211 201.961 57.2227 201.664 56.6758C201.367 56.1289 201.219 55.4102 201.219 54.5195V42.1914ZM214.531 58.2344C213.547 58.2344 212.664 58.0781 211.883 57.7656C211.102 57.4453 210.438 57.0039 209.891 56.4414C209.352 55.8789 208.938 55.2266 208.648 54.4844C208.359 53.7344 208.215 52.9375 208.215 52.0938V51.625C208.215 50.6641 208.352 49.7852 208.625 48.9883C208.898 48.1914 209.289 47.5 209.797 46.9141C210.312 46.3281 210.938 45.8789 211.672 45.5664C212.406 45.2461 213.234 45.0859 214.156 45.0859C215.055 45.0859 215.852 45.2344 216.547 45.5312C217.242 45.8281 217.824 46.25 218.293 46.7969C218.77 47.3438 219.129 48 219.371 48.7656C219.613 49.5234 219.734 50.3672 219.734 51.2969V52.7031H209.656V50.4531H216.418V50.1953C216.418 49.7266 216.332 49.3086 216.16 48.9414C215.996 48.5664 215.746 48.2695 215.41 48.0508C215.074 47.832 214.645 47.7227 214.121 47.7227C213.676 47.7227 213.293 47.8203 212.973 48.0156C212.652 48.2109 212.391 48.4844 212.188 48.8359C211.992 49.1875 211.844 49.6016 211.742 50.0781C211.648 50.5469 211.602 51.0625 211.602 51.625V52.0938C211.602 52.6016 211.672 53.0703 211.812 53.5C211.961 53.9297 212.168 54.3008 212.434 54.6133C212.707 54.9258 213.035 55.168 213.418 55.3398C213.809 55.5117 214.25 55.5977 214.742 55.5977C215.352 55.5977 215.918 55.4805 216.441 55.2461C216.973 55.0039 217.43 54.6406 217.812 54.1562L219.453 55.9375C219.188 56.3203 218.824 56.6875 218.363 57.0391C217.91 57.3906 217.363 57.6797 216.723 57.9062C216.082 58.125 215.352 58.2344 214.531 58.2344ZM228.512 54.4961C228.512 54.2539 228.441 54.0352 228.301 53.8398C228.16 53.6445 227.898 53.4648 227.516 53.3008C227.141 53.1289 226.598 52.9727 225.887 52.832C225.246 52.6914 224.648 52.5156 224.094 52.3047C223.547 52.0859 223.07 51.8242 222.664 51.5195C222.266 51.2148 221.953 50.8555 221.727 50.4414C221.5 50.0195 221.387 49.5391 221.387 49C221.387 48.4688 221.5 47.9688 221.727 47.5C221.961 47.0312 222.293 46.6172 222.723 46.2578C223.16 45.8906 223.691 45.6055 224.316 45.4023C224.949 45.1914 225.66 45.0859 226.449 45.0859C227.551 45.0859 228.496 45.2617 229.285 45.6133C230.082 45.9648 230.691 46.4492 231.113 47.0664C231.543 47.6758 231.758 48.3711 231.758 49.1523H228.383C228.383 48.8242 228.312 48.5312 228.172 48.2734C228.039 48.0078 227.828 47.8008 227.539 47.6523C227.258 47.4961 226.891 47.418 226.438 47.418C226.062 47.418 225.738 47.4844 225.465 47.6172C225.191 47.7422 224.98 47.9141 224.832 48.1328C224.691 48.3438 224.621 48.5781 224.621 48.8359C224.621 49.0312 224.66 49.207 224.738 49.3633C224.824 49.5117 224.961 49.6484 225.148 49.7734C225.336 49.8984 225.578 50.0156 225.875 50.125C226.18 50.2266 226.555 50.3203 227 50.4062C227.914 50.5938 228.73 50.8398 229.449 51.1445C230.168 51.4414 230.738 51.8477 231.16 52.3633C231.582 52.8711 231.793 53.5391 231.793 54.3672C231.793 54.9297 231.668 55.4453 231.418 55.9141C231.168 56.3828 230.809 56.793 230.34 57.1445C229.871 57.4883 229.309 57.7578 228.652 57.9531C228.004 58.1406 227.273 58.2344 226.461 58.2344C225.281 58.2344 224.281 58.0234 223.461 57.6016C222.648 57.1797 222.031 56.6445 221.609 55.9961C221.195 55.3398 220.988 54.668 220.988 53.9805H224.188C224.203 54.4414 224.32 54.8125 224.539 55.0938C224.766 55.375 225.051 55.5781 225.395 55.7031C225.746 55.8281 226.125 55.8906 226.531 55.8906C226.969 55.8906 227.332 55.832 227.621 55.7148C227.91 55.5898 228.129 55.4258 228.277 55.2227C228.434 55.0117 228.512 54.7695 228.512 54.4961Z" fill="#888888"/>
<path d="M101.822 115.1L108.194 86.0078H111.995L114.061 88.4907L107.271 118H103.074L101.822 115.1ZM100.13 86.0078L105.513 115.319L104.129 118H99.2729L92.4834 86.0078H100.13ZM117.554 115.166L122.894 86.0078H130.518L123.729 118H118.895L117.554 115.166ZM114.742 86.0078L121.268 115.275L119.949 118H115.752L108.809 88.4468L110.962 86.0078H114.742ZM141.021 94.2256V118H133.594V94.2256H141.021ZM133.155 88.0952C133.155 87.0405 133.536 86.1763 134.297 85.5024C135.059 84.8286 136.048 84.4917 137.264 84.4917C138.479 84.4917 139.468 84.8286 140.23 85.5024C140.992 86.1763 141.373 87.0405 141.373 88.0952C141.373 89.1499 140.992 90.0142 140.23 90.688C139.468 91.3618 138.479 91.6987 137.264 91.6987C136.048 91.6987 135.059 91.3618 134.297 90.688C133.536 90.0142 133.155 89.1499 133.155 88.0952ZM153.062 100.114V118H145.657V94.2256H152.579L153.062 100.114ZM160.093 94.0498L159.961 100.927C159.668 100.898 159.273 100.861 158.775 100.817C158.277 100.773 157.859 100.751 157.522 100.751C156.658 100.751 155.911 100.854 155.281 101.059C154.666 101.25 154.153 101.542 153.743 101.938C153.348 102.319 153.055 102.802 152.864 103.388C152.688 103.974 152.608 104.655 152.623 105.432L151.282 104.553C151.282 102.956 151.436 101.506 151.744 100.202C152.066 98.8838 152.52 97.7485 153.106 96.7964C153.692 95.8296 154.402 95.0898 155.237 94.5771C156.072 94.0498 157.01 93.7861 158.05 93.7861C158.416 93.7861 158.775 93.8081 159.126 93.8521C159.493 93.896 159.815 93.9619 160.093 94.0498ZM173.716 118.439C171.783 118.439 170.054 118.139 168.531 117.539C167.007 116.923 165.718 116.081 164.664 115.012C163.624 113.942 162.825 112.712 162.269 111.32C161.727 109.929 161.456 108.457 161.456 106.904V106.069C161.456 104.326 161.697 102.714 162.181 101.235C162.664 99.7407 163.382 98.437 164.334 97.3237C165.286 96.2104 166.48 95.3462 167.916 94.731C169.351 94.1011 171.021 93.7861 172.925 93.7861C174.61 93.7861 176.119 94.0571 177.452 94.5991C178.785 95.1411 179.913 95.9175 180.835 96.9282C181.773 97.939 182.483 99.1621 182.967 100.598C183.465 102.033 183.714 103.645 183.714 105.432V108.442H164.29V103.806H176.485V103.234C176.5 102.443 176.36 101.77 176.067 101.213C175.789 100.656 175.379 100.231 174.837 99.9385C174.295 99.6455 173.636 99.499 172.859 99.499C172.054 99.499 171.387 99.6748 170.86 100.026C170.347 100.378 169.944 100.861 169.651 101.477C169.373 102.077 169.175 102.773 169.058 103.564C168.941 104.355 168.882 105.19 168.882 106.069V106.904C168.882 107.783 169 108.581 169.234 109.299C169.483 110.017 169.834 110.632 170.289 111.145C170.757 111.643 171.314 112.031 171.958 112.309C172.618 112.587 173.365 112.727 174.2 112.727C175.21 112.727 176.207 112.536 177.188 112.155C178.169 111.774 179.012 111.145 179.715 110.266L183.077 114.265C182.593 114.953 181.905 115.62 181.011 116.264C180.132 116.909 179.078 117.436 177.847 117.846C176.617 118.242 175.24 118.439 173.716 118.439ZM195.799 118H188.35V92.292C188.35 90.4463 188.724 88.8936 189.471 87.6338C190.218 86.374 191.272 85.4219 192.635 84.7773C193.997 84.1182 195.608 83.7886 197.469 83.7886C198.113 83.7886 198.721 83.8325 199.292 83.9204C199.864 84.0083 200.42 84.1182 200.962 84.25L200.984 89.6992C200.721 89.626 200.45 89.5747 200.171 89.5454C199.893 89.5161 199.549 89.5015 199.139 89.5015C198.421 89.5015 197.813 89.6113 197.315 89.8311C196.817 90.0361 196.436 90.3511 196.172 90.7759C195.923 91.186 195.799 91.6914 195.799 92.292V118ZM200.413 94.2256V99.3672H184.922V94.2256H200.413ZM210.542 100.114V118H203.138V94.2256H210.059L210.542 100.114ZM217.574 94.0498L217.442 100.927C217.149 100.898 216.753 100.861 216.255 100.817C215.757 100.773 215.34 100.751 215.003 100.751C214.139 100.751 213.392 100.854 212.762 101.059C212.146 101.25 211.634 101.542 211.224 101.938C210.828 102.319 210.535 102.802 210.345 103.388C210.169 103.974 210.088 104.655 210.103 105.432L208.763 104.553C208.763 102.956 208.917 101.506 209.224 100.202C209.546 98.8838 210 97.7485 210.586 96.7964C211.172 95.8296 211.883 95.0898 212.718 94.5771C213.553 94.0498 214.49 93.7861 215.53 93.7861C215.896 93.7861 216.255 93.8081 216.607 93.8521C216.973 93.896 217.295 93.9619 217.574 94.0498ZM231.812 112.023V102.224C231.812 101.55 231.717 100.971 231.526 100.488C231.336 100.004 231.036 99.6309 230.625 99.3672C230.215 99.0889 229.666 98.9497 228.978 98.9497C228.421 98.9497 227.945 99.0449 227.549 99.2354C227.154 99.4258 226.854 99.7114 226.648 100.092C226.443 100.473 226.341 100.957 226.341 101.542H218.936C218.936 100.444 219.178 99.4258 219.661 98.4883C220.159 97.5361 220.862 96.7085 221.771 96.0054C222.693 95.3022 223.792 94.7603 225.066 94.3794C226.355 93.9839 227.791 93.7861 229.373 93.7861C231.263 93.7861 232.947 94.1011 234.427 94.731C235.921 95.3608 237.1 96.3057 237.964 97.5654C238.829 98.8105 239.261 100.378 239.261 102.268V112.001C239.261 113.554 239.349 114.733 239.524 115.539C239.7 116.33 239.949 117.026 240.271 117.626V118H232.845C232.493 117.268 232.229 116.374 232.054 115.319C231.893 114.25 231.812 113.151 231.812 112.023ZM232.713 103.476L232.757 107.431H229.483C228.794 107.431 228.208 107.526 227.725 107.717C227.256 107.907 226.875 108.171 226.583 108.508C226.304 108.83 226.099 109.196 225.967 109.606C225.85 110.017 225.792 110.449 225.792 110.903C225.792 111.342 225.894 111.738 226.099 112.089C226.319 112.426 226.612 112.69 226.978 112.88C227.344 113.071 227.754 113.166 228.208 113.166C229.029 113.166 229.725 113.012 230.296 112.705C230.882 112.382 231.329 111.994 231.636 111.54C231.944 111.086 232.098 110.661 232.098 110.266L233.724 113.298C233.431 113.884 233.094 114.477 232.713 115.078C232.347 115.678 231.885 116.235 231.329 116.748C230.787 117.246 230.12 117.656 229.329 117.978C228.538 118.286 227.579 118.439 226.451 118.439C224.986 118.439 223.638 118.139 222.408 117.539C221.192 116.938 220.218 116.103 219.485 115.034C218.753 113.95 218.387 112.705 218.387 111.298C218.387 110.068 218.606 108.969 219.046 108.002C219.5 107.036 220.181 106.215 221.089 105.542C221.998 104.868 223.155 104.355 224.561 104.003C225.967 103.652 227.623 103.476 229.527 103.476H232.713ZM250.84 99.2573V118H243.436V94.2256H250.379L250.84 99.2573ZM249.939 105.3L248.248 105.344C248.248 103.674 248.445 102.136 248.841 100.729C249.236 99.3232 249.822 98.1001 250.599 97.0601C251.375 96.02 252.327 95.2144 253.455 94.6431C254.598 94.0718 255.916 93.7861 257.41 93.7861C258.45 93.7861 259.395 93.9473 260.245 94.2695C261.094 94.5771 261.827 95.0679 262.442 95.7417C263.057 96.4009 263.526 97.2651 263.848 98.3345C264.185 99.3892 264.354 100.656 264.354 102.136V118H256.949V103.081C256.949 102.07 256.832 101.308 256.597 100.795C256.377 100.283 256.055 99.9385 255.63 99.7627C255.206 99.5869 254.686 99.499 254.07 99.499C253.426 99.499 252.847 99.6455 252.334 99.9385C251.822 100.231 251.382 100.642 251.016 101.169C250.665 101.682 250.394 102.29 250.203 102.993C250.027 103.696 249.939 104.465 249.939 105.3ZM263.519 105.3L261.453 105.344C261.453 103.674 261.636 102.136 262.002 100.729C262.383 99.3232 262.947 98.1001 263.694 97.0601C264.456 96.02 265.401 95.2144 266.529 94.6431C267.657 94.0718 268.968 93.7861 270.462 93.7861C271.546 93.7861 272.542 93.9473 273.45 94.2695C274.358 94.5918 275.142 95.1118 275.801 95.8296C276.46 96.5474 276.973 97.4995 277.339 98.686C277.706 99.8579 277.889 101.308 277.889 103.037V118H270.462V103.037C270.462 102.055 270.345 101.315 270.11 100.817C269.891 100.305 269.568 99.9604 269.144 99.7847C268.719 99.5942 268.213 99.499 267.627 99.499C266.924 99.499 266.316 99.6455 265.804 99.9385C265.291 100.231 264.859 100.642 264.507 101.169C264.17 101.682 263.921 102.29 263.76 102.993C263.599 103.696 263.519 104.465 263.519 105.3ZM293.643 118.439C291.709 118.439 289.981 118.139 288.458 117.539C286.934 116.923 285.645 116.081 284.59 115.012C283.55 113.942 282.752 112.712 282.195 111.32C281.653 109.929 281.382 108.457 281.382 106.904V106.069C281.382 104.326 281.624 102.714 282.107 101.235C282.591 99.7407 283.309 98.437 284.261 97.3237C285.213 96.2104 286.407 95.3462 287.842 94.731C289.278 94.1011 290.948 93.7861 292.852 93.7861C294.537 93.7861 296.045 94.0571 297.378 94.5991C298.711 95.1411 299.839 95.9175 300.762 96.9282C301.7 97.939 302.41 99.1621 302.894 100.598C303.392 102.033 303.641 103.645 303.641 105.432V108.442H284.217V103.806H296.412V103.234C296.426 102.443 296.287 101.77 295.994 101.213C295.716 100.656 295.306 100.231 294.764 99.9385C294.222 99.6455 293.562 99.499 292.786 99.499C291.98 99.499 291.314 99.6748 290.787 100.026C290.274 100.378 289.871 100.861 289.578 101.477C289.3 102.077 289.102 102.773 288.985 103.564C288.868 104.355 288.809 105.19 288.809 106.069V106.904C288.809 107.783 288.926 108.581 289.161 109.299C289.41 110.017 289.761 110.632 290.215 111.145C290.684 111.643 291.241 112.031 291.885 112.309C292.544 112.587 293.292 112.727 294.126 112.727C295.137 112.727 296.133 112.536 297.115 112.155C298.096 111.774 298.938 111.145 299.642 110.266L303.003 114.265C302.52 114.953 301.832 115.62 300.938 116.264C300.059 116.909 299.004 117.436 297.774 117.846C296.543 118.242 295.167 118.439 293.643 118.439ZM319.109 111.32C319.109 110.91 318.97 110.559 318.692 110.266C318.428 109.958 317.959 109.68 317.286 109.431C316.612 109.167 315.667 108.903 314.451 108.64C313.294 108.391 312.203 108.061 311.177 107.651C310.167 107.241 309.28 106.743 308.519 106.157C307.757 105.571 307.156 104.875 306.717 104.069C306.292 103.264 306.08 102.341 306.08 101.301C306.08 100.29 306.292 99.3379 306.717 98.4443C307.156 97.5361 307.793 96.7378 308.628 96.0493C309.478 95.3462 310.511 94.7969 311.727 94.4014C312.942 93.9912 314.327 93.7861 315.879 93.7861C318.018 93.7861 319.864 94.1157 321.417 94.7749C322.969 95.4194 324.163 96.3276 324.998 97.4995C325.848 98.6567 326.272 99.9971 326.272 101.521H318.868C318.868 100.92 318.765 100.407 318.56 99.9824C318.37 99.5576 318.055 99.2354 317.615 99.0156C317.176 98.7812 316.59 98.6641 315.857 98.6641C315.345 98.6641 314.876 98.7593 314.451 98.9497C314.041 99.1401 313.711 99.4038 313.462 99.7407C313.213 100.078 313.089 100.473 313.089 100.927C313.089 101.25 313.162 101.542 313.309 101.806C313.47 102.055 313.711 102.29 314.034 102.509C314.356 102.714 314.766 102.905 315.264 103.081C315.762 103.242 316.363 103.388 317.066 103.52C318.663 103.813 320.157 104.23 321.548 104.772C322.94 105.314 324.068 106.083 324.932 107.08C325.811 108.076 326.25 109.416 326.25 111.101C326.25 112.155 326.009 113.129 325.525 114.023C325.042 114.902 324.346 115.678 323.438 116.352C322.53 117.011 321.438 117.524 320.164 117.89C318.89 118.256 317.454 118.439 315.857 118.439C313.587 118.439 311.668 118.037 310.101 117.231C308.533 116.411 307.347 115.385 306.541 114.155C305.75 112.91 305.354 111.65 305.354 110.375H312.254C312.283 111.108 312.459 111.708 312.781 112.177C313.118 112.646 313.565 112.99 314.122 113.21C314.678 113.43 315.323 113.54 316.055 113.54C316.729 113.54 317.286 113.444 317.725 113.254C318.179 113.063 318.523 112.807 318.758 112.485C318.992 112.148 319.109 111.76 319.109 111.32Z" fill="#424241"/>
<path d="M1363 15C1363 6.71573 1356.28 0 1348 0H1134V167H1348C1356.28 167 1363 160.284 1363 152V15Z" fill="#5A7FCC"/>
<path fill-rule="evenodd" clip-rule="evenodd" d="M1203 49C1203 47.8954 1203.9 47 1205 47H1292.5C1293.6 47 1294.5 47.8954 1294.5 49V118.996C1294.5 120.101 1293.6 120.996 1292.5 120.996H1205C1203.9 120.996 1203 120.101 1203 118.996V49ZM1207 51V55.4945H1290.5V51H1207ZM1290.5 59.4945H1235.44V116.996H1290.5V59.4945ZM1231.44 116.996V59.4945H1207V116.996H1231.44Z" fill="white"/>
<path fill-rule="evenodd" clip-rule="evenodd" d="M1209.97 64.8004C1209.97 63.6958 1210.87 62.8004 1211.97 62.8004H1225.97C1227.08 62.8004 1227.97 63.6958 1227.97 64.8004V84.1956C1227.97 85.3001 1227.08 86.1956 1225.97 86.1956H1211.97C1210.87 86.1956 1209.97 85.3001 1209.97 84.1956V64.8004ZM1213.97 66.8004V82.1956H1223.97V66.8004H1213.97ZM1239.58 65.6964C1239.58 64.5918 1240.47 63.6964 1241.58 63.6964H1284.5C1285.61 63.6964 1286.5 64.5918 1286.5 65.6964V111.905C1286.5 113.01 1285.61 113.905 1284.5 113.905H1241.58C1240.47 113.905 1239.58 113.01 1239.58 111.905V65.6964ZM1243.58 67.6964V109.905H1282.5V67.6964H1243.58ZM1209.81 95.9363C1209.81 94.8317 1210.71 93.9363 1211.81 93.9363H1220.73C1221.84 93.9363 1222.73 94.8317 1222.73 95.9363C1222.73 97.0409 1221.84 97.9363 1220.73 97.9363H1211.81C1210.71 97.9363 1209.81 97.0409 1209.81 95.9363ZM1209.81 102.936C1209.81 101.832 1210.71 100.936 1211.81 100.936H1226.35C1227.46 100.936 1228.35 101.832 1228.35 102.936C1228.35 104.041 1227.46 104.936 1226.35 104.936H1211.81C1210.71 104.936 1209.81 104.041 1209.81 102.936ZM1209.81 109.936C1209.81 108.832 1210.71 107.936 1211.81 107.936H1220.73C1221.84 107.936 1222.73 108.832 1222.73 109.936C1222.73 111.041 1221.84 111.936 1220.73 111.936H1211.81C1210.71 111.936 1209.81 111.041 1209.81 109.936Z" fill="white"/>
</svg>
