<svg width="1363" height="167" viewBox="0 0 1363 167" fill="none" xmlns="http://www.w3.org/2000/svg">
<rect width="1363" height="167" rx="15" fill="#F0F0F0"/>
<path d="M0 15C0 6.71573 6.71573 0 15 0H37V167H15C6.71573 167 0 160.284 0 152V15Z" fill="#424241"/>
<path d="M100.906 50.9219L93.3945 48.2383V45.0859L103.602 49.375V51.6367L100.906 50.9219ZM93.3945 53.1719L100.918 50.4297L103.602 49.7852V52.0352L93.3945 56.3242V53.1719ZM118.578 50.5117H114.195L114.172 48.0977H117.852C118.5 48.0977 119.031 48.0156 119.445 47.8516C119.859 47.6797 120.168 47.4336 120.371 47.1133C120.582 46.7852 120.688 46.3867 120.688 45.918C120.688 45.3867 120.586 44.957 120.383 44.6289C120.188 44.3008 119.879 44.0625 119.457 43.9141C119.043 43.7656 118.508 43.6914 117.852 43.6914H115.414V58H111.898V40.9375H117.852C118.844 40.9375 119.73 41.0312 120.512 41.2188C121.301 41.4062 121.969 41.6914 122.516 42.0742C123.062 42.457 123.48 42.9414 123.77 43.5273C124.059 44.1055 124.203 44.793 124.203 45.5898C124.203 46.293 124.043 46.9414 123.723 47.5352C123.41 48.1289 122.914 48.6133 122.234 48.9883C121.562 49.3633 120.684 49.5703 119.598 49.6094L118.578 50.5117ZM118.426 58H113.234L114.605 55.2578H118.426C119.043 55.2578 119.547 55.1602 119.938 54.9648C120.328 54.7617 120.617 54.4883 120.805 54.1445C120.992 53.8008 121.086 53.4062 121.086 52.9609C121.086 52.4609 121 52.0273 120.828 51.6602C120.664 51.293 120.398 51.0117 120.031 50.8164C119.664 50.6133 119.18 50.5117 118.578 50.5117H115.191L115.215 48.0977H119.434L120.242 49.0469C121.281 49.0312 122.117 49.2148 122.75 49.5977C123.391 49.9727 123.855 50.4609 124.145 51.0625C124.441 51.6641 124.59 52.3086 124.59 52.9961C124.59 54.0898 124.352 55.0117 123.875 55.7617C123.398 56.5039 122.699 57.0625 121.777 57.4375C120.863 57.8125 119.746 58 118.426 58ZM126.477 51.7891V51.543C126.477 50.6133 126.609 49.7578 126.875 48.9766C127.141 48.1875 127.527 47.5039 128.035 46.9258C128.543 46.3477 129.168 45.8984 129.91 45.5781C130.652 45.25 131.504 45.0859 132.465 45.0859C133.426 45.0859 134.281 45.25 135.031 45.5781C135.781 45.8984 136.41 46.3477 136.918 46.9258C137.434 47.5039 137.824 48.1875 138.09 48.9766C138.355 49.7578 138.488 50.6133 138.488 51.543V51.7891C138.488 52.7109 138.355 53.5664 138.09 54.3555C137.824 55.1367 137.434 55.8203 136.918 56.4062C136.41 56.9844 135.785 57.4336 135.043 57.7539C134.301 58.0742 133.449 58.2344 132.488 58.2344C131.527 58.2344 130.672 58.0742 129.922 57.7539C129.18 57.4336 128.551 56.9844 128.035 56.4062C127.527 55.8203 127.141 55.1367 126.875 54.3555C126.609 53.5664 126.477 52.7109 126.477 51.7891ZM129.852 51.543V51.7891C129.852 52.3203 129.898 52.8164 129.992 53.2773C130.086 53.7383 130.234 54.1445 130.438 54.4961C130.648 54.8398 130.922 55.1094 131.258 55.3047C131.594 55.5 132.004 55.5977 132.488 55.5977C132.957 55.5977 133.359 55.5 133.695 55.3047C134.031 55.1094 134.301 54.8398 134.504 54.4961C134.707 54.1445 134.855 53.7383 134.949 53.2773C135.051 52.8164 135.102 52.3203 135.102 51.7891V51.543C135.102 51.0273 135.051 50.543 134.949 50.0898C134.855 49.6289 134.703 49.2227 134.492 48.8711C134.289 48.5117 134.02 48.2305 133.684 48.0273C133.348 47.8242 132.941 47.7227 132.465 47.7227C131.988 47.7227 131.582 47.8242 131.246 48.0273C130.918 48.2305 130.648 48.5117 130.438 48.8711C130.234 49.2227 130.086 49.6289 129.992 50.0898C129.898 50.543 129.852 51.0273 129.852 51.543ZM140.023 51.7891V51.543C140.023 50.6133 140.156 49.7578 140.422 48.9766C140.688 48.1875 141.074 47.5039 141.582 46.9258C142.09 46.3477 142.715 45.8984 143.457 45.5781C144.199 45.25 145.051 45.0859 146.012 45.0859C146.973 45.0859 147.828 45.25 148.578 45.5781C149.328 45.8984 149.957 46.3477 150.465 46.9258C150.98 47.5039 151.371 48.1875 151.637 48.9766C151.902 49.7578 152.035 50.6133 152.035 51.543V51.7891C152.035 52.7109 151.902 53.5664 151.637 54.3555C151.371 55.1367 150.98 55.8203 150.465 56.4062C149.957 56.9844 149.332 57.4336 148.59 57.7539C147.848 58.0742 146.996 58.2344 146.035 58.2344C145.074 58.2344 144.219 58.0742 143.469 57.7539C142.727 57.4336 142.098 56.9844 141.582 56.4062C141.074 55.8203 140.688 55.1367 140.422 54.3555C140.156 53.5664 140.023 52.7109 140.023 51.7891ZM143.398 51.543V51.7891C143.398 52.3203 143.445 52.8164 143.539 53.2773C143.633 53.7383 143.781 54.1445 143.984 54.4961C144.195 54.8398 144.469 55.1094 144.805 55.3047C145.141 55.5 145.551 55.5977 146.035 55.5977C146.504 55.5977 146.906 55.5 147.242 55.3047C147.578 55.1094 147.848 54.8398 148.051 54.4961C148.254 54.1445 148.402 53.7383 148.496 53.2773C148.598 52.8164 148.648 52.3203 148.648 51.7891V51.543C148.648 51.0273 148.598 50.543 148.496 50.0898C148.402 49.6289 148.25 49.2227 148.039 48.8711C147.836 48.5117 147.566 48.2305 147.23 48.0273C146.895 47.8242 146.488 47.7227 146.012 47.7227C145.535 47.7227 145.129 47.8242 144.793 48.0273C144.465 48.2305 144.195 48.5117 143.984 48.8711C143.781 49.2227 143.633 49.6289 143.539 50.0898C143.445 50.543 143.398 51.0273 143.398 51.543ZM157.484 39.9883V58H154.109V39.9883H157.484ZM165.477 45.3203L159.969 51.6016L157.016 54.5898L155.785 52.1523L158.129 49.1758L161.422 45.3203H165.477ZM161.973 58L158.223 52.1406L160.555 50.1016L165.863 58H161.973ZM170.305 47.9453V58H166.918V45.3203H170.094L170.305 47.9453ZM169.836 51.2148H168.898C168.898 50.332 169.004 49.5195 169.215 48.7773C169.434 48.0273 169.75 47.3789 170.164 46.832C170.586 46.2773 171.105 45.8477 171.723 45.543C172.34 45.2383 173.055 45.0859 173.867 45.0859C174.43 45.0859 174.945 45.1719 175.414 45.3438C175.883 45.5078 176.285 45.7695 176.621 46.1289C176.965 46.4805 177.23 46.9414 177.418 47.5117C177.605 48.0742 177.699 48.75 177.699 49.5391V58H174.324V49.9141C174.324 49.3359 174.246 48.8906 174.09 48.5781C173.934 48.2656 173.711 48.0469 173.422 47.9219C173.141 47.7969 172.801 47.7344 172.402 47.7344C171.965 47.7344 171.582 47.8242 171.254 48.0039C170.934 48.1836 170.668 48.4336 170.457 48.7539C170.246 49.0664 170.09 49.4336 169.988 49.8555C169.887 50.2773 169.836 50.7305 169.836 51.2148ZM177.383 50.8281L176.176 50.9805C176.176 50.1523 176.277 49.3828 176.48 48.6719C176.691 47.9609 177 47.3359 177.406 46.7969C177.82 46.2578 178.332 45.8398 178.941 45.543C179.551 45.2383 180.254 45.0859 181.051 45.0859C181.66 45.0859 182.215 45.1758 182.715 45.3555C183.215 45.5273 183.641 45.8047 183.992 46.1875C184.352 46.5625 184.625 47.0547 184.812 47.6641C185.008 48.2734 185.105 49.0195 185.105 49.9023V58H181.719V49.9023C181.719 49.3164 181.641 48.8711 181.484 48.5664C181.336 48.2539 181.117 48.0391 180.828 47.9219C180.547 47.7969 180.211 47.7344 179.82 47.7344C179.414 47.7344 179.059 47.8164 178.754 47.9805C178.449 48.1367 178.195 48.3555 177.992 48.6367C177.789 48.918 177.637 49.2461 177.535 49.6211C177.434 49.9883 177.383 50.3906 177.383 50.8281ZM194.562 55.1406V49.4922C194.562 49.0859 194.496 48.7383 194.363 48.4492C194.23 48.1523 194.023 47.9219 193.742 47.7578C193.469 47.5938 193.113 47.5117 192.676 47.5117C192.301 47.5117 191.977 47.5781 191.703 47.7109C191.43 47.8359 191.219 48.0195 191.07 48.2617C190.922 48.4961 190.848 48.7734 190.848 49.0938H187.473C187.473 48.5547 187.598 48.043 187.848 47.5586C188.098 47.0742 188.461 46.6484 188.938 46.2812C189.414 45.9062 189.98 45.6133 190.637 45.4023C191.301 45.1914 192.043 45.0859 192.863 45.0859C193.848 45.0859 194.723 45.25 195.488 45.5781C196.254 45.9062 196.855 46.3984 197.293 47.0547C197.738 47.7109 197.961 48.5312 197.961 49.5156V54.9414C197.961 55.6367 198.004 56.207 198.09 56.6523C198.176 57.0898 198.301 57.4727 198.465 57.8008V58H195.055C194.891 57.6562 194.766 57.2266 194.68 56.7109C194.602 56.1875 194.562 55.6641 194.562 55.1406ZM195.008 50.2773L195.031 52.1875H193.145C192.699 52.1875 192.312 52.2383 191.984 52.3398C191.656 52.4414 191.387 52.5859 191.176 52.7734C190.965 52.9531 190.809 53.1641 190.707 53.4062C190.613 53.6484 190.566 53.9141 190.566 54.2031C190.566 54.4922 190.633 54.7539 190.766 54.9883C190.898 55.2148 191.09 55.3945 191.34 55.5273C191.59 55.6523 191.883 55.7148 192.219 55.7148C192.727 55.7148 193.168 55.6133 193.543 55.4102C193.918 55.207 194.207 54.957 194.41 54.6602C194.621 54.3633 194.73 54.082 194.738 53.8164L195.629 55.2461C195.504 55.5664 195.332 55.8984 195.113 56.2422C194.902 56.5859 194.633 56.9102 194.305 57.2148C193.977 57.5117 193.582 57.7578 193.121 57.9531C192.66 58.1406 192.113 58.2344 191.48 58.2344C190.676 58.2344 189.945 58.0742 189.289 57.7539C188.641 57.4258 188.125 56.9766 187.742 56.4062C187.367 55.8281 187.18 55.1719 187.18 54.4375C187.18 53.7734 187.305 53.1836 187.555 52.668C187.805 52.1523 188.172 51.7188 188.656 51.3672C189.148 51.0078 189.762 50.7383 190.496 50.5586C191.23 50.3711 192.082 50.2773 193.051 50.2773H195.008ZM206.773 45.3203V47.7109H199.391V45.3203H206.773ZM201.219 42.1914H204.594V54.1797C204.594 54.5469 204.641 54.8281 204.734 55.0234C204.836 55.2188 204.984 55.3555 205.18 55.4336C205.375 55.5039 205.621 55.5391 205.918 55.5391C206.129 55.5391 206.316 55.5312 206.48 55.5156C206.652 55.4922 206.797 55.4688 206.914 55.4453L206.926 57.9297C206.637 58.0234 206.324 58.0977 205.988 58.1523C205.652 58.207 205.281 58.2344 204.875 58.2344C204.133 58.2344 203.484 58.1133 202.93 57.8711C202.383 57.6211 201.961 57.2227 201.664 56.6758C201.367 56.1289 201.219 55.4102 201.219 54.5195V42.1914ZM214.531 58.2344C213.547 58.2344 212.664 58.0781 211.883 57.7656C211.102 57.4453 210.438 57.0039 209.891 56.4414C209.352 55.8789 208.938 55.2266 208.648 54.4844C208.359 53.7344 208.215 52.9375 208.215 52.0938V51.625C208.215 50.6641 208.352 49.7852 208.625 48.9883C208.898 48.1914 209.289 47.5 209.797 46.9141C210.312 46.3281 210.938 45.8789 211.672 45.5664C212.406 45.2461 213.234 45.0859 214.156 45.0859C215.055 45.0859 215.852 45.2344 216.547 45.5312C217.242 45.8281 217.824 46.25 218.293 46.7969C218.77 47.3438 219.129 48 219.371 48.7656C219.613 49.5234 219.734 50.3672 219.734 51.2969V52.7031H209.656V50.4531H216.418V50.1953C216.418 49.7266 216.332 49.3086 216.16 48.9414C215.996 48.5664 215.746 48.2695 215.41 48.0508C215.074 47.832 214.645 47.7227 214.121 47.7227C213.676 47.7227 213.293 47.8203 212.973 48.0156C212.652 48.2109 212.391 48.4844 212.188 48.8359C211.992 49.1875 211.844 49.6016 211.742 50.0781C211.648 50.5469 211.602 51.0625 211.602 51.625V52.0938C211.602 52.6016 211.672 53.0703 211.812 53.5C211.961 53.9297 212.168 54.3008 212.434 54.6133C212.707 54.9258 213.035 55.168 213.418 55.3398C213.809 55.5117 214.25 55.5977 214.742 55.5977C215.352 55.5977 215.918 55.4805 216.441 55.2461C216.973 55.0039 217.43 54.6406 217.812 54.1562L219.453 55.9375C219.188 56.3203 218.824 56.6875 218.363 57.0391C217.91 57.3906 217.363 57.6797 216.723 57.9062C216.082 58.125 215.352 58.2344 214.531 58.2344ZM228.512 54.4961C228.512 54.2539 228.441 54.0352 228.301 53.8398C228.16 53.6445 227.898 53.4648 227.516 53.3008C227.141 53.1289 226.598 52.9727 225.887 52.832C225.246 52.6914 224.648 52.5156 224.094 52.3047C223.547 52.0859 223.07 51.8242 222.664 51.5195C222.266 51.2148 221.953 50.8555 221.727 50.4414C221.5 50.0195 221.387 49.5391 221.387 49C221.387 48.4688 221.5 47.9688 221.727 47.5C221.961 47.0312 222.293 46.6172 222.723 46.2578C223.16 45.8906 223.691 45.6055 224.316 45.4023C224.949 45.1914 225.66 45.0859 226.449 45.0859C227.551 45.0859 228.496 45.2617 229.285 45.6133C230.082 45.9648 230.691 46.4492 231.113 47.0664C231.543 47.6758 231.758 48.3711 231.758 49.1523H228.383C228.383 48.8242 228.312 48.5312 228.172 48.2734C228.039 48.0078 227.828 47.8008 227.539 47.6523C227.258 47.4961 226.891 47.418 226.438 47.418C226.062 47.418 225.738 47.4844 225.465 47.6172C225.191 47.7422 224.98 47.9141 224.832 48.1328C224.691 48.3438 224.621 48.5781 224.621 48.8359C224.621 49.0312 224.66 49.207 224.738 49.3633C224.824 49.5117 224.961 49.6484 225.148 49.7734C225.336 49.8984 225.578 50.0156 225.875 50.125C226.18 50.2266 226.555 50.3203 227 50.4062C227.914 50.5938 228.73 50.8398 229.449 51.1445C230.168 51.4414 230.738 51.8477 231.16 52.3633C231.582 52.8711 231.793 53.5391 231.793 54.3672C231.793 54.9297 231.668 55.4453 231.418 55.9141C231.168 56.3828 230.809 56.793 230.34 57.1445C229.871 57.4883 229.309 57.7578 228.652 57.9531C228.004 58.1406 227.273 58.2344 226.461 58.2344C225.281 58.2344 224.281 58.0234 223.461 57.6016C222.648 57.1797 222.031 56.6445 221.609 55.9961C221.195 55.3398 220.988 54.668 220.988 53.9805H224.188C224.203 54.4414 224.32 54.8125 224.539 55.0938C224.766 55.375 225.051 55.5781 225.395 55.7031C225.746 55.8281 226.125 55.8906 226.531 55.8906C226.969 55.8906 227.332 55.832 227.621 55.7148C227.91 55.5898 228.129 55.4258 228.277 55.2227C228.434 55.0117 228.512 54.7695 228.512 54.4961Z" fill="#888888"/>
<path d="M115.994 98.708V104.641H99.5806V98.708H115.994ZM102.151 86.0078V118H94.439V86.0078H102.151ZM121.18 86.0078V118H113.489V86.0078H121.18ZM124.805 106.354V105.893C124.805 104.15 125.054 102.546 125.552 101.081C126.05 99.6016 126.783 98.3198 127.75 97.2358C128.716 96.1519 129.91 95.3096 131.331 94.709C132.752 94.0938 134.393 93.7861 136.253 93.7861C138.128 93.7861 139.776 94.0938 141.197 94.709C142.632 95.3096 143.833 96.1519 144.8 97.2358C145.767 98.3198 146.5 99.6016 146.998 101.081C147.496 102.546 147.745 104.15 147.745 105.893V106.354C147.745 108.083 147.496 109.687 146.998 111.167C146.5 112.631 145.767 113.913 144.8 115.012C143.833 116.096 142.64 116.938 141.219 117.539C139.798 118.139 138.157 118.439 136.297 118.439C134.437 118.439 132.789 118.139 131.353 117.539C129.917 116.938 128.716 116.096 127.75 115.012C126.783 113.913 126.05 112.631 125.552 111.167C125.054 109.687 124.805 108.083 124.805 106.354ZM132.21 105.893V106.354C132.21 107.248 132.276 108.083 132.408 108.859C132.54 109.636 132.759 110.317 133.067 110.903C133.375 111.474 133.792 111.921 134.319 112.243C134.847 112.565 135.506 112.727 136.297 112.727C137.073 112.727 137.718 112.565 138.23 112.243C138.758 111.921 139.175 111.474 139.483 110.903C139.791 110.317 140.01 109.636 140.142 108.859C140.274 108.083 140.34 107.248 140.34 106.354V105.893C140.34 105.029 140.274 104.216 140.142 103.454C140.01 102.678 139.791 101.997 139.483 101.411C139.175 100.81 138.758 100.341 138.23 100.004C137.703 99.6675 137.044 99.499 136.253 99.499C135.477 99.499 134.825 99.6675 134.297 100.004C133.785 100.341 133.375 100.81 133.067 101.411C132.759 101.997 132.54 102.678 132.408 103.454C132.276 104.216 132.21 105.029 132.21 105.893ZM158.27 110.925L162.664 94.2256H167.3L165.652 102.597L161.302 118H157.588L158.27 110.925ZM156.534 94.2256L159.258 110.793L159.566 118H155.062L149.437 94.2256H156.534ZM171.211 110.441L173.958 94.2256H181.055L175.474 118H170.97L171.211 110.441ZM167.828 94.2256L172.266 110.881L172.947 118H169.19L164.927 102.641L163.345 94.2256H167.828ZM209.466 86.0078V118H201.753V86.0078H209.466ZM219.09 86.0078V91.9624H192.349V86.0078H219.09ZM216.475 106.354V105.893C216.475 104.15 216.724 102.546 217.222 101.081C217.72 99.6016 218.453 98.3198 219.419 97.2358C220.386 96.1519 221.58 95.3096 223.001 94.709C224.422 94.0938 226.062 93.7861 227.923 93.7861C229.798 93.7861 231.446 94.0938 232.867 94.709C234.302 95.3096 235.503 96.1519 236.47 97.2358C237.437 98.3198 238.169 99.6016 238.667 101.081C239.166 102.546 239.415 104.15 239.415 105.893V106.354C239.415 108.083 239.166 109.687 238.667 111.167C238.169 112.631 237.437 113.913 236.47 115.012C235.503 116.096 234.31 116.938 232.889 117.539C231.468 118.139 229.827 118.439 227.967 118.439C226.106 118.439 224.458 118.139 223.023 117.539C221.587 116.938 220.386 116.096 219.419 115.012C218.453 113.913 217.72 112.631 217.222 111.167C216.724 109.687 216.475 108.083 216.475 106.354ZM223.88 105.893V106.354C223.88 107.248 223.946 108.083 224.078 108.859C224.209 109.636 224.429 110.317 224.737 110.903C225.044 111.474 225.462 111.921 225.989 112.243C226.517 112.565 227.176 112.727 227.967 112.727C228.743 112.727 229.388 112.565 229.9 112.243C230.428 111.921 230.845 111.474 231.153 110.903C231.46 110.317 231.68 109.636 231.812 108.859C231.944 108.083 232.01 107.248 232.01 106.354V105.893C232.01 105.029 231.944 104.216 231.812 103.454C231.68 102.678 231.46 101.997 231.153 101.411C230.845 100.81 230.428 100.341 229.9 100.004C229.373 99.6675 228.714 99.499 227.923 99.499C227.146 99.499 226.495 99.6675 225.967 100.004C225.455 100.341 225.044 100.81 224.737 101.411C224.429 101.997 224.209 102.678 224.078 103.454C223.946 104.216 223.88 105.029 223.88 105.893ZM254.268 86.0078H266.858C269.319 86.0078 271.458 86.374 273.274 87.1064C275.091 87.8389 276.49 88.9229 277.471 90.3584C278.467 91.7939 278.965 93.5664 278.965 95.6758C278.965 97.5068 278.68 99.0376 278.108 100.268C277.537 101.499 276.739 102.517 275.713 103.322C274.703 104.113 273.523 104.765 272.176 105.278L269.649 106.706H259.08L259.036 100.751H266.858C267.84 100.751 268.653 100.576 269.297 100.224C269.942 99.8726 270.425 99.3745 270.748 98.73C271.084 98.0708 271.253 97.2871 271.253 96.3789C271.253 95.4561 271.084 94.665 270.748 94.0059C270.411 93.3467 269.913 92.8413 269.253 92.4897C268.609 92.1382 267.811 91.9624 266.858 91.9624H261.98V118H254.268V86.0078ZM271.78 118L264.705 103.85L272.879 103.806L280.042 117.67V118H271.78ZM297.159 112.221V94.2256H304.585V118H297.642L297.159 112.221ZM297.862 107.387L299.795 107.343C299.795 108.94 299.605 110.419 299.224 111.782C298.843 113.129 298.279 114.301 297.532 115.297C296.8 116.293 295.892 117.07 294.808 117.626C293.738 118.168 292.5 118.439 291.094 118.439C289.922 118.439 288.846 118.278 287.864 117.956C286.897 117.619 286.062 117.099 285.359 116.396C284.656 115.678 284.107 114.763 283.711 113.649C283.331 112.521 283.14 111.174 283.14 109.606V94.2256H290.545V109.65C290.545 110.178 290.611 110.632 290.743 111.013C290.875 111.394 291.065 111.716 291.314 111.979C291.563 112.229 291.871 112.419 292.237 112.551C292.618 112.668 293.05 112.727 293.533 112.727C294.646 112.727 295.518 112.492 296.148 112.023C296.778 111.555 297.217 110.917 297.466 110.112C297.73 109.306 297.862 108.398 297.862 107.387ZM315.945 99.3013V118H308.541V94.2256H315.484L315.945 99.3013ZM315.066 105.3L313.331 105.344C313.331 103.527 313.55 101.909 313.99 100.488C314.429 99.0522 315.052 97.8364 315.857 96.8403C316.663 95.8442 317.623 95.0898 318.736 94.5771C319.864 94.0498 321.116 93.7861 322.493 93.7861C323.592 93.7861 324.595 93.9473 325.503 94.2695C326.426 94.5918 327.217 95.1118 327.876 95.8296C328.55 96.5474 329.063 97.4995 329.415 98.686C329.781 99.8579 329.964 101.308 329.964 103.037V118H322.515V103.015C322.515 102.062 322.383 101.337 322.12 100.839C321.856 100.327 321.475 99.9751 320.977 99.7847C320.479 99.5942 319.871 99.499 319.153 99.499C318.392 99.499 317.747 99.6455 317.22 99.9385C316.692 100.231 316.268 100.642 315.945 101.169C315.638 101.682 315.411 102.29 315.264 102.993C315.132 103.696 315.066 104.465 315.066 105.3ZM345.85 107.871H339.544C339.544 106.582 339.632 105.446 339.808 104.465C339.998 103.469 340.32 102.575 340.774 101.784C341.229 100.993 341.844 100.261 342.62 99.5869C343.309 99.0156 343.902 98.4663 344.4 97.939C344.898 97.4116 345.279 96.877 345.542 96.335C345.806 95.793 345.938 95.2144 345.938 94.5991C345.938 93.8374 345.828 93.2148 345.608 92.7314C345.403 92.248 345.088 91.8892 344.664 91.6548C344.253 91.4058 343.733 91.2812 343.104 91.2812C342.591 91.2812 342.107 91.4058 341.653 91.6548C341.214 91.9038 340.855 92.292 340.577 92.8193C340.298 93.332 340.145 94.0132 340.115 94.8628H332.667C332.71 92.6802 333.194 90.9077 334.117 89.5454C335.054 88.1685 336.299 87.165 337.852 86.5352C339.419 85.8906 341.17 85.5684 343.104 85.5684C345.242 85.5684 347.081 85.8979 348.619 86.5571C350.157 87.2163 351.336 88.1978 352.156 89.5015C352.977 90.7905 353.387 92.3799 353.387 94.2695C353.387 95.5293 353.145 96.6279 352.662 97.5654C352.193 98.4883 351.556 99.3525 350.75 100.158C349.959 100.949 349.073 101.799 348.091 102.707C347.242 103.454 346.663 104.216 346.355 104.992C346.048 105.754 345.879 106.713 345.85 107.871ZM338.643 114.55C338.643 113.496 339.024 112.617 339.786 111.914C340.547 111.196 341.536 110.837 342.752 110.837C343.968 110.837 344.957 111.196 345.718 111.914C346.48 112.617 346.861 113.496 346.861 114.55C346.861 115.605 346.48 116.491 345.718 117.209C344.957 117.912 343.968 118.264 342.752 118.264C341.536 118.264 340.547 117.912 339.786 117.209C339.024 116.491 338.643 115.605 338.643 114.55Z" fill="#424241"/>
<path d="M1363 15C1363 6.71573 1356.28 0 1348 0H1134V167H1348C1356.28 167 1363 160.284 1363 152V15Z" fill="#5A7FCC"/>
<path d="M1260.77 81.3079C1263.96 81.3079 1267.09 82.2553 1269.74 84.0303C1272.4 85.8053 1274.47 88.3282 1275.69 91.2799C1276.92 94.2316 1277.24 97.4796 1276.61 100.613C1275.99 103.747 1274.45 106.625 1272.19 108.884C1269.93 111.143 1267.05 112.682 1263.92 113.305C1260.79 113.928 1257.54 113.608 1254.59 112.386C1251.64 111.163 1249.11 109.093 1247.34 106.436C1245.56 103.78 1244.62 100.657 1244.62 97.4617C1244.62 93.1774 1246.32 89.0686 1249.35 86.0392C1252.38 83.0098 1256.48 81.3079 1260.77 81.3079V81.3079ZM1260.77 75.9233C1256.51 75.9233 1252.35 77.1865 1248.8 79.5532C1245.26 81.9198 1242.5 85.2837 1240.87 89.2193C1239.24 93.1549 1238.81 97.4856 1239.64 101.664C1240.48 105.842 1242.53 109.679 1245.54 112.692C1248.55 115.704 1252.39 117.755 1256.57 118.586C1260.75 119.417 1265.08 118.991 1269.01 117.361C1272.95 115.73 1276.31 112.97 1278.68 109.428C1281.04 105.886 1282.31 101.722 1282.31 97.4617C1282.31 91.7493 1280.04 86.271 1276 82.2317C1271.96 78.1925 1266.48 75.9233 1260.77 75.9233Z" fill="white"/>
<path d="M1274.23 49H1220.38C1218.96 49 1217.59 49.5673 1216.58 50.5771C1215.57 51.5869 1215 52.9565 1215 54.3846V108.231C1215 109.659 1215.57 111.028 1216.58 112.038C1217.59 113.048 1218.96 113.615 1220.38 113.615H1231.15V108.231H1220.38V70.5384H1279.62V54.3846C1279.62 52.9565 1279.05 51.5869 1278.04 50.5771C1277.03 49.5673 1275.66 49 1274.23 49V49ZM1220.38 65.1538V54.3846H1274.23V65.1538H1220.38Z" fill="white"/>
<path d="M1255.38 89.3849V105.539L1268.85 97.4618L1255.38 89.3849Z" fill="white"/>
</svg>
