<svg width="1363" height="167" viewBox="0 0 1363 167" fill="none" xmlns="http://www.w3.org/2000/svg">
<rect width="1363" height="167" rx="15" fill="#F0F0F0"/>
<path d="M0 15C0 6.71573 6.71573 0 15 0H37V167H15C6.71573 167 0 160.284 0 152V15Z" fill="#424241"/>
<path d="M100.906 50.9219L93.3945 48.2383V45.0859L103.602 49.375V51.6367L100.906 50.9219ZM93.3945 53.1719L100.918 50.4297L103.602 49.7852V52.0352L93.3945 56.3242V53.1719ZM118.578 50.5117H114.195L114.172 48.0977H117.852C118.5 48.0977 119.031 48.0156 119.445 47.8516C119.859 47.6797 120.168 47.4336 120.371 47.1133C120.582 46.7852 120.688 46.3867 120.688 45.918C120.688 45.3867 120.586 44.957 120.383 44.6289C120.188 44.3008 119.879 44.0625 119.457 43.9141C119.043 43.7656 118.508 43.6914 117.852 43.6914H115.414V58H111.898V40.9375H117.852C118.844 40.9375 119.73 41.0312 120.512 41.2188C121.301 41.4062 121.969 41.6914 122.516 42.0742C123.062 42.457 123.48 42.9414 123.77 43.5273C124.059 44.1055 124.203 44.793 124.203 45.5898C124.203 46.293 124.043 46.9414 123.723 47.5352C123.41 48.1289 122.914 48.6133 122.234 48.9883C121.562 49.3633 120.684 49.5703 119.598 49.6094L118.578 50.5117ZM118.426 58H113.234L114.605 55.2578H118.426C119.043 55.2578 119.547 55.1602 119.938 54.9648C120.328 54.7617 120.617 54.4883 120.805 54.1445C120.992 53.8008 121.086 53.4062 121.086 52.9609C121.086 52.4609 121 52.0273 120.828 51.6602C120.664 51.293 120.398 51.0117 120.031 50.8164C119.664 50.6133 119.18 50.5117 118.578 50.5117H115.191L115.215 48.0977H119.434L120.242 49.0469C121.281 49.0312 122.117 49.2148 122.75 49.5977C123.391 49.9727 123.855 50.4609 124.145 51.0625C124.441 51.6641 124.59 52.3086 124.59 52.9961C124.59 54.0898 124.352 55.0117 123.875 55.7617C123.398 56.5039 122.699 57.0625 121.777 57.4375C120.863 57.8125 119.746 58 118.426 58ZM126.477 51.7891V51.543C126.477 50.6133 126.609 49.7578 126.875 48.9766C127.141 48.1875 127.527 47.5039 128.035 46.9258C128.543 46.3477 129.168 45.8984 129.91 45.5781C130.652 45.25 131.504 45.0859 132.465 45.0859C133.426 45.0859 134.281 45.25 135.031 45.5781C135.781 45.8984 136.41 46.3477 136.918 46.9258C137.434 47.5039 137.824 48.1875 138.09 48.9766C138.355 49.7578 138.488 50.6133 138.488 51.543V51.7891C138.488 52.7109 138.355 53.5664 138.09 54.3555C137.824 55.1367 137.434 55.8203 136.918 56.4062C136.41 56.9844 135.785 57.4336 135.043 57.7539C134.301 58.0742 133.449 58.2344 132.488 58.2344C131.527 58.2344 130.672 58.0742 129.922 57.7539C129.18 57.4336 128.551 56.9844 128.035 56.4062C127.527 55.8203 127.141 55.1367 126.875 54.3555C126.609 53.5664 126.477 52.7109 126.477 51.7891ZM129.852 51.543V51.7891C129.852 52.3203 129.898 52.8164 129.992 53.2773C130.086 53.7383 130.234 54.1445 130.438 54.4961C130.648 54.8398 130.922 55.1094 131.258 55.3047C131.594 55.5 132.004 55.5977 132.488 55.5977C132.957 55.5977 133.359 55.5 133.695 55.3047C134.031 55.1094 134.301 54.8398 134.504 54.4961C134.707 54.1445 134.855 53.7383 134.949 53.2773C135.051 52.8164 135.102 52.3203 135.102 51.7891V51.543C135.102 51.0273 135.051 50.543 134.949 50.0898C134.855 49.6289 134.703 49.2227 134.492 48.8711C134.289 48.5117 134.02 48.2305 133.684 48.0273C133.348 47.8242 132.941 47.7227 132.465 47.7227C131.988 47.7227 131.582 47.8242 131.246 48.0273C130.918 48.2305 130.648 48.5117 130.438 48.8711C130.234 49.2227 130.086 49.6289 129.992 50.0898C129.898 50.543 129.852 51.0273 129.852 51.543ZM140.023 51.7891V51.543C140.023 50.6133 140.156 49.7578 140.422 48.9766C140.688 48.1875 141.074 47.5039 141.582 46.9258C142.09 46.3477 142.715 45.8984 143.457 45.5781C144.199 45.25 145.051 45.0859 146.012 45.0859C146.973 45.0859 147.828 45.25 148.578 45.5781C149.328 45.8984 149.957 46.3477 150.465 46.9258C150.98 47.5039 151.371 48.1875 151.637 48.9766C151.902 49.7578 152.035 50.6133 152.035 51.543V51.7891C152.035 52.7109 151.902 53.5664 151.637 54.3555C151.371 55.1367 150.98 55.8203 150.465 56.4062C149.957 56.9844 149.332 57.4336 148.59 57.7539C147.848 58.0742 146.996 58.2344 146.035 58.2344C145.074 58.2344 144.219 58.0742 143.469 57.7539C142.727 57.4336 142.098 56.9844 141.582 56.4062C141.074 55.8203 140.688 55.1367 140.422 54.3555C140.156 53.5664 140.023 52.7109 140.023 51.7891ZM143.398 51.543V51.7891C143.398 52.3203 143.445 52.8164 143.539 53.2773C143.633 53.7383 143.781 54.1445 143.984 54.4961C144.195 54.8398 144.469 55.1094 144.805 55.3047C145.141 55.5 145.551 55.5977 146.035 55.5977C146.504 55.5977 146.906 55.5 147.242 55.3047C147.578 55.1094 147.848 54.8398 148.051 54.4961C148.254 54.1445 148.402 53.7383 148.496 53.2773C148.598 52.8164 148.648 52.3203 148.648 51.7891V51.543C148.648 51.0273 148.598 50.543 148.496 50.0898C148.402 49.6289 148.25 49.2227 148.039 48.8711C147.836 48.5117 147.566 48.2305 147.23 48.0273C146.895 47.8242 146.488 47.7227 146.012 47.7227C145.535 47.7227 145.129 47.8242 144.793 48.0273C144.465 48.2305 144.195 48.5117 143.984 48.8711C143.781 49.2227 143.633 49.6289 143.539 50.0898C143.445 50.543 143.398 51.0273 143.398 51.543ZM157.484 39.9883V58H154.109V39.9883H157.484ZM165.477 45.3203L159.969 51.6016L157.016 54.5898L155.785 52.1523L158.129 49.1758L161.422 45.3203H165.477ZM161.973 58L158.223 52.1406L160.555 50.1016L165.863 58H161.973ZM170.305 47.9453V58H166.918V45.3203H170.094L170.305 47.9453ZM169.836 51.2148H168.898C168.898 50.332 169.004 49.5195 169.215 48.7773C169.434 48.0273 169.75 47.3789 170.164 46.832C170.586 46.2773 171.105 45.8477 171.723 45.543C172.34 45.2383 173.055 45.0859 173.867 45.0859C174.43 45.0859 174.945 45.1719 175.414 45.3438C175.883 45.5078 176.285 45.7695 176.621 46.1289C176.965 46.4805 177.23 46.9414 177.418 47.5117C177.605 48.0742 177.699 48.75 177.699 49.5391V58H174.324V49.9141C174.324 49.3359 174.246 48.8906 174.09 48.5781C173.934 48.2656 173.711 48.0469 173.422 47.9219C173.141 47.7969 172.801 47.7344 172.402 47.7344C171.965 47.7344 171.582 47.8242 171.254 48.0039C170.934 48.1836 170.668 48.4336 170.457 48.7539C170.246 49.0664 170.09 49.4336 169.988 49.8555C169.887 50.2773 169.836 50.7305 169.836 51.2148ZM177.383 50.8281L176.176 50.9805C176.176 50.1523 176.277 49.3828 176.48 48.6719C176.691 47.9609 177 47.3359 177.406 46.7969C177.82 46.2578 178.332 45.8398 178.941 45.543C179.551 45.2383 180.254 45.0859 181.051 45.0859C181.66 45.0859 182.215 45.1758 182.715 45.3555C183.215 45.5273 183.641 45.8047 183.992 46.1875C184.352 46.5625 184.625 47.0547 184.812 47.6641C185.008 48.2734 185.105 49.0195 185.105 49.9023V58H181.719V49.9023C181.719 49.3164 181.641 48.8711 181.484 48.5664C181.336 48.2539 181.117 48.0391 180.828 47.9219C180.547 47.7969 180.211 47.7344 179.82 47.7344C179.414 47.7344 179.059 47.8164 178.754 47.9805C178.449 48.1367 178.195 48.3555 177.992 48.6367C177.789 48.918 177.637 49.2461 177.535 49.6211C177.434 49.9883 177.383 50.3906 177.383 50.8281ZM194.562 55.1406V49.4922C194.562 49.0859 194.496 48.7383 194.363 48.4492C194.23 48.1523 194.023 47.9219 193.742 47.7578C193.469 47.5938 193.113 47.5117 192.676 47.5117C192.301 47.5117 191.977 47.5781 191.703 47.7109C191.43 47.8359 191.219 48.0195 191.07 48.2617C190.922 48.4961 190.848 48.7734 190.848 49.0938H187.473C187.473 48.5547 187.598 48.043 187.848 47.5586C188.098 47.0742 188.461 46.6484 188.938 46.2812C189.414 45.9062 189.98 45.6133 190.637 45.4023C191.301 45.1914 192.043 45.0859 192.863 45.0859C193.848 45.0859 194.723 45.25 195.488 45.5781C196.254 45.9062 196.855 46.3984 197.293 47.0547C197.738 47.7109 197.961 48.5312 197.961 49.5156V54.9414C197.961 55.6367 198.004 56.207 198.09 56.6523C198.176 57.0898 198.301 57.4727 198.465 57.8008V58H195.055C194.891 57.6562 194.766 57.2266 194.68 56.7109C194.602 56.1875 194.562 55.6641 194.562 55.1406ZM195.008 50.2773L195.031 52.1875H193.145C192.699 52.1875 192.312 52.2383 191.984 52.3398C191.656 52.4414 191.387 52.5859 191.176 52.7734C190.965 52.9531 190.809 53.1641 190.707 53.4062C190.613 53.6484 190.566 53.9141 190.566 54.2031C190.566 54.4922 190.633 54.7539 190.766 54.9883C190.898 55.2148 191.09 55.3945 191.34 55.5273C191.59 55.6523 191.883 55.7148 192.219 55.7148C192.727 55.7148 193.168 55.6133 193.543 55.4102C193.918 55.207 194.207 54.957 194.41 54.6602C194.621 54.3633 194.73 54.082 194.738 53.8164L195.629 55.2461C195.504 55.5664 195.332 55.8984 195.113 56.2422C194.902 56.5859 194.633 56.9102 194.305 57.2148C193.977 57.5117 193.582 57.7578 193.121 57.9531C192.66 58.1406 192.113 58.2344 191.48 58.2344C190.676 58.2344 189.945 58.0742 189.289 57.7539C188.641 57.4258 188.125 56.9766 187.742 56.4062C187.367 55.8281 187.18 55.1719 187.18 54.4375C187.18 53.7734 187.305 53.1836 187.555 52.668C187.805 52.1523 188.172 51.7188 188.656 51.3672C189.148 51.0078 189.762 50.7383 190.496 50.5586C191.23 50.3711 192.082 50.2773 193.051 50.2773H195.008ZM206.773 45.3203V47.7109H199.391V45.3203H206.773ZM201.219 42.1914H204.594V54.1797C204.594 54.5469 204.641 54.8281 204.734 55.0234C204.836 55.2188 204.984 55.3555 205.18 55.4336C205.375 55.5039 205.621 55.5391 205.918 55.5391C206.129 55.5391 206.316 55.5312 206.48 55.5156C206.652 55.4922 206.797 55.4688 206.914 55.4453L206.926 57.9297C206.637 58.0234 206.324 58.0977 205.988 58.1523C205.652 58.207 205.281 58.2344 204.875 58.2344C204.133 58.2344 203.484 58.1133 202.93 57.8711C202.383 57.6211 201.961 57.2227 201.664 56.6758C201.367 56.1289 201.219 55.4102 201.219 54.5195V42.1914ZM214.531 58.2344C213.547 58.2344 212.664 58.0781 211.883 57.7656C211.102 57.4453 210.438 57.0039 209.891 56.4414C209.352 55.8789 208.938 55.2266 208.648 54.4844C208.359 53.7344 208.215 52.9375 208.215 52.0938V51.625C208.215 50.6641 208.352 49.7852 208.625 48.9883C208.898 48.1914 209.289 47.5 209.797 46.9141C210.312 46.3281 210.938 45.8789 211.672 45.5664C212.406 45.2461 213.234 45.0859 214.156 45.0859C215.055 45.0859 215.852 45.2344 216.547 45.5312C217.242 45.8281 217.824 46.25 218.293 46.7969C218.77 47.3438 219.129 48 219.371 48.7656C219.613 49.5234 219.734 50.3672 219.734 51.2969V52.7031H209.656V50.4531H216.418V50.1953C216.418 49.7266 216.332 49.3086 216.16 48.9414C215.996 48.5664 215.746 48.2695 215.41 48.0508C215.074 47.832 214.645 47.7227 214.121 47.7227C213.676 47.7227 213.293 47.8203 212.973 48.0156C212.652 48.2109 212.391 48.4844 212.188 48.8359C211.992 49.1875 211.844 49.6016 211.742 50.0781C211.648 50.5469 211.602 51.0625 211.602 51.625V52.0938C211.602 52.6016 211.672 53.0703 211.812 53.5C211.961 53.9297 212.168 54.3008 212.434 54.6133C212.707 54.9258 213.035 55.168 213.418 55.3398C213.809 55.5117 214.25 55.5977 214.742 55.5977C215.352 55.5977 215.918 55.4805 216.441 55.2461C216.973 55.0039 217.43 54.6406 217.812 54.1562L219.453 55.9375C219.188 56.3203 218.824 56.6875 218.363 57.0391C217.91 57.3906 217.363 57.6797 216.723 57.9062C216.082 58.125 215.352 58.2344 214.531 58.2344ZM228.512 54.4961C228.512 54.2539 228.441 54.0352 228.301 53.8398C228.16 53.6445 227.898 53.4648 227.516 53.3008C227.141 53.1289 226.598 52.9727 225.887 52.832C225.246 52.6914 224.648 52.5156 224.094 52.3047C223.547 52.0859 223.07 51.8242 222.664 51.5195C222.266 51.2148 221.953 50.8555 221.727 50.4414C221.5 50.0195 221.387 49.5391 221.387 49C221.387 48.4688 221.5 47.9688 221.727 47.5C221.961 47.0312 222.293 46.6172 222.723 46.2578C223.16 45.8906 223.691 45.6055 224.316 45.4023C224.949 45.1914 225.66 45.0859 226.449 45.0859C227.551 45.0859 228.496 45.2617 229.285 45.6133C230.082 45.9648 230.691 46.4492 231.113 47.0664C231.543 47.6758 231.758 48.3711 231.758 49.1523H228.383C228.383 48.8242 228.312 48.5312 228.172 48.2734C228.039 48.0078 227.828 47.8008 227.539 47.6523C227.258 47.4961 226.891 47.418 226.438 47.418C226.062 47.418 225.738 47.4844 225.465 47.6172C225.191 47.7422 224.98 47.9141 224.832 48.1328C224.691 48.3438 224.621 48.5781 224.621 48.8359C224.621 49.0312 224.66 49.207 224.738 49.3633C224.824 49.5117 224.961 49.6484 225.148 49.7734C225.336 49.8984 225.578 50.0156 225.875 50.125C226.18 50.2266 226.555 50.3203 227 50.4062C227.914 50.5938 228.73 50.8398 229.449 51.1445C230.168 51.4414 230.738 51.8477 231.16 52.3633C231.582 52.8711 231.793 53.5391 231.793 54.3672C231.793 54.9297 231.668 55.4453 231.418 55.9141C231.168 56.3828 230.809 56.793 230.34 57.1445C229.871 57.4883 229.309 57.7578 228.652 57.9531C228.004 58.1406 227.273 58.2344 226.461 58.2344C225.281 58.2344 224.281 58.0234 223.461 57.6016C222.648 57.1797 222.031 56.6445 221.609 55.9961C221.195 55.3398 220.988 54.668 220.988 53.9805H224.188C224.203 54.4414 224.32 54.8125 224.539 55.0938C224.766 55.375 225.051 55.5781 225.395 55.7031C225.746 55.8281 226.125 55.8906 226.531 55.8906C226.969 55.8906 227.332 55.832 227.621 55.7148C227.91 55.5898 228.129 55.4258 228.277 55.2227C228.434 55.0117 228.512 54.7695 228.512 54.4961Z" fill="#888888"/>
<path d="M102.635 86.0078V118H94.9443V86.0078H102.635ZM115.181 99.2573V118H107.776V94.2256H114.72L115.181 99.2573ZM114.28 105.3L112.588 105.344C112.588 103.674 112.786 102.136 113.182 100.729C113.577 99.3232 114.163 98.1001 114.939 97.0601C115.716 96.02 116.668 95.2144 117.796 94.6431C118.938 94.0718 120.257 93.7861 121.751 93.7861C122.791 93.7861 123.736 93.9473 124.585 94.2695C125.435 94.5771 126.167 95.0679 126.783 95.7417C127.398 96.4009 127.867 97.2651 128.189 98.3345C128.526 99.3892 128.694 100.656 128.694 102.136V118H121.29V103.081C121.29 102.07 121.172 101.308 120.938 100.795C120.718 100.283 120.396 99.9385 119.971 99.7627C119.546 99.5869 119.026 99.499 118.411 99.499C117.767 99.499 117.188 99.6455 116.675 99.9385C116.163 100.231 115.723 100.642 115.357 101.169C115.005 101.682 114.734 102.29 114.544 102.993C114.368 103.696 114.28 104.465 114.28 105.3ZM127.859 105.3L125.794 105.344C125.794 103.674 125.977 102.136 126.343 100.729C126.724 99.3232 127.288 98.1001 128.035 97.0601C128.797 96.02 129.742 95.2144 130.87 94.6431C131.998 94.0718 133.309 93.7861 134.803 93.7861C135.887 93.7861 136.883 93.9473 137.791 94.2695C138.699 94.5918 139.483 95.1118 140.142 95.8296C140.801 96.5474 141.314 97.4995 141.68 98.686C142.046 99.8579 142.229 101.308 142.229 103.037V118H134.803V103.037C134.803 102.055 134.686 101.315 134.451 100.817C134.231 100.305 133.909 99.9604 133.484 99.7847C133.06 99.5942 132.554 99.499 131.968 99.499C131.265 99.499 130.657 99.6455 130.145 99.9385C129.632 100.231 129.2 100.642 128.848 101.169C128.511 101.682 128.262 102.29 128.101 102.993C127.94 103.696 127.859 104.465 127.859 105.3ZM153.941 98.7959V127.141H146.536V94.2256H153.436L153.941 98.7959ZM168.531 105.827V106.289C168.531 108.017 168.333 109.621 167.938 111.101C167.542 112.58 166.956 113.869 166.18 114.968C165.403 116.066 164.437 116.923 163.279 117.539C162.137 118.139 160.811 118.439 159.302 118.439C157.881 118.439 156.658 118.125 155.633 117.495C154.607 116.865 153.75 115.993 153.062 114.88C152.374 113.767 151.817 112.492 151.392 111.057C150.967 109.621 150.63 108.105 150.381 106.508V105.915C150.63 104.201 150.967 102.612 151.392 101.147C151.817 99.6675 152.374 98.3784 153.062 97.2798C153.75 96.1812 154.6 95.3242 155.611 94.709C156.636 94.0938 157.859 93.7861 159.28 93.7861C160.789 93.7861 162.115 94.0718 163.257 94.6431C164.415 95.2144 165.381 96.0347 166.158 97.104C166.949 98.1587 167.542 99.4258 167.938 100.905C168.333 102.385 168.531 104.025 168.531 105.827ZM161.126 106.289V105.827C161.126 104.904 161.06 104.062 160.928 103.3C160.796 102.524 160.584 101.85 160.291 101.279C160.013 100.708 159.639 100.268 159.17 99.9604C158.702 99.6528 158.123 99.499 157.435 99.499C156.644 99.499 155.977 99.6235 155.435 99.8726C154.908 100.107 154.483 100.473 154.161 100.971C153.853 101.455 153.633 102.062 153.501 102.795C153.384 103.513 153.333 104.355 153.348 105.322V107.124C153.318 108.237 153.428 109.218 153.677 110.068C153.926 110.903 154.358 111.555 154.974 112.023C155.589 112.492 156.424 112.727 157.479 112.727C158.182 112.727 158.768 112.565 159.236 112.243C159.705 111.906 160.079 111.445 160.357 110.859C160.635 110.258 160.833 109.57 160.95 108.793C161.067 108.017 161.126 107.182 161.126 106.289ZM179.649 84.25V118H172.222V84.25H179.649ZM195.733 118.439C193.799 118.439 192.071 118.139 190.547 117.539C189.024 116.923 187.735 116.081 186.68 115.012C185.64 113.942 184.842 112.712 184.285 111.32C183.743 109.929 183.472 108.457 183.472 106.904V106.069C183.472 104.326 183.714 102.714 184.197 101.235C184.681 99.7407 185.398 98.437 186.351 97.3237C187.303 96.2104 188.497 95.3462 189.932 94.731C191.368 94.1011 193.038 93.7861 194.942 93.7861C196.626 93.7861 198.135 94.0571 199.468 94.5991C200.801 95.1411 201.929 95.9175 202.852 96.9282C203.79 97.939 204.5 99.1621 204.983 100.598C205.481 102.033 205.73 103.645 205.73 105.432V108.442H186.307V103.806H198.501V103.234C198.516 102.443 198.377 101.77 198.084 101.213C197.806 100.656 197.396 100.231 196.854 99.9385C196.312 99.6455 195.652 99.499 194.876 99.499C194.07 99.499 193.404 99.6748 192.876 100.026C192.364 100.378 191.961 100.861 191.668 101.477C191.39 102.077 191.192 102.773 191.075 103.564C190.958 104.355 190.899 105.19 190.899 106.069V106.904C190.899 107.783 191.016 108.581 191.25 109.299C191.5 110.017 191.851 110.632 192.305 111.145C192.774 111.643 193.331 112.031 193.975 112.309C194.634 112.587 195.381 112.727 196.216 112.727C197.227 112.727 198.223 112.536 199.205 112.155C200.186 111.774 201.028 111.145 201.731 110.266L205.093 114.265C204.61 114.953 203.921 115.62 203.028 116.264C202.149 116.909 201.094 117.436 199.864 117.846C198.633 118.242 197.256 118.439 195.733 118.439ZM216.211 99.2573V118H208.807V94.2256H215.75L216.211 99.2573ZM215.311 105.3L213.619 105.344C213.619 103.674 213.816 102.136 214.212 100.729C214.607 99.3232 215.193 98.1001 215.97 97.0601C216.746 96.02 217.698 95.2144 218.826 94.6431C219.969 94.0718 221.287 93.7861 222.781 93.7861C223.821 93.7861 224.766 93.9473 225.616 94.2695C226.465 94.5771 227.198 95.0679 227.813 95.7417C228.428 96.4009 228.897 97.2651 229.219 98.3345C229.556 99.3892 229.725 100.656 229.725 102.136V118H222.32V103.081C222.32 102.07 222.203 101.308 221.968 100.795C221.749 100.283 221.426 99.9385 221.001 99.7627C220.577 99.5869 220.057 99.499 219.441 99.499C218.797 99.499 218.218 99.6455 217.706 99.9385C217.193 100.231 216.753 100.642 216.387 101.169C216.036 101.682 215.765 102.29 215.574 102.993C215.398 103.696 215.311 104.465 215.311 105.3ZM228.89 105.3L226.824 105.344C226.824 103.674 227.007 102.136 227.374 100.729C227.754 99.3232 228.318 98.1001 229.065 97.0601C229.827 96.02 230.772 95.2144 231.9 94.6431C233.028 94.0718 234.339 93.7861 235.833 93.7861C236.917 93.7861 237.913 93.9473 238.821 94.2695C239.729 94.5918 240.513 95.1118 241.172 95.8296C241.832 96.5474 242.344 97.4995 242.71 98.686C243.077 99.8579 243.26 101.308 243.26 103.037V118H235.833V103.037C235.833 102.055 235.716 101.315 235.481 100.817C235.262 100.305 234.939 99.9604 234.515 99.7847C234.09 99.5942 233.584 99.499 232.999 99.499C232.295 99.499 231.688 99.6455 231.175 99.9385C230.662 100.231 230.23 100.642 229.878 101.169C229.542 101.682 229.292 102.29 229.131 102.993C228.97 103.696 228.89 104.465 228.89 105.3ZM259.014 118.439C257.081 118.439 255.352 118.139 253.829 117.539C252.305 116.923 251.016 116.081 249.961 115.012C248.921 113.942 248.123 112.712 247.566 111.32C247.024 109.929 246.753 108.457 246.753 106.904V106.069C246.753 104.326 246.995 102.714 247.479 101.235C247.962 99.7407 248.68 98.437 249.632 97.3237C250.584 96.2104 251.778 95.3462 253.213 94.731C254.649 94.1011 256.319 93.7861 258.223 93.7861C259.908 93.7861 261.417 94.0571 262.75 94.5991C264.083 95.1411 265.21 95.9175 266.133 96.9282C267.071 97.939 267.781 99.1621 268.265 100.598C268.763 102.033 269.012 103.645 269.012 105.432V108.442H249.588V103.806H261.783V103.234C261.797 102.443 261.658 101.77 261.365 101.213C261.087 100.656 260.677 100.231 260.135 99.9385C259.593 99.6455 258.934 99.499 258.157 99.499C257.352 99.499 256.685 99.6748 256.158 100.026C255.645 100.378 255.242 100.861 254.949 101.477C254.671 102.077 254.473 102.773 254.356 103.564C254.239 104.355 254.18 105.19 254.18 106.069V106.904C254.18 107.783 254.297 108.581 254.532 109.299C254.781 110.017 255.132 110.632 255.586 111.145C256.055 111.643 256.612 112.031 257.256 112.309C257.916 112.587 258.663 112.727 259.498 112.727C260.508 112.727 261.504 112.536 262.486 112.155C263.467 111.774 264.31 111.145 265.013 110.266L268.375 114.265C267.891 114.953 267.203 115.62 266.309 116.264C265.43 116.909 264.375 117.436 263.145 117.846C261.915 118.242 260.538 118.439 259.014 118.439ZM279.295 99.3013V118H271.89V94.2256H278.833L279.295 99.3013ZM278.416 105.3L276.68 105.344C276.68 103.527 276.9 101.909 277.339 100.488C277.779 99.0522 278.401 97.8364 279.207 96.8403C280.013 95.8442 280.972 95.0898 282.085 94.5771C283.213 94.0498 284.466 93.7861 285.843 93.7861C286.941 93.7861 287.945 93.9473 288.853 94.2695C289.776 94.5918 290.567 95.1118 291.226 95.8296C291.9 96.5474 292.413 97.4995 292.764 98.686C293.13 99.8579 293.313 101.308 293.313 103.037V118H285.865V103.015C285.865 102.062 285.733 101.337 285.469 100.839C285.206 100.327 284.825 99.9751 284.327 99.7847C283.829 99.5942 283.221 99.499 282.503 99.499C281.741 99.499 281.097 99.6455 280.569 99.9385C280.042 100.231 279.617 100.642 279.295 101.169C278.987 101.682 278.76 102.29 278.614 102.993C278.482 103.696 278.416 104.465 278.416 105.3ZM309.947 94.2256V99.3672H295.621V94.2256H309.947ZM298.631 88.3149H306.036V110.244C306.036 110.874 306.109 111.364 306.255 111.716C306.402 112.053 306.651 112.294 307.002 112.441C307.369 112.573 307.852 112.639 308.453 112.639C308.877 112.639 309.229 112.631 309.507 112.617C309.786 112.587 310.049 112.551 310.298 112.507V117.802C309.668 118.007 309.009 118.161 308.321 118.264C307.632 118.381 306.9 118.439 306.124 118.439C304.542 118.439 303.187 118.19 302.059 117.692C300.945 117.194 300.096 116.411 299.51 115.341C298.924 114.272 298.631 112.88 298.631 111.167V88.3149ZM325.24 112.023V102.224C325.24 101.55 325.145 100.971 324.954 100.488C324.764 100.004 324.463 99.6309 324.053 99.3672C323.643 99.0889 323.094 98.9497 322.405 98.9497C321.849 98.9497 321.373 99.0449 320.977 99.2354C320.582 99.4258 320.281 99.7114 320.076 100.092C319.871 100.473 319.769 100.957 319.769 101.542H312.364C312.364 100.444 312.605 99.4258 313.089 98.4883C313.587 97.5361 314.29 96.7085 315.198 96.0054C316.121 95.3022 317.22 94.7603 318.494 94.3794C319.783 93.9839 321.219 93.7861 322.801 93.7861C324.69 93.7861 326.375 94.1011 327.854 94.731C329.349 95.3608 330.528 96.3057 331.392 97.5654C332.256 98.8105 332.688 100.378 332.688 102.268V112.001C332.688 113.554 332.776 114.733 332.952 115.539C333.128 116.33 333.377 117.026 333.699 117.626V118H326.272C325.921 117.268 325.657 116.374 325.481 115.319C325.32 114.25 325.24 113.151 325.24 112.023ZM326.141 103.476L326.185 107.431H322.911C322.222 107.431 321.636 107.526 321.153 107.717C320.684 107.907 320.303 108.171 320.01 108.508C319.732 108.83 319.527 109.196 319.395 109.606C319.278 110.017 319.219 110.449 319.219 110.903C319.219 111.342 319.322 111.738 319.527 112.089C319.747 112.426 320.04 112.69 320.406 112.88C320.772 113.071 321.182 113.166 321.636 113.166C322.457 113.166 323.152 113.012 323.724 112.705C324.31 112.382 324.756 111.994 325.064 111.54C325.372 111.086 325.525 110.661 325.525 110.266L327.151 113.298C326.858 113.884 326.521 114.477 326.141 115.078C325.774 115.678 325.313 116.235 324.756 116.748C324.214 117.246 323.548 117.656 322.757 117.978C321.966 118.286 321.006 118.439 319.878 118.439C318.414 118.439 317.066 118.139 315.835 117.539C314.62 116.938 313.646 116.103 312.913 115.034C312.181 113.95 311.814 112.705 311.814 111.298C311.814 110.068 312.034 108.969 312.474 108.002C312.928 107.036 313.609 106.215 314.517 105.542C315.425 104.868 316.583 104.355 317.989 104.003C319.395 103.652 321.05 103.476 322.955 103.476H326.141ZM349.322 94.2256V99.3672H334.996V94.2256H349.322ZM338.006 88.3149H345.411V110.244C345.411 110.874 345.484 111.364 345.63 111.716C345.777 112.053 346.026 112.294 346.377 112.441C346.744 112.573 347.227 112.639 347.828 112.639C348.252 112.639 348.604 112.631 348.882 112.617C349.161 112.587 349.424 112.551 349.673 112.507V117.802C349.043 118.007 348.384 118.161 347.696 118.264C347.007 118.381 346.275 118.439 345.499 118.439C343.917 118.439 342.562 118.19 341.434 117.692C340.32 117.194 339.471 116.411 338.885 115.341C338.299 114.272 338.006 112.88 338.006 111.167V88.3149ZM360.088 94.2256V118H352.662V94.2256H360.088ZM352.222 88.0952C352.222 87.0405 352.603 86.1763 353.365 85.5024C354.126 84.8286 355.115 84.4917 356.331 84.4917C357.547 84.4917 358.536 84.8286 359.297 85.5024C360.059 86.1763 360.44 87.0405 360.44 88.0952C360.44 89.1499 360.059 90.0142 359.297 90.688C358.536 91.3618 357.547 91.6987 356.331 91.6987C355.115 91.6987 354.126 91.3618 353.365 90.688C352.603 90.0142 352.222 89.1499 352.222 88.0952ZM363.736 106.354V105.893C363.736 104.15 363.985 102.546 364.483 101.081C364.981 99.6016 365.713 98.3198 366.68 97.2358C367.647 96.1519 368.841 95.3096 370.262 94.709C371.683 94.0938 373.323 93.7861 375.184 93.7861C377.059 93.7861 378.707 94.0938 380.127 94.709C381.563 95.3096 382.764 96.1519 383.731 97.2358C384.698 98.3198 385.43 99.6016 385.928 101.081C386.426 102.546 386.675 104.15 386.675 105.893V106.354C386.675 108.083 386.426 109.687 385.928 111.167C385.43 112.631 384.698 113.913 383.731 115.012C382.764 116.096 381.57 116.938 380.149 117.539C378.729 118.139 377.088 118.439 375.228 118.439C373.367 118.439 371.719 118.139 370.284 117.539C368.848 116.938 367.647 116.096 366.68 115.012C365.713 113.913 364.981 112.631 364.483 111.167C363.985 109.687 363.736 108.083 363.736 106.354ZM371.141 105.893V106.354C371.141 107.248 371.207 108.083 371.338 108.859C371.47 109.636 371.69 110.317 371.998 110.903C372.305 111.474 372.723 111.921 373.25 112.243C373.777 112.565 374.437 112.727 375.228 112.727C376.004 112.727 376.648 112.565 377.161 112.243C377.688 111.921 378.106 111.474 378.414 110.903C378.721 110.317 378.941 109.636 379.073 108.859C379.205 108.083 379.271 107.248 379.271 106.354V105.893C379.271 105.029 379.205 104.216 379.073 103.454C378.941 102.678 378.721 101.997 378.414 101.411C378.106 100.81 377.688 100.341 377.161 100.004C376.634 99.6675 375.975 99.499 375.184 99.499C374.407 99.499 373.755 99.6675 373.228 100.004C372.715 100.341 372.305 100.81 371.998 101.411C371.69 101.997 371.47 102.678 371.338 103.454C371.207 104.216 371.141 105.029 371.141 105.893ZM397.244 99.3013V118H389.839V94.2256H396.783L397.244 99.3013ZM396.365 105.3L394.629 105.344C394.629 103.527 394.849 101.909 395.289 100.488C395.728 99.0522 396.351 97.8364 397.156 96.8403C397.962 95.8442 398.921 95.0898 400.035 94.5771C401.163 94.0498 402.415 93.7861 403.792 93.7861C404.891 93.7861 405.894 93.9473 406.802 94.2695C407.725 94.5918 408.516 95.1118 409.175 95.8296C409.849 96.5474 410.362 97.4995 410.713 98.686C411.08 99.8579 411.263 101.308 411.263 103.037V118H403.814V103.015C403.814 102.062 403.682 101.337 403.418 100.839C403.155 100.327 402.774 99.9751 402.276 99.7847C401.778 99.5942 401.17 99.499 400.452 99.499C399.69 99.499 399.046 99.6455 398.519 99.9385C397.991 100.231 397.566 100.642 397.244 101.169C396.937 101.682 396.709 102.29 396.563 102.993C396.431 103.696 396.365 104.465 396.365 105.3Z" fill="#424241"/>
<path d="M1363 15C1363 6.71573 1356.28 0 1348 0H1134V167H1348C1356.28 167 1363 160.284 1363 152V15Z" fill="#6886C5"/>
<path d="M1281.5 49H1216.5L1214 51.5V116.5L1216.5 119H1281.5L1284 116.5V51.5L1281.5 49ZM1279 114H1234V104H1245.5C1247 107 1250.5 109 1254 109C1259.5 109 1264 104.5 1264 99C1264 93.5 1259.5 89 1254 89C1248.5 89 1244 93.5 1244 99H1229V114H1219V54H1229V65.5C1226 67 1224 70.5 1224 74C1224 79.5 1228.5 84 1234 84C1239.5 84 1244 79.5 1244 74H1254C1254 79.5 1258.5 84 1264 84C1269.5 84 1274 79.5 1274 74C1274 68.5 1269.5 64 1264 64C1260.5 64 1257 66 1255.5 69H1242.5C1241 66 1237.5 64 1234 64V54H1279V114ZM1249 99C1249 96 1251 94 1254 94C1257 94 1259 96 1259 99C1259 102 1257 104 1254 104C1251 104 1249 102 1249 99ZM1234 69C1237 69 1239 71 1239 74C1239 77 1237 79 1234 79C1231 79 1229 77 1229 74C1229 71 1231 69 1234 69ZM1264 69C1267 69 1269 71 1269 74C1269 77 1267 79 1264 79C1261 79 1259 77 1259 74C1259 71 1261 69 1264 69Z" fill="white"/>
</svg>
