<svg width="1363" height="167" viewBox="0 0 1363 167" fill="none" xmlns="http://www.w3.org/2000/svg">
<rect width="1363" height="167" rx="15" fill="#F0F0F0"/>
<path d="M0 15C0 6.71573 6.71573 0 15 0H37V167H15C6.71573 167 0 160.284 0 152V15Z" fill="#424241"/>
<path d="M100.906 50.9219L93.3945 48.2383V45.0859L103.602 49.375V51.6367L100.906 50.9219ZM93.3945 53.1719L100.918 50.4297L103.602 49.7852V52.0352L93.3945 56.3242V53.1719ZM118.578 50.5117H114.195L114.172 48.0977H117.852C118.5 48.0977 119.031 48.0156 119.445 47.8516C119.859 47.6797 120.168 47.4336 120.371 47.1133C120.582 46.7852 120.688 46.3867 120.688 45.918C120.688 45.3867 120.586 44.957 120.383 44.6289C120.188 44.3008 119.879 44.0625 119.457 43.9141C119.043 43.7656 118.508 43.6914 117.852 43.6914H115.414V58H111.898V40.9375H117.852C118.844 40.9375 119.73 41.0312 120.512 41.2188C121.301 41.4062 121.969 41.6914 122.516 42.0742C123.062 42.457 123.48 42.9414 123.77 43.5273C124.059 44.1055 124.203 44.793 124.203 45.5898C124.203 46.293 124.043 46.9414 123.723 47.5352C123.41 48.1289 122.914 48.6133 122.234 48.9883C121.562 49.3633 120.684 49.5703 119.598 49.6094L118.578 50.5117ZM118.426 58H113.234L114.605 55.2578H118.426C119.043 55.2578 119.547 55.1602 119.938 54.9648C120.328 54.7617 120.617 54.4883 120.805 54.1445C120.992 53.8008 121.086 53.4062 121.086 52.9609C121.086 52.4609 121 52.0273 120.828 51.6602C120.664 51.293 120.398 51.0117 120.031 50.8164C119.664 50.6133 119.18 50.5117 118.578 50.5117H115.191L115.215 48.0977H119.434L120.242 49.0469C121.281 49.0312 122.117 49.2148 122.75 49.5977C123.391 49.9727 123.855 50.4609 124.145 51.0625C124.441 51.6641 124.59 52.3086 124.59 52.9961C124.59 54.0898 124.352 55.0117 123.875 55.7617C123.398 56.5039 122.699 57.0625 121.777 57.4375C120.863 57.8125 119.746 58 118.426 58ZM126.477 51.7891V51.543C126.477 50.6133 126.609 49.7578 126.875 48.9766C127.141 48.1875 127.527 47.5039 128.035 46.9258C128.543 46.3477 129.168 45.8984 129.91 45.5781C130.652 45.25 131.504 45.0859 132.465 45.0859C133.426 45.0859 134.281 45.25 135.031 45.5781C135.781 45.8984 136.41 46.3477 136.918 46.9258C137.434 47.5039 137.824 48.1875 138.09 48.9766C138.355 49.7578 138.488 50.6133 138.488 51.543V51.7891C138.488 52.7109 138.355 53.5664 138.09 54.3555C137.824 55.1367 137.434 55.8203 136.918 56.4062C136.41 56.9844 135.785 57.4336 135.043 57.7539C134.301 58.0742 133.449 58.2344 132.488 58.2344C131.527 58.2344 130.672 58.0742 129.922 57.7539C129.18 57.4336 128.551 56.9844 128.035 56.4062C127.527 55.8203 127.141 55.1367 126.875 54.3555C126.609 53.5664 126.477 52.7109 126.477 51.7891ZM129.852 51.543V51.7891C129.852 52.3203 129.898 52.8164 129.992 53.2773C130.086 53.7383 130.234 54.1445 130.438 54.4961C130.648 54.8398 130.922 55.1094 131.258 55.3047C131.594 55.5 132.004 55.5977 132.488 55.5977C132.957 55.5977 133.359 55.5 133.695 55.3047C134.031 55.1094 134.301 54.8398 134.504 54.4961C134.707 54.1445 134.855 53.7383 134.949 53.2773C135.051 52.8164 135.102 52.3203 135.102 51.7891V51.543C135.102 51.0273 135.051 50.543 134.949 50.0898C134.855 49.6289 134.703 49.2227 134.492 48.8711C134.289 48.5117 134.02 48.2305 133.684 48.0273C133.348 47.8242 132.941 47.7227 132.465 47.7227C131.988 47.7227 131.582 47.8242 131.246 48.0273C130.918 48.2305 130.648 48.5117 130.438 48.8711C130.234 49.2227 130.086 49.6289 129.992 50.0898C129.898 50.543 129.852 51.0273 129.852 51.543ZM140.023 51.7891V51.543C140.023 50.6133 140.156 49.7578 140.422 48.9766C140.688 48.1875 141.074 47.5039 141.582 46.9258C142.09 46.3477 142.715 45.8984 143.457 45.5781C144.199 45.25 145.051 45.0859 146.012 45.0859C146.973 45.0859 147.828 45.25 148.578 45.5781C149.328 45.8984 149.957 46.3477 150.465 46.9258C150.98 47.5039 151.371 48.1875 151.637 48.9766C151.902 49.7578 152.035 50.6133 152.035 51.543V51.7891C152.035 52.7109 151.902 53.5664 151.637 54.3555C151.371 55.1367 150.98 55.8203 150.465 56.4062C149.957 56.9844 149.332 57.4336 148.59 57.7539C147.848 58.0742 146.996 58.2344 146.035 58.2344C145.074 58.2344 144.219 58.0742 143.469 57.7539C142.727 57.4336 142.098 56.9844 141.582 56.4062C141.074 55.8203 140.688 55.1367 140.422 54.3555C140.156 53.5664 140.023 52.7109 140.023 51.7891ZM143.398 51.543V51.7891C143.398 52.3203 143.445 52.8164 143.539 53.2773C143.633 53.7383 143.781 54.1445 143.984 54.4961C144.195 54.8398 144.469 55.1094 144.805 55.3047C145.141 55.5 145.551 55.5977 146.035 55.5977C146.504 55.5977 146.906 55.5 147.242 55.3047C147.578 55.1094 147.848 54.8398 148.051 54.4961C148.254 54.1445 148.402 53.7383 148.496 53.2773C148.598 52.8164 148.648 52.3203 148.648 51.7891V51.543C148.648 51.0273 148.598 50.543 148.496 50.0898C148.402 49.6289 148.25 49.2227 148.039 48.8711C147.836 48.5117 147.566 48.2305 147.23 48.0273C146.895 47.8242 146.488 47.7227 146.012 47.7227C145.535 47.7227 145.129 47.8242 144.793 48.0273C144.465 48.2305 144.195 48.5117 143.984 48.8711C143.781 49.2227 143.633 49.6289 143.539 50.0898C143.445 50.543 143.398 51.0273 143.398 51.543ZM157.484 39.9883V58H154.109V39.9883H157.484ZM165.477 45.3203L159.969 51.6016L157.016 54.5898L155.785 52.1523L158.129 49.1758L161.422 45.3203H165.477ZM161.973 58L158.223 52.1406L160.555 50.1016L165.863 58H161.973ZM170.305 47.9453V58H166.918V45.3203H170.094L170.305 47.9453ZM169.836 51.2148H168.898C168.898 50.332 169.004 49.5195 169.215 48.7773C169.434 48.0273 169.75 47.3789 170.164 46.832C170.586 46.2773 171.105 45.8477 171.723 45.543C172.34 45.2383 173.055 45.0859 173.867 45.0859C174.43 45.0859 174.945 45.1719 175.414 45.3438C175.883 45.5078 176.285 45.7695 176.621 46.1289C176.965 46.4805 177.23 46.9414 177.418 47.5117C177.605 48.0742 177.699 48.75 177.699 49.5391V58H174.324V49.9141C174.324 49.3359 174.246 48.8906 174.09 48.5781C173.934 48.2656 173.711 48.0469 173.422 47.9219C173.141 47.7969 172.801 47.7344 172.402 47.7344C171.965 47.7344 171.582 47.8242 171.254 48.0039C170.934 48.1836 170.668 48.4336 170.457 48.7539C170.246 49.0664 170.09 49.4336 169.988 49.8555C169.887 50.2773 169.836 50.7305 169.836 51.2148ZM177.383 50.8281L176.176 50.9805C176.176 50.1523 176.277 49.3828 176.48 48.6719C176.691 47.9609 177 47.3359 177.406 46.7969C177.82 46.2578 178.332 45.8398 178.941 45.543C179.551 45.2383 180.254 45.0859 181.051 45.0859C181.66 45.0859 182.215 45.1758 182.715 45.3555C183.215 45.5273 183.641 45.8047 183.992 46.1875C184.352 46.5625 184.625 47.0547 184.812 47.6641C185.008 48.2734 185.105 49.0195 185.105 49.9023V58H181.719V49.9023C181.719 49.3164 181.641 48.8711 181.484 48.5664C181.336 48.2539 181.117 48.0391 180.828 47.9219C180.547 47.7969 180.211 47.7344 179.82 47.7344C179.414 47.7344 179.059 47.8164 178.754 47.9805C178.449 48.1367 178.195 48.3555 177.992 48.6367C177.789 48.918 177.637 49.2461 177.535 49.6211C177.434 49.9883 177.383 50.3906 177.383 50.8281ZM194.562 55.1406V49.4922C194.562 49.0859 194.496 48.7383 194.363 48.4492C194.23 48.1523 194.023 47.9219 193.742 47.7578C193.469 47.5938 193.113 47.5117 192.676 47.5117C192.301 47.5117 191.977 47.5781 191.703 47.7109C191.43 47.8359 191.219 48.0195 191.07 48.2617C190.922 48.4961 190.848 48.7734 190.848 49.0938H187.473C187.473 48.5547 187.598 48.043 187.848 47.5586C188.098 47.0742 188.461 46.6484 188.938 46.2812C189.414 45.9062 189.98 45.6133 190.637 45.4023C191.301 45.1914 192.043 45.0859 192.863 45.0859C193.848 45.0859 194.723 45.25 195.488 45.5781C196.254 45.9062 196.855 46.3984 197.293 47.0547C197.738 47.7109 197.961 48.5312 197.961 49.5156V54.9414C197.961 55.6367 198.004 56.207 198.09 56.6523C198.176 57.0898 198.301 57.4727 198.465 57.8008V58H195.055C194.891 57.6562 194.766 57.2266 194.68 56.7109C194.602 56.1875 194.562 55.6641 194.562 55.1406ZM195.008 50.2773L195.031 52.1875H193.145C192.699 52.1875 192.312 52.2383 191.984 52.3398C191.656 52.4414 191.387 52.5859 191.176 52.7734C190.965 52.9531 190.809 53.1641 190.707 53.4062C190.613 53.6484 190.566 53.9141 190.566 54.2031C190.566 54.4922 190.633 54.7539 190.766 54.9883C190.898 55.2148 191.09 55.3945 191.34 55.5273C191.59 55.6523 191.883 55.7148 192.219 55.7148C192.727 55.7148 193.168 55.6133 193.543 55.4102C193.918 55.207 194.207 54.957 194.41 54.6602C194.621 54.3633 194.73 54.082 194.738 53.8164L195.629 55.2461C195.504 55.5664 195.332 55.8984 195.113 56.2422C194.902 56.5859 194.633 56.9102 194.305 57.2148C193.977 57.5117 193.582 57.7578 193.121 57.9531C192.66 58.1406 192.113 58.2344 191.48 58.2344C190.676 58.2344 189.945 58.0742 189.289 57.7539C188.641 57.4258 188.125 56.9766 187.742 56.4062C187.367 55.8281 187.18 55.1719 187.18 54.4375C187.18 53.7734 187.305 53.1836 187.555 52.668C187.805 52.1523 188.172 51.7188 188.656 51.3672C189.148 51.0078 189.762 50.7383 190.496 50.5586C191.23 50.3711 192.082 50.2773 193.051 50.2773H195.008ZM206.773 45.3203V47.7109H199.391V45.3203H206.773ZM201.219 42.1914H204.594V54.1797C204.594 54.5469 204.641 54.8281 204.734 55.0234C204.836 55.2188 204.984 55.3555 205.18 55.4336C205.375 55.5039 205.621 55.5391 205.918 55.5391C206.129 55.5391 206.316 55.5312 206.48 55.5156C206.652 55.4922 206.797 55.4688 206.914 55.4453L206.926 57.9297C206.637 58.0234 206.324 58.0977 205.988 58.1523C205.652 58.207 205.281 58.2344 204.875 58.2344C204.133 58.2344 203.484 58.1133 202.93 57.8711C202.383 57.6211 201.961 57.2227 201.664 56.6758C201.367 56.1289 201.219 55.4102 201.219 54.5195V42.1914ZM214.531 58.2344C213.547 58.2344 212.664 58.0781 211.883 57.7656C211.102 57.4453 210.438 57.0039 209.891 56.4414C209.352 55.8789 208.938 55.2266 208.648 54.4844C208.359 53.7344 208.215 52.9375 208.215 52.0938V51.625C208.215 50.6641 208.352 49.7852 208.625 48.9883C208.898 48.1914 209.289 47.5 209.797 46.9141C210.312 46.3281 210.938 45.8789 211.672 45.5664C212.406 45.2461 213.234 45.0859 214.156 45.0859C215.055 45.0859 215.852 45.2344 216.547 45.5312C217.242 45.8281 217.824 46.25 218.293 46.7969C218.77 47.3438 219.129 48 219.371 48.7656C219.613 49.5234 219.734 50.3672 219.734 51.2969V52.7031H209.656V50.4531H216.418V50.1953C216.418 49.7266 216.332 49.3086 216.16 48.9414C215.996 48.5664 215.746 48.2695 215.41 48.0508C215.074 47.832 214.645 47.7227 214.121 47.7227C213.676 47.7227 213.293 47.8203 212.973 48.0156C212.652 48.2109 212.391 48.4844 212.188 48.8359C211.992 49.1875 211.844 49.6016 211.742 50.0781C211.648 50.5469 211.602 51.0625 211.602 51.625V52.0938C211.602 52.6016 211.672 53.0703 211.812 53.5C211.961 53.9297 212.168 54.3008 212.434 54.6133C212.707 54.9258 213.035 55.168 213.418 55.3398C213.809 55.5117 214.25 55.5977 214.742 55.5977C215.352 55.5977 215.918 55.4805 216.441 55.2461C216.973 55.0039 217.43 54.6406 217.812 54.1562L219.453 55.9375C219.188 56.3203 218.824 56.6875 218.363 57.0391C217.91 57.3906 217.363 57.6797 216.723 57.9062C216.082 58.125 215.352 58.2344 214.531 58.2344ZM228.512 54.4961C228.512 54.2539 228.441 54.0352 228.301 53.8398C228.16 53.6445 227.898 53.4648 227.516 53.3008C227.141 53.1289 226.598 52.9727 225.887 52.832C225.246 52.6914 224.648 52.5156 224.094 52.3047C223.547 52.0859 223.07 51.8242 222.664 51.5195C222.266 51.2148 221.953 50.8555 221.727 50.4414C221.5 50.0195 221.387 49.5391 221.387 49C221.387 48.4688 221.5 47.9688 221.727 47.5C221.961 47.0312 222.293 46.6172 222.723 46.2578C223.16 45.8906 223.691 45.6055 224.316 45.4023C224.949 45.1914 225.66 45.0859 226.449 45.0859C227.551 45.0859 228.496 45.2617 229.285 45.6133C230.082 45.9648 230.691 46.4492 231.113 47.0664C231.543 47.6758 231.758 48.3711 231.758 49.1523H228.383C228.383 48.8242 228.312 48.5312 228.172 48.2734C228.039 48.0078 227.828 47.8008 227.539 47.6523C227.258 47.4961 226.891 47.418 226.438 47.418C226.062 47.418 225.738 47.4844 225.465 47.6172C225.191 47.7422 224.98 47.9141 224.832 48.1328C224.691 48.3438 224.621 48.5781 224.621 48.8359C224.621 49.0312 224.66 49.207 224.738 49.3633C224.824 49.5117 224.961 49.6484 225.148 49.7734C225.336 49.8984 225.578 50.0156 225.875 50.125C226.18 50.2266 226.555 50.3203 227 50.4062C227.914 50.5938 228.73 50.8398 229.449 51.1445C230.168 51.4414 230.738 51.8477 231.16 52.3633C231.582 52.8711 231.793 53.5391 231.793 54.3672C231.793 54.9297 231.668 55.4453 231.418 55.9141C231.168 56.3828 230.809 56.793 230.34 57.1445C229.871 57.4883 229.309 57.7578 228.652 57.9531C228.004 58.1406 227.273 58.2344 226.461 58.2344C225.281 58.2344 224.281 58.0234 223.461 57.6016C222.648 57.1797 222.031 56.6445 221.609 55.9961C221.195 55.3398 220.988 54.668 220.988 53.9805H224.188C224.203 54.4414 224.32 54.8125 224.539 55.0938C224.766 55.375 225.051 55.5781 225.395 55.7031C225.746 55.8281 226.125 55.8906 226.531 55.8906C226.969 55.8906 227.332 55.832 227.621 55.7148C227.91 55.5898 228.129 55.4258 228.277 55.2227C228.434 55.0117 228.512 54.7695 228.512 54.4961Z" fill="#888888"/>
<path d="M107.205 107.146H99.251V101.191H107.205C108.289 101.191 109.168 101.008 109.842 100.642C110.516 100.275 111.006 99.77 111.314 99.1255C111.636 98.4663 111.797 97.7266 111.797 96.9062C111.797 96.0273 111.636 95.2144 111.314 94.4673C111.006 93.7202 110.516 93.1196 109.842 92.6655C109.168 92.1968 108.289 91.9624 107.205 91.9624H102.151V118H94.439V86.0078H107.205C109.769 86.0078 111.973 86.4766 113.819 87.4141C115.679 88.3516 117.107 89.6406 118.104 91.2812C119.1 92.9072 119.598 94.7676 119.598 96.8623C119.598 98.9277 119.1 100.729 118.104 102.268C117.107 103.806 115.679 105.007 113.819 105.871C111.973 106.721 109.769 107.146 107.205 107.146ZM130.87 100.114V118H123.465V94.2256H130.386L130.87 100.114ZM137.901 94.0498L137.769 100.927C137.476 100.898 137.081 100.861 136.583 100.817C136.084 100.773 135.667 100.751 135.33 100.751C134.466 100.751 133.719 100.854 133.089 101.059C132.474 101.25 131.961 101.542 131.551 101.938C131.155 102.319 130.862 102.802 130.672 103.388C130.496 103.974 130.416 104.655 130.43 105.432L129.09 104.553C129.09 102.956 129.244 101.506 129.551 100.202C129.874 98.8838 130.328 97.7485 130.914 96.7964C131.5 95.8296 132.21 95.0898 133.045 94.5771C133.88 94.0498 134.817 93.7861 135.857 93.7861C136.224 93.7861 136.583 93.8081 136.934 93.8521C137.3 93.896 137.623 93.9619 137.901 94.0498ZM138.736 106.354V105.893C138.736 104.15 138.985 102.546 139.483 101.081C139.981 99.6016 140.713 98.3198 141.68 97.2358C142.647 96.1519 143.841 95.3096 145.262 94.709C146.683 94.0938 148.323 93.7861 150.184 93.7861C152.059 93.7861 153.707 94.0938 155.127 94.709C156.563 95.3096 157.764 96.1519 158.731 97.2358C159.698 98.3198 160.43 99.6016 160.928 101.081C161.426 102.546 161.675 104.15 161.675 105.893V106.354C161.675 108.083 161.426 109.687 160.928 111.167C160.43 112.631 159.698 113.913 158.731 115.012C157.764 116.096 156.57 116.938 155.149 117.539C153.729 118.139 152.088 118.439 150.228 118.439C148.367 118.439 146.719 118.139 145.284 117.539C143.848 116.938 142.647 116.096 141.68 115.012C140.713 113.913 139.981 112.631 139.483 111.167C138.985 109.687 138.736 108.083 138.736 106.354ZM146.141 105.893V106.354C146.141 107.248 146.207 108.083 146.338 108.859C146.47 109.636 146.69 110.317 146.998 110.903C147.305 111.474 147.723 111.921 148.25 112.243C148.777 112.565 149.437 112.727 150.228 112.727C151.004 112.727 151.648 112.565 152.161 112.243C152.688 111.921 153.106 111.474 153.414 110.903C153.721 110.317 153.941 109.636 154.073 108.859C154.205 108.083 154.271 107.248 154.271 106.354V105.893C154.271 105.029 154.205 104.216 154.073 103.454C153.941 102.678 153.721 101.997 153.414 101.411C153.106 100.81 152.688 100.341 152.161 100.004C151.634 99.6675 150.975 99.499 150.184 99.499C149.407 99.499 148.755 99.6675 148.228 100.004C147.715 100.341 147.305 100.81 146.998 101.411C146.69 101.997 146.47 102.678 146.338 103.454C146.207 104.216 146.141 105.029 146.141 105.893ZM165.521 94.2256H172.947V118.769C172.947 120.673 172.581 122.277 171.849 123.581C171.116 124.899 170.069 125.896 168.707 126.569C167.344 127.258 165.718 127.602 163.829 127.602C163.199 127.602 162.62 127.573 162.093 127.514C161.551 127.47 160.958 127.375 160.313 127.229V121.625C160.694 121.684 161.045 121.728 161.368 121.757C161.69 121.801 162.042 121.823 162.422 121.823C163.096 121.823 163.66 121.713 164.114 121.494C164.568 121.274 164.913 120.937 165.147 120.483C165.396 120.029 165.521 119.458 165.521 118.769V94.2256ZM164.971 88.0952C164.971 87.0405 165.352 86.1763 166.114 85.5024C166.875 84.8286 167.864 84.4917 169.08 84.4917C170.296 84.4917 171.285 84.8286 172.046 85.5024C172.808 86.1763 173.189 87.0405 173.189 88.0952C173.189 89.1499 172.808 90.0142 172.046 90.688C171.285 91.3618 170.296 91.6987 169.08 91.6987C167.864 91.6987 166.875 91.3618 166.114 90.688C165.352 90.0142 164.971 89.1499 164.971 88.0952ZM188.658 118.439C186.724 118.439 184.996 118.139 183.472 117.539C181.949 116.923 180.66 116.081 179.605 115.012C178.565 113.942 177.767 112.712 177.21 111.32C176.668 109.929 176.397 108.457 176.397 106.904V106.069C176.397 104.326 176.639 102.714 177.122 101.235C177.605 99.7407 178.323 98.437 179.275 97.3237C180.228 96.2104 181.421 95.3462 182.857 94.731C184.292 94.1011 185.962 93.7861 187.867 93.7861C189.551 93.7861 191.06 94.0571 192.393 94.5991C193.726 95.1411 194.854 95.9175 195.777 96.9282C196.714 97.939 197.425 99.1621 197.908 100.598C198.406 102.033 198.655 103.645 198.655 105.432V108.442H179.231V103.806H191.426V103.234C191.441 102.443 191.302 101.77 191.009 101.213C190.73 100.656 190.32 100.231 189.778 99.9385C189.236 99.6455 188.577 99.499 187.801 99.499C186.995 99.499 186.329 99.6748 185.801 100.026C185.289 100.378 184.886 100.861 184.593 101.477C184.314 102.077 184.117 102.773 184 103.564C183.882 104.355 183.824 105.19 183.824 106.069V106.904C183.824 107.783 183.941 108.581 184.175 109.299C184.424 110.017 184.776 110.632 185.23 111.145C185.699 111.643 186.255 112.031 186.9 112.309C187.559 112.587 188.306 112.727 189.141 112.727C190.152 112.727 191.148 112.536 192.129 112.155C193.111 111.774 193.953 111.145 194.656 110.266L198.018 114.265C197.535 114.953 196.846 115.62 195.953 116.264C195.074 116.909 194.019 117.436 192.789 117.846C191.558 118.242 190.181 118.439 188.658 118.439ZM211.707 112.727C212.396 112.727 212.981 112.602 213.465 112.353C213.963 112.089 214.336 111.723 214.585 111.254C214.849 110.771 214.974 110.192 214.959 109.519H221.924C221.939 111.306 221.5 112.873 220.606 114.221C219.727 115.554 218.526 116.594 217.002 117.341C215.494 118.073 213.787 118.439 211.883 118.439C210.022 118.439 208.396 118.139 207.005 117.539C205.613 116.923 204.449 116.074 203.511 114.99C202.588 113.891 201.893 112.609 201.424 111.145C200.97 109.68 200.743 108.09 200.743 106.376V105.871C200.743 104.157 200.97 102.568 201.424 101.103C201.893 99.6235 202.588 98.3418 203.511 97.2578C204.449 96.1592 205.606 95.3096 206.983 94.709C208.375 94.0938 209.993 93.7861 211.839 93.7861C213.816 93.7861 215.56 94.1597 217.068 94.9067C218.592 95.6538 219.786 96.7378 220.65 98.1587C221.514 99.5796 221.939 101.301 221.924 103.322H214.959C214.974 102.604 214.864 101.96 214.629 101.389C214.395 100.817 214.029 100.363 213.531 100.026C213.047 99.6748 212.425 99.499 211.663 99.499C210.901 99.499 210.286 99.6675 209.817 100.004C209.349 100.341 208.99 100.81 208.741 101.411C208.506 101.997 208.345 102.67 208.257 103.432C208.184 104.194 208.147 105.007 208.147 105.871V106.376C208.147 107.255 208.184 108.083 208.257 108.859C208.345 109.621 208.514 110.295 208.763 110.881C209.012 111.452 209.371 111.906 209.839 112.243C210.308 112.565 210.931 112.727 211.707 112.727ZM237.613 94.2256V99.3672H223.287V94.2256H237.613ZM226.297 88.3149H233.702V110.244C233.702 110.874 233.775 111.364 233.921 111.716C234.068 112.053 234.317 112.294 234.668 112.441C235.035 112.573 235.518 112.639 236.119 112.639C236.543 112.639 236.895 112.631 237.173 112.617C237.452 112.587 237.715 112.551 237.964 112.507V117.802C237.334 118.007 236.675 118.161 235.987 118.264C235.298 118.381 234.566 118.439 233.79 118.439C232.208 118.439 230.853 118.19 229.725 117.692C228.611 117.194 227.762 116.411 227.176 115.341C226.59 114.272 226.297 112.88 226.297 111.167V88.3149ZM264.881 107.146H256.927V101.191H264.881C265.965 101.191 266.844 101.008 267.518 100.642C268.191 100.275 268.682 99.77 268.99 99.1255C269.312 98.4663 269.473 97.7266 269.473 96.9062C269.473 96.0273 269.312 95.2144 268.99 94.4673C268.682 93.7202 268.191 93.1196 267.518 92.6655C266.844 92.1968 265.965 91.9624 264.881 91.9624H259.827V118H252.115V86.0078H264.881C267.444 86.0078 269.649 86.4766 271.495 87.4141C273.355 88.3516 274.783 89.6406 275.779 91.2812C276.775 92.9072 277.273 94.7676 277.273 96.8623C277.273 98.9277 276.775 100.729 275.779 102.268C274.783 103.806 273.355 105.007 271.495 105.871C269.649 106.721 267.444 107.146 264.881 107.146ZM288.326 84.25V118H280.921V84.25H288.326ZM287.447 105.3L285.711 105.344C285.711 103.674 285.916 102.136 286.326 100.729C286.736 99.3232 287.322 98.1001 288.084 97.0601C288.846 96.02 289.761 95.2144 290.831 94.6431C291.9 94.0718 293.086 93.7861 294.39 93.7861C295.562 93.7861 296.631 93.9546 297.598 94.2915C298.58 94.6284 299.422 95.1704 300.125 95.9175C300.843 96.6646 301.392 97.6387 301.773 98.8398C302.168 100.041 302.366 101.506 302.366 103.234V118H294.917V103.19C294.917 102.224 294.778 101.477 294.5 100.949C294.236 100.407 293.855 100.034 293.357 99.8286C292.859 99.6089 292.251 99.499 291.534 99.499C290.669 99.499 289.966 99.6455 289.424 99.9385C288.882 100.231 288.465 100.642 288.172 101.169C287.894 101.682 287.703 102.29 287.601 102.993C287.498 103.696 287.447 104.465 287.447 105.3ZM314.297 94.2256V118H306.871V94.2256H314.297ZM306.431 88.0952C306.431 87.0405 306.812 86.1763 307.574 85.5024C308.335 84.8286 309.324 84.4917 310.54 84.4917C311.756 84.4917 312.745 84.8286 313.506 85.5024C314.268 86.1763 314.649 87.0405 314.649 88.0952C314.649 89.1499 314.268 90.0142 313.506 90.688C312.745 91.3618 311.756 91.6987 310.54 91.6987C309.324 91.6987 308.335 91.3618 307.574 90.688C306.812 90.0142 306.431 89.1499 306.431 88.0952ZM326.69 84.25V118H319.263V84.25H326.69ZM330.337 106.354V105.893C330.337 104.15 330.586 102.546 331.084 101.081C331.583 99.6016 332.315 98.3198 333.282 97.2358C334.249 96.1519 335.442 95.3096 336.863 94.709C338.284 94.0938 339.925 93.7861 341.785 93.7861C343.66 93.7861 345.308 94.0938 346.729 94.709C348.165 95.3096 349.366 96.1519 350.333 97.2358C351.299 98.3198 352.032 99.6016 352.53 101.081C353.028 102.546 353.277 104.15 353.277 105.893V106.354C353.277 108.083 353.028 109.687 352.53 111.167C352.032 112.631 351.299 113.913 350.333 115.012C349.366 116.096 348.172 116.938 346.751 117.539C345.33 118.139 343.689 118.439 341.829 118.439C339.969 118.439 338.321 118.139 336.885 117.539C335.45 116.938 334.249 116.096 333.282 115.012C332.315 113.913 331.583 112.631 331.084 111.167C330.586 109.687 330.337 108.083 330.337 106.354ZM337.742 105.893V106.354C337.742 107.248 337.808 108.083 337.94 108.859C338.072 109.636 338.292 110.317 338.599 110.903C338.907 111.474 339.324 111.921 339.852 112.243C340.379 112.565 341.038 112.727 341.829 112.727C342.605 112.727 343.25 112.565 343.763 112.243C344.29 111.921 344.708 111.474 345.015 110.903C345.323 110.317 345.542 109.636 345.674 108.859C345.806 108.083 345.872 107.248 345.872 106.354V105.893C345.872 105.029 345.806 104.216 345.674 103.454C345.542 102.678 345.323 101.997 345.015 101.411C344.708 100.81 344.29 100.341 343.763 100.004C343.235 99.6675 342.576 99.499 341.785 99.499C341.009 99.499 340.357 99.6675 339.83 100.004C339.317 100.341 338.907 100.81 338.599 101.411C338.292 101.997 338.072 102.678 337.94 103.454C337.808 104.216 337.742 105.029 337.742 105.893ZM369.031 111.32C369.031 110.91 368.892 110.559 368.614 110.266C368.35 109.958 367.881 109.68 367.208 109.431C366.534 109.167 365.589 108.903 364.373 108.64C363.216 108.391 362.125 108.061 361.099 107.651C360.088 107.241 359.202 106.743 358.44 106.157C357.679 105.571 357.078 104.875 356.639 104.069C356.214 103.264 356.001 102.341 356.001 101.301C356.001 100.29 356.214 99.3379 356.639 98.4443C357.078 97.5361 357.715 96.7378 358.55 96.0493C359.4 95.3462 360.433 94.7969 361.648 94.4014C362.864 93.9912 364.249 93.7861 365.801 93.7861C367.94 93.7861 369.786 94.1157 371.338 94.7749C372.891 95.4194 374.085 96.3276 374.92 97.4995C375.77 98.6567 376.194 99.9971 376.194 101.521H368.79C368.79 100.92 368.687 100.407 368.482 99.9824C368.292 99.5576 367.977 99.2354 367.537 99.0156C367.098 98.7812 366.512 98.6641 365.779 98.6641C365.267 98.6641 364.798 98.7593 364.373 98.9497C363.963 99.1401 363.633 99.4038 363.384 99.7407C363.135 100.078 363.011 100.473 363.011 100.927C363.011 101.25 363.084 101.542 363.23 101.806C363.392 102.055 363.633 102.29 363.956 102.509C364.278 102.714 364.688 102.905 365.186 103.081C365.684 103.242 366.285 103.388 366.988 103.52C368.584 103.813 370.079 104.23 371.47 104.772C372.862 105.314 373.99 106.083 374.854 107.08C375.733 108.076 376.172 109.416 376.172 111.101C376.172 112.155 375.931 113.129 375.447 114.023C374.964 114.902 374.268 115.678 373.36 116.352C372.452 117.011 371.36 117.524 370.086 117.89C368.812 118.256 367.376 118.439 365.779 118.439C363.509 118.439 361.59 118.037 360.022 117.231C358.455 116.411 357.269 115.385 356.463 114.155C355.672 112.91 355.276 111.65 355.276 110.375H362.176C362.205 111.108 362.381 111.708 362.703 112.177C363.04 112.646 363.487 112.99 364.043 113.21C364.6 113.43 365.245 113.54 365.977 113.54C366.651 113.54 367.208 113.444 367.647 113.254C368.101 113.063 368.445 112.807 368.68 112.485C368.914 112.148 369.031 111.76 369.031 111.32ZM378.721 106.354V105.893C378.721 104.15 378.97 102.546 379.468 101.081C379.966 99.6016 380.699 98.3198 381.666 97.2358C382.632 96.1519 383.826 95.3096 385.247 94.709C386.668 94.0938 388.309 93.7861 390.169 93.7861C392.044 93.7861 393.692 94.0938 395.113 94.709C396.548 95.3096 397.75 96.1519 398.716 97.2358C399.683 98.3198 400.416 99.6016 400.914 101.081C401.412 102.546 401.661 104.15 401.661 105.893V106.354C401.661 108.083 401.412 109.687 400.914 111.167C400.416 112.631 399.683 113.913 398.716 115.012C397.75 116.096 396.556 116.938 395.135 117.539C393.714 118.139 392.073 118.439 390.213 118.439C388.353 118.439 386.705 118.139 385.269 117.539C383.833 116.938 382.632 116.096 381.666 115.012C380.699 113.913 379.966 112.631 379.468 111.167C378.97 109.687 378.721 108.083 378.721 106.354ZM386.126 105.893V106.354C386.126 107.248 386.192 108.083 386.324 108.859C386.456 109.636 386.675 110.317 386.983 110.903C387.291 111.474 387.708 111.921 388.235 112.243C388.763 112.565 389.422 112.727 390.213 112.727C390.989 112.727 391.634 112.565 392.146 112.243C392.674 111.921 393.091 111.474 393.399 110.903C393.707 110.317 393.926 109.636 394.058 108.859C394.19 108.083 394.256 107.248 394.256 106.354V105.893C394.256 105.029 394.19 104.216 394.058 103.454C393.926 102.678 393.707 101.997 393.399 101.411C393.091 100.81 392.674 100.341 392.146 100.004C391.619 99.6675 390.96 99.499 390.169 99.499C389.393 99.499 388.741 99.6675 388.213 100.004C387.701 100.341 387.291 100.81 386.983 101.411C386.675 101.997 386.456 102.678 386.324 103.454C386.192 104.216 386.126 105.029 386.126 105.893ZM412.427 98.7959V127.141H405.022V94.2256H411.922L412.427 98.7959ZM427.017 105.827V106.289C427.017 108.017 426.819 109.621 426.424 111.101C426.028 112.58 425.442 113.869 424.666 114.968C423.89 116.066 422.923 116.923 421.766 117.539C420.623 118.139 419.297 118.439 417.789 118.439C416.368 118.439 415.145 118.125 414.119 117.495C413.094 116.865 412.237 115.993 411.548 114.88C410.86 113.767 410.303 112.492 409.878 111.057C409.454 109.621 409.117 108.105 408.868 106.508V105.915C409.117 104.201 409.454 102.612 409.878 101.147C410.303 99.6675 410.86 98.3784 411.548 97.2798C412.237 96.1812 413.086 95.3242 414.097 94.709C415.123 94.0938 416.346 93.7861 417.767 93.7861C419.275 93.7861 420.601 94.0718 421.744 94.6431C422.901 95.2144 423.868 96.0347 424.644 97.104C425.435 98.1587 426.028 99.4258 426.424 100.905C426.819 102.385 427.017 104.025 427.017 105.827ZM419.612 106.289V105.827C419.612 104.904 419.546 104.062 419.415 103.3C419.283 102.524 419.07 101.85 418.777 101.279C418.499 100.708 418.125 100.268 417.657 99.9604C417.188 99.6528 416.609 99.499 415.921 99.499C415.13 99.499 414.463 99.6235 413.921 99.8726C413.394 100.107 412.969 100.473 412.647 100.971C412.339 101.455 412.12 102.062 411.988 102.795C411.871 103.513 411.819 104.355 411.834 105.322V107.124C411.805 108.237 411.915 109.218 412.164 110.068C412.413 110.903 412.845 111.555 413.46 112.023C414.075 112.492 414.91 112.727 415.965 112.727C416.668 112.727 417.254 112.565 417.723 112.243C418.191 111.906 418.565 111.445 418.843 110.859C419.122 110.258 419.319 109.57 419.437 108.793C419.554 108.017 419.612 107.182 419.612 106.289ZM437.564 84.25V118H430.159V84.25H437.564ZM436.685 105.3L434.949 105.344C434.949 103.674 435.154 102.136 435.564 100.729C435.975 99.3232 436.561 98.1001 437.322 97.0601C438.084 96.02 439 95.2144 440.069 94.6431C441.138 94.0718 442.325 93.7861 443.628 93.7861C444.8 93.7861 445.87 93.9546 446.836 94.2915C447.818 94.6284 448.66 95.1704 449.363 95.9175C450.081 96.6646 450.63 97.6387 451.011 98.8398C451.407 100.041 451.604 101.506 451.604 103.234V118H444.156V103.19C444.156 102.224 444.017 101.477 443.738 100.949C443.475 100.407 443.094 100.034 442.596 99.8286C442.098 99.6089 441.49 99.499 440.772 99.499C439.908 99.499 439.205 99.6455 438.663 99.9385C438.121 100.231 437.703 100.642 437.41 101.169C437.132 101.682 436.941 102.29 436.839 102.993C436.736 103.696 436.685 104.465 436.685 105.3ZM463.008 115.209L469.161 94.2256H477.115L467.557 121.538C467.352 122.138 467.081 122.783 466.744 123.471C466.407 124.174 465.945 124.841 465.359 125.471C464.773 126.101 464.019 126.613 463.096 127.009C462.188 127.404 461.06 127.602 459.712 127.602C458.995 127.602 458.467 127.565 458.13 127.492C457.808 127.434 457.31 127.324 456.636 127.163V121.867C456.827 121.867 456.988 121.867 457.12 121.867C457.266 121.867 457.427 121.867 457.603 121.867C458.394 121.867 459.024 121.787 459.493 121.625C459.976 121.464 460.342 121.23 460.591 120.922C460.855 120.615 461.06 120.241 461.207 119.802L463.008 115.209ZM461.448 94.2256L466.128 110.859L466.941 118.703H461.976L453.516 94.2256H461.448Z" fill="#424241"/>
<path d="M1363 15C1363 6.71573 1356.28 0 1348 0H1134V167H1348C1356.28 167 1363 160.284 1363 152V15Z" fill="#5A7FCC"/>
<path d="M1234.26 106.286H1262.74V111.857H1234.26V106.286ZM1239.96 117.429H1257.04V123H1239.96V117.429ZM1248.5 45C1240.95 45 1233.71 47.9349 1228.37 53.1592C1223.03 58.3834 1220.03 65.469 1220.03 72.8571C1219.84 76.9057 1220.63 80.9412 1222.34 84.6315C1224.05 88.3219 1226.64 91.5616 1229.88 94.0843C1232.73 96.675 1234.26 98.1514 1234.26 100.714H1239.96C1239.96 95.5886 1236.8 92.7193 1233.72 89.9614C1231.06 87.9676 1228.94 85.3658 1227.55 82.3838C1226.15 79.4019 1225.53 76.1308 1225.72 72.8571C1225.72 66.9466 1228.12 61.2781 1232.39 57.0988C1236.67 52.9194 1242.46 50.5714 1248.5 50.5714C1254.54 50.5714 1260.33 52.9194 1264.61 57.0988C1268.88 61.2781 1271.28 66.9466 1271.28 72.8571C1271.47 76.1333 1270.84 79.4059 1269.44 82.388C1268.04 85.3701 1265.92 87.9706 1263.25 89.9614C1260.2 92.7471 1257.04 95.5329 1257.04 100.714H1262.74C1262.74 98.1514 1264.25 96.675 1267.12 94.0564C1270.36 91.5381 1272.94 88.3031 1274.66 84.6176C1276.37 80.9321 1277.16 76.9014 1276.97 72.8571C1276.97 69.1989 1276.24 65.5765 1274.81 62.1967C1273.37 58.8169 1271.28 55.7459 1268.63 53.1592C1265.99 50.5724 1262.85 48.5205 1259.4 47.1205C1255.94 45.7205 1252.24 45 1248.5 45Z" fill="white"/>
</svg>
